<svg id="Layer_1" data-name="Layer 1" xmlns="http://www.w3.org/2000/svg" viewBox="0 0 108 108.31"><defs><style>.cls-1{fill:#db0032;}.cls-2{fill:#c1002f;}.cls-3{fill:#fff;}</style></defs><title>angular</title><polygon class="cls-1" points="53.61 19.2 53.61 19.2 53.61 19.2 20.53 30.99 25.58 74.72 53.61 90.25 53.61 90.25 53.61 90.25 81.64 74.72 86.69 30.99 53.61 19.2"/><polygon class="cls-2" points="53.61 19.2 53.61 27.08 53.61 27.05 53.61 63.03 53.61 63.03 53.61 90.25 53.61 90.25 81.64 74.72 86.69 30.99 53.61 19.2"/><path class="cls-3" d="M53.61,27,32.93,73.41h7.71L44.8,63H62.35l4.16,10.37h7.71L53.61,27Zm6,29.59H47.57l6-14.53Z"/></svg>