<svg xmlns="http://www.w3.org/2000/svg" viewBox="0 0 256 256"><defs><style>.cls-1{fill:#016fde;}.cls-2{fill:#fff;}</style></defs><title>Asset 1</title><g id="Layer_2" data-name="Layer 2"><g id="Layer_1-2" data-name="Layer 1"><path class="cls-1" d="M128.32,14c63.73,0,114,49.64,114.21,114,.24,63.5-49.21,113.48-114.1,114.84C64.68,241.75,14,193,14,128.3,13.91,64.17,64.06,13.94,128.32,14ZM70.84,194.71c3,7.89,4.24,8.75,12.91,8.76q21.25,0,42.5,0v0c15,0,30-.09,45,.06,5,.05,8.56-1.65,10.91-6.25,3-5.77,6.13-11.46,9.52-17,2.44-4,2.35-7.56.28-11.71Q175.27,135.32,159,101.84a23.78,23.78,0,0,1-2.2-9.52c-.28-10.65-.11-21.33-.14-32,0-8-2.45-10.4-10.51-10.27-12.49.2-25,.51-37.47.82-6.2.15-8.79,2.72-8.83,8.9-.07,11.33.12,22.67-.12,34a22.87,22.87,0,0,1-2.09,9q-15.77,32.88-31.94,65.57c-1.93,3.89-2.3,7.42-.6,11.42C67.19,184.7,68.95,189.73,70.84,194.71Z" transform="translate(-0.25 -0.25)"/><path class="cls-2" d="M146.16,50.06c8.06-.13,10.49,2.31,10.51,10.27,0,10.66-.14,21.34.14,32a23.78,23.78,0,0,0,2.2,9.52q16.24,33.5,32.94,66.77c2.07,4.15,2.16,7.72-.28,11.71-3.39,5.54-6.56,11.23-9.52,17-2.35,4.6-5.88,6.3-10.91,6.25-15-.15-30-.06-45-.06v0q-21.26,0-42.5,0c-8.67,0-9.92-.87-12.91-8.76-1.89-5-3.65-10-5.73-14.91-1.7-4-1.33-7.53.6-11.42q16.17-32.68,31.94-65.57a22.87,22.87,0,0,0,2.09-9c.24-11.32.05-22.66.12-34,0-6.18,2.63-8.75,8.83-8.9C121.18,50.57,133.67,50.26,146.16,50.06ZM81.71,184.24c1.65,3.61,3.48,4.95,7.42,4.88,12.66-.24,25.32-.09,38-.09v.05c10.5,0,21.05-.67,31.47.2,9.06.76,14.69-1.9,18-10.54,1.31-3.38,1.91-5.79.2-9.18q-16-31.65-31.42-63.55A27.2,27.2,0,0,1,143,95.55c-.35-8.65-.33-17.33,0-26,.12-4.09-1.39-5.2-5.23-5-6.49.28-13,.28-19.49.1-3.57-.1-4.61,1.32-4.55,4.71.16,9.5.19,19,0,28.49a20.25,20.25,0,0,1-1.88,8.07C102.08,126,92.56,146.19,82.33,166,79,172.44,78.8,177.85,81.71,184.24Z" transform="translate(-0.25 -0.25)"/><path class="cls-2" d="M149.55,127.94c3.47,0,5.48,1.22,7,4.34,6.12,12.73,12.55,25.32,18.55,38.11.87,1.87.62,4.73-.1,6.8-2.81,8.13-8.06,11.64-17.31,10.68-10.21-1.05-20.61-.24-30.92-.24-12.15,0-24.3-.12-36.45.08-3.68.06-5.54-1.14-7.11-4.58-2.61-5.71-2.77-10.56.44-16.34,6.14-11,11.47-22.53,16.88-34,1.64-3.47,3.68-5,7.61-4.91C121.93,128.12,135.74,128.09,149.55,127.94Z" transform="translate(-0.25 -0.25)"/><path class="cls-2" d="M14,128.3C14,193,64.68,241.75,128.43,242.79c64.89-1.36,114.34-51.34,114.1-114.84C242.3,63.61,192,14,128.32,14,64.06,13.94,13.91,64.17,14,128.3ZM256.25.25v256H.25V.25Z" transform="translate(-0.25 -0.25)"/><path class="cls-1" d="M100.51,132.84c-5.41,11.42-10.74,22.92-16.88,34-3.21,5.78-3,10.63-.44,16.34,1.57,3.44,3.43,4.64,7.11,4.58,12.15-.2,24.3-.08,36.45-.08,10.31,0,20.71-.81,30.92.24,9.25,1,14.5-2.55,17.31-10.68.72-2.07,1-4.93.1-6.8-6-12.79-12.43-25.38-18.55-38.11-1.5-3.12-3.51-4.37-7-4.34-13.81.15-27.62.18-41.43,0C104.19,127.87,102.15,129.37,100.51,132.84Zm-18.8,51.4c-2.91-6.39-2.71-11.8.62-18.24,10.23-19.81,19.75-40,29.39-60.1a20.25,20.25,0,0,0,1.88-8.07c.23-9.49.2-19,0-28.49-.06-3.39,1-4.81,4.55-4.71,6.49.18,13,.18,19.49-.1,3.84-.16,5.35,1,5.23,5-.28,8.65-.3,17.33,0,26A27.2,27.2,0,0,0,145.4,106q15.44,31.9,31.42,63.55c1.71,3.39,1.11,5.8-.2,9.18-3.35,8.64-9,11.3-18,10.54-10.42-.87-21-.2-31.47-.2V189c-12.66,0-25.32-.15-38,.09C85.19,189.19,83.36,187.85,81.71,184.24Z" transform="translate(-0.25 -0.25)"/></g></g></svg>