<?xml version="1.0" encoding="UTF-8" standalone="no"?>
<!-- Created with Inkscape (http://www.inkscape.org/) -->

<svg
   xmlns:dc="http://purl.org/dc/elements/1.1/"
   xmlns:cc="http://creativecommons.org/ns#"
   xmlns:rdf="http://www.w3.org/1999/02/22-rdf-syntax-ns#"
   xmlns:svg="http://www.w3.org/2000/svg"
   xmlns="http://www.w3.org/2000/svg"
   xmlns:sodipodi="http://sodipodi.sourceforge.net/DTD/sodipodi-0.dtd"
   xmlns:inkscape="http://www.inkscape.org/namespaces/inkscape"
   width="73.389999"
   height="76.780281"
   viewBox="0 0 19.417771 20.314783"
   version="1.1"
   id="svg8"
   inkscape:version="0.92.1 r"
   sodipodi:docname="brave.svg">
  <defs
     id="defs2">
    <style
       id="style38">.cls-1{fill:url(#linear-gradient);}.cls-2{fill:#fff;}</style>
    <linearGradient
       gradientUnits="userSpaceOnUse"
       y2="56.790001"
       x2="24.440001"
       x1="24.440001"
       id="linear-gradient">
      <stop
         id="stop40"
         stop-color="#f9ba16"
         offset="0" />
      <stop
         id="stop42"
         stop-color="#faa612"
         offset=".04" />
      <stop
         id="stop44"
         stop-color="#fc8b0c"
         offset=".11" />
      <stop
         id="stop46"
         stop-color="#fd7508"
         offset=".19" />
      <stop
         id="stop48"
         stop-color="#fe6404"
         offset=".28" />
      <stop
         id="stop50"
         stop-color="#ff5902"
         offset=".4" />
      <stop
         id="stop52"
         stop-color="#ff5200"
         offset=".56" />
      <stop
         id="stop54"
         stop-color="#ff5000"
         offset="1" />
    </linearGradient>
  </defs>
  <sodipodi:namedview
     id="base"
     pagecolor="#ffffff"
     bordercolor="#666666"
     borderopacity="1.0"
     inkscape:pageopacity="0.0"
     inkscape:pageshadow="2"
     inkscape:zoom="5.6"
     inkscape:cx="68.175065"
     inkscape:cy="34.396008"
     inkscape:document-units="mm"
     inkscape:current-layer="layer1"
     showgrid="false"
     units="px"
     fit-margin-top="10"
     fit-margin-left="15"
     fit-margin-right="10"
     fit-margin-bottom="10"
     inkscape:window-width="1022"
     inkscape:window-height="810"
     inkscape:window-x="490"
     inkscape:window-y="109"
     inkscape:window-maximized="0" />
  <metadata
     id="metadata5">
    <rdf:RDF>
      <cc:Work
         rdf:about="">
        <dc:format>image/svg+xml</dc:format>
        <dc:type
           rdf:resource="http://purl.org/dc/dcmitype/StillImage" />
        <dc:title></dc:title>
      </cc:Work>
    </rdf:RDF>
  </metadata>
  <g
     inkscape:label="Layer 1"
     inkscape:groupmode="layer"
     id="layer1"
     transform="translate(-82.611799,-130.36047)">
    <g
       id="g86"
       transform="matrix(0.26458333,0,0,0.26458333,86.514403,133.0063)">
      <path
         id="path61"
         d="M 48.64,18.37 44.51,11.23 45,8.92 41.24,5.1 38.12,5.53 33.07,0 H 24.43 L 15.79,0.07 10.75,5.59 7.63,5.14 3.89,9 l 0.48,2.3 -4.12,7.11 1.13,4.28 5.13,19.53 a 10,10 0 0 0 3.85,5.57 c 0,0 6.24,4.4 12.39,8.39 a 2.75,2.75 0 0 0 3.43,0 c 6.91,-4.53 12.38,-8.41 12.38,-8.41 A 10,10 0 0 0 42.4,42.2 l 5.11,-19.54 z"
         class="cls-1"
         inkscape:connector-curvature="0"
         style="fill:url(#linear-gradient)" />
      <path
         id="path63"
         d="m 25.77,33.82 a 7.32,7.32 0 0 0 -1,-0.37 h -0.62 a 7.32,7.32 0 0 0 -1,0.37 l -1.53,0.64 c -0.49,0.2 -1.26,0.57 -1.73,0.81 l -2.82,1.47 a 0.54,0.54 0 0 0 -0.07,1 l 2.44,1.73 c 0.43,0.3 1.11,0.83 1.5,1.18 l 0.69,0.59 1.44,1.26 0.65,0.58 a 1.12,1.12 0 0 0 1.44,0 l 0.68,-0.6 1.44,-1.26 0.69,-0.6 c 0.4,-0.35 1.07,-0.88 1.5,-1.18 l 2.45,-1.75 a 0.53,0.53 0 0 0 -0.07,-1 L 29,35.26 c -0.47,-0.24 -1.25,-0.6 -1.74,-0.8 z"
         class="cls-2"
         inkscape:connector-curvature="0"
         style="fill:#ffffff" />
      <path
         id="path65"
         d="m 43.09,19.47 0.08,-0.25 a 6.69,6.69 0 0 0 -0.07,-1 8.57,8.57 0 0 0 -0.91,-1.71 l -1.58,-2.33 c -0.29,-0.44 -0.8,-1.13 -1.13,-1.54 L 37.36,10 A 7.45,7.45 0 0 0 36.73,9.26 L 35.79,9.43 32.48,10 31.06,10.27 a 3.71,3.71 0 0 1 -1.4,-0.2 L 27.09,9.24 C 26.59,9.08 25.76,8.85 25.25,8.73 a 3.92,3.92 0 0 0 -0.81,0 3.92,3.92 0 0 0 -0.81,0 c -0.51,0.12 -1.34,0.35 -1.84,0.51 l -2.57,0.83 a 3.71,3.71 0 0 1 -1.4,0.2 L 16.39,10 13.13,9.37 12.19,9.2 a 7.45,7.45 0 0 0 -0.63,0.74 l -2.17,2.7 c -0.33,0.41 -0.84,1.1 -1.13,1.54 L 6.68,16.52 A 12.5,12.5 0 0 0 5.93,17.77 5.69,5.69 0 0 0 5.71,19.25 L 5.8,19.5 a 3.77,3.77 0 0 0 0.15,0.48 15.72,15.72 0 0 0 1.3,1.39 l 5.48,5.07 A 1.47,1.47 0 0 1 13,28 l -0.91,2.16 a 2.8,2.8 0 0 0 0,1.78 l 0.18,0.5 a 4.83,4.83 0 0 0 1.48,2.08 l 0.87,0.71 a 1.65,1.65 0 0 0 1.6,0.19 l 3.11,-1.48 a 7.9,7.9 0 0 0 1.57,-1.05 l 2.49,-2.25 a 1,1 0 0 0 0.05,-1.43 L 19.15,25.52 A 1.43,1.43 0 0 1 18.81,24 l 1.43,-3.54 a 2.48,2.48 0 0 0 0,-1.67 A 2.48,2.48 0 0 0 19,17.65 l -6.83,-2.58 c -0.49,-0.19 -0.47,-0.38 0.06,-0.43 l 3.54,-0.33 a 5.16,5.16 0 0 1 1.85,0.23 l 3.53,1.26 a 1.11,1.11 0 0 1 0.69,1.25 l -1.29,5.64 c -0.12,0.51 -0.24,1.08 -0.28,1.26 a 1,1 0 0 0 0.87,0.51 l 2.46,0.48 a 5.65,5.65 0 0 0 1.87,0 l 2.25,-0.47 a 1,1 0 0 0 0.87,-0.52 c 0,-0.18 -0.16,-0.74 -0.28,-1.25 L 27,17.05 a 1.1,1.1 0 0 1 0.69,-1.25 l 3.53,-1.26 a 5.16,5.16 0 0 1 1.85,-0.23 l 3.54,0.33 c 0.52,0 0.55,0.24 0.06,0.43 l -6.82,2.59 a 2.48,2.48 0 0 0 -1.24,1.12 2.48,2.48 0 0 0 0,1.67 L 30.09,24 a 1.43,1.43 0 0 1 -0.36,1.51 l -4.28,3.7 a 1,1 0 0 0 0.05,1.43 l 2.5,2.22 a 7.9,7.9 0 0 0 1.57,1 l 3.11,1.48 a 1.65,1.65 0 0 0 1.6,-0.19 l 0.87,-0.71 a 4.83,4.83 0 0 0 1.48,-2.08 l 0.18,-0.5 a 2.8,2.8 0 0 0 0,-1.78 L 35.85,28 a 1.47,1.47 0 0 1 0.33,-1.53 l 5.47,-5.08 a 15.72,15.72 0 0 0 1.3,-1.4 3.77,3.77 0 0 0 0.14,-0.52 z"
         class="cls-2"
         inkscape:connector-curvature="0"
         style="fill:#ffffff" />
    </g>
  </g>
</svg>
