<svg id="Layer_1" data-name="Layer 1" xmlns="http://www.w3.org/2000/svg" xmlns:xlink="http://www.w3.org/1999/xlink" viewBox="0 0 108 108"><defs><style>.cls-1{fill-opacity:0.1;}.cls-2{stroke-width:9px;fill:url(#radial-gradient);stroke:url(#radial-gradient-2);}.cls-3{fill:url(#radial-gradient-3);}.cls-4{fill:url(#radial-gradient-4);}.cls-5{fill:url(#radial-gradient-5);}.cls-6{opacity:0.08;}.cls-6,.cls-7{isolation:isolate;}.cls-7{opacity:0.05;}</style><radialGradient id="radial-gradient" cx="-103.77" cy="-475.18" r="0.33" gradientTransform="matrix(90, 0, 0, -90, 9393.64, -42726.55)" gradientUnits="userSpaceOnUse"><stop offset="0.1" stop-color="#7fb3df"/><stop offset="0.9" stop-color="#0f5b94"/></radialGradient><radialGradient id="radial-gradient-2" cx="-103.77" cy="-474.87" r="0.93" gradientTransform="matrix(90, 0, 0, -90, 9393.64, -42726.55)" gradientUnits="userSpaceOnUse"><stop offset="0" stop-color="#f6f0ee"/><stop offset="1" stop-color="#ddd"/></radialGradient><radialGradient id="radial-gradient-3" cx="-103.97" cy="-471.6" r="0.16" gradientTransform="matrix(193, 0, 0, -127.18, 20121.95, -59958.84)" gradientUnits="userSpaceOnUse"><stop offset="0" stop-color="#f06b59"/><stop offset="1" stop-color="#df2227"/></radialGradient><radialGradient id="radial-gradient-4" cx="-103.7" cy="-468.85" r="0.25" gradientTransform="matrix(149.98, 0, 0, -174, 15602.37, -81529.22)" gradientUnits="userSpaceOnUse"><stop offset="0.65" stop-color="#4cb749"/><stop offset="1" stop-color="#388b41"/></radialGradient><radialGradient id="radial-gradient-5" cx="-104.2" cy="-469.33" r="0.26" gradientTransform="matrix(120.44, 0, 0, -161.32, 12615.1, -75663.36)" gradientUnits="userSpaceOnUse"><stop offset="0.6" stop-color="#fcd209"/><stop offset="0.7" stop-color="#f7c616"/><stop offset="1" stop-color="#bc821e"/></radialGradient></defs><title>chrome</title><path class="cls-1" d="M77.1,60.71a23,23,0,1,0-46,0h6.57a16.44,16.44,0,0,1,32.87,0"/><circle class="cls-2" cx="53.92" cy="54.01" r="14.79"/><path class="cls-3" d="M87,37.7a36.82,36.82,0,0,0-63.44-4.27L38.31,59.07A16.44,16.44,0,0,1,53.76,37.7"/><path class="cls-4" d="M23.52,33.43a36.82,36.82,0,0,0,27.61,57.2l15.45-26.3a16.44,16.44,0,0,1-28.27-5.26"/><path class="cls-5" d="M51.13,90.63A36.82,36.82,0,0,0,87,37.7H53.76A16.44,16.44,0,0,1,66.58,64.33"/><path class="cls-6" d="M23.52,33.43,38.31,59.07A16.44,16.44,0,0,1,39,47.89L24.18,32.44"/><path class="cls-7" d="M51.13,90.63l15.45-26.3A16.44,16.44,0,0,1,57,69.92L50.47,90.63"/><path class="cls-7" d="M87,37.7H53.76a16.44,16.44,0,0,1,12.82,6.25l21-5.26"/></svg>