<?xml version="1.0" encoding="UTF-8"?>
<svg width="2100px" height="2100px" viewBox="0 0 2100 2100" version="1.1" xmlns="http://www.w3.org/2000/svg" xmlns:xlink="http://www.w3.org/1999/xlink">
    <!-- Generator: Sketch 49 (51002) - http://www.bohemiancoding.com/sketch -->
    <title>Artboard</title>
    <desc>Created with Sketch.</desc>
    <defs></defs>
    <g id="Artboard" stroke="none" stroke-width="1" fill="none" fill-rule="evenodd">
        <g id="edge" transform="translate(159.000000, 159.000000)" fill="#3377BC" fill-rule="nonzero">
            <g id="Layer_1" transform="translate(73.000000, 0.000000)">
                <path d="M1498.0841,347.620863 C1496.0991,344.794268 1494.08112,342.001573 1491.99536,339.207962 C1340.80826,133.404317 1099.56238,0.183247688 827.736307,0.183247688 C388.137794,0.183247688 28.4385532,348.630558 0.549608063,789.044385 C67.5303427,665.413584 373.402802,338.939504 779.628197,338.939504 C1185.85359,338.939504 1148.00667,721.979397 1148.00667,721.979397 L511.603581,721.979397 C523.378018,571.126235 632.175682,442.144602 632.175682,442.144602 C182.484533,624.966238 202.669805,1085.97344 202.669805,1085.97344 C213.637234,1301.40217 284.217901,1450.33765 378.045158,1553.23947 C600.283758,1797.00104 952.883895,1782.59869 952.883895,1782.59869 C1270.39614,1782.59869 1484.42542,1654.66065 1484.42542,1654.66065 L1484.42542,1359.21224 L1484.42542,1281.21102 C1484.42542,1281.21102 1300.5055,1410.69659 998.299841,1415.74415 C494.512602,1405.64903 518.835507,1035.46396 518.835507,1035.46396 L1635.27635,1035.46396 C1635.30933,1035.43006 1635.30933,1035.39708 1635.30933,1035.32928 L1635.30933,837.09651 C1635.30933,837.09651 1645.26731,555.5117 1498.0841,347.620863 Z" id="Shape"></path>
            </g>
        </g>
    </g>
</svg>