<svg id="Layer_1" data-name="Layer 1" xmlns="http://www.w3.org/2000/svg" viewBox="0 0 108 108.31"><defs><style>.cls-1{fill:#e14c32;}</style></defs><title>ember</title><path class="cls-1" d="M32.27,53c.44-.93.95-1.8,1.46-2.68s1-1.8,1.59-2.63A5.26,5.26,0,0,1,37.26,46a3.2,3.2,0,0,1,1.48-.34.89.89,0,0,1,.87.58,3.18,3.18,0,0,1,.2,1.45,20.26,20.26,0,0,1-1,5c0,.07-.05.13,0,.2s.06.08.09.09.07-.05.09-.09c1-1.89,2.2-3.63,3.33-5.42A4.41,4.41,0,0,1,43.63,46a3.64,3.64,0,0,1,.55-.29,1.81,1.81,0,0,1,1.88.34,1.56,1.56,0,0,1,.48,1.17,8.62,8.62,0,0,1-.12,2.09c-.22,1.77-.52,3.52-.79,5.29a9,9,0,0,0,0,2.69,2.55,2.55,0,0,0,.11.45.7.7,0,0,0,1,.54,4.35,4.35,0,0,0,1.56-.74c.2-.14.38-.3.57-.44a.63.63,0,0,0,.26-.47c.19-1.53.39-3.06.58-4.59s.36-3,.53-4.44.34-2.72.47-4.08A26.92,26.92,0,0,1,52,37a24.34,24.34,0,0,1,2-4.39,5.8,5.8,0,0,1,2.18-2,5.68,5.68,0,0,1,1.69-.71,2.29,2.29,0,0,1,2.51,1,6.26,6.26,0,0,1,.91,2.23,9.42,9.42,0,0,1,.18,3.07,16,16,0,0,1-1.47,5.12,28.81,28.81,0,0,1-3.23,5.33.46.46,0,0,0-.09.18l.21-.15A3,3,0,0,1,58.64,46a2.75,2.75,0,0,1,1.68.57,5.4,5.4,0,0,1,2.38,4,8.94,8.94,0,0,1-.3,3.3A14.59,14.59,0,0,1,61.16,57s0,.07,0,.11.14,0,.21,0a18.79,18.79,0,0,0,2.8-1.47c.39-.23.76-.49,1.15-.72a.29.29,0,0,0,.14-.25,12.2,12.2,0,0,1,2.84-6.94,9.85,9.85,0,0,1,2.17-1.89,6.11,6.11,0,0,1,3.87-.69,3,3,0,0,1,2.4,2.31,6.4,6.4,0,0,1-1.63,6.43,11.9,11.9,0,0,1-4.46,2.83l-.55.19c-.14,0-.14.1-.07.21a2.37,2.37,0,0,0,1.57,1A5,5,0,0,0,74.07,58a12.68,12.68,0,0,0,3-1.48,20.1,20.1,0,0,0,1.73-1.24A.27.27,0,0,0,79,55a17.61,17.61,0,0,1,.38-2.58c.4-2,.91-3.93,1.47-5.87A1.38,1.38,0,0,1,82,45.51a2.58,2.58,0,0,1,1.11,0,.5.5,0,0,1,.42.47,16.09,16.09,0,0,1,.07,2.54c0,.44,0,.88,0,1.32,0,.24,0,.48,0,.72,0,.05,0,.13.05.15s.12,0,.15-.12.15-.41.24-.61a12.44,12.44,0,0,1,2.13-3.39A3.25,3.25,0,0,1,88,45.55a.86.86,0,0,1,1.09.63,4.43,4.43,0,0,1,.24,1.33,22.94,22.94,0,0,1-.12,2.93A5.89,5.89,0,0,0,89.49,53a1.34,1.34,0,0,0,1.62.94,7,7,0,0,0,3.16-1.32,1.17,1.17,0,0,1,.71-.21.8.8,0,0,1,.78.5,2.15,2.15,0,0,1-.62,2.46,12.13,12.13,0,0,1-3.95,1.81,4.91,4.91,0,0,1-2,.06A2.86,2.86,0,0,1,87.35,56a7.1,7.1,0,0,1-1.11-2.74A11.94,11.94,0,0,1,86,51.55c0-.07,0-.14-.09-.16a.15.15,0,0,0-.18.12l-.52,1.44c-.72,2-1.45,4-2.17,6a13.73,13.73,0,0,1-.72,1.77,4.28,4.28,0,0,1-.83,1.16,1.15,1.15,0,0,1-1.49.21,2.65,2.65,0,0,1-1.34-1.94c0-.16-.05-.32-.07-.47s-.09,0-.11.06a8.93,8.93,0,0,1-4.8,2.36A8.68,8.68,0,0,1,70.21,62,6.34,6.34,0,0,1,66,58.89c-.07-.12-.1-.3-.21-.34s-.24.11-.35.18a20.47,20.47,0,0,1-3.37,1.52,43.51,43.51,0,0,1-6.7,1.8,6.53,6.53,0,0,1-2.6-.1,8.62,8.62,0,0,1-3.33-1.49.18.18,0,0,0-.24,0,15.8,15.8,0,0,1-2.59,1.38,4.27,4.27,0,0,1-2.06.31,2.25,2.25,0,0,1-2-1.76,9.5,9.5,0,0,1-.32-2,23.84,23.84,0,0,1-.05-2.59q0-1.65.22-3.29c0-.06,0-.12,0-.14s-.14,0-.17.1c-.2.44-.41.88-.61,1.33-.61,1.38-1.17,2.77-1.64,4.2-.24.72-.41,1.47-.7,2.18a4.6,4.6,0,0,1-.82,1.38,1.24,1.24,0,0,1-1.07.44,3.58,3.58,0,0,1-1.09-.23A2,2,0,0,1,35,59.9a18.57,18.57,0,0,1,.19-3.39c.16-1.33.37-2.66.61-4,0,0,0-.11,0-.13a.13.13,0,0,0-.15.06,3.86,3.86,0,0,0-.36.58,43.82,43.82,0,0,0-1.91,4.06,28.81,28.81,0,0,1-1.65,3.44,6,6,0,0,1-.72,1,1.74,1.74,0,0,1-1.69.57,1.94,1.94,0,0,1-1.62-1.4,3.09,3.09,0,0,1-.16-.68c0-.15-.07-.14-.17-.08-.45.26-.92.5-1.36.77a9.51,9.51,0,0,1-2.48.94,10.91,10.91,0,0,1-3,.41,4.81,4.81,0,0,1-3.08-1,7.11,7.11,0,0,1-1.53-1.67,6.81,6.81,0,0,1-.93-2.15.23.23,0,0,0-.24-.21,17.12,17.12,0,0,1-3.32-.71,2.59,2.59,0,0,1-.43-.18.89.89,0,0,1-.45-.91,3,3,0,0,1,.73-1.53.72.72,0,0,1,.85-.19,1.19,1.19,0,0,1,.34.19,2.78,2.78,0,0,0,2,.52l.34,0c.14,0,.2-.08.22-.23a14.14,14.14,0,0,1,.72-3.25A9.42,9.42,0,0,1,18,47.16a5.23,5.23,0,0,1,3.15-1.54,5,5,0,0,1,3.38.7,4.36,4.36,0,0,1,1.25,1.26,3.18,3.18,0,0,1,.37,1.12,5.05,5.05,0,0,1-1,4.14,10.12,10.12,0,0,1-2.83,2.53,16,16,0,0,1-2.92,1.46.24.24,0,0,0-.18.28,1.24,1.24,0,0,0,.68,1,3,3,0,0,0,1.65.29,9.25,9.25,0,0,0,3.53-1.17,22.23,22.23,0,0,0,2.41-1.44.32.32,0,0,0,.15-.25,76.46,76.46,0,0,1,1.81-8.7c0-.09.06-.19.08-.28a1.34,1.34,0,0,1,1.19-1.06,4.45,4.45,0,0,1,1.3,0,1,1,0,0,1,.89.78,2.63,2.63,0,0,1,.08,1,44.84,44.84,0,0,1-.85,5.38A.29.29,0,0,0,32.27,53Zm21.82,6a3.75,3.75,0,0,0,3.46-1.74,8,8,0,0,0,1.26-4.67,4,4,0,0,0-.59-2,1.69,1.69,0,0,0-1-.8,2.66,2.66,0,0,0-2.88.91,5.23,5.23,0,0,0-.92,1.79,22,22,0,0,0-1,4.44,7.09,7.09,0,0,0,0,1.48.33.33,0,0,0,.27.32A5.23,5.23,0,0,0,54.08,59ZM53,46.89l0-.07A62.91,62.91,0,0,0,57.13,39a16,16,0,0,0,1.11-3.46,3.58,3.58,0,0,0,0-1.62,1.18,1.18,0,0,0-.2-.45.34.34,0,0,0-.49-.09,1.38,1.38,0,0,0-.34.29,7.55,7.55,0,0,0-1,1.57,16.14,16.14,0,0,0-1.11,2.57c-.39,1.31-.74,2.63-1.07,3.95A34.36,34.36,0,0,0,53,46.89Zm16.45,6.67a2.89,2.89,0,0,0,0,.41c0,.1.07.14.16.13l.41,0a4.33,4.33,0,0,0,3.41-2.77,2.37,2.37,0,0,0-.21-2.33,1.06,1.06,0,0,0-1.56-.3,2.56,2.56,0,0,0-.63.62,9.14,9.14,0,0,0-1.14,2.17A6.38,6.38,0,0,0,69.45,53.55ZM23.13,50.26a1.89,1.89,0,0,0-.21-.95,1,1,0,0,0-1.32-.55,2.89,2.89,0,0,0-1.35,1,6.7,6.7,0,0,0-1.44,3.93c0,.48,0,.49.48.41a4.51,4.51,0,0,0,1.4-.55,5.5,5.5,0,0,0,1.7-1.35A3.15,3.15,0,0,0,23.13,50.26Z"/><path class="cls-1" d="M85.15,61.06a.93.93,0,0,1-1,1,.94.94,0,0,1-1-1,.93.93,0,0,1,1-1A.92.92,0,0,1,85.15,61.06Zm-1-.73a.73.73,0,0,0,0,1.45.73.73,0,0,0,0-1.45Z"/><path class="cls-1" d="M83.8,61.07c0-.1,0-.2,0-.29s.06-.21.2-.21a1.12,1.12,0,0,1,.41,0,.25.25,0,0,1,.13.41c0,.06-.06.1,0,.16a.49.49,0,0,1,.08.24c0,.05.07.13,0,.16s-.18,0-.22-.08,0-.12-.06-.18a.15.15,0,0,0-.18-.1c-.09,0-.07.09-.08.15s0,.08,0,.12,0,.1-.11.1-.13,0-.13-.1,0-.26,0-.4Z"/></svg>