<?xml version="1.0" encoding="UTF-8"?>
<svg width="1100px" height="1100px" viewBox="0 0 1100 1100" version="1.1" xmlns="http://www.w3.org/2000/svg" xmlns:xlink="http://www.w3.org/1999/xlink">
    <!-- Generator: Sketch 49 (51002) - http://www.bohemiancoding.com/sketch -->
    <title>Artboard</title>
    <desc>Created with Sketch.</desc>
    <defs>
        <radialGradient cx="86.8496638%" cy="30.0272996%" fx="86.8496638%" fy="30.0272996%" r="241.261868%" gradientTransform="translate(0.868497,0.300273),scale(1.000000,0.362882),translate(-0.868497,-0.300273)" id="radialGradient-1">
            <stop stop-color="#FFEA00" offset="4.5%"></stop>
            <stop stop-color="#FFDE00" offset="12%"></stop>
            <stop stop-color="#FFBF00" offset="25.4%"></stop>
            <stop stop-color="#FF8E00" offset="42.9%"></stop>
            <stop stop-color="#FF272D" offset="76.9%"></stop>
            <stop stop-color="#E0255A" offset="87.2%"></stop>
            <stop stop-color="#CC2477" offset="95.3%"></stop>
            <stop stop-color="#C42482" offset="100%"></stop>
        </radialGradient>
        <radialGradient cx="70.8275826%" cy="12.3927561%" fx="70.8275826%" fy="12.3927561%" r="89.1703624%" gradientTransform="translate(0.708276,0.123928),scale(1.000000,0.994695),translate(-0.708276,-0.123928)" id="radialGradient-2">
            <stop stop-color="#00CCDA" offset="0%"></stop>
            <stop stop-color="#0083FF" offset="22%"></stop>
            <stop stop-color="#007AF9" offset="26.1%"></stop>
            <stop stop-color="#0060E8" offset="33%"></stop>
            <stop stop-color="#005FE7" offset="33.3%"></stop>
            <stop stop-color="#2639AD" offset="43.8%"></stop>
            <stop stop-color="#401E84" offset="52.2%"></stop>
            <stop stop-color="#4A1475" offset="56.6%"></stop>
        </radialGradient>
        <linearGradient x1="57.3392895%" y1="75.2198361%" x2="35.1458962%" y2="6.80511416%" id="linearGradient-3">
            <stop stop-color="#000F43" stop-opacity="0.4" offset="0%"></stop>
            <stop stop-color="#001962" stop-opacity="0.173" offset="48.5%"></stop>
            <stop stop-color="#002079" stop-opacity="0" offset="100%"></stop>
        </linearGradient>
        <radialGradient cx="147.72731%" cy="-21.6638402%" fx="147.72731%" fy="-21.6638402%" r="140.235548%" gradientTransform="translate(1.477273,-0.216638),scale(0.923323,1.000000),translate(-1.477273,0.216638)" id="radialGradient-4">
            <stop stop-color="#FFEA00" offset="0.3%"></stop>
            <stop stop-color="#FF272D" offset="49.7%"></stop>
            <stop stop-color="#C42482" offset="100%"></stop>
        </radialGradient>
        <radialGradient cx="135.976%" cy="-52.1307456%" fx="135.976%" fy="-52.1307456%" r="370.47035%" gradientTransform="translate(1.359760,-0.521307),scale(1.000000,0.541483),translate(-1.359760,0.521307)" id="radialGradient-5">
            <stop stop-color="#FFE900" offset="0.3%"></stop>
            <stop stop-color="#FFAF0E" offset="15.7%"></stop>
            <stop stop-color="#FF7A1B" offset="31.6%"></stop>
            <stop stop-color="#FF4E26" offset="47.2%"></stop>
            <stop stop-color="#FF2C2E" offset="62.1%"></stop>
            <stop stop-color="#FF1434" offset="76.2%"></stop>
            <stop stop-color="#FF0538" offset="89.2%"></stop>
            <stop stop-color="#FF0039" offset="100%"></stop>
        </radialGradient>
        <radialGradient cx="211.883445%" cy="2.14494548%" fx="211.883445%" fy="2.14494548%" r="308.147708%" gradientTransform="translate(2.118834,0.021449),scale(0.533470,1.000000),translate(-2.118834,-0.021449)" id="radialGradient-6">
            <stop stop-color="#FF272D" offset="0.3%"></stop>
            <stop stop-color="#C42482" offset="49.7%"></stop>
            <stop stop-color="#620700" offset="98.6%"></stop>
        </radialGradient>
        <radialGradient cx="76.8453227%" cy="39.179475%" fx="76.8453227%" fy="39.179475%" r="84.0433431%" gradientTransform="translate(0.768453,0.391795),scale(1.000000,0.959470),translate(-0.768453,-0.391795)" id="radialGradient-7">
            <stop stop-color="#FFEA00" offset="15.6%"></stop>
            <stop stop-color="#FFDE00" offset="23.1%"></stop>
            <stop stop-color="#FFBF00" offset="36.5%"></stop>
            <stop stop-color="#FF8E00" offset="54.1%"></stop>
            <stop stop-color="#FF272D" offset="76.3%"></stop>
            <stop stop-color="#F92433" offset="79.6%"></stop>
            <stop stop-color="#E91C45" offset="84.1%"></stop>
            <stop stop-color="#CF0E62" offset="89.3%"></stop>
            <stop stop-color="#B5007F" offset="93.5%"></stop>
        </radialGradient>
        <radialGradient cx="24.9534176%" cy="0.138231601%" fx="24.9534176%" fy="0.138231601%" r="249.815176%" gradientTransform="translate(0.249534,0.001382),scale(1.000000,0.396485),translate(-0.249534,-0.001382)" id="radialGradient-8">
            <stop stop-color="#FFEA00" offset="27.9%"></stop>
            <stop stop-color="#FFDD00" offset="40.2%"></stop>
            <stop stop-color="#FFBA00" offset="63%"></stop>
            <stop stop-color="#FF9100" offset="85.6%"></stop>
            <stop stop-color="#FF6711" offset="93.3%"></stop>
            <stop stop-color="#FF4A1D" offset="99.4%"></stop>
        </radialGradient>
        <linearGradient x1="-121.602561%" y1="64.455333%" x2="142.342359%" y2="29.6659057%" id="linearGradient-9">
            <stop stop-color="#C42482" stop-opacity="0.5" offset="0%"></stop>
            <stop stop-color="#FF272D" stop-opacity="0.5" offset="47.4%"></stop>
            <stop stop-color="#FF2C2C" stop-opacity="0.513" offset="48.6%"></stop>
            <stop stop-color="#FF7A1A" stop-opacity="0.72" offset="67.5%"></stop>
            <stop stop-color="#FFB20D" stop-opacity="0.871" offset="82.9%"></stop>
            <stop stop-color="#FFD605" stop-opacity="0.964" offset="94.2%"></stop>
            <stop stop-color="#FFE302" offset="100%"></stop>
        </linearGradient>
        <linearGradient x1="56.497619%" y1="94.8929888%" x2="19.4899942%" y2="5.47775928%" id="linearGradient-10">
            <stop stop-color="#891551" stop-opacity="0.6" offset="0%"></stop>
            <stop stop-color="#C42482" stop-opacity="0" offset="100%"></stop>
        </linearGradient>
        <linearGradient x1="8.03963742%" y1="6.68641317%" x2="47.9144739%" y2="47.8860609%" id="linearGradient-11">
            <stop stop-color="#891551" stop-opacity="0.5" offset="0.5%"></stop>
            <stop stop-color="#FF272D" stop-opacity="0.5" offset="48.4%"></stop>
            <stop stop-color="#FF272D" stop-opacity="0" offset="100%"></stop>
        </linearGradient>
        <linearGradient x1="47.5090137%" y1="102.675292%" x2="50.0086151%" y2="31.7488679%" id="linearGradient-12">
            <stop stop-color="#C42482" offset="0%"></stop>
            <stop stop-color="#C42482" stop-opacity="0.81" offset="8.3%"></stop>
            <stop stop-color="#C42482" stop-opacity="0.565" offset="20.6%"></stop>
            <stop stop-color="#C42482" stop-opacity="0.362" offset="32.8%"></stop>
            <stop stop-color="#C42482" stop-opacity="0.204" offset="44.7%"></stop>
            <stop stop-color="#C42482" stop-opacity="0.091" offset="56.2%"></stop>
            <stop stop-color="#C42482" stop-opacity="0.023" offset="67.3%"></stop>
            <stop stop-color="#C42482" stop-opacity="0" offset="77.3%"></stop>
        </linearGradient>
        <linearGradient x1="6.33406996%" y1="1.6470824%" x2="92.3513585%" y2="89.4608567%" id="linearGradient-13">
            <stop stop-color="#FFF14F" offset="0%"></stop>
            <stop stop-color="#FFEE4C" offset="26.8%"></stop>
            <stop stop-color="#FFE643" offset="45.2%"></stop>
            <stop stop-color="#FFD834" offset="61.2%"></stop>
            <stop stop-color="#FFC41E" offset="75.7%"></stop>
            <stop stop-color="#FFAB02" offset="89.2%"></stop>
            <stop stop-color="#FFA900" offset="90.2%"></stop>
            <stop stop-color="#FFA000" offset="94.9%"></stop>
            <stop stop-color="#FF9100" offset="100%"></stop>
        </linearGradient>
        <linearGradient x1="71.7885226%" y1="7.15860627%" x2="42.7455484%" y2="81.9478615%" id="linearGradient-14">
            <stop stop-color="#FF8E00" offset="0%"></stop>
            <stop stop-color="#FF8E00" stop-opacity="0.858" offset="4%"></stop>
            <stop stop-color="#FF8E00" stop-opacity="0.729" offset="8.4%"></stop>
            <stop stop-color="#FF8E00" stop-opacity="0.628" offset="13%"></stop>
            <stop stop-color="#FF8E00" stop-opacity="0.557" offset="17.8%"></stop>
            <stop stop-color="#FF8E00" stop-opacity="0.514" offset="22.7%"></stop>
            <stop stop-color="#FF8E00" stop-opacity="0.5" offset="28.2%"></stop>
            <stop stop-color="#FF8E00" stop-opacity="0.478" offset="38.9%"></stop>
            <stop stop-color="#FF8E00" stop-opacity="0.416" offset="52.4%"></stop>
            <stop stop-color="#FF8E00" stop-opacity="0.314" offset="67.6%"></stop>
            <stop stop-color="#FF8E00" stop-opacity="0.172" offset="83.8%"></stop>
            <stop stop-color="#FF8E00" stop-opacity="0" offset="100%"></stop>
        </linearGradient>
    </defs>
    <g id="Artboard" stroke="none" stroke-width="1" fill="none" fill-rule="evenodd">
        <g id="firefox" transform="translate(73.000000, 58.000000)" fill-rule="nonzero">
            <path d="M770.285,91.558 C746.338,119.442 735.185,182.197 759.467,245.814 C783.749,309.431 820.967,295.614 844.167,360.487 C874.79,446.087 860.536,561.076 860.536,561.076 C860.536,561.076 897.35,667.685 923.004,554.443 C979.787,341.74 770.285,143.937 770.285,91.558 Z" id="Shape" fill="url(#radialGradient-1)"></path>
            <path d="M478.072,974.638 C723.308,974.638 921.972,774.899 921.972,528.61 C921.972,282.321 723.308,82.583 478.31,82.583 C233.312,82.583 34.65,282.322 34.65,528.61 C34.175,775.137 233.073,974.638 478.072,974.638 Z" id="_Path_" fill="url(#radialGradient-2)"></path>
            <path d="M810.675,803.636 C801.079223,810.405698 791.012665,816.482125 780.552,821.819 C794.409131,801.515063 807.193309,780.499276 818.852,758.858 C828.312,748.388 836.978,738.21 844.04,727.205 C847.477,721.798 851.353,715.126 855.456,707.386 C880.377,662.486 907.856,589.823 908.635,515.186 L908.635,515.006 C908.653,513.169 908.664,511.331 908.649,509.491 C908.777973,490.755906 906.862642,472.062653 902.937,453.743 C903.137,455.174 903.313,456.604 903.493,458.034 C903.272,456.934 903.086,455.822 902.849,454.72 C903.215,456.754 903.509,458.72 903.825,460.703 C908.919,503.92 905.291,546.075 887.143,577.153 C886.857,577.607 886.563,578.032 886.274,578.476 C895.684,531.242 898.832,479.089 888.362,426.876 C888.362,426.876 884.175,401.493 852.986,324.435 C835.034,280.082 803.153,243.719 774.986,217.228 C750.296,186.682 727.872,166.183 715.511,153.168 C689.69,125.979 678.868,105.599 674.424,92.301 C670.571,90.369 621.289,42.494 617.374,40.67 C595.863,74.022 528.212,178.345 560.393,275.816 C574.977,319.988 611.86,365.833 650.46,391.552 C652.155,393.488 673.429,416.594 683.546,468.709 C693.992,522.551 688.5,564.564 667,626.692 C641.714,681.197 576.933,735.08 516.276,740.592 C386.6,752.373 339.127,675.484 339.127,675.484 C385.463,694.009 436.695,690.134 467.851,670.928 C499.251,651.503 518.245,637.101 533.661,642.78 C548.861,648.433 560.961,632.024 550.103,615.013 C532.961862,588.611683 501.707577,575.002685 470.703,580.44 C439.27,585.549 410.477,610.449 369.291,586.334 C366.625345,584.787154 364.045248,583.097356 361.562,581.272 C358.847,579.487 370.388,583.989 367.695,581.96 C359.68,577.606 345.495,568.118 341.815,564.743 C341.202,564.181 348.034,566.922 347.421,566.359 C308.911,534.647 313.721,513.225 314.931,499.789 C315.9,489.04 322.895,475.266 334.682,469.679 C340.375,472.786 343.922,475.158 343.922,475.158 C343.922,475.158 341.494,470.197 340.181,467.582 C340.641,467.382 341.081,467.435 341.539,467.24 C346.203,469.491 356.516,475.34 361.946,478.907 C369.018,483.895 371.272,488.343 371.272,488.343 C371.272,488.343 373.134,487.318 371.757,482.968 C371.257,481.184 369.11,475.515 362.105,469.794 L362.543,469.843 C366.735679,472.23193 370.707062,474.989844 374.41,478.084 C376.385,470.903 379.937,463.405 379.156,449.992 C378.679,440.561 378.899,438.119 377.237,434.477 C375.749,431.349 378.071,430.129 380.655,433.377 C380.212718,430.832051 379.471591,428.348201 378.447,425.977 L378.469,425.733 C381.694,414.497 446.717,385.272 451.45,381.856 C459.226486,376.353635 465.747335,369.264274 470.582,361.056 C474.199,355.293 476.919,347.208 477.582,334.944 C477.937,326.1 473.823,320.21 408.075,313.326 C390.094,311.555 379.544,298.526 373.549,286.503 C372.455,283.913 371.34,281.566 370.224,279.221 C369.158805,276.479587 368.303672,273.661125 367.666,270.79 C378.415,239.917 396.476,213.813 423.033,194.09 C424.48,192.772 417.251,194.428 418.697,193.11 C420.384,191.572 431.403,187.133 433.484,186.133 C436.026,184.933 422.602,179.233 410.752,180.621 C398.683,181.981 396.12,183.421 389.679,186.152 C392.352,183.491 400.852,180.003 398.859,180.026 C385.848,182.021 369.68,189.584 355.859,198.15 C355.83207,196.658381 356.116455,195.177534 356.694,193.802 C350.253,196.534 334.434,207.59 329.829,216.944 C330.027454,215.151089 330.116286,213.347736 330.095,211.544 C325.188309,215.636232 320.761675,220.271868 316.9,225.362 L316.659,225.581 C279.301,210.531 246.426,209.557 218.606,216.305 C212.52,210.193 209.547,214.661 195.699,184.236 C194.758,182.404 196.421,186.045 195.699,184.236 C193.421,178.336 197.088,192.108 195.699,184.236 C172.415,202.608 141.779,223.429 127.073,238.126 C126.891,238.712 144.229,233.226 127.073,238.126 C121.065,239.842 121.473,243.407 120.56,275.626 C120.34,278.069 120.535,280.805 120.337,283.004 C108.589,297.972 100.588,310.647 97.562,317.215 C82.369,343.395 65.636,384.207 49.416,448.766 C56.5703662,431.266959 65.1959428,414.406204 75.2,398.365 C61.712,432.632 48.673,486.443 46.066,569.31 C49.328829,552.210069 53.5125856,535.298786 58.599,518.65 C55.4147384,587.399521 67.2705034,656.01587 93.339,719.711 C102.668,742.532 118.099,777.166 144.368,815.111 C226.901,901.95 343.313,956.011 472.22,956.011 C606.792,956.012 727.635,897.133 810.675,803.636 Z" id="Shape" fill="url(#linearGradient-3)"></path>
            <path d="M711.1,866.708 C873.97,847.848 946.069,680.008 853.481,676.708 C769.848,674.035 633.954,875.608 711.1,866.708 Z" id="Shape" fill="url(#radialGradient-4)"></path>
            <path d="M865.207,642.424 C977.263,577.21 948.046,436.344 948.046,436.344 C948.046,436.344 904.8,486.582 875.421,566.664 C846.4,645.963 797.837,681.812 865.207,642.424 Z" id="Shape" fill="url(#radialGradient-5)"></path>
            <path d="M509.474,950.062 C665.701,999.913 799.974,876.842 717.207,835.742 C641.956,798.676 435.324,926.49 509.474,950.062 Z" id="Shape" fill="url(#radialGradient-6)"></path>
            <path d="M876.849,702.234 C880.649,696.871 885.789,679.699 890.329,672.023 C917.911,627.5 918.106,592 918.106,591.187 C934.765,507.968 933.254,473.987 923.006,411.144 C914.755,360.544 878.684,288.052 847.436,253.144 C815.236,217.179 837.922,228.897 806.744,202.626 C779.417,172.333 752.921,142.335 738.491,130.271 C634.215,43.094 636.571,24.577 638.579,21.42 C638.24,21.791 637.742,22.342 637.107,23.063 C635.872,18.14 635,14 635,14 C635,14 578,71 566,166 C558.166,228.021 581.383,292.676 615,334 C632.505163,355.415703 652.288214,374.863448 674,392 L674,391.974 C699.4,428.451 713.38,473.463 713.38,521.883 C713.38,643.127 615.039,741.414 493.728,741.414 C477.194865,741.422568 460.713235,739.571262 444.594,735.895 C387.358,724.987 354.306,696.114 337.822,676.513 C328.375,665.279 324.358,657.09 324.358,657.09 C375.641,675.461 432.344,671.618 466.826,652.572 C501.575,633.307 522.6,619.026 539.663,624.657 C556.483,630.263 569.874,613.99 557.863,597.121 C546.092,580.276 515.463,556.151 469.985,562.835 C435.196,567.902 403.328,592.595 357.745,568.68 C354.809343,567.154689 351.954225,565.479134 349.191,563.66 C346.186,561.889 358.959,566.355 355.978,564.342 C347.108,560.024 331.405,550.614 327.335,547.268 C326.656,546.711 334.218,549.429 333.535,548.868 C290.914,517.419 296.235,496.175 297.576,482.85 C298.649,472.19 306.39,458.53 319.435,452.99 C325.735,456.071 329.661,458.423 329.661,458.423 C329.661,458.423 326.973,453.503 325.52,450.91 C326.029,450.716 326.514,450.765 327.02,450.571 C332.182,452.803 343.596,458.6 349.606,462.141 C357.433,467.088 359.928,471.499 359.928,471.499 C359.928,471.499 361.989,470.483 360.464,466.169 C359.907,464.4 357.535,458.778 349.782,453.104 L350.267,453.153 C354.869398,455.498977 359.263322,458.233219 363.401,461.326 C365.587,454.205 369.519,446.769 368.654,433.467 C368.126,424.115 368.37,421.692 366.53,418.081 C364.883,414.981 367.454,413.769 370.312,416.993 C369.817371,414.450188 368.995888,411.982042 367.868,409.65 L367.893,409.408 C371.463,398.265 443.428,369.283 448.666,365.895 C457.106616,360.596716 464.324478,353.564626 469.841,345.265 C473.841,339.55 476.855,331.532 477.589,319.37 C477.835,313.89 476.148,309.553 457.089,305.405 C445.65,302.915 427.953,300.492 400.656,297.931 C380.756,296.175 369.079,283.255 362.444,271.331 C361.233,268.762 359.999,266.431 358.764,264.109 C357.590001,261.405713 356.643064,258.609392 355.933,255.749 C367.841058,224.574969 389.286421,197.955758 417.212,179.686 C418.812,178.378 410.812,180.021 412.412,178.714 C414.28,177.189 426.475,172.787 428.779,171.795 C431.592,170.609 416.735,164.955 403.62,166.329 C390.263,167.678 387.426,169.105 380.297,171.815 C383.256,169.176 392.663,165.715 390.458,165.74 C376.058,167.718 358.158,175.219 342.858,183.713 C342.829992,182.223705 343.146203,180.748051 343.782,179.401 C336.653,182.11 319.145,193.075 314.048,202.351 C314.267196,200.575056 314.365423,198.786267 314.342,196.997 C308.973766,200.997878 304.075891,205.593829 299.742,210.697 L299.475,210.915 C258.128,195.99 221.743,195.024 190.953,201.715 C184.217,195.654 173.387,186.489 158.061,156.315 C157.02,154.498 156.461,160.07 155.661,158.276 C149.706,144.463 146.108,121.832 146.699,106.23 C146.699,106.23 134.381,111.844 124.186,135.29 C122.293,139.505 121.079,141.83 119.866,144.155 C119.308,144.833 121.131,136.455 120.84,136.911 C119.068,139.911 114.484,144.103 112.469,149.529 C111.085,153.55 109.144,155.802 107.905,160.817 L107.614,161.277 C107.514,159.799 107.981,155.196 107.641,156.14 C102.862364,165.794565 98.7500892,175.764861 95.333,185.981 C89.844,204.027 83.454,228.591 82.441,260.546 C82.197,262.969 82.414,265.682 82.194,267.863 C69.194,282.707 60.336,295.276 56.987,301.791 C40.18,327.762 21.66,368.236 3.707,432.259 C11.6944891,414.770402 21.2459955,398.039368 32.245,382.27 C17.316,416.253 2.885,469.618 0,551.8 C3.62382854,534.793112 8.25600793,518.016822 13.872,501.56 C11.294,556.36 17.677,624.3 52.321,700.953 C72.891,746.04 120.242,837.602 235.941,909.053 L235.931,909.06 C235.931,909.06 275.291,938.36 342.948,960.319 C347.948,962.133 353.013,963.919 358.182,965.652 C356.56,964.997 354.991,964.308 353.467,963.6 C398.500111,977.092599 445.256044,983.964508 492.267,984 C667.447,984.149 719.113,913.8 719.113,913.8 C719.113,913.8 718.931,913.937 718.6,914.177 C721.072,911.849667 723.453,909.430667 725.743,906.92 C698.104,933.02 635.028,934.752 611.443,932.869 C651.666,921.056 678.134,911.063 729.618,891.35 C735.642667,889.116667 741.803333,886.57 748.1,883.71 C748.781,883.41 749.468,883.085 750.152,882.774 C751.401,882.192 752.638,881.642 753.899,881.03 C778.983058,869.209361 802.569868,854.443015 824.161,837.043 C875.861,795.743 887.11,755.486 892.99,728.943 C892.17,731.487 889.615,737.418 887.82,741.259 C874.505,769.741 844.979,787.218 812.912,802.207 C828.171284,782.185649 842.321837,761.343061 855.3,739.773 C865.767,729.39 869.033,713.148 876.849,702.234 Z" id="Shape" fill="url(#radialGradient-7)"></path>
            <path d="M813.921,800.982 C835.001,777.741 853.931,751.158 868.27,721.014 C905.17,643.432 962.222,514.434 917.288,379.708 C881.775,273.225 833.016,215 771.107,158.122 C670.563,65.756 642.482,24.521 642.482,0 C642.482,0 526.393,129.409 576.74,264.381 C627.087,399.353 730.2,394.405 798.419,535.255 C878.694,701 733.47,881.869 613.375,932.493 C620.728,930.86 880.345,872.11 893.989,723.611 C893.68,726.342 887.83,767.414 813.921,800.982 Z" id="Shape" fill="url(#radialGradient-8)"></path>
            <path d="M477.592,319.373 C477.985,310.603 473.436,304.713 400.91,297.91 C371.071,295.155 359.645,267.576 356.162,255.969 C345.552,283.534 341.171,312.459 343.526,347.446 C345.136,370.366 360.535,394.967 367.896,409.411 C367.896,409.411 369.532,407.285 370.287,406.499 C384.148,392.068 442.223,370.08 447.679,366.958 C453.693,363.159 476.582,346.435 477.592,319.373 Z" id="Shape" fill="url(#linearGradient-9)"></path>
            <path d="M158.314,156.471 C157.273,154.653 156.714,160.225 155.914,158.432 C149.959,144.619 146.336,122.232 147.194,106.41 C147.194,106.41 134.876,112.024 124.681,135.47 C122.788,139.685 121.574,142.01 120.361,144.335 C119.803,145.013 121.626,136.635 121.335,137.091 C119.564,140.091 114.98,144.283 112.989,149.466 C111.338,153.705 109.64,155.981 108.376,161.238 C107.987,162.667 108.768,154.915 108.428,155.859 C84.717,201.684 80.191,270.973 82.69,268.043 C133.168,214.143 191.015,201.36 191.015,201.36 C184.86,196.826 171.487,183.735 158.315,156.471 L158.314,156.471 Z" id="Shape" fill="url(#linearGradient-10)"></path>
            <path d="M349.844,720.1 C280.12,690.331 200.852,648.345 203.844,552.962 C207.919,427.343 320.989,452.171 320.989,452.171 C316.722,453.21 305.314,461.333 301.271,469.991 C296.998,480.818 289.202,505.267 312.822,530.891 C349.911,571.083 236.622,626.247 411.485,730.458 C415.895,732.858 370.494,729.028 349.846,720.1 L349.844,720.1 Z" id="Shape" fill="url(#linearGradient-11)"></path>
            <path d="M325.074,657.5 C374.516,674.707 432.114,671.689 466.597,652.642 C489.682,639.791 519.297,619.208 537.519,624.289 C521.742,618.053 509.793,615.139 495.419,614.427 C492.971,614.427 490.037,614.375 487.371,614.107 C482.106403,614.089955 476.845245,614.378105 471.614,614.97 C462.714,615.788 452.848,621.403 443.879,620.502 C443.394,620.453 452.579,616.728 451.832,616.897 C447.08,617.888 441.917,618.102 436.462,618.778 C432.995,619.164 430.013,619.598 426.571,619.741 C323.589,628.474 236.554,563.928 236.554,563.928 C229.146,588.878 269.72,638.228 325.075,657.5 L325.074,657.5 Z" id="Shape" fill="url(#linearGradient-12)"></path>
            <path d="M813.738,801.646 C917.9,699.376 970.6,575.061 948.321,435.627 C948.321,435.627 957.221,507.127 923.473,580.255 C939.686,508.862 941.573,420.141 898.498,328.267 C841.005,205.636 746.45,141.109 710.351,114.189 C655.656,73.4 632.983,31.87 632.574,23.3 C616.235,56.777 566.808,171.5 627.264,270.3 C683.904,362.864 773.129,390.339 835.592,475.247 C950.667,631.667 813.738,801.646 813.738,801.646 Z" id="Shape" fill="url(#linearGradient-13)"></path>
            <path d="M798.814,535.551 C762.412,460.35 716.978,427.55 674,392 C679,399 680.232,401.473 683,406 C720.827,446.316 776.607,544.656 736.11,668.107 C659.881,900.482 354.967,791.057 323,760.319 C335.932,894.808 561.036,959.164 707.6,871.949 C791,793 858.468,658.788 798.814,535.551 Z" id="Shape" fill="url(#linearGradient-14)"></path>
        </g>
    </g>
</svg>