<svg id="Layer_1" data-name="Layer 1" xmlns="http://www.w3.org/2000/svg" viewBox="0 0 108 108.31"><defs><style>.cls-1{fill:#e10098;}</style></defs><title>graphql</title><path class="cls-1" d="M24,75.37l-3-1.75L54.7,15.15l3,1.75Z"/><path class="cls-1" d="M20.24,68.95H87.76v3.5H20.24Z"/><path class="cls-1" d="M55.35,90.41,21.58,70.91l1.75-3L57.1,87.38ZM84.69,39.59,50.92,20.09l1.75-3,33.77,19.5Z"/><path class="cls-1" d="M23.34,39.58l-1.75-3L55.36,17l1.75,3Z"/><path class="cls-1" d="M84.07,75.37,50.31,16.9l3-1.75L87.1,73.62ZM22.92,34.23h3.5v39h-3.5Zm58.69,0h3.5v39h-3.5Z"/><path class="cls-1" d="M54.75,88.93l-1.53-2.65,29.37-17L84.13,72Z"/><path class="cls-1" d="M89.74,74.37A7.36,7.36,0,1,1,87,64.31a7.37,7.37,0,0,1,2.7,10.06M31,40.45a7.36,7.36,0,1,1-2.7-10.06A7.37,7.37,0,0,1,31,40.45M18.28,74.37a7.36,7.36,0,1,1,10.06,2.7,7.37,7.37,0,0,1-10.06-2.7M77,40.45a7.36,7.36,0,1,1,10.06,2.7A7.37,7.37,0,0,1,77,40.45M54,95a7.36,7.36,0,1,1,7.36-7.36A7.35,7.35,0,0,1,54,95m0-67.84a7.36,7.36,0,1,1,7.36-7.36A7.35,7.35,0,0,1,54,27.17"/></svg>