<?xml version="1.0" encoding="utf-8"?>
<!-- Generator: Adobe Illustrator 21.1.0, SVG Export Plug-In . SVG Version: 6.00 Build 0)  -->
<svg version="1.1" id="Layer_1" xmlns="http://www.w3.org/2000/svg" xmlns:xlink="http://www.w3.org/1999/xlink" x="0px" y="0px"
	 viewBox="0 0 109.3 109.4" style="enable-background:new 0 0 109.3 109.4;" xml:space="preserve">
<style type="text/css">
	.st0{fill:#8CC84B;}
</style>
<g>
	<path class="st0" d="M51.8,20.1c1.8-1,4-1,5.8,0C66.4,25.1,75.2,30,84,35c1.7,0.9,2.8,2.8,2.7,4.7v30c0,2-1.2,3.9-3,4.8
		c-8.8,5-17.6,9.9-26.3,14.9c-1.8,1-4.1,0.9-5.9-0.2c-2.6-1.5-5.3-3-7.9-4.6c-0.5-0.3-1.1-0.6-1.5-1.1c0.3-0.5,0.9-0.5,1.4-0.7
		c1.1-0.3,2.1-0.9,3.1-1.5c0.3-0.2,0.6-0.1,0.8,0c2.3,1.3,4.5,2.6,6.7,3.9c0.5,0.3,1-0.1,1.4-0.3c8.6-4.9,17.2-9.7,25.9-14.6
		c0.3-0.2,0.5-0.5,0.5-0.8c0-9.9,0-19.8,0-29.6c0-0.4-0.2-0.8-0.6-0.9c-8.8-4.9-17.5-9.9-26.2-14.8c-0.3-0.2-0.7-0.2-1,0
		c-8.8,4.9-17.5,9.9-26.2,14.8c-0.4,0.2-0.6,0.5-0.6,0.9c0,9.9,0,19.8,0,29.6c0,0.3,0.2,0.7,0.5,0.8c2.3,1.3,4.7,2.6,7,4
		c1.3,0.7,2.9,1.1,4.4,0.6c1.3-0.5,2.2-1.8,2.2-3.1c0-9.8,0-19.6,0-29.5c0-0.4,0.4-0.8,0.8-0.8c1.1,0,2.2,0,3.4,0
		c0.5,0,0.8,0.5,0.7,0.9c0,9.9,0,19.8,0,29.7c0,2.6-1.1,5.5-3.5,6.8c-3,1.6-6.7,1.2-9.7-0.3c-2.6-1.3-5-2.8-7.5-4.2
		c-1.8-0.9-3-2.8-3-4.8v-30c0-1.9,1.1-3.8,2.8-4.7C34.2,30,43,25,51.8,20.1z"/>
	<path class="st0" d="M59.4,40.8c3.8-0.2,7.9-0.1,11.4,1.7c2.7,1.4,4.1,4.5,4.2,7.4c-0.1,0.4-0.5,0.6-0.9,0.6c-1.1,0-2.2,0-3.3,0
		c-0.5,0-0.7-0.4-0.8-0.8c-0.3-1.4-1.1-2.8-2.4-3.5c-2-1-4.4-1-6.7-1c-1.6,0.1-3.4,0.2-4.8,1.2c-1.1,0.7-1.4,2.2-1,3.4
		c0.4,0.8,1.3,1.1,2.1,1.4c4.6,1.2,9.5,1.1,14,2.7c1.9,0.6,3.7,1.9,4.3,3.9c0.8,2.6,0.5,5.8-1.4,7.9c-1.5,1.7-3.7,2.7-5.9,3.2
		c-2.9,0.7-6,0.7-9,0.4c-2.8-0.3-5.7-1.1-7.9-3c-1.8-1.6-2.8-4.1-2.7-6.5c0-0.4,0.4-0.7,0.8-0.7c1.1,0,2.2,0,3.4,0
		c0.4,0,0.8,0.4,0.8,0.8c0.2,1.4,0.7,2.8,1.9,3.6c2.3,1.5,5.1,1.4,7.7,1.4c2.2-0.1,4.6-0.1,6.3-1.6c0.9-0.8,1.2-2.2,1-3.3
		c-0.3-1-1.3-1.4-2.2-1.7c-4.6-1.4-9.5-0.9-14-2.5c-1.8-0.6-3.6-1.9-4.3-3.8c-1-2.7-0.5-6,1.5-8C53.7,41.9,56.7,41.1,59.4,40.8
		L59.4,40.8z"/>
</g>
</svg>
