<svg id="Layer_1" data-name="Layer 1" xmlns="http://www.w3.org/2000/svg" viewBox="0 0 108 108.31"><defs><style>.cls-1{fill:#303f9d;}.cls-2{fill:#3f51b3;}.cls-3{fill:#7984c9;}.cls-4{fill:#fd4080;}.cls-5{fill:#536dfc;}.cls-6,.cls-7,.cls-8{fill:#fff;}.cls-10,.cls-6{fill-opacity:0.2;}.cls-7,.cls-9{fill-opacity:0.1;}.cls-8{fill-opacity:0;}.cls-11{fill-opacity:0.3;}.cls-12{fill-opacity:0.4;}.cls-13{fill-opacity:0.5;}.cls-14{fill:none;}</style></defs><title>polymer</title><polygon class="cls-1" points="28.95 54.6 21.14 68.13 28.95 81.66 36.76 68.13 28.95 54.6"/><polygon class="cls-2" points="75.81 27.55 68 41.08 75.81 54.6 83.62 41.08 75.81 27.55"/><polygon class="cls-3" points="83.62 41.08 60.19 81.66 75.81 81.66 91.43 54.6 83.62 41.08"/><polygon class="cls-4" points="60.19 27.55 28.95 81.66 44.57 81.66 75.81 27.55 60.19 27.55"/><polygon class="cls-5" points="28.95 27.55 13.33 54.6 21.14 68.13 44.57 27.55 28.95 27.55"/><polygon class="cls-6" points="60.19 27.55 68 41.08 75.81 27.55 60.19 27.55"/><polygon class="cls-7" points="52.38 41.08 60.19 27.55 68 41.08 52.38 41.08"/><polygon class="cls-8" points="52.38 41.08 60.19 54.6 68 41.08 52.38 41.08"/><polygon class="cls-9" points="44.57 54.6 52.38 41.08 60.19 54.6 44.57 54.6"/><polygon class="cls-10" points="44.57 54.6 52.38 68.13 60.19 54.6 44.57 54.6"/><polygon class="cls-11" points="36.76 68.13 44.57 54.6 52.38 68.13 36.76 68.13"/><polygon class="cls-12" points="36.76 68.13 44.57 81.66 52.38 68.13 36.76 68.13"/><polygon class="cls-13" points="28.95 81.66 36.76 68.13 44.57 81.66 28.95 81.66"/><polygon class="cls-6" points="28.95 27.55 36.76 41.08 44.57 27.55 28.95 27.55"/><polygon class="cls-7" points="21.14 41.08 28.95 27.55 36.76 41.08 21.14 41.08"/><polygon class="cls-8" points="21.14 41.08 28.95 54.6 36.76 41.08 21.14 41.08"/><polygon class="cls-9" points="13.34 54.6 21.14 41.08 28.95 54.6 13.34 54.6"/><polygon class="cls-10" points="13.34 54.6 21.14 68.13 28.95 54.6 13.34 54.6"/><polygon class="cls-8" points="36.76 68.13 28.95 54.6 21.14 68.13 36.76 68.13"/><polygon class="cls-10" points="36.76 68.13 28.95 81.66 21.14 68.13 36.76 68.13"/><polygon class="cls-10" points="83.62 41.08 75.81 27.55 68 41.08 83.62 41.08"/><polygon class="cls-8" points="83.62 41.08 75.81 54.6 68 41.08 83.62 41.08"/><polygon class="cls-6" points="75.81 54.6 83.62 41.08 91.43 54.6 75.81 54.6"/><polygon class="cls-7" points="75.81 54.6 83.62 68.13 91.43 54.6 75.81 54.6"/><polygon class="cls-8" points="68 68.13 75.81 54.6 83.62 68.13 68 68.13"/><polygon class="cls-9" points="68 68.13 75.81 81.66 83.62 68.13 68 68.13"/><polygon class="cls-10" points="60.19 81.66 68 68.13 75.81 81.66 60.19 81.66"/><rect class="cls-14" x="13.03" y="15.25" width="78.7" height="78.7"/></svg>