<svg id="Layer_1" data-name="Layer 1" xmlns="http://www.w3.org/2000/svg" viewBox="0 0 108 108.31"><defs><style>.cls-1{fill:#6ccb94;}.cls-1,.cls-2,.cls-3,.cls-4,.cls-5,.cls-6,.cls-7,.cls-8,.cls-9{fill-opacity:0.9;}.cls-2{fill:#5dbd85;}.cls-3{fill:#64c48c;}.cls-4{fill:#6ecc95;}.cls-5{fill:#5ebe86;}.cls-6{fill:#76d29c;}.cls-7{fill:#74d09b;}.cls-8{fill:#58b880;}.cls-9{fill:#5fbf87;}</style></defs><title>pouchdb</title><path class="cls-1" d="M29.18,16.37,24.89,37.29,37.2,48.9l-8,14.25L45.47,91.79h17.8L79.6,63.15,71.54,48.9,83.43,37.29,79.51,16.37,62.78,38.65H46Z"/><path class="cls-2" d="M29.2,63.15l8-14.25L54.37,63.15Z"/><path class="cls-3" d="M37.2,48.9,54.37,63.15,46,38.65Z"/><path class="cls-4" d="M79.6,63.15,71.54,48.9,54.37,63.15Z"/><path class="cls-5" d="M45.47,91.79h17.8l-8.9-28.64Z"/><path class="cls-6" d="M71.54,48.9,54.37,63.15l8.41-24.5Z"/><path class="cls-7" d="M79.51,16.37l3.91,20.92L71.54,48.9,62.78,38.65Z"/><path class="cls-3" d="M54.37,63.15l8.9,28.64L79.6,63.15Z"/><path class="cls-8" d="M54.37,63.15l-8.9,28.64L29.2,63.15Z"/><path class="cls-9" d="M29.18,16.37,24.89,37.29,37.2,48.9,46,38.65Z"/><path class="cls-4" d="M54.37,63.15l8.41-24.5H46Z"/></svg>