<svg id="Layer_1" data-name="Layer 1" xmlns="http://www.w3.org/2000/svg" viewBox="0 0 108 108.31"><defs><style>.cls-1{fill:#00d6fd;}</style></defs><title>react</title><circle class="cls-1" cx="54.04" cy="54.35" r="6.46"/><path class="cls-1" d="M86.48,47.92a29.37,29.37,0,0,0-9.14-4.82q-1.13-.39-2.33-.73.2-.81.36-1.59c1.79-8.71.52-15.49-3.32-17.71-1.89-1.09-4.46-1.09-7.43,0a29.38,29.38,0,0,0-8.74,5.51q-.9.78-1.8,1.65-.6-.58-1.2-1.11c-6.65-5.9-13.16-8.19-17-6-1.89,1.09-3.17,3.32-3.71,6.44a29.38,29.38,0,0,0,.41,10.32q.23,1.17.53,2.39-1.39.39-2.68.84c-7.85,2.74-12.54,6.92-12.54,11.19,0,2.23,1.31,4.53,3.78,6.64a29.17,29.17,0,0,0,9.44,5.06q.94.32,2,.61-.33,1.32-.57,2.58c-1.55,8.17-.27,14.32,3.43,16.46a6.82,6.82,0,0,0,3.45.85,12.72,12.72,0,0,0,4.19-.8,29.17,29.17,0,0,0,9.1-5.65q.75-.66,1.51-1.39,1,.94,2,1.78c4.63,4,9.07,6.1,12.57,6.1a6.69,6.69,0,0,0,3.4-.85c1.93-1.12,3.26-3.4,3.86-6.6a29.17,29.17,0,0,0-.35-10.71q-.19-.95-.43-1.93l1.34-.42c8.44-2.8,13.68-7.29,13.68-11.73C90.19,52.17,88.91,49.95,86.48,47.92ZM65.68,26c2.06-.76,3.77-.84,4.82-.23s2,2.27,2.34,4.58a27.72,27.72,0,0,1-.49,9.83q-.15.71-.33,1.44a74,74,0,0,0-9.67-1.53,73,73,0,0,0-6.11-7.63q.83-.8,1.66-1.53A26.32,26.32,0,0,1,65.68,26ZM64.13,60.23q-1.71,3-3.46,5.6c-2.15.15-4.37.23-6.63.23s-4.45-.07-6.54-.2c-1.23-1.8-2.42-3.68-3.54-5.61h0c-1.12-1.93-2.15-3.88-3.08-5.82.94-2,2-3.91,3.07-5.83h0c1.11-1.93,2.29-3.8,3.5-5.58,2.16-.17,4.37-.25,6.59-.25s4.44.08,6.59.25c1.2,1.76,2.36,3.63,3.49,5.56s2.18,3.91,3.12,5.8C66.3,56.31,65.26,58.28,64.13,60.23Zm4.78-2.3a64.76,64.76,0,0,1,2.43,6.37,65.77,65.77,0,0,1-6.75,1.15q1.12-1.78,2.22-3.68T68.91,57.94ZM54.17,74.27c-1.46-1.58-2.92-3.33-4.35-5.2q2.06.08,4.22.08t4.37-.1A64.92,64.92,0,0,1,54.17,74.27ZM43.56,65.52a64.94,64.94,0,0,1-6.66-1.07c.64-2.06,1.43-4.21,2.34-6.38q1,1.87,2,3.73h0Q42.39,63.7,43.56,65.52ZM39.24,50.79c-.9-2.13-1.67-4.22-2.3-6.25,2.06-.46,4.27-.84,6.55-1.12q-1.14,1.78-2.21,3.64h0Q40.21,48.92,39.24,50.79ZM54.08,34.64a66.2,66.2,0,0,1,4.25,5.14q-2.12-.1-4.29-.1t-4.26.1C51.19,37.93,52.63,36.21,54.08,34.64ZM66.8,47q-1.07-1.85-2.2-3.62c2.3.29,4.51.68,6.59,1.15a66.16,66.16,0,0,1-2.31,6.22Q67.9,48.93,66.8,47Zm-31.19-7.7a26.32,26.32,0,0,1-.39-9.2c.37-2.16,1.16-3.68,2.21-4.29s2.94-.55,5.14.26a27.71,27.71,0,0,1,8.27,5.34c.36.32.72.65,1.08,1a74,74,0,0,0-6.16,7.62,74.73,74.73,0,0,0-9.65,1.5Q35.82,40.42,35.61,39.33Zm-3.5,23.8a26.11,26.11,0,0,1-8.43-4.48c-1.74-1.49-2.7-3-2.7-4.3,0-3.19,5.26-6.46,10.47-8.27.79-.28,1.62-.54,2.49-.78a74,74,0,0,0,3.52,9.13,74.5,74.5,0,0,0-3.57,9.27Q33,63.42,32.11,63.13ZM37.47,83c-2.77-1.6-3-7.78-1.94-13.2q.22-1.17.53-2.4a72.11,72.11,0,0,0,9.74,1.41A74.44,74.44,0,0,0,52,76.5q-.69.67-1.38,1.27C44.55,83.09,39.55,84.22,37.47,83Zm35.1-14c1.57,7.93.05,12.83-2,14-2.76,1.6-8.22-1.32-12.41-4.92q-.9-.78-1.82-1.66a72.06,72.06,0,0,0,6.06-7.7,72.52,72.52,0,0,0,9.79-1.51Q72.4,68.17,72.57,69Zm3-5.88-1.21.38a71.92,71.92,0,0,0-3.66-9.16,72.91,72.91,0,0,0,3.52-9q1.11.32,2.15.68a26.32,26.32,0,0,1,8.16,4.27c1.68,1.4,2.61,2.85,2.61,4.06C87.11,56.74,83.49,60.51,75.54,63.15Z"/></svg>