<svg id="Layer_1" data-name="Layer 1" xmlns="http://www.w3.org/2000/svg" viewBox="0 0 108 108.31"><defs><style>.cls-1{fill:#e8178a;}.cls-2{fill:#e70d89;}.cls-3{fill:#512d82;}.cls-4{fill:#e10b89;}.cls-5{fill:#e7108a;}.cls-6{fill:#d11288;}.cls-7{fill:#c51488;}.cls-8{fill:#ba1988;}.cls-9{fill:#c81388;}.cls-10{fill:#d71087;}.cls-11{fill:#db0e88;}.cls-12{fill:#d41288;}.cls-13{fill:#c81488;}.cls-14{fill:#bf1688;}.cls-15{fill:#ce1288;}.cls-16{fill:#d51088;}.cls-17{fill:#b91b88;}.cls-18{fill:#512d83;}.cls-19{fill:#a62189;}.cls-20{fill:#a52189;}.cls-21{fill:#df0e88;}.cls-22{fill:#762a86;}.cls-23{fill:#872888;}.cls-24{fill:#b51c88;}.cls-25{fill:#ac2089;}.cls-26{fill:#a12389;}.cls-27{fill:#bd1888;}.cls-28{fill:#cc1488;}.cls-29{fill:#a22189;}.cls-30{fill:#8d2788;}.cls-31{fill:#ab1d89;}.cls-32{fill:#b61c88;}.cls-33{fill:#802987;}.cls-34{fill:#722b85;}.cls-35{fill:#c11688;}.cls-36{fill:#cd1488;}.cls-37{fill:#942687;}.cls-38{fill:#9e2389;}.cls-39{fill:#cd1489;}.cls-40{fill:#9d2389;}.cls-41{fill:#b01d88;}.cls-42{fill:#ba1989;}.cls-43{fill:#c91488;}.cls-44{fill:#612c85;}.cls-45{fill:#7c2b86;}.cls-46{fill:#c61488;}.cls-47{fill:#7b2b86;}.cls-48{fill:#c41488;}.cls-49{fill:#692c85;}.cls-50{fill:#912787;}.cls-51{fill:#992489;}.cls-52{fill:#ac1f89;}.cls-53{fill:#572d85;}.cls-54{fill:#7f2b87;}.cls-55{fill:#832887;}.cls-56{fill:#b61c89;}.cls-57{fill:#a2238a;}.cls-58{fill:#882888;}.cls-59{fill:#c01689;}.cls-60{fill:#b11d89;}.cls-61{fill:#bf1789;}.cls-62{fill:#6e2b86;}.cls-63{fill:#7c2b87;}.cls-64{fill:#532e83;}.cls-65{fill:#822987;}.cls-66{fill:#832987;}.cls-67{fill:#5d2d85;}.cls-68{fill:#732b85;}.cls-69{fill:#912789;}.cls-70{fill:#c01789;}.cls-71{fill:#8e2789;}.cls-72{fill:#6e2c86;}.cls-73{fill:#942588;}.cls-74{fill:#932788;}.cls-75{fill:#762c86;}.cls-76{fill:#8d2789;}.cls-77{fill:#8e2889;}.cls-78{fill:#c51789;}.cls-79{fill:#662d85;}.cls-80{fill:#b21d89;}.cls-81{fill:#bc1c8a;}.cls-82{fill:#c41688;}.cls-83{fill:#9b298a;}.cls-84{fill:#63388b;}.cls-85{fill:#612c84;}.cls-86{fill:#6e2b85;}.cls-87{fill:#5c2d84;}.cls-88{fill:#592e84;}.cls-89{fill:#552e84;}.cls-90{fill:#652c84;}.cls-91{fill:#892888;}.cls-92{fill:#8c2788;}.cls-93{fill:#c31788;}.cls-94{fill:#e00d89;}.cls-95{fill:#db1189;}.cls-96{fill:#c71788;}.cls-97{fill:#8f2788;}.cls-98{fill:#932687;}.cls-99{fill:#ce1488;}.cls-100{fill:#d61389;}.cls-101{fill:#a72089;}.cls-102{fill:#af1d89;}.cls-103{fill:#b31c88;}.cls-104{fill:#fafafa;}.cls-105{fill:#e8158a;}</style></defs><title>rxjs</title><path class="cls-1" d="M56.29,89.75a34.43,34.43,0,0,1-11.57-2.4C34.63,83.4,27.24,76.61,23,66.56c-.1-.24-.17-.48-.25-.73s-.07-.6-.24-.86a.85.85,0,0,1,0-.65c.41-.27.64.1.89.28,2.5,1.83,4.95,3.73,7.42,5.6L49.56,84.39c1.93,1.46,3.87,2.9,5.79,4.37C55.71,89,56.14,89.27,56.29,89.75Z"/><path class="cls-1" d="M21.72,63.71a20.53,20.53,0,0,1-3.21-4.08A3.68,3.68,0,0,1,18.73,55c1.33-1.58,1.25-3.41.67-5.27-.38-1.23-.81-2.45-1.1-3.71a4.62,4.62,0,0,1,1.09-4.32A15.34,15.34,0,0,1,22,39.24a5.23,5.23,0,0,0,2.14-4.51,30.34,30.34,0,0,1,.12-3.38,4.57,4.57,0,0,1,3.13-3.89,9.7,9.7,0,0,1,3.15-.67,7.7,7.7,0,0,0,5.69-3c.57-.65,1.17-1.29,1.71-2a7,7,0,0,1,6.72-2.56,9.92,9.92,0,0,1,6.17,3.06c-.32.33-.78.12-1.14.29s-.94,0-1.4.14-.84,0-1.25.17-1,.15-1.43.26-1.14.24-1.7.41a14.88,14.88,0,0,0-1.82.56c-.61.22-1.23.43-1.82.7a18.9,18.9,0,0,0-2.11,1,21.06,21.06,0,0,0-2.23,1.27c-.63.4-1.26.8-1.86,1.24s-1,.74-1.42,1.12-1,.86-1.51,1.28-1,1-1.55,1.55c-.39.33-.63.79-1,1.14-.6.67-1.12,1.39-1.66,2.1s-.83,1.23-1.24,1.85a21.1,21.1,0,0,0-1.16,2.07c-.35.68-.71,1.36-1,2.07a37.58,37.58,0,0,0-2.76,10.23,25.5,25.5,0,0,0,.84,10.51C21.73,62.75,22.06,63.21,21.72,63.71Z"/><path class="cls-2" d="M62.22,89.49a19.48,19.48,0,0,1-4.37.27c-1.62-1.08-3.15-2.3-4.7-3.47L42.35,78.12c-6.34-4.81-12.71-9.59-19-14.43a5.18,5.18,0,0,1-1.06-.81,12,12,0,0,1-.1-3.5c.26-.51.56-.17.79,0,1.84,1.42,3.72,2.79,5.57,4.2,3.64,2.78,7.31,5.52,11,8.29Q50.58,80.3,61.71,88.7C62,88.89,62.4,89,62.22,89.49Z"/><path class="cls-3" d="M22.33,59.18a17.54,17.54,0,0,0,.12,3.8,1.53,1.53,0,0,1,.14,1.27v.7c.07.14.12.28-.13.29a10.94,10.94,0,0,0-.75-1.53,17.29,17.29,0,0,0-.7-2.78,29.09,29.09,0,0,1,.49-14.11,29.53,29.53,0,0,1,1.9-5.42c.53.08.46.51.49.86a39.68,39.68,0,0,0,1,6.32,1.55,1.55,0,0,1-.18.74c-.12.24-.24.48-.36.72a3.66,3.66,0,0,0-.26.64,13.84,13.84,0,0,0-.65,1.94c-.11.41-.26.81-.33,1.23a12.34,12.34,0,0,0-.25,1.41c-.09.56-.19,1.13-.24,1.7a12.16,12.16,0,0,0-.14,1.65A.8.8,0,0,1,22.33,59.18Z"/><path class="cls-4" d="M22.33,59.18V58.6c.06-.1,0-.28.18-.32a1.88,1.88,0,0,1,1,.52Q31.7,65,39.87,71.18c.28.21.61.35.9.55.65.75,1.24,1.56,2,2.25a20.28,20.28,0,0,0,6.35,4.22c.54,0,.79.41,1.16.65s.44.34.66.52a28.85,28.85,0,0,0,4.89,3.12,1.93,1.93,0,0,1,.77.59,3.66,3.66,0,0,0,1.08,1c1.93,1.48,3.91,2.9,5.82,4.42.22.18.66.27.47.73a4.71,4.71,0,0,1-1.69.27c-.23-.62-.85-.83-1.32-1.19-4.33-3.3-8.68-6.56-13-9.83L40.61,73,26.93,62.61C25.41,61.46,23.86,60.32,22.33,59.18Z"/><path class="cls-5" d="M22.58,64.25A2.8,2.8,0,0,1,22.44,63a13.16,13.16,0,0,1,2.61,1.85q5.09,3.79,10.14,7.63L49.95,83.64c2.42,1.83,4.86,3.65,7.27,5.49.23.18.54.29.63.63H56.29L42.9,79.57q-4.69-3.56-9.4-7.1L23.27,64.73C23,64.56,22.81,64.41,22.58,64.25Z"/><path class="cls-6" d="M69.28,27.83a31.45,31.45,0,0,1,6.18,4.85,10.76,10.76,0,0,1-3.4,14.18c-.51.34-.95.9-1.68.61a3,3,0,0,1-1.26-.13c0-.42.33-.46.58-.58a9.33,9.33,0,0,0,5.8-7.58A8.94,8.94,0,0,0,68.36,29a9.12,9.12,0,0,0-10.77,8.86,9.27,9.27,0,0,0,2.26,6.55c.19.21.44.45.25.8a6.2,6.2,0,0,1-1.56-.54,9.26,9.26,0,0,1-2.14-5,10.71,10.71,0,0,1,9.45-12.14A14.38,14.38,0,0,1,69.28,27.83Z"/><path class="cls-2" d="M56.44,83.15c-1.22-.9-2.66-1.41-3.86-2.34-.58-.45-1.19-.88-1.78-1.32A24.76,24.76,0,0,0,49,76.66c-1.53-2.23-3-4.47-4.58-6.68a1.93,1.93,0,0,0-.22-.36h0c-.15-.27,0-.58-.11-.85-.05-.49.22-.15.27-.08a15.69,15.69,0,0,0,2.49,2.53,48.27,48.27,0,0,0,6,4.73c0,.24.14.39.26.56q2,3,4.1,6c.19.27.65.6.13,1A1,1,0,0,1,56.44,83.15Z"/><path class="cls-7" d="M55.58,43.54a9.44,9.44,0,0,1-1.83-.75,8.84,8.84,0,0,1-.74-3,14.25,14.25,0,0,1,3.82-11.37,13.45,13.45,0,0,1,5.83-3.68.77.77,0,0,1,.68,0,8.72,8.72,0,0,1,1.85.81c0,.53-.42.5-.73.57a12.08,12.08,0,0,0-4,1.6,12.59,12.59,0,0,0-5.74,9.34,12.77,12.77,0,0,0,.71,5.46C55.58,42.86,55.82,43.18,55.58,43.54Z"/><path class="cls-8" d="M52.32,42.17l-1-.36c-.23-.06-.48-.1-.56-.38a15.36,15.36,0,0,1,0-6.32,2.65,2.65,0,0,0,.07-.9,1.75,1.75,0,0,1,.31-1,10.35,10.35,0,0,0,1-2.42,17,17,0,0,1,6.5-7c.27-.16.51-.43.88-.29a6.57,6.57,0,0,1,1.85.56.87.87,0,0,1-.56.58A15.11,15.11,0,0,0,54,31.23a14.47,14.47,0,0,0-1.7,6.4,14.55,14.55,0,0,0,.24,3.57C52.56,41.52,52.72,41.91,52.32,42.17Z"/><path class="cls-9" d="M23.31,52.54a8.17,8.17,0,0,1,.7-2c.27-.09.45.09.63.23,4.07,3.1,8.16,6.16,12.23,9.26l.1.1,0,1c.14.28,0,.58.09.86l0,.57c-.49.1-.77-.27-1.09-.51q-5.81-4.36-11.6-8.76A8.32,8.32,0,0,0,23.31,52.54Z"/><path class="cls-10" d="M66.56,46.92a21,21,0,0,1-4.07-1,8.3,8.3,0,0,1-4.12-5,8.7,8.7,0,0,1,1.43-8.26,8.15,8.15,0,0,1,7.89-3.39,8.23,8.23,0,0,1,7.18,6.28,8.93,8.93,0,0,1-8.25,11.36S66.58,46.93,66.56,46.92Z"/><path class="cls-11" d="M22.47,56.92a6.57,6.57,0,0,1,.26-1.69c.42-.22.66.11.92.31q5.46,4.1,10.9,8.23c1.14.87,2.31,1.68,3.42,2.6L39.11,69c-.44.22-.71-.15-1-.35q-2.8-2.09-5.58-4.19c-3-2.32-6.12-4.61-9.16-6.94C23.09,57.33,22.78,57.13,22.47,56.92Z"/><path class="cls-12" d="M60.1,45.2c-.14-.58-.64-.9-1-1.36a9.39,9.39,0,0,1-1.74-5.46,9.2,9.2,0,0,1,2-6.14,8.9,8.9,0,0,1,6.87-3.56,8.77,8.77,0,0,1,7.14,3,8.93,8.93,0,0,1,2.34,5.73,9.23,9.23,0,0,1-1.24,5.39A9.86,9.86,0,0,1,69.69,47c-.21.09-.47.09-.56.36a6.24,6.24,0,0,1-1.84-.29,2.53,2.53,0,0,1,1.11-.4,8.91,8.91,0,0,0,5-14A8.21,8.21,0,0,0,61.66,31a9,9,0,0,0-.93,13.72c.29.29.87.37.78,1A4.79,4.79,0,0,1,60.1,45.2Z"/><path class="cls-13" d="M55.58,43.54c-.28-1-.61-2-.84-3a11.37,11.37,0,0,1,.81-7.25,12.17,12.17,0,0,1,8.6-7.3c.36-.09.82,0,1-.45l2,1c-.07.37-.39.28-.62.32a18.34,18.34,0,0,0-3.31.66A11.39,11.39,0,0,0,55.76,38a12.45,12.45,0,0,0,1.13,5.19c.13.29.37.58.1.91A5,5,0,0,1,55.58,43.54Z"/><path class="cls-14" d="M52.32,42.17a4.21,4.21,0,0,0-.15-1.86,15.77,15.77,0,0,1,1.07-8,13.51,13.51,0,0,1,2.42-3.92,14.82,14.82,0,0,1,4.89-3.79c.31-.14.54-.35.83-.51a7.91,7.91,0,0,1,2,.72,14.06,14.06,0,0,0-5,2.55,13.08,13.08,0,0,0-3.45,4.18A14.49,14.49,0,0,0,53.18,37a12.8,12.8,0,0,0,.55,5.23,2.28,2.28,0,0,1,0,.56Z"/><path class="cls-15" d="M23.31,52.54c.26-.15.44,0,.63.16l8.5,6.41C33.7,60.07,35,61,36.22,62c.28.21.59.37.89.56l.4,2.11a1.69,1.69,0,0,1-.91-.49c-4.42-3.31-8.81-6.67-13.23-10a1.11,1.11,0,0,1-.39-.39A5.41,5.41,0,0,1,23.31,52.54Z"/><path class="cls-16" d="M23,53.81a16.11,16.11,0,0,1,2.66,1.89c3.73,2.8,7.43,5.62,11.15,8.44.24.18.55.27.72.54l.44,1.7a8.53,8.53,0,0,1-2.3-1.56c-2.86-2.11-5.68-4.26-8.51-6.4Q25.27,57,23.41,55.56a1.34,1.34,0,0,0-.69-.33A4.31,4.31,0,0,1,23,53.81Z"/><path class="cls-17" d="M37.26,56.1a3.91,3.91,0,0,1-.16,1.24c-.32.11-.54-.1-.76-.27q-5.57-4.22-11.14-8.43a.56.56,0,0,1-.13-.16c-.09-.51.34-.79.53-1.18A.74.74,0,0,1,26,47a4.33,4.33,0,0,1,1.4.92c3.11,2.37,6.25,4.72,9.37,7.09C37.15,55.28,37.48,55.56,37.26,56.1Z"/><path class="cls-18" d="M83.09,46.18a20,20,0,0,0-.69-6.55,7.43,7.43,0,0,0-.75-1.82c2.65,2,4.74,7.21,4.09,12.48-.25.39-.48.18-.65,0-.69-.94-1.33-1.92-2-2.91A1.47,1.47,0,0,1,83.09,46.18Z"/><path class="cls-19" d="M79.68,81.46a8.82,8.82,0,0,1-1.51,1.28,3.43,3.43,0,0,0-1.34.27c-.34.19-.56-.1-.75-.35-.51-.67-1-1.38-1.45-2.08-1.49-2.2-3-4.38-4.48-6.57-.17-.24-.41-.47-.32-.82l1.53-.63c.31.12.42.43.59.67,1.83,2.67,3.65,5.36,5.49,8,.51.74.52.73,1.31.22C79.07,81.28,79.38,81.06,79.68,81.46Z"/><path class="cls-11" d="M57.28,78.37l1.84.72a1.56,1.56,0,0,1,.57.6c1,1.56,2.09,3,3.11,4.59a2.85,2.85,0,0,1,.53,1.06c.05.3.3.46.53.63.83.61,1.63,1.25,2.45,1.88.23.18.61.34.42.77L65,89c-1.77-1.24-3.45-2.62-5.19-3.9-.22-.16-.46-.35-.35-.69a.27.27,0,0,1,.17-.09c.5.07,1,.29,1.58.36a9.3,9.3,0,0,0-1-1.61c-.9-1.23-1.68-2.55-2.59-3.78C57.44,79.05,57.18,78.77,57.28,78.37Z"/><path class="cls-20" d="M38.67,51.3l-.46,1.1c-.35.09-.58-.14-.82-.32-3.1-2.36-6.23-4.69-9.32-7.06a.83.83,0,0,1-.32-.37,1.81,1.81,0,0,1,.89-1.09,1,1,0,0,1,.77.29l8.76,6.64C38.43,50.68,38.86,50.81,38.67,51.3Z"/><path class="cls-21" d="M22.47,56.92c.34-.17.53.13.72.28q6.88,5.17,13.74,10.37A8.71,8.71,0,0,0,39.11,69l1,1.69c-.43.24-.71-.1-1-.3q-2.38-1.75-4.73-3.54-5.6-4.25-11.22-8.47c-.22-.16-.44-.41-.72-.09l-.11.27A8.15,8.15,0,0,1,22.47,56.92Z"/><path class="cls-22" d="M78.14,60l1-1.57c.27-.11.39.1.5.27,1.85,2.66,3.64,5.36,5.49,8a1,1,0,0,1,.09.19,6.76,6.76,0,0,1-1.08,1.42c-.31.08-.42-.17-.53-.35-.64-1-1.39-1.93-2-3C80.41,63.37,79.23,61.72,78.14,60Z"/><path class="cls-23" d="M43.91,45.22l-1.25,1c-.34.16-.59,0-.83-.22-2.46-1.89-5-3.72-7.41-5.62-.22-.17-.46-.34-.48-.66a.37.37,0,0,1,.17-.25A4.34,4.34,0,0,1,35.39,39a.93.93,0,0,1,.65.2c2.57,2,5.14,3.93,7.74,5.85A.42.42,0,0,1,43.91,45.22Z"/><path class="cls-24" d="M37.26,56.1a.85.85,0,0,0-.4-.81c-2.68-2-5.33-4-8-6-1-.73-1.92-1.48-2.88-2.22a1,1,0,0,1,.45-1,.62.62,0,0,1,.29-.09c.43.11.68.48,1,.73,3.19,2.35,6.31,4.78,9.49,7.15a2.08,2.08,0,0,1,.42.37Z"/><path class="cls-25" d="M69.84,73.18,75,80.75c.43.64.89,1.25,1.31,1.89.2.31.47.36.69.15.41-.4.79-.24,1.19-.06a4.43,4.43,0,0,1-1.13.88c-.48-.39-1-.18-1.43,0a.45.45,0,0,1-.2,0,11.54,11.54,0,0,1-1.61-2.2q-2.4-3.5-4.78-7c-.16-.24-.41-.47-.31-.82Z"/><path class="cls-26" d="M38.67,51.3c0-.42-.39-.51-.63-.69q-4.39-3.37-8.81-6.7a1.05,1.05,0,0,0-.57-.24c-.09-.15,0-.25.08-.37.23-.24.43-.53.8-.59a1.11,1.11,0,0,1,.69.31c3,2.19,5.86,4.45,8.82,6.65a.93.93,0,0,1,.34.35Z"/><path class="cls-27" d="M25.1,48.45c1.39.86,2.64,1.91,3.94,2.88,2.42,1.81,4.81,3.67,7.22,5.5a9.55,9.55,0,0,0,.83.51,4.22,4.22,0,0,1-.11,1.3,6.49,6.49,0,0,1-1.44-1c-3.57-2.7-7.12-5.43-10.72-8.09a.89.89,0,0,1-.25-.25l.25-.59C24.93,48.63,24.88,48.41,25.1,48.45Z"/><path class="cls-4" d="M59.68,84.42h-.14a3.21,3.21,0,0,1-2.26-1c.25-.26,0-.43-.12-.6q-2.15-3.16-4.32-6.3c-.13-.2-.34-.36-.05-.58l2.8,1.6c1.47,2.06,2.85,4.18,4.29,6.26C60,84,60.32,84.41,59.68,84.42Z"/><path class="cls-28" d="M70.38,47.48c.57.14.88-.31,1.29-.56a10.62,10.62,0,0,0,3.5-3.59,10.42,10.42,0,0,0,1.34-7,11.76,11.76,0,0,0-.93-3.07,1.69,1.69,0,0,1-.11-.62A8.43,8.43,0,0,1,77,34.32a10.44,10.44,0,0,1,.31,6.17,11.26,11.26,0,0,1-4.84,7.1A7,7,0,0,1,70.38,47.48Z"/><path class="cls-29" d="M78.86,81.6a3.47,3.47,0,0,0-.47.31c-.32.3-.55.23-.78-.12q-3-4.41-6-8.81a4.14,4.14,0,0,1-.23-.44L72.51,72c1.33,1.72,2.47,3.57,3.7,5.36.82,1.19,1.66,2.38,2.45,3.59C78.79,81.14,79.06,81.3,78.86,81.6Z"/><path class="cls-30" d="M34,39.71A18.84,18.84,0,0,0,36.88,42c1.66,1.29,3.35,2.53,5,3.81a1.57,1.57,0,0,0,.75.36l-1,1c-.33.08-.52-.18-.73-.34-2.47-1.92-5-3.75-7.48-5.68a2,2,0,0,1-.72-.75.42.42,0,0,1,.17-.37C33.23,39.89,33.53,39.51,34,39.71Z"/><path class="cls-31" d="M27.81,44.65l9.42,7.09c.32.24.66.44,1,.66l-.35,1c-.29.12-.5-.07-.7-.21-3.35-2.55-6.76-5-10.06-7.65-.12-.33.17-.47.31-.69S27.6,44.58,27.81,44.65Z"/><path class="cls-16" d="M66.73,88.62c-.34-.82-1.23-1-1.78-1.62a3,3,0,0,0-.79-.57c-.7-.37-.91-1.08-1.29-1.69-1.11-1.76-2.3-3.45-3.46-5.18-.1-.15-.19-.32-.29-.48l2,.57c1.19,1.91,2.5,3.74,3.77,5.59a7.15,7.15,0,0,0,1.6,1.36c.4.32.83.62,1.23.93.21.17.49.31.44.66Z"/><path class="cls-19" d="M53.63,22.5l.84,0c.33.05.38.23.21.49a2,2,0,0,1-.4.4,20.71,20.71,0,0,0-4.55,5.94c-.14.27-.25.57-.61.61a.9.9,0,0,1-.31,0,6.15,6.15,0,0,0-.89-.24c-.14,0-.26-.1-.27-.28a26.44,26.44,0,0,1,4.1-6.21A1.66,1.66,0,0,1,53.63,22.5Z"/><path class="cls-32" d="M59.55,23.49a16.5,16.5,0,0,0-5.49,4.61,21.8,21.8,0,0,0-1.72,2.73c-.37.21-.68-.07-1-.11a.41.41,0,0,1-.31-.27,12,12,0,0,1,2.51-4A15.83,15.83,0,0,1,57,23.3c.23-.15.44-.38.76-.24A6.6,6.6,0,0,1,59.55,23.49Z"/><path class="cls-33" d="M45.63,44.11a2.94,2.94,0,0,1-.89.54c-.34.17-.58,0-.82-.22-2.26-1.67-4.44-3.43-6.72-5.07a1.56,1.56,0,0,1-.66-.8,23.45,23.45,0,0,1,.4-5.1.92.92,0,0,1,.38-.65c.62.08.43.65.61,1a27,27,0,0,0-.43,3.9c-.09.7.37.62.81.57a.7.7,0,0,1,.31.08,3,3,0,0,0,1.18,1.24q2.83,2.09,5.61,4.25A.61.61,0,0,1,45.63,44.11Z"/><path class="cls-34" d="M85.18,66.93a4.24,4.24,0,0,1-1-1.23q-2.34-3.39-4.65-6.8c-.12-.17-.19-.38-.42-.45l.76-1.38a28.55,28.55,0,0,1,2.21,3.09l0,.14A4.93,4.93,0,0,1,83,61.45c.93,1.47,2,2.82,2.89,4.35A6.18,6.18,0,0,1,85.18,66.93Z"/><path class="cls-35" d="M24.58,49.31a9.3,9.3,0,0,1,2.3,1.57c2.65,2,5.29,3.93,7.89,6A12.35,12.35,0,0,1,37,58.64l0,.68c-.42.28-.66-.09-.92-.28-2.61-1.92-5.16-3.93-7.77-5.85-1.17-.86-2.3-1.78-3.47-2.65-.2-.15-.45-.26-.54-.54A1.65,1.65,0,0,1,24.58,49.31Z"/><path class="cls-36" d="M69.28,27.83c-.43.43-.91.07-1.32,0a8.81,8.81,0,0,0-5.25.79,10.54,10.54,0,0,0-4.58,15.25c.15.26.41.46.42.79a1.17,1.17,0,0,1-.72-.23A8.44,8.44,0,0,1,56,40a10.94,10.94,0,0,1,2.92-9.55,10.23,10.23,0,0,1,7.23-3.36,5.11,5.11,0,0,1,2.29.18A2.45,2.45,0,0,1,69.28,27.83Z"/><path class="cls-37" d="M41.08,47.76l-.71.84c-.3.11-.49-.09-.69-.24-2.65-2-5.33-4-8-6-.27-.21-.62-.35-.72-.74s.41-.52.69-.71a.58.58,0,0,1,.4-.07c2.82,2.25,5.77,4.35,8.62,6.57A1.15,1.15,0,0,1,41.08,47.76Z"/><path class="cls-13" d="M71.82,86.69a4.4,4.4,0,0,1-1.55.73c-1-.63-1.94-1.29-2.89-2s-1.19-1.6-1.8-2.4c-.48-.63-.9-1.31-1.33-2-.16-.25-.43-.51-.24-.82s.51-.1.78-.14a.33.33,0,0,1,.26.06h.56a29,29,0,0,1,1.83,2.57c.41.6.8,1.21,1.23,1.79a1.77,1.77,0,0,0,1.14.73A3.41,3.41,0,0,1,71.82,86.69Z"/><path class="cls-36" d="M65,80.19h-.21c-.24,0-.56-.13-.72.13s.14.47.27.66c.86,1.3,1.75,2.58,2.62,3.87a2.9,2.9,0,0,0,1.12.91,6.7,6.7,0,0,1,2.13,1.64,5.47,5.47,0,0,1-1.29.5,12.19,12.19,0,0,1-3.71-3.25c-.81-1.29-1.72-2.51-2.56-3.78-.18-.27-.48-.55-.22-.94Z"/><path class="cls-38" d="M78.86,81.6C78,80.39,77.23,79.17,76.41,78c-1.25-1.84-2.5-3.67-3.74-5.51a1.91,1.91,0,0,1-.16-.46l.84-.43c.35.15.48.51.67.79.6.87,1.16,1.76,1.83,2.58,1.07,1.83,2.37,3.5,3.53,5.27.19.29.43.51.81.26a.38.38,0,0,1,.52,0,4.51,4.51,0,0,1-1,1A.71.71,0,0,0,78.86,81.6Z"/><path class="cls-5" d="M44.16,69.62a2.41,2.41,0,0,1,.77.8q1.74,2.59,3.49,5.17c.75,1.1,1.51,2.2,2.25,3.3.11.17.37.34.12.6L49.07,78.2a10.89,10.89,0,0,0-1.52-1.72,14,14,0,0,1-3.29-6A8,8,0,0,1,44.16,69.62Z"/><path class="cls-39" d="M68.42,27.3a11.86,11.86,0,0,0-6.8,1.29A10.71,10.71,0,0,0,57,33.77a11.4,11.4,0,0,0-1,4.7,11.06,11.06,0,0,0,1.59,5.46,5.22,5.22,0,0,1,.23.51,2.54,2.54,0,0,1-.83-.34,11.8,11.8,0,0,0-.8-2.16,11.28,11.28,0,0,1,1.89-10.85,11,11,0,0,1,7-4.17,17,17,0,0,0,2.06-.29A3.4,3.4,0,0,1,68.42,27.3Z"/><path class="cls-40" d="M39.38,50a18,18,0,0,1-2.67-1.9c-2.19-1.63-4.35-3.3-6.54-4.94a1.16,1.16,0,0,0-.67-.36.16.16,0,0,1-.05-.12s0-.07,0-.07a1.44,1.44,0,0,1,.75-.51,1,1,0,0,1,.78.27c3,2.28,6,4.48,8.92,6.77A2.57,2.57,0,0,1,39.38,50Z"/><path class="cls-41" d="M27.11,45.5a18.14,18.14,0,0,1,2.55,1.82c1.9,1.39,3.77,2.83,5.64,4.26a18,18,0,0,0,2.55,1.84l-.2.83a10,10,0,0,1-2.35-1.61c-2.62-1.94-5.22-3.92-7.82-5.89-.28-.21-.53-.45-.8-.68C26.62,45.72,26.84,45.58,27.11,45.5Z"/><path class="cls-42" d="M75.21,84.87a7.17,7.17,0,0,1-1.56.93c-.53-.45-1-1-1.84-.83-.33.06-.51-.27-.7-.52-.76-1-1.43-2.09-2.14-3.14-.36-.54-.71-1.06-1.48-1a.28.28,0,0,1-.23-.15l2.85-.25a15.57,15.57,0,0,1,1.7,2.29c.31.44.62.88.89,1.34a.9.9,0,0,0,1.25.5C74.56,83.85,75,84.23,75.21,84.87Z"/><path class="cls-43" d="M72.51,47.59c.09-.48.56-.62.86-.87a11.53,11.53,0,0,0,4.08-9.85c0-.86-.42-1.67-.41-2.55a5.74,5.74,0,0,1,1.24,1.59,12.89,12.89,0,0,1-2.45,9.62,14.45,14.45,0,0,1-1.15,1.24c-.2.2-.42.4-.29.73A5.8,5.8,0,0,1,72.51,47.59Z"/><path class="cls-44" d="M84.22,58.34l1.4-1.87a12.05,12.05,0,0,1,1.45,2,21.51,21.51,0,0,0,1.34,1.88,11,11,0,0,1-.91,2.42c-.32.11-.48-.14-.62-.33-.91-1.26-1.78-2.56-2.65-3.85A.22.22,0,0,1,84.22,58.34Z"/><path class="cls-45" d="M78.14,60a2.08,2.08,0,0,1,.43.36c1,1.52,2.08,3.06,3.12,4.58,0,.45-.23.75-.75.68l-.62.33c-.3.1-.43-.13-.57-.31-.91-1.17-1.64-2.46-2.52-3.66a.49.49,0,0,1-.06-.59Z"/><path class="cls-46" d="M74.39,47.49c-.66,0-.42-.31-.14-.56a11.75,11.75,0,0,0,3.91-8.67,6.59,6.59,0,0,1,.11-2.35,6.56,6.56,0,0,1,1.05,1.52,35.87,35.87,0,0,1-.48,3.81,14.3,14.3,0,0,1-3,5.58,1.57,1.57,0,0,1-.82.62Z"/><path class="cls-47" d="M47.87,43l-1.45.69c-2-1.49-4-3-6-4.54-.23-.18-.64-.34-.31-.77a1.23,1.23,0,0,1,.54-.11c.31,0,.61,0,.92,0a3.36,3.36,0,0,1,1.17.3,1.53,1.53,0,0,0,.67.77l3.86,2.9C47.54,42.43,47.85,42.6,47.87,43Z"/><path class="cls-16" d="M61.51,45.64c-.48-.76-1.23-1.26-1.78-2a8.52,8.52,0,0,1-1.85-5.41,9,9,0,0,1,7.33-9,8.57,8.57,0,0,1,9.72,6.35,9.07,9.07,0,0,1-6.57,11.12c-.36.09-.68.34-1.07.28a1.13,1.13,0,0,1-.72-.14,14.54,14.54,0,0,0,3.69-1.06,8.55,8.55,0,0,0,4.66-6.69,8.26,8.26,0,0,0-4.06-8.6A7.66,7.66,0,0,0,63.52,30a8.39,8.39,0,0,0-5.33,7,8.35,8.35,0,0,0,3,7.83c.42.35,1,.55,1.27,1.07A3.52,3.52,0,0,1,61.51,45.64Z"/><path class="cls-48" d="M75.06,47.44A12.83,12.83,0,0,0,79,38.39a1.18,1.18,0,0,1,.33-1,6.51,6.51,0,0,1,.8,1.57,2.84,2.84,0,0,1-.13,1.5,13.51,13.51,0,0,1-2.5,5.87,2.08,2.08,0,0,1-.62.65A6.18,6.18,0,0,1,75.06,47.44Z"/><path class="cls-6" d="M62.5,79.94c0,.44.28.74.49,1.06.77,1.17,1.61,2.3,2.35,3.49a10.23,10.23,0,0,0,2.88,2.71,3.59,3.59,0,0,1,.76.72l-.85.28a15.91,15.91,0,0,0-2.63-2.07,6.56,6.56,0,0,1-1.4-1.64c-1-1.33-1.84-2.71-2.76-4.06a1.07,1.07,0,0,1-.26-.77Z"/><path class="cls-48" d="M24.27,50c1.45.89,2.73,2,4.09,3,2.71,2,5.4,4.06,8.09,6.11a.76.76,0,0,0,.52.17v.85a8.62,8.62,0,0,1-2.3-1.56c-2.85-2.1-5.66-4.25-8.49-6.38L24,50.58A.87.87,0,0,1,24.27,50Z"/><path class="cls-49" d="M84.22,58.34c1,1.16,1.7,2.49,2.61,3.7a2,2,0,0,0,.67.69,9.12,9.12,0,0,1-.93,1.95c-.3,0-.39-.22-.53-.4-1-1.33-1.83-2.78-2.85-4.11-.12-.16-.28-.34-.11-.56Z"/><path class="cls-4" d="M22.45,58.33c0-.33-.1-.75.48-.31q7.16,5.43,14.34,10.83l2.14,1.58a1.16,1.16,0,0,0,.7.3,3.23,3.23,0,0,1,.66,1,1.27,1.27,0,0,1-1-.41L28.42,62.73l-5-3.75C23.13,58.75,22.78,58.55,22.45,58.33Z"/><path class="cls-50" d="M41.08,47.76a16.83,16.83,0,0,1-2.62-1.85c-1.88-1.38-3.73-2.81-5.59-4.22a3.37,3.37,0,0,1-.83-.84c.08-.39.3-.57.7-.42l8.89,6.77Z"/><path class="cls-51" d="M39.91,49.16a7.64,7.64,0,0,1-2.23-1.49C35.44,46,33.24,44.29,31,42.6c-.23-.18-.47-.41-.81-.35-.07-.33.2-.46.39-.63s.29-.17.47-.07c1.4,1.09,2.79,2.19,4.19,3.27,1.56,1.2,3.12,2.38,4.69,3.56a3.22,3.22,0,0,0,.43.23C40.3,48.86,40.06,49,39.91,49.16Z"/><path class="cls-52" d="M49.1,29.84c.67-.38.76-1.14,1.11-1.72a22.48,22.48,0,0,1,4.1-5c.2-.18.54-.31.15-.62a6.3,6.3,0,0,1,1.69.24c.2.41-.16.54-.37.71a19.82,19.82,0,0,0-4.66,5.39c-.27.46-.37,1-.86,1.34a.74.74,0,0,1-.31,0,5.55,5.55,0,0,1-.71-.17C49.14,30,49.06,30,49.1,29.84Z"/><path class="cls-53" d="M83.09,46.18a2.05,2.05,0,0,0,.48,1.55c.57.74,1.07,1.54,1.58,2.32.15.23.27.47.59.24a14,14,0,0,1-.56,3.09c-.28.05-.44-.15-.57-.33-.7-1-1.45-2-2.11-3.06Z"/><path class="cls-54" d="M40.08,38.44c.24.65.89.85,1.37,1.23,1.56,1.23,3.16,2.4,4.74,3.59a.5.5,0,0,1,.24.41,2.26,2.26,0,0,1-.79.44,20.78,20.78,0,0,1-2.82-2c-1.28-.9-2.51-1.86-3.75-2.81-.26-.2-.66-.36-.39-.82A1.21,1.21,0,0,1,40.08,38.44Z"/><path class="cls-55" d="M36.69,38.73l7.41,5.65a1.21,1.21,0,0,0,.63.28,2.87,2.87,0,0,1-.83.57,17.91,17.91,0,0,1-3-2.12c-1.68-1.22-3.3-2.52-4.94-3.79a.75.75,0,0,0-.52-.16c0-.26.19-.26.34-.33C36.07,38.76,36.36,38.59,36.69,38.73Z"/><path class="cls-56" d="M70.36,79.36a1.91,1.91,0,0,1-1-.13c-1-1.3-1.85-2.72-2.82-4A9.66,9.66,0,0,1,66,74.4,7.35,7.35,0,0,1,67.56,74c.43-.15.58.19.76.45.94,1.35,1.88,2.7,2.77,4.08.16.25.47.52.27.81s-.53.06-.8.09A.38.38,0,0,1,70.36,79.36Z"/><path class="cls-57" d="M53.63,22.5c-.82-.17-1.31.3-1.78.86a33.24,33.24,0,0,0-3.36,4.73c-.25.44-.2,1.09-.8,1.32-.36.2-.62,0-.87-.22a2.69,2.69,0,0,1,.53-1.55,23,23,0,0,1,3-4.33,1.59,1.59,0,0,0,.35-.52c-.23-.22-.51-.07-.74-.14a.41.41,0,0,1-.26-.15c.36-.26.77-.07,1.16-.15A21.75,21.75,0,0,1,53.63,22.5Z"/><path class="cls-32" d="M75.21,84.87c-.38-.58-.83-1-1.56-.53a.51.51,0,0,1-.74-.18c-.89-1.44-2-2.75-2.79-4.24a3.63,3.63,0,0,1,1.12-.16c.46-.2.69.1.91.41.65,1,1.34,1.9,2,2.87.2.31.4.65.88.53a.71.71,0,0,1,.48,0h.14c.4,0,.67.09.7.54C75.9,84.29,75.65,84.73,75.21,84.87Z"/><path class="cls-58" d="M84.07,76.66a8.06,8.06,0,0,1-1.14,1.41c-.25.19-.4,0-.52-.17-.92-1.19-1.69-2.47-2.54-3.71a.32.32,0,0,1,0-.34L81.68,73A33.79,33.79,0,0,1,84.07,76.66Z"/><path class="cls-59" d="M67.26,80.18c.9-.18,1.39.32,1.84,1,.7,1.1,1.48,2.15,2.2,3.24.19.29.39.48.73.4.85-.19,1.27.32,1.61,1a2.13,2.13,0,0,1-.86.45c-.49.21-.72-.25-1.07-.42l-.15-.11a1.07,1.07,0,0,0-.55-.31,3.85,3.85,0,0,1-.56-.18,4.69,4.69,0,0,1-1.19-1.45c-.7-.94-1.29-2-2-2.9-.14-.2-.33-.42-.14-.7A.08.08,0,0,1,67.26,80.18Z"/><path class="cls-60" d="M50.23,30.12c.63-1,1.12-2,1.79-2.93a21.07,21.07,0,0,1,3.78-3.94c.17-.14.35-.23.35-.48a4.57,4.57,0,0,1,1.58.28,10.41,10.41,0,0,0-2.36,1.71,19.87,19.87,0,0,0-4.3,5.64.39.39,0,0,1-.3.11C50.55,30.45,50.25,30.48,50.23,30.12Z"/><path class="cls-21" d="M59.68,84.42c.52-.15.14-.42,0-.56C58.48,82,57.21,80.2,56,78.36c-.16-.24-.42-.46-.38-.81l1.7.82c1.16,2,2.54,3.78,3.8,5.68a1.4,1.4,0,0,1,.15.23c.08.2.41.35.19.6s-.4,0-.58-.07C60.46,84.68,60,84.72,59.68,84.42Z"/><path class="cls-60" d="M75.48,83.58l-.42.14c-.43-.22-.6-.65-.83-1-.67-1.07-1.42-2.08-2.18-3.09-.52-.34-1.15,0-1.69-.25h.94a2.46,2.46,0,0,0-.56-1l-2.67-3.94c-.13-.2-.23-.42-.51-.41l1.15-.39,5.43,8Z"/><path class="cls-42" d="M66,74.4c.54.08.62.59.87.93.8,1.09,1.56,2.21,2.32,3.32a.93.93,0,0,1,.21.58,6.52,6.52,0,0,1-2.25-.59c-.87-1.09-1.62-2.27-2.39-3.45a.86.86,0,0,1-.18-.52A4.94,4.94,0,0,1,66,74.4Z"/><path class="cls-61" d="M76.89,47c.6-1.11,1.41-2.08,1.94-3.24A24.1,24.1,0,0,0,80.13,39a5.68,5.68,0,0,1,.71,2.53A7.33,7.33,0,0,1,80,44.09a17.26,17.26,0,0,1-.89,1.82A5.42,5.42,0,0,1,76.89,47Z"/><path class="cls-62" d="M83.09,59.6c.91,1.36,1.81,2.71,2.73,4.06.23.35.5.67.75,1a4.58,4.58,0,0,1-.67,1.13,5.66,5.66,0,0,1-1.22-1.6c-.89-1.27-1.82-2.53-2.58-3.89C82.57,60.26,82.73,59.78,83.09,59.6Z"/><path class="cls-63" d="M80.93,65.64c.36-.1.54-.4.75-.68.7,1,1.39,2,2.08,3,.09.14.17.28.33.34a6.83,6.83,0,0,1-1.24,1.42c-.26.1-.41-.07-.52-.24-.61-.9-1.27-1.78-1.85-2.7a.48.48,0,0,1-.07-.46C80.56,66.11,80.89,66,80.93,65.64Z"/><path class="cls-58" d="M76.88,69.32l1.43-1.07a.39.39,0,0,1,.25.11q1.14,1.54,2.16,3.15a.25.25,0,0,1,0,.26,5.41,5.41,0,0,1-1.46,1.08.29.29,0,0,1-.29-.14c-.69-1-1.38-1.92-2-2.93A.47.47,0,0,1,76.88,69.32Z"/><path class="cls-58" d="M73.93,65.1l1.4-1.43a5.38,5.38,0,0,1,1.1,1.44c.48.72,1,1.43,1.48,2.13a6.47,6.47,0,0,1-2.11.71s-.06,0-.06,0a7.22,7.22,0,0,1-1.87-2.74S73.89,65.14,73.93,65.1Z"/><path class="cls-44" d="M81.38,53.67l.71-2.13c.42,0,.57.37.77.65a21.27,21.27,0,0,0,1.89,2.62,11.11,11.11,0,0,1-.85,2.11c-.23.16-.36,0-.45-.17C82.77,55.72,82,54.73,81.38,53.67Z"/><path class="cls-21" d="M57.28,83.44c.7.45,1.53.61,2.26,1,0,.35.3.51.54.69l4.75,3.58A.47.47,0,0,1,65,89a3.28,3.28,0,0,1-1.13.18,13.14,13.14,0,0,0-2.56-2.12c-1.55-1.2-3.12-2.37-4.68-3.54a.5.5,0,0,1-.24-.4Z"/><path class="cls-37" d="M77,74.72l1.13-.28c.83,1.6,2,3,2.94,4.49.17.28.48.26.71.41a1.39,1.39,0,0,1-.54.57c-.74.55-.85.55-1.38-.2-1-1.36-1.92-2.76-2.85-4.16C76.87,75.31,76.57,75,77,74.72Z"/><path class="cls-22" d="M47.87,43c-1.2-1.12-2.58-2-3.87-3-.39-.3-.79-.59-1.18-.88-.14-.11-.27-.22-.07-.38a.54.54,0,0,1,.29-.15,3.36,3.36,0,0,1,1.09.17,3,3,0,0,1,1.19.46,19.43,19.43,0,0,0,2.49,2c.31.24.63.48.93.74s.4.29.21.57A3.94,3.94,0,0,1,47.87,43Z"/><path class="cls-51" d="M77,74.72c-.19.24-.06.44.07.64.95,1.39,1.93,2.75,2.84,4.16.37.57.73.79,1.32.38a1.73,1.73,0,0,1-.56.56c-.07,0-.16,0-.21,0-.78.63-1.12.05-1.5-.51-1-1.44-1.93-2.88-2.91-4.31a1.47,1.47,0,0,1-.32-.69c.06-.13.13-.22.29-.15Z"/><path class="cls-48" d="M70.54,85.13l.56.14c.2.13.36.3.56.42s.41.36.64.52.06.23-.08.3-.24.21-.41.17l-1.26-.9c-.11-.08-.23-.22-.35-.22-1.42,0-1.89-1.19-2.55-2.13s-1.16-1.7-1.74-2.55a1.49,1.49,0,0,1-.33-.69h1.13a31,31,0,0,1,2.13,3c.35.52.76,1,1.07,1.56C70.07,85,70.22,85.23,70.54,85.13Z"/><path class="cls-64" d="M87.32,53.67,89,50.19a17.53,17.53,0,0,1,.26,6c-.2.15-.37,0-.49-.11A16.78,16.78,0,0,1,87.29,54,.28.28,0,0,1,87.32,53.67Z"/><path class="cls-65" d="M77.91,67.23c-.1-.05-.24-.07-.3-.15a33.32,33.32,0,0,1-2.29-3.41l1-1.14a7.59,7.59,0,0,1,1.38,1.83,10.63,10.63,0,0,1,1.46,2.3A3.47,3.47,0,0,1,77.91,67.23Z"/><path class="cls-53" d="M87.32,53.67a7.81,7.81,0,0,0,1.95,2.54,14.13,14.13,0,0,1-.43,2.53c-.25.05-.4-.12-.53-.28-.72-.9-1.32-1.89-2-2.84a.24.24,0,0,1,0-.26Z"/><path class="cls-33" d="M79.15,66.65a42.91,42.91,0,0,1-2.84-4.13l.86-1.11c0,.43.36.69.58,1l2.12,3.12a1.06,1.06,0,0,0,.45.42A3.47,3.47,0,0,1,79.15,66.65Z"/><path class="cls-65" d="M80.71,71.77l-2.41-3.53,1.25-1.05a24.59,24.59,0,0,1,2.31,3.57A5.3,5.3,0,0,1,80.71,71.77Z"/><path class="cls-66" d="M84.07,76.66A16.9,16.9,0,0,1,81.68,73L83,72.33A18.43,18.43,0,0,1,85,75.39,6.47,6.47,0,0,1,84.07,76.66Z"/><path class="cls-67" d="M86.33,55.36c.66.95,1.32,1.9,2,2.84a5.31,5.31,0,0,0,.52.55l-.43,1.56c-.12-.06-.28-.1-.36-.2a39.3,39.3,0,0,1-2.44-3.64Z"/><path class="cls-68" d="M49,42.53c-.3-.67-1-.93-1.5-1.37s-1.28-1-1.93-1.47a.49.49,0,0,1-.23-.4c.21-.11.41,0,.61,0,.57.23,1.18.35,1.77.55.39.2.81.32,1.2.52s.56.21.82.34.94.35,1.24.8l.42.27Z"/><path class="cls-69" d="M81.8,79.34A.58.58,0,0,1,81,79.1c-.89-1.36-1.81-2.7-2.72-4-.13-.19-.31-.36-.11-.61l.85-.28c.81,1.08,1.56,2.2,2.3,3.32a12.45,12.45,0,0,0,.95,1.29A.92.92,0,0,1,81.8,79.34Z"/><path class="cls-49" d="M80.42,55.94l.69-1.58a3.65,3.65,0,0,1,1,1.23c.47.67.91,1.36,1.39,2A4.06,4.06,0,0,1,82.78,59c-.21.16-.36,0-.47-.13a31.12,31.12,0,0,1-1.89-2.76A.23.23,0,0,1,80.42,55.94Z"/><path class="cls-67" d="M84.75,54.8c-.5,0-.6-.45-.83-.74a20.33,20.33,0,0,0-1.83-2.52L82.5,50a12.25,12.25,0,0,1,1.85,2.39c.27.34.44.76.83,1Z"/><path class="cls-70" d="M64.59,74.68c.79,1.15,1.58,2.3,2.36,3.45a2.38,2.38,0,0,1,.2.52,7.77,7.77,0,0,1-2.41-1.09c-.4-.64-.84-1.27-1.24-1.91-.15-.24-.4-.48-.15-.81A4.32,4.32,0,0,1,64.59,74.68Z"/><path class="cls-71" d="M82.25,78.78a.55.55,0,0,1-.47-.27q-1.36-2-2.71-4a.93.93,0,0,1-.07-.34l.85-.31,2.73,4a.41.41,0,0,0,.35.19A1.93,1.93,0,0,1,82.25,78.78Z"/><path class="cls-33" d="M81.87,70.76c-.86-1-1.45-2.19-2.26-3.23-.06-.08,0-.22,0-.34l.86-.82a20.63,20.63,0,0,0,2.44,3.4A5.61,5.61,0,0,1,81.87,70.76Z"/><path class="cls-63" d="M84.06,71.67l1.7-1.11c.52.39.65,1.14,1.27,1.44a11.56,11.56,0,0,1-1.17,2.11c-.22.15-.36,0-.47-.15a21.79,21.79,0,0,1-1.35-2A.26.26,0,0,1,84.06,71.67Z"/><path class="cls-72" d="M80.42,55.94l1.87,2.66c.13.18.2.43.49.44a5.27,5.27,0,0,1-.72,1.13s-.11,0-.13,0a19.61,19.61,0,0,1-2.08-3.06Z"/><path class="cls-69" d="M78.61,73.3a4.51,4.51,0,0,1-1.16.7,27.09,27.09,0,0,1-2.29-3.21.24.24,0,0,1,0-.32l1-.64a29.34,29.34,0,0,1,1.79,2.49A3.45,3.45,0,0,1,78.61,73.3Z"/><path class="cls-73" d="M75.2,70.47c.58.88,1.16,1.77,1.74,2.64a2.33,2.33,0,0,1,.52.88,1.84,1.84,0,0,1-.81.43c-.25.08-.4-.08-.52-.25-.71-.89-1.29-1.86-1.93-2.8a.25.25,0,0,1,0-.32Z"/><path class="cls-33" d="M84.06,71.67c.47.7.94,1.4,1.4,2.11.11.16.19.33.41.34L85,75.39A15.67,15.67,0,0,1,83,72.33Z"/><path class="cls-74" d="M74.51,68.21a8.62,8.62,0,0,1-2.56.25c-.25-.35-.6-.63-.57-1.12l1.7-1.41A5,5,0,0,1,74.51,68.21Z"/><path class="cls-51" d="M74.21,71.06a18.51,18.51,0,0,0,2.44,3.37c-.14.22-.47.15-.59.4l-.29.15a18.43,18.43,0,0,1-2.41-3.42Z"/><path class="cls-75" d="M87,72c-.14.05-.29.2-.42,0a6.05,6.05,0,0,1-.85-1.42l2.59-2A11.7,11.7,0,0,1,87,72Z"/><path class="cls-76" d="M78.61,73.3a13,13,0,0,1-2.45-3.46l.72-.52c.69,1.24,1.58,2.36,2.37,3.53A1.22,1.22,0,0,1,78.61,73.3Z"/><path class="cls-77" d="M74.51,68.21l-1.43-2.28.85-.83a16.29,16.29,0,0,0,1.87,2.84A3,3,0,0,1,74.51,68.21Z"/><path class="cls-78" d="M63.35,74.84c.12.72.68,1.18,1,1.78.16.29.47.53.38.93A14.28,14.28,0,0,1,61.3,75Z"/><path class="cls-79" d="M83.51,57.62a.43.43,0,0,1-.36-.18l-2-3.08a1.35,1.35,0,0,1,.27-.7,15.45,15.45,0,0,1,2,2.66c.16.21.23.52.54.59A1.72,1.72,0,0,1,83.51,57.62Z"/><path class="cls-80" d="M72,79.61a.54.54,0,0,1,.42.22c.88,1.29,1.81,2.53,2.59,3.89-.49.32-.73-.05-1-.38Q73,81.78,72,80.21a.76.76,0,0,0-.73-.44A1.58,1.58,0,0,1,72,79.61Z"/><path class="cls-81" d="M79.14,45.91c0-.91.69-1.55.93-2.37s.51-1.33.77-2A4.3,4.3,0,0,1,79.14,45.91Z"/><path class="cls-82" d="M70.54,85.13c-.33.21-.48.2-.68-.09q-1.49-2.18-3-4.38a2,2,0,0,1-.17-.45h.42c0,.41.34.65.55,1,.79,1.16,1.58,2.31,2.36,3.48A1.24,1.24,0,0,0,70.54,85.13Z"/><path class="cls-83" d="M71.38,67.34c.18.38.59.64.57,1.12a5.87,5.87,0,0,1-1.84-.15A7.56,7.56,0,0,1,71.38,67.34Z"/><path class="cls-80" d="M76.32,84.11a1.37,1.37,0,0,0-.7-.54c.82-.57,1-.57,1.43,0Z"/><path class="cls-82" d="M72.24,86.51c.08-.46-.51-.46-.57-.82.44,0,.64.57,1.12.56A.85.85,0,0,1,72.24,86.51Z"/><path class="cls-84" d="M22.47,65.24l.13-.29c.21.27.12.59.14.88Z"/><path class="cls-5" d="M44.05,68.77c.21.26.08.56.11.85A1.54,1.54,0,0,1,44.05,68.77Z"/><path class="cls-15" d="M37.07,62c-.19-.27-.07-.57-.09-.86A1.93,1.93,0,0,1,37.07,62Z"/><path class="cls-47" d="M35.84,39c-.16,0-.32,0-.42.14l-1.27.42a1.5,1.5,0,0,1-.32-1.19,44.7,44.7,0,0,1,1-7.72c.3-1.23.73-2.42,1-3.65a10.05,10.05,0,0,1,2.25-1.27c.49.16.28.51.19.79-.28.87-.63,1.72-.89,2.59A31.54,31.54,0,0,0,36,37.07,8.9,8.9,0,0,1,35.84,39Z"/><path class="cls-22" d="M35.84,27c.24.19.13.41.05.64a31.54,31.54,0,0,0-1.61,7.69,20.61,20.61,0,0,0-.13,4.23l-.14.14-1.13.43c-.37-.25-.34-.65-.35-1a33.13,33.13,0,0,1,.56-6.72c.25-1.39.58-2.76.89-4.13A8.82,8.82,0,0,1,35.84,27Z"/><path class="cls-33" d="M35.84,39a8.64,8.64,0,0,1,0-3.27,26.38,26.38,0,0,1,.93-5.44,34.21,34.21,0,0,1,1.28-3.86c.1-.24.25-.47,0-.7a7.86,7.86,0,0,1,2.13-1c.25.3,0,.57-.07.84a23.78,23.78,0,0,0-1.38,3.81,1.59,1.59,0,0,1-.39.49,2.44,2.44,0,0,0-.88,2.44.46.46,0,0,1-.1.46,5.75,5.75,0,0,0-.53,2.65,20.36,20.36,0,0,0-.17,3.28Z"/><path class="cls-85" d="M27.81,44.65l-.29.27c-.37-.14-.44-.47-.47-.8a32.76,32.76,0,0,1-.32-6.8,17.43,17.43,0,0,1,.1-1.83,12.91,12.91,0,0,1,1.67-2.13c.56.22.35.7.32,1.07-.11,1.45-.25,2.89-.24,4.34s.12,2.66.25,4a1.56,1.56,0,0,1,0,.63l-.14.27Z"/><path class="cls-49" d="M30.63,41.7l-.43.55-.69.44a.6.6,0,0,1-.34-.57,34.55,34.55,0,0,1-.09-6c.09-1.29.24-2.57.41-3.84a12,12,0,0,1,1.56-1.54c.5.2.31.61.26,1-.18,1.3-.38,2.59-.51,3.9-.17,1.8-.07,3.6-.09,5.41C30.71,41.2,30.8,41.46,30.63,41.7Z"/><path class="cls-34" d="M34,28.27a.47.47,0,0,1,.13.57,32.21,32.21,0,0,0-1.17,6,17,17,0,0,0-.07,5.29l-.15.28a1.32,1.32,0,0,0-.7.42l-.28.14a1,1,0,0,1-.33-.82,37.7,37.7,0,0,1,1.16-10.78A5.41,5.41,0,0,1,34,28.27Z"/><path class="cls-86" d="M32.58,29.38a7,7,0,0,1-.34,2.44c-.17,1.36-.4,2.7-.51,4.07-.08,1-.11,2-.12,3.07a7.56,7.56,0,0,0,.14,2c-.23.2-.55.28-.7.57l-.42.15a4,4,0,0,1-.15-1.17,40.4,40.4,0,0,1,.69-9.18.62.62,0,0,0-.12-.66A8,8,0,0,1,32.58,29.38Z"/><path class="cls-87" d="M26.83,35.49a3.75,3.75,0,0,1,.09,2.06c-.26,1.5.14,3,.09,4.45,0,.64.18,1.28.22,1.93a2.3,2.3,0,0,0,.29,1l-.41.58-.42.56-.16.11c-.46-.28-.39-.77-.46-1.19a42.4,42.4,0,0,1-.46-7.37,1.45,1.45,0,0,0,0-.28A11.51,11.51,0,0,1,26.83,35.49Z"/><path class="cls-88" d="M25.58,37.33c.34.2.25.53.24.82a39.28,39.28,0,0,0,.57,7.63,2.86,2.86,0,0,0,.13.4c-.3.22-.31.61-.54.88l-.28.29c-.42,0-.44-.37-.49-.65a44.74,44.74,0,0,1-.72-6.08c0-.4-.07-.79-.1-1.19A10.74,10.74,0,0,1,25.58,37.33Z"/><path class="cls-89" d="M24.39,39.42a.77.77,0,0,1,.31.67,47.39,47.39,0,0,0,.71,6.64.84.84,0,0,0,.3.61l-.6,1.11-.27.27A14.63,14.63,0,0,1,24,44.85a17.56,17.56,0,0,1-.3-2.85.73.73,0,0,0-.3-.61A11.34,11.34,0,0,1,24.39,39.42Z"/><path class="cls-90" d="M29.49,32.23c.4.73,0,1.46-.05,2.17a32.43,32.43,0,0,0-.09,6.76c.06.5-.11,1,.16,1.52q0,.07,0,.13l-.7.57a6.43,6.43,0,0,1-.37-2.68,29.13,29.13,0,0,1,0-4.27c.05-1,.43-2.05.07-3.08A6.18,6.18,0,0,1,29.49,32.23Z"/><path class="cls-55" d="M38.66,29.4a9.81,9.81,0,0,1,.9-2.9,7.72,7.72,0,0,0,.65-1.75,6.22,6.22,0,0,1,1.83-.7c.31.28.33.29.13.7-.34.69-.64,1.4-1,2.1a8.24,8.24,0,0,0-.58,1.57A3.27,3.27,0,0,1,38.66,29.4Z"/><path class="cls-37" d="M47,22.79a2.71,2.71,0,0,1,1.26-.15c.42.09.46.15.22.54-.4.66-.92,1.23-1.31,1.89a21.13,21.13,0,0,0-1.7,3.12.84.84,0,0,1-.33.44,1.51,1.51,0,0,1-1.41-.42c.76-1.2,1.28-2.53,2.07-3.72A17.63,17.63,0,0,1,47,22.79Z"/><path class="cls-91" d="M40.5,28.44a10.68,10.68,0,0,1,1.07-2.83,9.57,9.57,0,0,1,.49-1c.09-.18.23-.37,0-.55a4.91,4.91,0,0,1,1.83-.56c.46.09.5.17.25.67-.46.91-1,1.77-1.39,2.72-.13.34-.25.7-.39,1A2.66,2.66,0,0,1,40.5,28.44Z"/><path class="cls-51" d="M45.15,28.58A19.52,19.52,0,0,1,48,23.52a6.58,6.58,0,0,0,.44-.63c.11-.2-.07-.22-.21-.25.45-.26.94-.09,1.41-.14h.28c.19.27,0,.44-.16.61a24.09,24.09,0,0,0-3.38,5.3,1,1,0,0,1-.44.53C45.62,29,45.29,29,45.15,28.58Z"/><path class="cls-50" d="M47,22.79a7.52,7.52,0,0,1-1.18,2c-.56,1-1.1,1.95-1.58,3-.11.24-.21.41-.49.37a.77.77,0,0,1-1-.2c.81-1.31,1.37-2.76,2.23-4a4.26,4.26,0,0,1,.61-.85A7,7,0,0,1,47,22.79Z"/><path class="cls-92" d="M45.57,23.07a8,8,0,0,1-1,1.9,25.63,25.63,0,0,0-1.2,2.38c-.12.28-.26.49-.58.53a.28.28,0,0,1-.42,0c-.21-.26,0-.47.08-.7A25.88,25.88,0,0,1,44,24c.14-.24.21-.43-.16-.5A6,6,0,0,1,45.57,23.07Z"/><path class="cls-32" d="M50.94,41.53l-1.28-.68A9.28,9.28,0,0,1,49.38,37a1.39,1.39,0,0,0-.12-.95.24.24,0,0,1,0-.3,1.43,1.43,0,0,0,1.12-1c.16-.24.22-.57.54-.69a.79.79,0,0,1,.12.8,14.8,14.8,0,0,0-.13,6.1A3,3,0,0,1,50.94,41.53Z"/><path class="cls-93" d="M50.94,34.07c-.14.23-.2.52-.42.71a.89.89,0,0,1-.12-.93c.33-1.1.6-2.21,1-3.3l1,.28A15.14,15.14,0,0,1,50.94,34.07Z"/><path class="cls-11" d="M66.66,30a7.89,7.89,0,0,1,7.82,8,8.17,8.17,0,0,1-8.23,8.17,7.76,7.76,0,0,1-7.62-8A8.06,8.06,0,0,1,66.66,30Z"/><path class="cls-2" d="M46.85,29.13l.85.28a.3.3,0,0,0,.28.14c.19.25.05.5,0,.74-.46,1.65-1,3.29-1.43,4.94a1.31,1.31,0,0,1-.59.92,2.27,2.27,0,0,1-1.44,0c-.25-.22-.13-.47-.06-.71l1.63-5.6c.08-.29.14-.6.45-.76A.34.34,0,0,1,46.85,29.13Z"/><path class="cls-94" d="M46,36c.64-1.43.89-3,1.4-4.46.23-.66.39-1.34.57-2a1.4,1.4,0,0,1,.85.28.41.41,0,0,1,.07.4c-.54,1.89-1,3.79-1.68,5.65a1,1,0,0,1-.49.27.87.87,0,0,1-.65,0Z"/><path class="cls-95" d="M47.13,35.91c.43-2.06,1.16-4,1.69-6.07h.28l.14.14a.58.58,0,0,1,.07.6c-.48,1.61-.92,3.24-1.42,4.84a1,1,0,0,1-.32.54A.37.37,0,0,1,47.13,35.91Z"/><path class="cls-96" d="M51.36,30.55c.22.56-.18,1-.26,1.53-.15.91-.69,1.74-.58,2.7-.16.57-.37,1.09-1.13,1a.58.58,0,0,1-.08-.6c.43-1.52.82-3,1.33-4.53a.56.56,0,0,1,.16-.23h.28A.29.29,0,0,0,51.36,30.55Z"/><path class="cls-1" d="M42.33,27.85l.42,0a2.21,2.21,0,0,0,1,.29,3.88,3.88,0,0,0,1.42.43,1.48,1.48,0,0,0,.85.28.31.31,0,0,1,.06.21c-.55,2.25-1.27,4.46-1.91,6.68a1,1,0,0,1-.26.49,1.49,1.49,0,0,1-.8.14h-.24a4,4,0,0,0-1.28.09,7.66,7.66,0,0,1-1.9,0c-.57-.19-.76-.75-1.11-1.15a5,5,0,0,1-.74-1.51l-.42-1a2.88,2.88,0,0,1,1.27-3.4l1.84-1Z"/><path class="cls-23" d="M38.66,35.23l.86,1.1c.86.14.88.14.9,1.1,0,.37.22.66.23,1H38.38A3.64,3.64,0,0,1,38.66,35.23Z"/><path class="cls-55" d="M38.66,35.23a8.94,8.94,0,0,0-.27,3.22l-.54.11c-.33.06-.6,0-.57-.42.09-1.28.2-2.55.32-3.83a1.66,1.66,0,0,1,.23-.5A9.07,9.07,0,0,1,38.66,35.23Z"/><path class="cls-97" d="M40.64,38.44c-.5-.17-.45-.59-.42-1,.05-.57,0-1-.71-1.13h2.11a.14.14,0,0,1,.21,0,3.84,3.84,0,0,1-.21,2.07Z"/><path class="cls-98" d="M41.63,38.44a9.8,9.8,0,0,1,.14-2.11c.36-.19.76,0,1.12-.13H43a3.67,3.67,0,0,1,0,2.52h-.28C42.42,38.48,42,38.62,41.63,38.44Z"/><path class="cls-99" d="M50.79,30.41A28.59,28.59,0,0,1,50,33.55a21.33,21.33,0,0,0-.57,2.21l-.14.14a.48.48,0,0,1-.31.16.92.92,0,0,1-.68-.12.76.76,0,0,1,0-.61c.43-1.57.92-3.12,1.36-4.69a.81.81,0,0,1,.32-.52h.28Z"/><path class="cls-100" d="M49.95,30.13,48.25,35.9a.48.48,0,0,1-.7,0L49.24,30A1.15,1.15,0,0,1,49.95,30.13Z"/><path class="cls-38" d="M46,29v-.13a24.24,24.24,0,0,1,3.82-6,1,1,0,0,0,.12-.32c.34,0,.84-.17,1,.09s-.3.58-.5.81a26.28,26.28,0,0,0-2.89,4.2c-.28.49-.43,1-.72,1.52h-.28C46.39,29,46.15,29.21,46,29Z"/><path class="cls-82" d="M71.67,85.69a.67.67,0,0,1-.56-.42A.67.67,0,0,1,71.67,85.69Z"/><path class="cls-26" d="M44.45,36.05,46,36v0c0,.05.11.1.12.17a7.33,7.33,0,0,1-.25,3.2,1,1,0,0,1-.56-.14l-1.13-.42a4.93,4.93,0,0,1-.08-2.66C44.15,36,44.25,35.91,44.45,36.05Z"/><path class="cls-51" d="M44.16,36.19q0,1.34,0,2.68L43,38.72V36.2l.85,0A.21.21,0,0,1,44.16,36.19Z"/><path class="cls-101" d="M45.86,39.43c-.1-1.13.22-2.25.14-3.38h.71a.37.37,0,0,1,.13-.06C48,35.9,48,35.93,48,37.07c0,.7,0,1.4,0,2.09,0,.32,0,.67-.36.84A5.46,5.46,0,0,1,45.86,39.43Z"/><path class="cls-102" d="M47.68,40a16.35,16.35,0,0,0,.11-3.77c0-.17-.18-.19-.32-.19H46.7c.11-.16.27-.13.43-.14H49c.23.43.06.88.07,1.31,0,.82,0,1.64,0,2.47a1.1,1.1,0,0,1-.22.86C48.46,40.33,48,40.3,47.68,40Z"/><path class="cls-103" d="M48.82,40.55c0-1.16,0-2.32,0-3.48A3.7,3.7,0,0,1,49,35.91h.28c.34,0,.48.16.42.47a19.19,19.19,0,0,0,0,4.49Z"/><path class="cls-21" d="M60.9,34.21c-.16-.24,0-.42.14-.56a6.89,6.89,0,0,1,11.12,0,7.35,7.35,0,0,1-1.81,10.56,6.94,6.94,0,0,1-10.7-4.53,7.36,7.36,0,0,1,.52-4.55c.09-.21.15-.5.49-.46a.21.21,0,0,1,.08.16,1.09,1.09,0,0,0,.06.72c.1.25.27.48.19.77a6,6,0,0,0,5.27,7.91,6.19,6.19,0,0,0,6.2-5.79,5.89,5.89,0,0,0-5-6.3,5.65,5.65,0,0,0-4.31,1.14c-.21.15-.38.35-.6.49A7.15,7.15,0,0,0,60.9,34.21Z"/><path class="cls-104" d="M60.9,34.21c.39-.59,1-.59,1.6-.59a1.25,1.25,0,0,1,1.15.7A1.78,1.78,0,0,1,62,36.91c-.43-.12-.87-.22-1-.72l-.29-.72a1.4,1.4,0,0,1,0-.69l0-.16Z"/><path class="cls-5" d="M44.16,36.19l-.28,0c.57-2,1.13-4,1.71-6A2.48,2.48,0,0,1,46,29c.19,0,.41,0,.55.15-.63,1.43-.91,3-1.4,4.44-.27.82-.48,1.65-.72,2.48A.32.32,0,0,0,44.16,36.19Z"/><path class="cls-51" d="M42.89,36.2c-.35.25-.75.06-1.12.13h-.14C42,36.08,42.47,36.23,42.89,36.2Z"/><path class="cls-4" d="M63.52,34.35c-.22-.41-.66-.51-1-.72a4.58,4.58,0,0,1,3-1.65A5.58,5.58,0,0,1,71.25,34a6,6,0,0,1,.93,6.33,6.08,6.08,0,0,1-5.83,4,6,6,0,0,1-5.82-5.88c0-.77-.2-1.6.39-2.28a2.41,2.41,0,0,0,1,.54.92.92,0,0,1,.13.8A4.52,4.52,0,0,0,71,39.06a4.54,4.54,0,0,0-4.42-5.64,4.9,4.9,0,0,0-2.27.68C64.05,34.23,63.83,34.44,63.52,34.35Z"/><path class="cls-11" d="M60.64,34.78v.69A.54.54,0,0,1,60.64,34.78Z"/><path class="cls-2" d="M63.52,34.35a5.82,5.82,0,0,1,3.26-1.13,4.68,4.68,0,0,1,4.47,4.53,4.81,4.81,0,0,1-3.08,4.86,4.68,4.68,0,0,1-6.24-3.45,11,11,0,0,1,0-2.43C63.47,36.52,64,35.76,63.52,34.35Z"/><path class="cls-5" d="M64.62,38.08a2,2,0,1,1,3.95,0,2.27,2.27,0,0,1-2.07,2.1A2,2,0,0,1,64.62,38.08Z"/><path class="cls-105" d="M66.52,39c-.54,0-.88-.25-.91-.83a.9.9,0,0,1,1-1,1,1,0,0,1,1,.91A1.1,1.1,0,0,1,66.52,39Z"/></svg>