<?xml version="1.0" encoding="utf-8"?>
<!-- Generator: Adobe Illustrator 20.1.0, SVG Export Plug-In . SVG Version: 6.00 Build 0)  -->
<svg version="1.1" id="Layer_1" xmlns="http://www.w3.org/2000/svg" xmlns:xlink="http://www.w3.org/1999/xlink" x="0px" y="0px"
	 viewBox="0 0 155.4 116.5" style="enable-background:new 0 0 155.4 116.5;" xml:space="preserve">
<style type="text/css">
	.st0{fill:#515A77;}
	.st1{fill:#F46663;}
	.st2{fill:#626D8E;}
</style>
<g id="Dark_Stacked_Logo">
	<g>
		<g>
			<path class="st0" d="M12.3,10H1.8V3.2h28.9V10H20.3v32.2h-8V10z M13.1,41.4h6.4V9.1h10.4V4H2.7v5.1h10.4V41.4z"/>
		</g>
		<g>
			<path class="st0" d="M48.5,3.2h8v17.4h13.9V3.2h8v39h-8V27.4H56.6v14.8h-8V3.2z M49.4,41.4h6.4V26.6h15.6v14.8h6.4V4h-6.4v17.4
				H55.7V4h-6.4V41.4z"/>
		</g>
		<g>
			<path class="st0" d="M107.5,3.2v39h-8v-39H107.5z M100.3,4v37.4h6.4V4H100.3z"/>
		</g>
		<g>
			<path class="st0" d="M126.4,31.8h8.1c0.3,2.8,2.2,4.1,5,4.1c2.7,0,4.5-1.6,4.5-4.1c0-2.5-1.6-4-6.9-6.1
				c-7.8-3.2-10.5-6.9-10.5-12.6c0-6.4,4.7-10.6,12.2-10.6c7,0,12.2,4.1,12.2,10.9h-8.1c0-2.4-1.6-4-4.2-4c-2.7,0-4,1.6-4,3.6
				c0,2.3,1.6,3.7,7.1,6.1c7.8,3.3,10.3,6.9,10.3,12.3c0,6.9-4.9,11.5-12.8,11.5C131.6,42.9,126.9,38.1,126.4,31.8z M151.4,31.4
				c0-5.1-2.4-8.4-9.8-11.5c-5.9-2.5-7.6-4-7.6-6.8c0-2.4,1.6-4.4,4.8-4.4c2.8,0,4.6,1.6,5,4h6.5c-0.4-5.8-5.2-9.3-11.3-9.3
				c-7,0-11.4,3.8-11.4,9.8c0,5.3,2.6,8.8,10,11.8c5.7,2.3,7.4,4,7.4,6.9c0,3-2.1,5-5.4,5c-2.9,0-5.1-1.4-5.7-4.1h-6.5
				c0.9,5.2,5.1,9.4,12.1,9.4C146.8,42.1,151.4,37.8,151.4,31.4z"/>
		</g>
	</g>
	<g>
		<g>
			<path class="st0" d="M58.5,85.1c2.7-9.2,11.1-15.3,21.5-15.3c10.3,0,18.8,6.1,21.5,15.3h1C99.7,75.3,90.8,68.9,80,68.9
				c-10.9,0-19.7,6.5-22.4,16.2H58.5z"/>
		</g>
		<g>
			<path class="st0" d="M80,107.1c5.6,0,10.5-2.9,13.1-7.6h-1.1c-2.5,4.2-6.9,6.7-12.1,6.7c-5.1,0-9.6-2.5-12.1-6.7h-1.1
				C69.5,104.2,74.4,107.1,80,107.1z"/>
		</g>
		<g>
			<path class="st0" d="M80,75.6c-6.3,0-11.7,3.6-14,9.4h1c2.2-5.2,7.2-8.5,13-8.5c5.8,0,10.8,3.3,13,8.5h1
				C91.7,79.3,86.3,75.6,80,75.6z"/>
		</g>
		<g>
			<path class="st0" d="M100.8,99.4c-3.2,8.2-11.2,13.5-20.8,13.5c-9.6,0-17.6-5.3-20.8-13.5h-1c3.2,8.7,11.7,14.4,21.8,14.4
				c10.2,0,18.6-5.7,21.8-14.4H100.8z"/>
		</g>
		<g>
			<path class="st1" d="M61.4,96.6c-2.6,0-4.7-2.1-4.7-4.7c0-2.6,2.1-4.7,4.7-4.7s4.7,2.1,4.7,4.7C66.2,94.4,64.1,96.6,61.4,96.6z
				 M61.4,88c-2.1,0-3.9,1.7-3.9,3.9c0,2.1,1.7,3.9,3.9,3.9c2.1,0,3.9-1.7,3.9-3.9C65.3,89.7,63.6,88,61.4,88z"/>
		</g>
		<g>
			<path class="st1" d="M98.5,96.6c-2.6,0-4.7-2.1-4.7-4.7c0-2.6,2.1-4.7,4.7-4.7s4.7,2.1,4.7,4.7C103.3,94.4,101.2,96.6,98.5,96.6z
				 M98.5,88c-2.1,0-3.9,1.7-3.9,3.9c0,2.1,1.7,3.9,3.9,3.9s3.9-1.7,3.9-3.9C102.4,89.7,100.7,88,98.5,88z"/>
		</g>
		<path class="st2" d="M16.4,113.2H1.9V69.8h14.5c14.1,0,23.6,7.9,23.6,21.7C39.9,105.3,30.5,113.2,16.4,113.2z M16.4,77.3h-5.6
			v28.3h5.6c8.1,0,14.4-4.7,14.4-14.1C30.9,82,24.6,77.3,16.4,77.3z"/>
		<path class="st2" d="M131.5,77.3h-11.6v-7.6H152v7.6h-11.6v35.8h-8.9V77.3z"/>
	</g>
	<g>
		<path class="st2" d="M12.5,9.8H2.1V3h28.8v6.8H20.5V42h-8V9.8z"/>
		<path class="st2" d="M48.7,3h8v17.4h13.9V3h8v39h-8V27.2H56.7V42h-8V3z"/>
		<path class="st2" d="M107.5,3v39h-8V3H107.5z"/>
		<path class="st2" d="M126.5,31.6h8.1c0.3,2.8,2.2,4.1,5,4.1s4.5-1.6,4.5-4.1c0-2.5-1.6-4-6.8-6.1c-7.8-3.2-10.5-6.9-10.5-12.6
			c0-6.4,4.7-10.6,12.2-10.6c7,0,12.2,4.1,12.2,10.9h-8.1c0-2.4-1.6-4-4.2-4c-2.7,0-4,1.6-4,3.6c0,2.3,1.6,3.7,7.1,6
			c7.8,3.3,10.3,6.8,10.3,12.3c0,6.9-4.9,11.5-12.7,11.5C131.6,42.7,126.9,37.9,126.5,31.6z"/>
	</g>
</g>
</svg>
