<svg id="Layer_1" data-name="Layer 1" xmlns="http://www.w3.org/2000/svg" viewBox="0 0 1221.94 436.17"><defs><style>.cls-1{fill:#f4f2a2;}.cls-2,.cls-3{fill:#e5e57f;}.cls-3,.cls-4{opacity:0.5;}.cls-5{fill:#f46663;}.cls-6{fill:#626d8e;}.cls-7{fill:#e6e7e8;}.cls-8{fill:#515a77;}.cls-9{fill:#a3a5a8;}.cls-10{fill:#a3dde5;}.cls-11{fill:#c4c6c8;}.cls-12{fill:#e6e6e6;}.cls-13{fill:#fffcf8;}.cls-14{fill:#9faccc;}.cls-15{fill:#ffc064;}.cls-16{fill:#656f90;}.cls-17{fill:#ef64a2;}.cls-18{fill:#eb5593;}.cls-19{fill:#e74584;}.cls-20{fill:#fff;}.cls-21{fill:#f15754;}.cls-22{fill:#ee4744;}.cls-23{fill:#d4d44f;}.cls-24{fill:#d9d95f;}.cls-25{fill:#dfdf6f;}.cls-26{fill:#ffb455;}.cls-27{fill:#ffa845;}.cls-28{fill:#ec3835;}.cls-29{fill:#77c7d4;}.cls-30{fill:#85ced9;}.cls-31{fill:#94d6df;}</style></defs><title>labs-art</title><g id="Labs"><rect class="cls-1" x="123.86" y="188.69" width="50" height="23" rx="11.5" ry="11.5"/><rect class="cls-2" x="325.86" y="146.69" width="50" height="23" rx="11.5" ry="11.5"/><rect class="cls-2" x="245.86" y="404.69" width="62" height="23" rx="11.5" ry="11.5"/><rect class="cls-2" x="1008.86" y="292.69" width="62" height="23" rx="11.5" ry="11.5"/><rect class="cls-3" x="882.86" y="390.69" width="62" height="23" rx="11.5" ry="11.5"/><rect class="cls-2" x="1157.86" y="317.69" width="51" height="23" rx="11.5" ry="11.5"/><g id="Laptop"><g class="cls-4"><path class="cls-2" d="M412.93,360.62H824a17.55,17.55,0,0,1,17.55,17.55h0A17.55,17.55,0,0,1,824,395.71H412.93a17.55,17.55,0,0,1-17.55-17.55h0A17.55,17.55,0,0,1,412.93,360.62Z"/></g><polygon class="cls-5" points="672.96 67.4 616.47 67.4 616.47 101.15 672.96 101.15 655.25 84.28 672.96 67.4"/><path class="cls-6" d="M617,145a1.67,1.67,0,0,1-1.67-1.67V62.31a1.67,1.67,0,0,1,3.34,0v81.06A1.67,1.67,0,0,1,617,145Z"/><g id="_Group_" data-name=" Group "><g id="_Group_2" data-name=" Group 2"><path class="cls-7" d="M469.2,135.41H764.51a25.83,25.83,0,0,1,25.83,25.83h0v171.6h-347V161.24a25.83,25.83,0,0,1,25.83-25.83Z"/><path class="cls-8" d="M790.34,334.51h-347a1.67,1.67,0,0,1-1.67-1.67V161.24a27.58,27.58,0,0,1,27.5-27.5H764.51a27.58,27.58,0,0,1,27.5,27.5v171.6A1.67,1.67,0,0,1,790.34,334.51ZM445,331.17H788.67V161.24a24.18,24.18,0,0,0-24.16-24.16H469.2A24.18,24.18,0,0,0,445,161.24Z"/></g><g id="_Group_3" data-name=" Group 3"><polygon class="cls-7" points="443.37 332.84 401.31 354.27 832.4 354.27 790.34 332.84 443.37 332.84"/><path class="cls-8" d="M832.4,355.95H401.31a1.67,1.67,0,0,1-.76-3.16l42.06-21.43a1.67,1.67,0,0,1,.76-.18h347a1.67,1.67,0,0,1,.76.18l42.06,21.43a1.67,1.67,0,0,1-.76,3.16ZM408.27,352.6H825.44l-35.5-18.09H443.77Z"/></g><g id="_Group_4" data-name=" Group 4"><path class="cls-7" d="M400.81,354.27H832.9a25.44,25.44,0,0,1-25.44,25.44H426.25a25.44,25.44,0,0,1-25.44-25.44h0Z"/><path class="cls-8" d="M807.46,381.38H426.25a27.14,27.14,0,0,1-27.11-27.11,1.67,1.67,0,0,1,1.67-1.67H832.9a1.67,1.67,0,0,1,1.67,1.67A27.14,27.14,0,0,1,807.46,381.38ZM402.54,355.95A23.8,23.8,0,0,0,426.25,378H807.46a23.8,23.8,0,0,0,23.71-22.09Z"/></g><g id="_Group_5" data-name=" Group 5"><polygon class="cls-9" points="457.4 340.79 446.35 347.02 787.36 347.02 777.16 340.79 457.4 340.79"/></g><g id="_Group_6" data-name=" Group 6"><rect class="cls-10" x="475.59" y="169.25" width="282.53" height="148.4"/><path class="cls-8" d="M758.12,319.33H475.59a1.67,1.67,0,0,1-1.67-1.67V169.28a1.67,1.67,0,0,1,1.67-1.67H758.12a1.67,1.67,0,0,1,1.67,1.67V317.66A1.67,1.67,0,0,1,758.12,319.33ZM477.27,316H756.45v-145H477.26V316Z"/></g><g id="_Group_7" data-name=" Group 7"><circle class="cls-11" cx="616.86" cy="151.18" r="4.09"/></g><g id="_Group_8" data-name=" Group 8"><rect class="cls-12" x="532.62" y="198.08" width="180.49" height="116.42"/></g><g id="_Group_9" data-name=" Group 9"><rect class="cls-13" x="526.6" y="192.06" width="180.49" height="122.56"/></g></g><circle class="cls-5" cx="617.37" cy="255.71" r="19.18"/><polygon class="cls-14" points="646.97 224.88 631.19 224.88 654.86 255.71 631.19 286.53 646.97 286.53 670.65 255.71 646.97 224.88"/><polygon class="cls-14" points="587.77 224.88 603.55 224.88 579.88 255.71 603.55 286.53 587.77 286.53 564.09 255.71 587.77 224.88"/></g><g id="Background"><polyline class="cls-6" points="920.86 402.29 907.27 402.29 907.27 316.13 920.86 316.13 920.86 402.29"/><path class="cls-6" d="M908.63,363.76c-17.46,0-23.68-16.88-23.68-32.67h6.52c0,4.37.83,26.16,17.16,26.16v6.52Z"/><path class="cls-10" d="M789.18,97.17a9.77,9.77,0,1,1,9.76-9.79A9.77,9.77,0,0,1,789.18,97.17Zm0-17a7.26,7.26,0,1,0,7.26,7.26h0a7.27,7.27,0,0,0-7.26-7.27Z"/><path class="cls-10" d="M895,97H826.19a9.61,9.61,0,0,1,0-19.22H895A9.64,9.64,0,0,1,895,97ZM826.19,80.3a7.1,7.1,0,1,0,0,14.21H895a7.1,7.1,0,1,0,0-14.21Z"/><path class="cls-5" d="M9.51,348.08a9.77,9.77,0,1,1,9.77-9.77A9.77,9.77,0,0,1,9.51,348.08Zm0-17a7.26,7.26,0,1,0,7.26,7.26,7.26,7.26,0,0,0-7.26-7.26Z"/><path class="cls-5" d="M115.3,347.94H46.52a9.61,9.61,0,1,1,0-19.22H115.3a9.61,9.61,0,1,1,0,19.22ZM46.52,331.23a7.1,7.1,0,0,0,0,14.21H115.3a7.1,7.1,0,0,0,0-14.21Z"/><path class="cls-15" d="M1139.45,429.22a9.77,9.77,0,1,1,9.77-9.77v0A9.78,9.78,0,0,1,1139.45,429.22Zm0-17a7.26,7.26,0,1,0,7.26,7.26h0A7.27,7.27,0,0,0,1139.45,412.2Z"/><path class="cls-15" d="M1102.43,429.07h-68.78a9.61,9.61,0,1,1,0-19.22h68.78a9.62,9.62,0,0,1,0,19.22Zm-68.78-16.71a7.1,7.1,0,1,0,0,14.21h68.78a7.1,7.1,0,0,0,0-14.21Z"/><path class="cls-2" d="M500.56,37.31a9.77,9.77,0,1,1,9.77-9.79,9.77,9.77,0,0,1-9.77,9.79Zm0-17a7.26,7.26,0,1,0,7.26,7.26,7.26,7.26,0,0,0-7.26-7.26Z"/><path class="cls-2" d="M463.55,37.15H394.76a9.61,9.61,0,0,1,0-19.22h68.78a9.61,9.61,0,0,1,0,19.22ZM394.76,20.43a7.1,7.1,0,0,0,0,14.21h68.78a7.1,7.1,0,0,0,0-14.21Z"/><circle class="cls-2" cx="1081.19" cy="22.22" r="18.38"/><circle class="cls-15" cx="886.46" cy="158.15" r="19.48"/><circle class="cls-16" cx="243.86" cy="58.99" r="14.28"/><polyline class="cls-17" points="940.91 344.74 874.88 344.74 874.88 315.47 940.91 315.47 940.91 344.74"/><path class="cls-18" d="M924.67,315.47H892.81a14.08,14.08,0,0,1-1.54.91,18.82,18.82,0,0,1,2.53,9.45h0a18.92,18.92,0,0,1-18.92,18.91h66.06A18.92,18.92,0,0,1,922,325.82h0a18.82,18.82,0,0,1,3-10.17l-.28-.19"/><path class="cls-17" d="M899,303.8a14.09,14.09,0,1,1-14.09-14.09A14.09,14.09,0,0,1,899,303.8h0"/><path class="cls-19" d="M884.93,289.71a14.1,14.1,0,0,0-13.66,17.53,19,19,0,0,1,20,9.13,14.09,14.09,0,0,0-6.35-26.65"/><path class="cls-17" d="M946.64,303.8a14.09,14.09,0,1,1-14.09-14.09,14.09,14.09,0,0,1,14.09,14.09h0"/><path class="cls-19" d="M932.56,289.71a14.09,14.09,0,0,0-7.61,25.94,19,19,0,0,1,21.17-8,14.1,14.1,0,0,0-13.56-17.92"/><path class="cls-17" d="M959.83,325.81A18.92,18.92,0,1,1,940.9,306.9h0a18.92,18.92,0,0,1,18.92,18.91"/><path class="cls-18" d="M940.94,306.9a18.91,18.91,0,1,0,18.92,18.91,18.91,18.91,0,0,0-18.92-18.91"/><path class="cls-17" d="M893.8,325.81a18.92,18.92,0,1,1-18.93-18.91h0a18.92,18.92,0,0,1,18.92,18.91"/><path class="cls-18" d="M874.88,306.9a18.91,18.91,0,1,0,18.92,18.91,18.91,18.91,0,0,0-18.92-18.91"/><ellipse class="cls-17" cx="908.95" cy="315.57" rx="29.18" ry="29.17"/><path class="cls-20" d="M924.22,309.67c2-4.35-6.91-11.9-15.71-11.57-1.11-.77-2.27-2.15-4.94-1.65-2.37.44-2.73,2.67-4.08,3.42s-3.41-.09-4.8,1.43c-1.15,1.26-.44,3.42-1,4.74s-3.14,1.77-3,3.42,1.15,2.81,1,4.08c-.16,1.76-1.53,1.61-1.32,3.2s1.8,1.65,2.48,3.58c5.92,16.78,29.7,17.83,35.38,2.81-3.77,2.54-4.85,2.75-6.17,2.86,3.8-1.82,8.18-7.35,6.78-12.83-.74,1.57-2.06,4.54-3.8,5.12,1.88-2.78,3.63-8.43.49-11.66,2.48,8.26-5.07,15.09-6.28,15.54,1.08.33,3.31.49,6.2-1.65-2.57,3.31-7.44,5-11,5.29.66,1.08,3.31,2.4,5.73,2.59-3.25.46-7.8,1.63-15.4-5.73a9,9,0,0,0,3,5.2c-11.27-4.74-7.19-19.26,1.18-19.64C911.88,309.61,922.5,313.34,924.22,309.67Z"/><circle class="cls-17" cx="913.73" cy="304.04" r="1.43"/><polyline class="cls-5" points="324.93 121.05 391.99 121.05 391.99 91.33 324.93 91.33 324.93 121.05"/><path class="cls-21" d="M373.77,91.33H341.43l-.28.18a19.11,19.11,0,0,1,3,10.32h0a19.22,19.22,0,0,1-19.22,19.22H392a19.22,19.22,0,0,1-19.22-19.22h0a19.12,19.12,0,0,1,2.57-9.59,14.2,14.2,0,0,1-1.56-.92"/><path class="cls-5" d="M367.48,79.44a14.31,14.31,0,1,0,14.31-14.3h0a14.31,14.31,0,0,0-14.31,14.3"/><path class="cls-22" d="M363.78,55.17a14.3,14.3,0,0,0-6.44,27.08A19.22,19.22,0,0,1,377.66,73a14.31,14.31,0,0,0-13.87-17.8"/><path class="cls-5" d="M319.11,79.44a14.31,14.31,0,1,0,14.31-14.3h0a14.31,14.31,0,0,0-14.31,14.3"/><path class="cls-22" d="M353.41,62.17a14.31,14.31,0,0,0-13.8,18.19,19.22,19.22,0,0,1,21.5,8.16,14.3,14.3,0,0,0-7.72-26.34"/><path class="cls-5" d="M305.71,101.84a19.22,19.22,0,1,0,19.22-19.22h0a19.22,19.22,0,0,0-19.22,19.22"/><path class="cls-21" d="M324.93,82.63a19.22,19.22,0,1,0,19.22,19.22,19.22,19.22,0,0,0-19.22-19.22h0"/><path class="cls-5" d="M372.77,101.84A19.22,19.22,0,1,0,392,82.62h0a19.22,19.22,0,0,0-19.22,19.22"/><path class="cls-21" d="M392,82.63a19.22,19.22,0,1,0,19.22,19.22A19.22,19.22,0,0,0,392,82.63h0"/><polyline class="cls-6" points="145.02 195.29 153.93 195.29 153.93 138.83 145.02 138.83 145.02 195.29"/><path class="cls-6" d="M153,176.58c11.44,0,15.52-11.06,15.52-21.42h-4.28c0,2.87-.54,17.14-11.24,17.14v4.27Z"/><path class="cls-6" d="M146.46,169.46v-4.27c-8,0-11.77-6-11.77-18.88h-4.27c0,10.56,2.78,23.16,16,23.16"/><polyline class="cls-6" points="1179.02 326.29 1187.92 326.29 1187.92 269.83 1179.02 269.83 1179.02 326.29"/><path class="cls-6" d="M1187,297.58c11.44,0,15.52-11.06,15.52-21.42h-4.28c0,2.87-.54,17.14-11.24,17.14v4.27Z"/><path class="cls-6" d="M1180.46,300.46v-4.27c-8,0-11.77-6-11.77-18.88h-4.27c0,10.56,2.78,23.16,16,23.16"/><path class="cls-2" d="M139.55,120.42a18,18,0,1,0,18-18,18,18,0,0,0-18,18h0"/><path class="cls-23" d="M157.59,102.39a18,18,0,0,0-13,5.49,18,18,0,0,1,13.72,17.55h0A18,18,0,0,1,153.28,138a18,18,0,1,0,4.31-35.54"/><path class="cls-2" d="M122.28,125.43a18,18,0,1,0,18-18,18,18,0,0,0-18,18h0"/><path class="cls-24" d="M140.3,107.38a18,18,0,0,0-15.12,27.85,14.3,14.3,0,0,1,21.17,7.16,18,18,0,0,0-6.06-35"/><path class="cls-2" d="M118.64,147.25A14.29,14.29,0,1,0,132.93,133h0a14.29,14.29,0,0,0-14.29,14.29"/><path class="cls-25" d="M132.93,133a14.29,14.29,0,1,0,14.29,14.29h0A14.29,14.29,0,0,0,132.93,133"/><circle class="cls-2" cx="166.69" cy="138.74" r="24.08"/><polyline class="cls-15" points="1158.76 281.11 1207.66 281.11 1207.66 259.44 1158.76 259.44 1158.76 281.11"/><path class="cls-26" d="M1194.37,259.44h-23.59l-.21.13a13.94,13.94,0,0,1,2.19,7.52h0a14,14,0,0,1-14,14h48.9a14,14,0,0,1-14-14h0a14,14,0,0,1,1.87-7,10.46,10.46,0,0,1-1.14-.67"/><path class="cls-15" d="M1189.78,250.8a10.44,10.44,0,1,0,10.45-10.43h0a10.44,10.44,0,0,0-10.44,10.43"/><path class="cls-27" d="M1200.21,240.37a10.43,10.43,0,0,0-4.7,19.75,14,14,0,0,1,14.82-6.76,10.44,10.44,0,0,0-10.12-13"/><path class="cls-15" d="M1154.51,250.8A10.44,10.44,0,1,0,1165,240.37h0a10.44,10.44,0,0,0-10.44,10.43"/><path class="cls-27" d="M1164.94,240.37a10.44,10.44,0,0,0-10,13.27,14,14,0,0,1,15.68,5.95,10.43,10.43,0,0,0-5.63-19.22"/><path class="cls-15" d="M1144.74,267.11a14,14,0,1,0,14-14,14,14,0,0,0-14,14h0"/><path class="cls-26" d="M1158.76,253.09a14,14,0,1,0,14,14,14,14,0,0,0-14-14h0"/><path class="cls-15" d="M1193.64,267.11a14,14,0,1,0,14-14,14,14,0,0,0-14,14h0"/><path class="cls-26" d="M1207.67,253.09a14,14,0,1,0,14,14,14,14,0,0,0-14-14h0"/><circle class="cls-15" cx="1182.43" cy="259.51" r="21.6"/><polyline class="cls-6" points="1049.3 302.29 1029.49 302.29 1029.49 176.68 1049.3 176.68 1049.3 302.29"/><path class="cls-6" d="M1031.47,260.7c-25.45,0-34.52-24.61-34.52-47.63h9.5c0,6.37,1.2,38.13,25,38.13v9.5Z"/><path class="cls-6" d="M1046.09,244.82v-9.5c17.87,0,26.2-13.37,26.2-42h9.51c0,23.5-6.19,51.51-35.71,51.51"/><path class="cls-5" d="M1061.46,135.73a40.11,40.11,0,1,1-40.11-40.11,40.11,40.11,0,0,1,40.11,40.11"/><path class="cls-28" d="M1021.36,95.61a40.11,40.11,0,1,0,9.58,79.06,40,40,0,0,1-11.26-27.86h0a40.11,40.11,0,0,1,30.53-39,40,40,0,0,0-28.85-12.24"/><path class="cls-5" d="M1099.9,146.81a40.11,40.11,0,1,1-40.11-40.11,40.11,40.11,0,0,1,40.11,40.11"/><path class="cls-22" d="M1059.79,106.71a40.11,40.11,0,0,0-13.47,77.9,31.81,31.81,0,0,1,47.1-15.93,40.11,40.11,0,0,0-33.63-62"/><path class="cls-5" d="M1108,195.42a31.76,31.76,0,1,1-31.76-31.76A31.76,31.76,0,0,1,1108,195.42h0"/><path class="cls-21" d="M1076.22,163.63A31.76,31.76,0,1,0,1108,195.38a31.76,31.76,0,0,0-31.76-31.76h0"/><circle class="cls-5" cx="1001.08" cy="176.47" r="53.58"/><polygon class="cls-20" points="995.61 179.31 1008.78 179.31 1001.7 164.68 995.61 179.31"/><path class="cls-20" d="M1001.7,142h0l-33.08,11.76,5,43.75,28.07,15.59,28.41-15.74,5.5-43.75Zm14.3,54-4.54-10.5H992.89l-4.18,10.39L981,196l20.7-46.09L1023.16,196H1016Z"/><polyline class="cls-6" points="267.66 414.03 286.38 414.03 286.38 295.32 267.66 295.32 267.66 414.03"/><path class="cls-6" d="M284.49,374.71c24.05,0,32.59-23.26,32.59-45h-8.93c0,6-1.14,36-23.63,36v9Z"/><path class="cls-6" d="M270.7,359.73v-9c-16.89,0-24.75-12.61-24.75-39.69h-9c0,22.21,5.85,48.69,33.74,48.69"/><polyline class="cls-6" points="348.42 157.63 355.4 157.63 355.4 113.32 348.42 113.32 348.42 157.63"/><path class="cls-6" d="M354.7,143c9,0,12.16-8.68,12.16-16.8h-3.33c0,2.25-.43,13.45-8.82,13.45V143Z"/><path class="cls-6" d="M349.55,137.36V134c-6.3,0-9.24-4.71-9.24-14.81H337c0,8.29,2.18,18.17,12.59,18.17"/><path class="cls-10" d="M256.17,256.62a37.91,37.91,0,1,0,37.91-37.91h0a37.91,37.91,0,0,0-37.91,37.91"/><path class="cls-29" d="M294.08,218.71a37.79,37.79,0,0,0-27.27,11.54,37.92,37.92,0,0,1,28.85,36.82h0A37.78,37.78,0,0,1,285,293.4a37.91,37.91,0,1,0,9.06-74.72"/><path class="cls-10" d="M219.85,267.1a37.91,37.91,0,1,0,37.91-37.91h0a37.91,37.91,0,0,0-37.91,37.91"/><path class="cls-30" d="M257.75,229.2A37.91,37.91,0,0,0,226,287.77a30.08,30.08,0,0,1,44.52,15,37.91,37.91,0,0,0-12.76-73.61"/><path class="cls-10" d="M212.18,313a30,30,0,1,0,30-30,30,30,0,0,0-30,30h0"/><path class="cls-31" d="M242.23,283a30,30,0,1,0,30,30,30,30,0,0,0-30-30h0"/><circle class="cls-10" cx="313.23" cy="295.12" r="50.63"/><circle class="cls-20" cx="313.23" cy="295.12" r="6.04"/><path class="cls-20" d="M299.89,324.84h-.24a6.4,6.4,0,0,1-5.43-3.13A10,10,0,0,1,293,318.5a23.26,23.26,0,0,1,.06-8.36,53.25,53.25,0,0,1,2.89-10.37,82.55,82.55,0,0,1,12.64-21.9,53.27,53.27,0,0,1,7.52-7.69,23.26,23.26,0,0,1,7.23-4.24,10,10,0,0,1,3.4-.53,6.4,6.4,0,0,1,5.43,3.13,10,10,0,0,1,1.24,3.21,23.26,23.26,0,0,1-.06,8.36,53.26,53.26,0,0,1-2.87,10.36,82.55,82.55,0,0,1-12.64,21.9,53.25,53.25,0,0,1-7.52,7.69,23.26,23.26,0,0,1-7.23,4.24A10.29,10.29,0,0,1,299.89,324.84Zm26.6-56.57a7.39,7.39,0,0,0-2.26.4,15.1,15.1,0,0,0-3,1.39,27.51,27.51,0,0,0-3.34,2.35,50.36,50.36,0,0,0-7.12,7.27,79.65,79.65,0,0,0-12.18,21.1,50.37,50.37,0,0,0-2.73,9.79,27.51,27.51,0,0,0-.37,4.06,15.1,15.1,0,0,0,.28,3.27,4.32,4.32,0,0,0,6.33,3.66,15.13,15.13,0,0,0,3-1.39,27.5,27.5,0,0,0,3.34-2.35,50.37,50.37,0,0,0,7.12-7.27,79.65,79.65,0,0,0,12.18-21.1,50.37,50.37,0,0,0,2.71-9.8,27.51,27.51,0,0,0,.37-4.06,15.1,15.1,0,0,0-.28-3.27,5.09,5.09,0,0,0-2.16-3.58A3.79,3.79,0,0,0,326.49,268.27Z"/><path class="cls-20" d="M313.23,308.72a79.73,79.73,0,0,1-12.64-1,53.26,53.26,0,0,1-10.42-2.68,23.26,23.26,0,0,1-7.29-4.18,10,10,0,0,1-2.16-2.67,6.4,6.4,0,0,1,0-6.27,10,10,0,0,1,2.16-2.67,23.26,23.26,0,0,1,7.29-4.18,53.24,53.24,0,0,1,10.42-2.68,82.53,82.53,0,0,1,25.29,0,53.24,53.24,0,0,1,10.43,2.76,23.26,23.26,0,0,1,7.29,4.18,10,10,0,0,1,2.16,2.67,6.4,6.4,0,0,1,0,6.27,10,10,0,0,1-2.16,2.67,23.26,23.26,0,0,1-7.29,4.18,53.27,53.27,0,0,1-10.42,2.68A79.73,79.73,0,0,1,313.23,308.72Zm0-24.33a76.88,76.88,0,0,0-12.18.94,50.39,50.39,0,0,0-9.85,2.51,27.58,27.58,0,0,0-3.7,1.67,15.12,15.12,0,0,0-2.68,1.88,4.31,4.31,0,0,0,0,7.32,15.09,15.09,0,0,0,2.68,1.88,27.5,27.5,0,0,0,3.7,1.67,50.37,50.37,0,0,0,9.85,2.51,79.66,79.66,0,0,0,24.37,0,50.37,50.37,0,0,0,9.85-2.51,27.5,27.5,0,0,0,3.7-1.67,15.09,15.09,0,0,0,2.68-1.81,4.31,4.31,0,0,0,0-7.32,15.12,15.12,0,0,0-2.68-1.88,27.58,27.58,0,0,0-3.7-1.67,50.39,50.39,0,0,0-9.85-2.51,76.83,76.83,0,0,0-12.18-1Z"/><path class="cls-20" d="M326.5,324.88a10.27,10.27,0,0,1-3.15-.54,23.26,23.26,0,0,1-7.23-4.24,53.24,53.24,0,0,1-7.52-7.69A82.55,82.55,0,0,1,296,290.51a53.24,53.24,0,0,1-2.89-10.37,23.26,23.26,0,0,1-.06-8.36,10,10,0,0,1,1.24-3.21,6.4,6.4,0,0,1,5.43-3.13,10.08,10.08,0,0,1,3.4.53,23.26,23.26,0,0,1,7.23,4.24,53.24,53.24,0,0,1,7.52,7.69,82.55,82.55,0,0,1,12.63,21.88,53.26,53.26,0,0,1,2.89,10.37,23.26,23.26,0,0,1,.06,8.36,10,10,0,0,1-1.24,3.21,6.59,6.59,0,0,1-2.31,2.28l-.72-1.25.72,1.25a6.58,6.58,0,0,1-3.13.84h-.24Zm-26.6-56.57a3.79,3.79,0,0,0-1.93.48,5.11,5.11,0,0,0-2.16,3.58,15.11,15.11,0,0,0-.28,3.27,27.51,27.51,0,0,0,.37,4.06,50.38,50.38,0,0,0,2.73,9.79,79.67,79.67,0,0,0,12.18,21.1,50.38,50.38,0,0,0,7.12,7.27,27.58,27.58,0,0,0,3.34,2.35,15.1,15.1,0,0,0,3,1.39,5.08,5.08,0,0,0,4.18-.08,5.14,5.14,0,0,0,2.16-3.58,15.11,15.11,0,0,0,.28-3.27,27.51,27.51,0,0,0-.37-4.05,50.37,50.37,0,0,0-2.73-9.79,79.65,79.65,0,0,0-12.18-21.1,50.39,50.39,0,0,0-7.12-7.27,27.45,27.45,0,0,0-3.34-2.35,15.1,15.1,0,0,0-3-1.39,7.39,7.39,0,0,0-2.24-.41Z"/></g></g><circle class="cls-5" cx="362.4" cy="99.43" r="29.62"/><path class="cls-20" d="M375.9,103.31s-7.1,4.56-11.77,4.3-4.18-3.26-4.18-3.26,17.11-4.64,12.44-16.53a9.19,9.19,0,0,0-8-4.41c-3.45-.18-7.79,1.61-10.56,7.64a26.51,26.51,0,0,0-2.13,7.76h0s-2.94.4-4.56-1.07-2.43-.18-2.43-.18-2.77,5,0,6.24,7.11,3.71,7.11,3.71h0c.39,2.51,1.55,3.61,4.93,6.41,5.07,4.18,14.81-.1,14.81-.1a35,35,0,0,0,4-2.36C378.64,109.1,380.43,101.12,375.9,103.31Zm-16.76-4.24c.2-8,5.47-11.17,7.3-9.28s1.15,5.62-2.3,7.75-5,1.52-5,1.52Z"/></svg>