<svg xmlns="http://www.w3.org/2000/svg" viewBox="0 0 1751.91 603.35"><defs><style>.cls-1{isolation:isolate;}.cls-2{fill:#f8f8df;}.cls-3{fill:#a3dde5;}.cls-4{fill:#f46663;}.cls-5{fill:#ffc064;}.cls-6{fill:#e5e57f;}.cls-7{fill:#9c83cc;}.cls-8{fill:#b6bfd6;}.cls-9{fill:#d0d7e7;}.cls-10{fill:#dadfea;}.cls-11{fill:#ef64a2;}.cls-12{fill:#eb5593;}.cls-13{fill:#e74584;}.cls-14{fill:#fff;}.cls-15{fill:#f15754;}.cls-16{fill:#ee4744;}.cls-17{fill:#626d8e;}.cls-18{fill:#d4d44f;}.cls-19{fill:#d9d95f;}.cls-20{fill:#dfdf6f;}.cls-21{fill:#ffb455;}.cls-22{fill:#ffa845;}.cls-23{fill:#ec3835;}.cls-24{fill:#77c7d4;}.cls-25{fill:#85ced9;}.cls-26{fill:#94d6df;}.cls-27{opacity:0.5;}.cls-27,.cls-32{mix-blend-mode:multiply;}.cls-28{fill:#e6e7e8;}.cls-29{fill:#515a77;}.cls-30{fill:#a3a5a8;}.cls-31{fill:#c4c6c8;}.cls-33{fill:#e6e6e6;}.cls-34{fill:#fffcf8;}.cls-35{fill:#9faccc;}</style></defs><title>This-Dot-Labs-Header</title><g class="cls-1"><g id="Labs"><polyline id="Base" class="cls-2" points="1751.91 465.32 0 465.32 0 603.35 1751.91 603.35 1751.91 465.32"/><g id="Background"><path class="cls-3" d="M1083,408.71A11.69,11.69,0,1,1,1094.68,397,11.7,11.7,0,0,1,1083,408.71Zm0-20.37a8.69,8.69,0,1,0,8.69,8.69A8.7,8.7,0,0,0,1083,388.33Z" transform="translate(-0.84 -208.3)"/><path class="cls-3" d="M1209.6,408.52h-82.31a11.5,11.5,0,0,1,0-23h82.31A11.5,11.5,0,0,1,1209.6,408.52Zm-82.31-20a8.5,8.5,0,0,0,0,17h82.31a8.5,8.5,0,0,0,0-17h-82.31Z" transform="translate(-0.84 -208.3)"/><path class="cls-4" d="M233.77,278.17a11.69,11.69,0,1,1,11.69-11.69A11.7,11.7,0,0,1,233.77,278.17Zm0-20.37a8.69,8.69,0,1,0,8.69,8.69A8.7,8.7,0,0,0,233.77,257.8Z" transform="translate(-0.84 -208.3)"/><path class="cls-4" d="M360.37,278H278.06a11.5,11.5,0,1,1,0-23h82.31A11.5,11.5,0,0,1,360.37,278Zm-82.31-20a8.5,8.5,0,0,0,0,17h82.31a8.5,8.5,0,0,0,0-17H278.06Z" transform="translate(-0.84 -208.3)"/><path class="cls-5" d="M1457.88,231.67A11.69,11.69,0,1,1,1469.57,220,11.7,11.7,0,0,1,1457.88,231.67Zm0-20.37a8.69,8.69,0,1,0,8.69,8.69A8.7,8.7,0,0,0,1457.88,211.3Z" transform="translate(-0.84 -208.3)"/><path class="cls-5" d="M1413.58,231.49h-82.31a11.5,11.5,0,0,1,0-23h82.31A11.5,11.5,0,0,1,1413.58,231.49Zm-82.31-20a8.5,8.5,0,0,0,0,17h82.31a8.5,8.5,0,0,0,0-17h-82.31Z" transform="translate(-0.84 -208.3)"/><path class="cls-6" d="M641.89,468.71A11.69,11.69,0,1,1,653.58,457,11.7,11.7,0,0,1,641.89,468.71Zm0-20.37a8.69,8.69,0,1,0,8.69,8.69A8.7,8.7,0,0,0,641.89,448.33Z" transform="translate(-0.84 -208.3)"/><path class="cls-6" d="M597.6,468.52H515.29a11.5,11.5,0,0,1,0-23H597.6A11.5,11.5,0,0,1,597.6,468.52Zm-82.31-20a8.5,8.5,0,0,0,0,17H597.6a8.5,8.5,0,0,0,0-17H515.29Z" transform="translate(-0.84 -208.3)"/><circle class="cls-6" cx="1431.6" cy="110.72" r="22"/><circle class="cls-5" cx="1198.58" cy="273.39" r="23.31"/><circle class="cls-7" cx="429.6" cy="154.72" r="17.09"/><path class="cls-8" d="M319.22,306.44L550.48,673.87a12,12,0,0,1-10.13,18.34H77.84a12,12,0,0,1-10.13-18.34L299,306.44a12,12,0,0,1,20.25,0" transform="translate(-0.84 -208.3)"/><path class="cls-9" d="M309.09,300.85A11.87,11.87,0,0,0,299,306.44L212.24,444.23H306l131.86,50.69L319.22,306.44a11.87,11.87,0,0,0-10.13-5.59" transform="translate(-0.84 -208.3)"/><path class="cls-8" d="M1294.64,484.49l124.52,197.84a6.44,6.44,0,0,1-5.45,9.88h-249a6.44,6.44,0,0,1-5.45-9.88l124.52-197.84a6.44,6.44,0,0,1,10.91,0" transform="translate(-0.84 -208.3)"/><path class="cls-10" d="M1289.19,480.48a6.39,6.39,0,0,0-5.45,3l-15.23,25.2,15.23-24.2a6.44,6.44,0,0,1,10.91,0l46.7,74.19H1342l-47.32-75.19a6.39,6.39,0,0,0-5.45-3" transform="translate(-0.84 -208.3)"/><path class="cls-9" d="M1288.49,479.48a6.53,6.53,0,0,0-5.57,3.07l-15.55,24.71-42.43,70.2,50.52-19.17h66.26l-47.67-75.74a6.52,6.52,0,0,0-5.57-3.07" transform="translate(-0.84 -208.3)"/><path class="cls-8" d="M1522.12,342.26l214,340.08a6.44,6.44,0,0,1-5.45,9.88H1302.63a6.44,6.44,0,0,1-5.45-9.88l214-340.08a6.44,6.44,0,0,1,10.91,0" transform="translate(-0.84 -208.3)"/><path class="cls-9" d="M1516.53,337.51a6.46,6.46,0,0,0-5.51,3l-82.8,131.55h85l118.18,42.27L1522,340.55a6.46,6.46,0,0,0-5.51-3" transform="translate(-0.84 -208.3)"/><polyline class="cls-11" points="1248.13 556.5 1181.24 556.5 1181.24 526.85 1248.13 526.85 1248.13 556.5"/><path class="cls-12" d="M1232.52,735.15h-32.27a14.26,14.26,0,0,1-1.56.92,19.07,19.07,0,0,1,2.56,9.57h0a19.17,19.17,0,0,1-19.17,19.16H1249a19.17,19.17,0,0,1-19.17-19.16h0a19.07,19.07,0,0,1,3-10.3l-0.28-.19" transform="translate(-0.84 -208.3)"/><path class="cls-11" d="M1206.54,723.33a14.27,14.27,0,1,1-14.27-14.27,14.27,14.27,0,0,1,14.27,14.27" transform="translate(-0.84 -208.3)"/><path class="cls-13" d="M1192.26,709.06a14.28,14.28,0,0,0-13.84,17.76,19.21,19.21,0,0,1,20.27,9.25,14.27,14.27,0,0,0-6.43-27" transform="translate(-0.84 -208.3)"/><path class="cls-11" d="M1254.78,723.33a14.27,14.27,0,1,1-14.27-14.27,14.27,14.27,0,0,1,14.27,14.27" transform="translate(-0.84 -208.3)"/><path class="cls-13" d="M1240.51,709.06a14.27,14.27,0,0,0-7.71,26.28,19.21,19.21,0,0,1,21.45-8.13,14.28,14.28,0,0,0-13.74-18.15" transform="translate(-0.84 -208.3)"/><path class="cls-11" d="M1268.14,745.63A19.17,19.17,0,1,1,1249,726.47a19.17,19.17,0,0,1,19.17,19.16" transform="translate(-0.84 -208.3)"/><path class="cls-12" d="M1249,726.47a19.16,19.16,0,1,0,19.17,19.16A19.17,19.17,0,0,0,1249,726.47" transform="translate(-0.84 -208.3)"/><path class="cls-11" d="M1201.25,745.63a19.17,19.17,0,1,1-19.17-19.16,19.17,19.17,0,0,1,19.17,19.16" transform="translate(-0.84 -208.3)"/><path class="cls-12" d="M1182.08,726.47a19.16,19.16,0,1,0,19.17,19.16,19.17,19.17,0,0,0-19.17-19.16" transform="translate(-0.84 -208.3)"/><ellipse class="cls-11" cx="1215.76" cy="526.95" rx="29.56" ry="29.55"/><path class="cls-14" d="M1232.07,729.28c2.07-4.41-7-12.06-15.91-11.72-1.12-.78-2.3-2.18-5-1.67-2.4.45-2.77,2.7-4.13,3.46s-3.45-.09-4.86,1.45c-1.17,1.28-.45,3.46-1.06,4.8s-3.18,1.79-3.07,3.46,1.17,2.85,1.06,4.13c-0.16,1.78-1.55,1.63-1.34,3.24s1.82,1.67,2.51,3.63c6,17,30.09,18.06,35.84,2.85-3.82,2.57-4.91,2.79-6.25,2.9,3.85-1.84,8.29-7.45,6.87-13-0.75,1.59-2.09,4.6-3.85,5.19,1.9-2.82,3.68-8.54.5-11.81,2.51,8.37-5.14,15.29-6.36,15.74,1.09,0.33,3.35.5,6.28-1.67-2.6,3.35-7.54,5.11-11.14,5.36,0.67,1.09,3.35,2.43,5.8,2.62-3.29.47-7.9,1.65-15.6-5.8a9.1,9.1,0,0,0,3,5.27c-11.42-4.8-7.28-19.51,1.2-19.9C1219.57,729.22,1230.32,733,1232.07,729.28Z" transform="translate(-0.84 -208.3)"/><circle class="cls-11" cx="1220.6" cy="515.27" r="1.45"/><polyline class="cls-4" points="203.52 548.5 283.76 548.5 283.76 512.93 203.52 512.93 203.52 548.5"/><path class="cls-15" d="M262.8,721.23H224.1l-0.34.22a22.87,22.87,0,0,1,3.6,12.35h0a23,23,0,0,1-23,23H284.6a23,23,0,0,1-23-23h0a22.88,22.88,0,0,1,3.07-11.48,17,17,0,0,1-1.87-1.1" transform="translate(-0.84 -208.3)"/><path class="cls-4" d="M255.27,707a17.12,17.12,0,1,0,17.12-17.11A17.12,17.12,0,0,0,255.27,707" transform="translate(-0.84 -208.3)"/><path class="cls-16" d="M272.39,689.93a17.11,17.11,0,0,0-7.71,32.4A23,23,0,0,1,289,711.23a17.13,17.13,0,0,0-16.6-21.3" transform="translate(-0.84 -208.3)"/><path class="cls-4" d="M197.39,707a17.12,17.12,0,1,0,17.12-17.11A17.12,17.12,0,0,0,197.39,707" transform="translate(-0.84 -208.3)"/><path class="cls-16" d="M214.51,689.93A17.13,17.13,0,0,0,198,711.7a23,23,0,0,1,25.73,9.76,17.11,17.11,0,0,0-9.24-31.52" transform="translate(-0.84 -208.3)"/><path class="cls-4" d="M181.36,733.81a23,23,0,1,0,23-23,23,23,0,0,0-23,23" transform="translate(-0.84 -208.3)"/><path class="cls-15" d="M204.36,710.82a23,23,0,1,0,23,23,23,23,0,0,0-23-23" transform="translate(-0.84 -208.3)"/><path class="cls-4" d="M261.61,733.81a23,23,0,1,0,23-23,23,23,0,0,0-23,23" transform="translate(-0.84 -208.3)"/><path class="cls-15" d="M284.6,710.82a23,23,0,1,0,23,23,23,23,0,0,0-23-23" transform="translate(-0.84 -208.3)"/><circle class="cls-4" cx="242.37" cy="513.05" r="35.44"/><path class="cls-14" d="M259.37,726s-8.5,5.46-14.08,5.15-5-3.9-5-3.9,20.47-5.55,14.89-19.78c-2.51-3.74-5.42-5.06-9.55-5.28s-9.32,1.93-12.64,9.14a31.72,31.72,0,0,0-2.55,9.29h0s-3.52.48-5.46-1.28-2.91-.21-2.91-0.21-3.31,5.94,0,7.47,8.51,4.44,8.51,4.44h0c0.47,3,1.86,4.32,5.9,7.67,6.07,5,17.72-.12,17.72-0.12a41.85,41.85,0,0,0,4.77-2.82C262.65,732.93,264.79,723.37,259.37,726Zm-20.06-5.07c0.24-9.61,6.55-13.37,8.74-11.11s1.38,6.73-2.75,9.27S239.3,720.91,239.3,720.91Z" transform="translate(-0.84 -208.3)"/><polyline class="cls-17" points="347.22 509.29 357.88 509.29 357.88 441.73 347.22 441.73 347.22 509.29"/><path class="cls-17" d="M357.65,695.21c13.69,0,18.57-13.24,18.57-25.63h-5.12c0,3.43-.65,20.51-13.45,20.51v5.11Z" transform="translate(-0.84 -208.3)"/><path class="cls-17" d="M349.79,686.69v-5.11c-9.61,0-14.09-7.18-14.09-22.59h-5.11c0,12.64,3.33,27.71,19.2,27.71" transform="translate(-0.84 -208.3)"/><path class="cls-6" d="M341.52,628a21.57,21.57,0,1,0,21.57-21.57A21.57,21.57,0,0,0,341.52,628" transform="translate(-0.84 -208.3)"/><path class="cls-18" d="M363.1,606.43A21.51,21.51,0,0,0,347.58,613,21.58,21.58,0,0,1,364,634h0a21.5,21.5,0,0,1-6.05,15,21.58,21.58,0,1,0,5.16-42.53" transform="translate(-0.84 -208.3)"/><path class="cls-6" d="M320.85,634a21.57,21.57,0,1,0,21.57-21.57A21.57,21.57,0,0,0,320.85,634" transform="translate(-0.84 -208.3)"/><path class="cls-19" d="M342.42,612.4a21.58,21.58,0,0,0-18.09,33.33,17.11,17.11,0,0,1,25.33,8.57,21.57,21.57,0,0,0-7.25-41.9" transform="translate(-0.84 -208.3)"/><path class="cls-6" d="M316.49,660.11a17.1,17.1,0,1,0,17.1-17.1,17.1,17.1,0,0,0-17.1,17.1" transform="translate(-0.84 -208.3)"/><path class="cls-20" d="M333.59,643a17.1,17.1,0,1,0,17.1,17.1,17.1,17.1,0,0,0-17.1-17.1" transform="translate(-0.84 -208.3)"/><circle class="cls-6" cx="373.16" cy="441.62" r="28.82"/><polyline class="cls-5" points="1492.11 506.69 1550.63 506.69 1550.63 480.75 1492.11 480.75 1492.11 506.69"/><path class="cls-21" d="M1535.57,689.05h-28.23l-0.25.16a16.68,16.68,0,0,1,2.62,9h0A16.77,16.77,0,0,1,1492.95,715h58.53a16.77,16.77,0,0,1-16.77-16.77h0a16.69,16.69,0,0,1,2.24-8.37,12.52,12.52,0,0,1-1.36-.8" transform="translate(-0.84 -208.3)"/><path class="cls-5" d="M1530.08,678.71a12.49,12.49,0,1,0,12.49-12.48,12.49,12.49,0,0,0-12.49,12.48" transform="translate(-0.84 -208.3)"/><path class="cls-22" d="M1542.56,666.23a12.48,12.48,0,0,0-5.63,23.63,16.8,16.8,0,0,1,17.74-8.09,12.49,12.49,0,0,0-12.11-15.54" transform="translate(-0.84 -208.3)"/><path class="cls-5" d="M1487.87,678.71a12.49,12.49,0,1,0,12.49-12.48,12.49,12.49,0,0,0-12.49,12.48" transform="translate(-0.84 -208.3)"/><path class="cls-22" d="M1500.35,666.23a12.49,12.49,0,0,0-12,15.88,16.8,16.8,0,0,1,18.76,7.12,12.48,12.48,0,0,0-6.74-23" transform="translate(-0.84 -208.3)"/><path class="cls-5" d="M1476.18,698.23a16.77,16.77,0,1,0,16.77-16.77,16.77,16.77,0,0,0-16.77,16.77" transform="translate(-0.84 -208.3)"/><path class="cls-21" d="M1492.95,681.46a16.77,16.77,0,1,0,16.77,16.77,16.77,16.77,0,0,0-16.77-16.77" transform="translate(-0.84 -208.3)"/><path class="cls-5" d="M1534.7,698.23a16.77,16.77,0,1,0,16.77-16.77,16.77,16.77,0,0,0-16.77,16.77" transform="translate(-0.84 -208.3)"/><path class="cls-21" d="M1551.48,681.46a16.77,16.77,0,1,0,16.77,16.77,16.77,16.77,0,0,0-16.77-16.77" transform="translate(-0.84 -208.3)"/><circle class="cls-5" cx="1520.44" cy="480.84" r="25.85"/><polyline class="cls-17" points="1393.44 589.47 1369.73 589.47 1369.73 439.16 1393.44 439.16 1393.44 589.47"/><path class="cls-17" d="M1372.94,748c-30.46,0-41.31-29.45-41.31-57H1343c0,7.62,1.44,45.63,29.93,45.63V748Z" transform="translate(-0.84 -208.3)"/><path class="cls-17" d="M1390.44,729V717.63c21.39,0,31.35-16,31.35-50.26h11.38c0,28.12-7.41,61.64-42.73,61.64" transform="translate(-0.84 -208.3)"/><path class="cls-4" d="M1408.83,598.45a48,48,0,1,1-48-48,48,48,0,0,1,48,48" transform="translate(-0.84 -208.3)"/><path class="cls-23" d="M1360.84,550.45a48,48,0,1,0,11.47,94.61,47.84,47.84,0,0,1-13.47-33.34h0a48,48,0,0,1,36.53-46.62,47.86,47.86,0,0,0-34.52-14.65" transform="translate(-0.84 -208.3)"/><path class="cls-4" d="M1454.83,611.72a48,48,0,1,1-48-48,48,48,0,0,1,48,48" transform="translate(-0.84 -208.3)"/><path class="cls-16" d="M1406.83,563.73a48,48,0,0,0-16.12,93.22,38.06,38.06,0,0,1,56.36-19.06,48,48,0,0,0-40.24-74.16" transform="translate(-0.84 -208.3)"/><path class="cls-4" d="M1464.53,669.88a38,38,0,1,1-38-38,38,38,0,0,1,38,38" transform="translate(-0.84 -208.3)"/><path class="cls-15" d="M1426.49,631.84a38,38,0,1,0,38,38,38,38,0,0,0-38-38" transform="translate(-0.84 -208.3)"/><circle class="cls-4" cx="1335.74" cy="438.91" r="64.12"/><polygon class="cls-14" points="1329.19 442.3 1344.95 442.3 1336.48 424.8 1329.19 442.3"/><path class="cls-14" d="M1337.32,605.93h0L1297.73,620l6,52.35L1337.32,691l34-18.84,6.58-52.35Zm17.11,64.63L1349,658h-22.22l-5,12.43-9.25.17,24.77-55.15L1363,670.56h-8.57Z" transform="translate(-0.84 -208.3)"/><polyline class="cls-17" points="482.02 567.62 504.42 567.62 504.42 425.57 482.02 425.57 482.02 567.62"/><path class="cls-17" d="M503,728.87c28.78,0,39-27.83,39-53.88H531.31c0,7.2-1.37,43.13-28.28,43.13v10.76Z" transform="translate(-0.84 -208.3)"/><path class="cls-17" d="M486.49,710.94V700.19c-20.21,0-29.62-15.09-29.62-47.5H446.11c0,26.58,7,58.26,40.38,58.26" transform="translate(-0.84 -208.3)"/><path class="cls-3" d="M469.11,587.55a45.36,45.36,0,1,0,45.36-45.36,45.36,45.36,0,0,0-45.36,45.36" transform="translate(-0.84 -208.3)"/><path class="cls-24" d="M514.47,542.19A45.22,45.22,0,0,0,481.84,556a45.38,45.38,0,0,1,34.52,44.06h0a45.21,45.21,0,0,1-12.73,31.51,45.36,45.36,0,1,0,10.84-89.41" transform="translate(-0.84 -208.3)"/><path class="cls-3" d="M425.64,600.1A45.36,45.36,0,1,0,471,554.74a45.36,45.36,0,0,0-45.36,45.36" transform="translate(-0.84 -208.3)"/><path class="cls-25" d="M471,554.74a45.37,45.37,0,0,0-38,70.09,36,36,0,0,1,53.27,18A45.36,45.36,0,0,0,471,554.74" transform="translate(-0.84 -208.3)"/><path class="cls-3" d="M416.47,655.06a35.95,35.95,0,1,0,35.95-35.95,35.95,35.95,0,0,0-35.95,35.95" transform="translate(-0.84 -208.3)"/><path class="cls-26" d="M452.42,619.11a35.95,35.95,0,1,0,35.95,35.95,35.95,35.95,0,0,0-35.95-35.95" transform="translate(-0.84 -208.3)"/><circle class="cls-3" cx="536.55" cy="425.33" r="60.59"/><circle class="cls-14" cx="536.55" cy="425.32" r="7.23"/><path class="cls-14" d="M521.42,669.19h-0.29a7.66,7.66,0,0,1-6.5-3.75,12,12,0,0,1-1.48-3.84,27.84,27.84,0,0,1,.07-10,63.72,63.72,0,0,1,3.46-12.41,98.78,98.78,0,0,1,15.13-26.21,63.74,63.74,0,0,1,9-9.2,27.84,27.84,0,0,1,8.65-5.07,12,12,0,0,1,4.07-.64,7.66,7.66,0,0,1,6.5,3.75,12,12,0,0,1,1.48,3.84,27.84,27.84,0,0,1-.07,10A63.73,63.73,0,0,1,558,628.06a98.78,98.78,0,0,1-15.13,26.21,63.72,63.72,0,0,1-9,9.2,27.84,27.84,0,0,1-8.65,5.07A12.31,12.31,0,0,1,521.42,669.19Zm31.83-67.7a8.84,8.84,0,0,0-2.7.48,18.07,18.07,0,0,0-3.55,1.66,32.92,32.92,0,0,0-4,2.81,60.26,60.26,0,0,0-8.52,8.7,95.32,95.32,0,0,0-14.58,25.25,60.28,60.28,0,0,0-3.27,11.72,32.92,32.92,0,0,0-.44,4.86,18.07,18.07,0,0,0,.34,3.91c0.45,2.12,1.32,3.56,2.58,4.29s2.94,0.76,5,.09a18.1,18.1,0,0,0,3.55-1.66,32.91,32.91,0,0,0,4-2.81,60.28,60.28,0,0,0,8.52-8.7,95.32,95.32,0,0,0,14.58-25.25A60.28,60.28,0,0,0,558,615.11a32.92,32.92,0,0,0,.44-4.86,18.07,18.07,0,0,0-.34-3.91c-0.45-2.12-1.32-3.57-2.58-4.29A4.54,4.54,0,0,0,553.25,601.49Z" transform="translate(-0.84 -208.3)"/><path class="cls-14" d="M537.39,649.9a95.41,95.41,0,0,1-15.13-1.17,63.74,63.74,0,0,1-12.47-3.21,27.84,27.84,0,0,1-8.72-5,12,12,0,0,1-2.59-3.2,7.66,7.66,0,0,1,0-7.5,12,12,0,0,1,2.59-3.2,27.84,27.84,0,0,1,8.72-5,63.71,63.71,0,0,1,12.47-3.21,98.76,98.76,0,0,1,30.26,0A63.71,63.71,0,0,1,565,621.71a27.84,27.84,0,0,1,8.72,5,12,12,0,0,1,2.59,3.2,7.66,7.66,0,0,1,0,7.5,12,12,0,0,1-2.59,3.2,27.84,27.84,0,0,1-8.72,5,63.74,63.74,0,0,1-12.47,3.21A95.41,95.41,0,0,1,537.39,649.9Zm0-29.11a92,92,0,0,0-14.58,1.12,60.3,60.3,0,0,0-11.79,3,33,33,0,0,0-4.43,2,18.09,18.09,0,0,0-3.21,2.25c-1.61,1.45-2.43,2.93-2.43,4.38s0.82,2.93,2.43,4.38a18.06,18.06,0,0,0,3.21,2.25,32.91,32.91,0,0,0,4.43,2,60.27,60.27,0,0,0,11.79,3,95.33,95.33,0,0,0,29.16,0,60.27,60.27,0,0,0,11.79-3,32.91,32.91,0,0,0,4.43-2A18.06,18.06,0,0,0,571.4,638c1.61-1.45,2.43-2.93,2.43-4.38s-0.82-2.93-2.43-4.38a18.09,18.09,0,0,0-3.21-2.25,33,33,0,0,0-4.43-2,60.3,60.3,0,0,0-11.79-3A91.94,91.94,0,0,0,537.39,620.8Z" transform="translate(-0.84 -208.3)"/><path class="cls-14" d="M553.27,669.24a12.29,12.29,0,0,1-3.77-.65,27.84,27.84,0,0,1-8.65-5.07,63.71,63.71,0,0,1-9-9.2,98.78,98.78,0,0,1-15.13-26.21,63.71,63.71,0,0,1-3.46-12.41,27.83,27.83,0,0,1-.07-10,12,12,0,0,1,1.48-3.84,7.66,7.66,0,0,1,6.5-3.75,12.06,12.06,0,0,1,4.07.64,27.83,27.83,0,0,1,8.65,5.07,63.71,63.71,0,0,1,9,9.2A98.78,98.78,0,0,1,558,639.2a63.73,63.73,0,0,1,3.46,12.41,27.84,27.84,0,0,1,.07,10,12,12,0,0,1-1.48,3.84,7.88,7.88,0,0,1-2.76,2.73l-0.86-1.5,0.86,1.5a7.87,7.87,0,0,1-3.74,1h-0.29Zm-31.83-67.7a4.54,4.54,0,0,0-2.31.57c-1.26.73-2.13,2.17-2.58,4.29a18.08,18.08,0,0,0-.34,3.91,32.92,32.92,0,0,0,.44,4.86,60.29,60.29,0,0,0,3.27,11.72,95.34,95.34,0,0,0,14.58,25.25,60.29,60.29,0,0,0,8.52,8.7,33,33,0,0,0,4,2.81,18.07,18.07,0,0,0,3.55,1.66c2.06,0.67,3.75.64,5-.09s2.13-2.17,2.58-4.29a18.08,18.08,0,0,0,.34-3.91,32.92,32.92,0,0,0-.44-4.85,60.27,60.27,0,0,0-3.27-11.72,95.32,95.32,0,0,0-14.58-25.25,60.3,60.3,0,0,0-8.52-8.7,32.85,32.85,0,0,0-4-2.81,18.07,18.07,0,0,0-3.55-1.66A8.84,8.84,0,0,0,521.45,601.54Z" transform="translate(-0.84 -208.3)"/></g><g id="Laptop"><g class="cls-27"><rect class="cls-6" x="610.92" y="515.67" width="533.91" height="42" rx="21" ry="21"/></g><polygon class="cls-4" points="943.09 164.79 875.49 164.79 875.49 205.18 943.09 205.18 921.89 184.99 943.09 164.79"/><path class="cls-17" d="M877,466a2,2,0,0,1-2-2v-97a2,2,0,1,1,4,0v97A2,2,0,0,1,877,466Z" transform="translate(-0.84 -208.3)"/><g id="_Group_" data-name="&lt;Group&gt;"><g id="_Group_2" data-name="&lt;Group&gt;"><path class="cls-28" d="M699.26,246.17h353.38a30.91,30.91,0,0,1,30.91,30.91V482.43a0,0,0,0,1,0,0H668.35a0,0,0,0,1,0,0V277.08A30.91,30.91,0,0,1,699.26,246.17Z"/><path class="cls-29" d="M1084.39,692.73H669.19a2,2,0,0,1-2-2V485.38a33,33,0,0,1,32.91-32.91h353.38a33,33,0,0,1,32.91,32.91V690.73A2,2,0,0,1,1084.39,692.73Zm-413.2-4h411.2V485.38a28.94,28.94,0,0,0-28.91-28.91H700.1a28.94,28.94,0,0,0-28.91,28.91V688.73Z" transform="translate(-0.84 -208.3)"/></g><g id="_Group_3" data-name="&lt;Group&gt;"><polygon class="cls-28" points="668.35 482.43 618.02 508.08 1133.88 508.08 1083.55 482.43 668.35 482.43"/><path class="cls-29" d="M1134.72,718.38H618.86a2,2,0,0,1-.91-3.78l50.33-25.65a2,2,0,0,1,.91-0.22h415.2a2,2,0,0,1,.91.22l50.33,25.65A2,2,0,0,1,1134.72,718.38Zm-507.53-4h499.2l-42.48-21.65H669.67Z" transform="translate(-0.84 -208.3)"/></g><g id="_Group_4" data-name="&lt;Group&gt;"><path class="cls-28" d="M617.42,508.08h517.06a0,0,0,0,1,0,0v0A30.44,30.44,0,0,1,1104,538.52H647.86a30.44,30.44,0,0,1-30.44-30.44v0a0,0,0,0,1,0,0Z"/><path class="cls-29" d="M1104.88,748.82H648.7a32.48,32.48,0,0,1-32.44-32.44,2,2,0,0,1,2-2h517.06a2,2,0,0,1,2,2A32.48,32.48,0,0,1,1104.88,748.82ZM620.33,718.38a28.48,28.48,0,0,0,28.37,26.44h456.18a28.48,28.48,0,0,0,28.37-26.44H620.33Z" transform="translate(-0.84 -208.3)"/></g><g id="_Group_5" data-name="&lt;Group&gt;"><polygon class="cls-30" points="685.14 491.94 671.91 499.4 1079.98 499.4 1067.78 491.94 685.14 491.94"/></g><g id="_Group_6" data-name="&lt;Group&gt;"><rect class="cls-3" x="706.9" y="286.67" width="338.09" height="177.59"/><path class="cls-29" d="M1045.84,674.56H707.74a2,2,0,0,1-2-2V495a2,2,0,0,1,2-2h338.09a2,2,0,0,1,2,2V672.56A2,2,0,0,1,1045.84,674.56Zm-336.09-4h334.09V497H709.74V670.56Z" transform="translate(-0.84 -208.3)"/></g><g id="_Group_7" data-name="&lt;Group&gt;"><circle class="cls-31" cx="875.95" cy="265.04" r="4.89"/></g><g id="_Group_8" data-name="&lt;Group&gt;" class="cls-32"><rect class="cls-33" x="775.15" y="321.17" width="215.99" height="139.31"/></g><g id="_Group_9" data-name="&lt;Group&gt;"><rect class="cls-34" x="767.95" y="313.97" width="215.99" height="146.66"/></g></g><circle class="cls-4" cx="876.57" cy="390.13" r="22.95"/><polygon class="cls-35" points="911.99 353.24 893.1 353.24 921.43 390.13 893.1 427.01 911.99 427.01 940.32 390.13 911.99 353.24"/><polygon class="cls-35" points="841.14 353.24 860.03 353.24 831.7 390.13 860.03 427.01 841.14 427.01 812.81 390.13 841.14 353.24"/></g></g></g></svg>