<svg id="Layer_1" data-name="Layer 1" xmlns="http://www.w3.org/2000/svg" viewBox="0 0 1460.98 284"><defs><style>.cls-1,.cls-2{fill:#e5e57f;}.cls-1{opacity:0.5;}.cls-3{fill:#f46663;}.cls-4{fill:#626d8e;}.cls-5{fill:#e6e7e8;}.cls-6{fill:#515a77;}.cls-7{fill:#a3a5a8;}.cls-8{fill:#a3dde5;}.cls-9{fill:#c4c6c8;}.cls-10{fill:#e6e6e6;}.cls-11{fill:#fffcf8;}.cls-12{fill:#9faccc;}.cls-13{fill:#ffc064;}.cls-14{fill:#656f90;}.cls-15{fill:#ef64a2;}.cls-16{fill:#eb5593;}.cls-17{fill:#e74584;}.cls-18{fill:#fff;}.cls-19{fill:#ffb455;}.cls-20{fill:#ffa845;}.cls-21{fill:#ec3835;}.cls-22{fill:#ee4744;}.cls-23{fill:#f15754;}.cls-24{fill:#77c7d4;}.cls-25{fill:#85ced9;}.cls-26{fill:#94d6df;}.cls-27{fill:#f4f2a2;}.cls-28{fill:#8a75bc;}.cls-29{fill:#a597d3;}.cls-30{fill:#ae9cdb;}.cls-31{fill:#9c83cc;}</style></defs><title>labs-art</title><rect class="cls-1" x="1107.78" y="243.36" width="54.12" height="20.08" rx="10.04" ry="10.04"/><rect class="cls-2" x="1346.14" y="232.2" width="37.84" height="17.07" rx="8.53" ry="8.53"/><g id="Laptop"><polygon class="cls-3" points="745.28 46.42 708.35 46.42 708.35 68.49 745.28 68.49 733.69 57.45 745.28 46.42"/><path class="cls-4" d="M708.71,97.18a1.09,1.09,0,0,1-1.09-1.09v-53a1.09,1.09,0,1,1,2.19,0v53A1.09,1.09,0,0,1,708.71,97.18Z"/><g id="_Group_" data-name=" Group "><g id="_Group_2" data-name=" Group 2"><path class="cls-5" d="M612.07,90.88H805.13A16.89,16.89,0,0,1,822,107.77h0V220H595.18V107.77a16.89,16.89,0,0,1,16.89-16.89Z"/><path class="cls-6" d="M822,221H595.18a1.09,1.09,0,0,1-1.09-1.09V107.77a18,18,0,0,1,18-18H805.13a18,18,0,0,1,18,18V220A1.09,1.09,0,0,1,822,221Zm-225.74-2.19H820.92V107.77A15.81,15.81,0,0,0,805.13,92H612.07a15.81,15.81,0,0,0-15.79,15.79Z"/></g><g id="_Group_3" data-name=" Group 3"><polygon class="cls-5" points="595.18 219.95 567.68 233.97 849.51 233.97 822.01 219.95 595.18 219.95"/><path class="cls-6" d="M849.51,235.06H567.68a1.09,1.09,0,0,1-.5-2.07l27.5-14a1.09,1.09,0,0,1,.5-.12H822a1.09,1.09,0,0,1,.5.12L850,233a1.09,1.09,0,0,1-.5,2.07Zm-277.27-2.19H845L821.75,221H595.44Z"/></g><g id="_Group_4" data-name=" Group 4"><path class="cls-5" d="M567.36,234H849.84a16.63,16.63,0,0,1-16.63,16.63H584A16.63,16.63,0,0,1,567.36,234h0Z"/><path class="cls-6" d="M833.21,251.69H584A17.74,17.74,0,0,1,566.26,234a1.09,1.09,0,0,1,1.09-1.09H849.84a1.09,1.09,0,0,1,1.09,1.09A17.74,17.74,0,0,1,833.21,251.69ZM568.49,235.06A15.56,15.56,0,0,0,584,249.5H833.21a15.56,15.56,0,0,0,15.5-14.44Z"/></g><g id="_Group_5" data-name=" Group 5"><polygon class="cls-7" points="604.35 225.15 597.13 229.22 820.06 229.22 813.4 225.15 604.35 225.15"/></g><g id="_Group_6" data-name=" Group 6"><rect class="cls-8" x="616.24" y="113.01" width="184.71" height="97.02"/><path class="cls-6" d="M801,211.12H616.24a1.09,1.09,0,0,1-1.09-1.09V113a1.09,1.09,0,0,1,1.09-1.09H800.95A1.09,1.09,0,0,1,802,113v97A1.09,1.09,0,0,1,801,211.12Zm-183.61-2.19H799.86V114.11H617.33v94.82Z"/></g><g id="_Group_7" data-name=" Group 7"><circle class="cls-9" cx="708.6" cy="101.19" r="2.67"/></g><g id="_Group_8" data-name=" Group 8"><rect class="cls-10" x="653.53" y="131.85" width="118" height="76.11"/></g><g id="_Group_9" data-name=" Group 9"><rect class="cls-11" x="649.59" y="127.92" width="118" height="80.12"/></g></g><circle class="cls-3" cx="708.94" cy="169.53" r="12.54"/><polygon class="cls-12" points="728.29 149.37 717.97 149.37 733.44 169.53 717.97 189.68 728.29 189.68 743.76 169.53 728.29 149.37"/><polygon class="cls-12" points="689.58 149.37 699.9 149.37 684.42 169.53 699.9 189.68 689.58 189.68 674.1 169.53 689.58 149.37"/></g><polyline class="cls-4" points="1140.95 253.48 1129.09 253.48 1129.09 178.27 1140.95 178.27 1140.95 253.48"/><path class="cls-4" d="M1130.28,219.85c-15.24,0-20.67-14.74-20.67-28.52h5.69c0,3.81.72,22.83,15,22.83v5.69Z"/><path class="cls-8" d="M844,49a9.77,9.77,0,1,1,9.76-9.79A9.77,9.77,0,0,1,844,49Zm0-17a7.26,7.26,0,1,0,7.26,7.26h0A7.27,7.27,0,0,0,844,32Z"/><path class="cls-8" d="M943.71,49.84H874.93a9.61,9.61,0,1,1,0-19.22h68.78a9.64,9.64,0,0,1,0,19.22ZM874.93,33.13a7.1,7.1,0,1,0,0,14.21h68.78a7.1,7.1,0,1,0,0-14.21Z"/><path class="cls-3" d="M54.25,261.91A9.77,9.77,0,1,1,64,252.14,9.77,9.77,0,0,1,54.25,261.91Zm0-17a7.26,7.26,0,1,0,7.26,7.26,7.26,7.26,0,0,0-7.26-7.26Z"/><path class="cls-3" d="M160,261.77H91.26a9.61,9.61,0,1,1,0-19.22H160a9.61,9.61,0,1,1,0,19.22ZM91.26,245.06a7.1,7.1,0,0,0,0,14.21H160a7.1,7.1,0,1,0,0-14.21Z"/><path class="cls-13" d="M1020.19,277.05a9.77,9.77,0,1,1,9.77-9.77v0A9.78,9.78,0,0,1,1020.19,277.05Zm0-17a7.26,7.26,0,1,0,7.26,7.26h0A7.27,7.27,0,0,0,1020.19,260Z"/><path class="cls-13" d="M983.17,276.9H914.39a9.61,9.61,0,0,1,0-19.22h68.78a9.62,9.62,0,0,1,0,19.22Zm-68.78-16.71a7.1,7.1,0,1,0,0,14.21h68.78a7.1,7.1,0,1,0,0-14.21Z"/><path class="cls-2" d="M432,50.14a9.77,9.77,0,1,1,9.77-9.79A9.77,9.77,0,0,1,432,50.14Zm0-17a7.26,7.26,0,1,0,7.26,7.26A7.26,7.26,0,0,0,432,33.12Z"/><path class="cls-2" d="M528.29,50H459.51a9.61,9.61,0,0,1,0-19.22h68.78a9.61,9.61,0,1,1,0,19.22ZM459.51,33.27a7.1,7.1,0,1,0,0,14.21h68.78a7.1,7.1,0,1,0,0-14.21Z"/><circle class="cls-2" cx="957.93" cy="177.05" r="18.38"/><circle class="cls-13" cx="1056.21" cy="71.99" r="19.48"/><circle class="cls-14" cx="294.6" cy="250.82" r="14.28"/><polyline class="cls-15" points="1158.45 203.24 1100.82 203.24 1100.82 177.69 1158.45 177.69 1158.45 203.24"/><path class="cls-16" d="M1144.28,177.69h-27.81a12.29,12.29,0,0,1-1.34.79,16.43,16.43,0,0,1,2.21,8.25h0a16.52,16.52,0,0,1-16.52,16.51h57.67A16.52,16.52,0,0,1,1142,186.73h0a16.43,16.43,0,0,1,2.59-8.88l-.24-.16"/><path class="cls-15" d="M1121.89,167.51a12.3,12.3,0,1,1-12.3-12.3,12.3,12.3,0,0,1,12.3,12.3h0"/><path class="cls-17" d="M1109.59,155.21a12.31,12.31,0,0,0-11.93,15.3,16.55,16.55,0,0,1,17.47,8,12.3,12.3,0,0,0-5.54-23.27"/><path class="cls-15" d="M1163.46,167.51a12.3,12.3,0,1,1-12.3-12.3,12.3,12.3,0,0,1,12.3,12.3h0"/><path class="cls-17" d="M1151.16,155.21a12.3,12.3,0,0,0-6.64,22.65,16.55,16.55,0,0,1,18.48-7,12.31,12.31,0,0,0-11.84-15.64"/><path class="cls-15" d="M1175,186.72a16.52,16.52,0,1,1-16.53-16.51h0A16.52,16.52,0,0,1,1175,186.72"/><path class="cls-16" d="M1158.48,170.21A16.51,16.51,0,1,0,1175,186.72a16.51,16.51,0,0,0-16.52-16.51"/><path class="cls-15" d="M1117.33,186.72a16.52,16.52,0,1,1-16.53-16.51h0a16.52,16.52,0,0,1,16.52,16.51"/><path class="cls-16" d="M1100.81,170.21a16.51,16.51,0,1,0,16.52,16.51,16.51,16.51,0,0,0-16.52-16.51"/><ellipse class="cls-15" cx="1130.56" cy="177.78" rx="25.47" ry="25.46"/><path class="cls-18" d="M1143.89,172.63c1.78-3.8-6-10.39-13.71-10.1-1-.67-2-1.88-4.31-1.44-2.07.39-2.39,2.33-3.56,3s-3-.08-4.19,1.25c-1,1.1-.39,3-.91,4.14s-2.74,1.54-2.65,3,1,2.46.91,3.56c-.14,1.53-1.34,1.4-1.15,2.79s1.57,1.44,2.16,3.13c5.17,14.65,25.93,15.56,30.88,2.46-3.29,2.21-4.23,2.4-5.39,2.5,3.32-1.59,7.14-6.42,5.92-11.2-.65,1.37-1.8,4-3.32,4.47,1.64-2.43,3.17-7.36.43-10.18,2.16,7.21-4.43,13.18-5.48,13.56.94.28,2.89.43,5.41-1.44-2.24,2.89-6.5,4.4-9.6,4.62.58.94,2.89,2.09,5,2.26-2.84.4-6.81,1.42-13.44-5a7.84,7.84,0,0,0,2.59,4.54c-9.84-4.14-6.27-16.81,1-17.15C1133.12,172.58,1142.38,175.84,1143.89,172.63Z"/><circle class="cls-15" cx="1134.73" cy="167.71" r="1.25"/><polyline class="cls-4" points="1361.84 238.58 1368.45 238.58 1368.45 196.69 1361.84 196.69 1361.84 238.58"/><path class="cls-4" d="M1367.79,217.28c8.49,0,11.51-8.21,11.51-15.89h-3.17c0,2.13-.4,12.72-8.34,12.72v3.17Z"/><path class="cls-4" d="M1362.91,219.42v-3.17c-6,0-8.74-4.45-8.74-14H1351c0,7.84,2.06,17.18,11.91,17.18"/><polyline class="cls-13" points="1346.81 205.06 1383.09 205.06 1383.09 188.97 1346.81 188.97 1346.81 205.06"/><path class="cls-19" d="M1373.23,189h-17.5l-.16.1a10.34,10.34,0,0,1,1.62,5.58h0a10.4,10.4,0,0,1-10.39,10.41h36.29a10.4,10.4,0,0,1-10.4-10.4h0a10.35,10.35,0,0,1,1.39-5.19,7.76,7.76,0,0,1-.84-.5"/><path class="cls-13" d="M1369.83,182.56a7.74,7.74,0,1,0,7.75-7.74h0a7.74,7.74,0,0,0-7.74,7.74"/><path class="cls-20" d="M1377.57,174.82a7.74,7.74,0,0,0-3.49,14.65,10.42,10.42,0,0,1,11-5,7.74,7.74,0,0,0-7.51-9.64"/><path class="cls-13" d="M1343.66,182.56a7.74,7.74,0,1,0,7.75-7.74h0a7.75,7.75,0,0,0-7.75,7.74"/><path class="cls-20" d="M1351.39,174.82a7.74,7.74,0,0,0-7.44,9.85,10.42,10.42,0,0,1,11.63,4.41,7.74,7.74,0,0,0-4.18-14.26"/><path class="cls-13" d="M1336.41,194.67a10.4,10.4,0,1,0,10.4-10.4,10.4,10.4,0,0,0-10.4,10.4h0"/><path class="cls-19" d="M1346.81,184.27a10.4,10.4,0,1,0,10.4,10.4,10.4,10.4,0,0,0-10.4-10.4h0"/><path class="cls-13" d="M1372.69,194.67a10.4,10.4,0,1,0,10.4-10.4,10.4,10.4,0,0,0-10.4,10.4h0"/><path class="cls-19" d="M1383.1,184.27a10.4,10.4,0,1,0,10.4,10.4,10.4,10.4,0,0,0-10.4-10.4h0"/><circle class="cls-13" cx="1364.37" cy="189.03" r="16.03"/><rect class="cls-2" x="1232.29" y="93.71" width="52.01" height="19.29" rx="9.65" ry="9.65"/><polyline class="cls-4" points="1262.47 100.97 1252.84 100.97 1252.84 39.92 1262.47 39.92 1262.47 100.97"/><path class="cls-4" d="M1253.81,80.75c-12.37,0-16.78-12-16.78-23.15h4.62c0,3.09.58,18.53,12.15,18.53v4.62Z"/><path class="cls-4" d="M1260.91,73V68.42c8.69,0,12.73-6.5,12.73-20.41h4.62c0,11.42-3,25-17.35,25"/><path class="cls-3" d="M1268.38,20A19.49,19.49,0,1,1,1248.89.53,19.49,19.49,0,0,1,1268.38,20"/><path class="cls-21" d="M1248.89.53a19.49,19.49,0,1,0,4.66,38.42,19.43,19.43,0,0,1-5.47-13.54h0a19.49,19.49,0,0,1,14.83-18.93,19.44,19.44,0,0,0-14-5.95"/><path class="cls-3" d="M1287.06,25.41a19.49,19.49,0,1,1-19.49-19.49,19.49,19.49,0,0,1,19.49,19.49"/><path class="cls-22" d="M1267.57,5.92A19.49,19.49,0,0,0,1261,43.78,15.46,15.46,0,0,1,1283.91,36a19.49,19.49,0,0,0-16.34-30.12"/><path class="cls-3" d="M1291,49a15.43,15.43,0,1,1-15.43-15.43A15.43,15.43,0,0,1,1291,49h0"/><path class="cls-23" d="M1275.55,33.58A15.43,15.43,0,1,0,1291,49a15.43,15.43,0,0,0-15.43-15.43h0"/><circle class="cls-3" cx="1239.04" cy="39.82" r="26.04"/><polygon class="cls-18" points="1236.38 41.2 1242.78 41.2 1239.34 34.09 1236.38 41.2"/><path class="cls-18" d="M1239.34,23.06h0l-16.08,5.71L1225.7,50l13.64,7.57L1253.15,50l2.67-21.26Zm6.95,26.25-2.21-5.1h-9l-2,5-3.76.07,10.06-22.4,10.44,22.38h-3.48Z"/><rect class="cls-2" x="412.17" y="257.56" width="36.16" height="13.41" rx="6.71" ry="6.71"/><polyline class="cls-4" points="424.89 263 435.81 263 435.81 193.77 424.89 193.77 424.89 263"/><path class="cls-4" d="M434.71,240.07c14,0,19-13.56,19-26.26H448.5c0,3.51-.67,21-13.78,21v5.24Z"/><path class="cls-4" d="M426.66,231.33v-5.24c-9.85,0-14.44-7.35-14.44-23.15H407c0,13,3.41,28.4,19.68,28.4"/><path class="cls-8" d="M418.19,171.19a22.11,22.11,0,1,0,22.11-22.11h0a22.11,22.11,0,0,0-22.11,22.11"/><path class="cls-24" d="M440.3,149.08a22,22,0,0,0-15.9,6.73,22.12,22.12,0,0,1,16.83,21.47h0a22,22,0,0,1-6.2,15.36,22.11,22.11,0,1,0,5.28-43.58"/><path class="cls-8" d="M397,177.31a22.11,22.11,0,1,0,22.11-22.11h0A22.11,22.11,0,0,0,397,177.31"/><path class="cls-25" d="M419.11,155.2a22.11,22.11,0,0,0-18.52,34.16,17.55,17.55,0,0,1,26,8.77,22.11,22.11,0,0,0-7.44-42.94"/><path class="cls-8" d="M392.53,204.1a17.52,17.52,0,1,0,17.52-17.52,17.52,17.52,0,0,0-17.52,17.52h0"/><path class="cls-26" d="M410.05,186.58a17.52,17.52,0,1,0,17.52,17.52,17.52,17.52,0,0,0-17.52-17.52h0"/><circle class="cls-8" cx="451.47" cy="193.65" r="29.53"/><circle class="cls-18" cx="451.47" cy="193.65" r="3.52"/><path class="cls-18" d="M443.68,211h-.14a3.73,3.73,0,0,1-3.17-1.83,5.85,5.85,0,0,1-.72-1.87,13.57,13.57,0,0,1,0-4.87,31.06,31.06,0,0,1,1.69-6,48.15,48.15,0,0,1,7.37-12.77,31.07,31.07,0,0,1,4.39-4.48,13.57,13.57,0,0,1,4.22-2.47,5.85,5.85,0,0,1,2-.31,3.73,3.73,0,0,1,3.17,1.83,5.85,5.85,0,0,1,.72,1.87,13.57,13.57,0,0,1,0,4.87,31.06,31.06,0,0,1-1.68,6,48.15,48.15,0,0,1-7.37,12.77,31.06,31.06,0,0,1-4.39,4.48,13.57,13.57,0,0,1-4.22,2.47A6,6,0,0,1,443.68,211Zm15.51-33a4.31,4.31,0,0,0-1.32.23,8.81,8.81,0,0,0-1.73.81,16,16,0,0,0-1.95,1.37,29.37,29.37,0,0,0-4.15,4.24,46.46,46.46,0,0,0-7.11,12.31,29.38,29.38,0,0,0-1.59,5.71,16,16,0,0,0-.21,2.37,8.81,8.81,0,0,0,.17,1.91,2.52,2.52,0,0,0,3.69,2.13,8.82,8.82,0,0,0,1.73-.81,16,16,0,0,0,1.95-1.37,29.38,29.38,0,0,0,4.15-4.24,46.46,46.46,0,0,0,7.11-12.31,29.38,29.38,0,0,0,1.58-5.72,16,16,0,0,0,.21-2.37,8.81,8.81,0,0,0-.17-1.91,3,3,0,0,0-1.26-2.09A2.21,2.21,0,0,0,459.2,178Z"/><path class="cls-18" d="M451.47,201.58a46.5,46.5,0,0,1-7.37-.57,31.06,31.06,0,0,1-6.08-1.56,13.57,13.57,0,0,1-4.25-2.44,5.85,5.85,0,0,1-1.26-1.56,3.73,3.73,0,0,1,0-3.66,5.85,5.85,0,0,1,1.26-1.56A13.57,13.57,0,0,1,438,187.8a31.05,31.05,0,0,1,6.08-1.56,48.14,48.14,0,0,1,14.75,0,31.05,31.05,0,0,1,6.08,1.61,13.57,13.57,0,0,1,4.25,2.44,5.85,5.85,0,0,1,1.26,1.56,3.73,3.73,0,0,1,0,3.66,5.85,5.85,0,0,1-1.26,1.56,13.57,13.57,0,0,1-4.25,2.44,31.07,31.07,0,0,1-6.08,1.56A46.5,46.5,0,0,1,451.47,201.58Zm0-14.19a44.84,44.84,0,0,0-7.11.55,29.39,29.39,0,0,0-5.75,1.46,16.09,16.09,0,0,0-2.16,1,8.82,8.82,0,0,0-1.56,1.1,2.52,2.52,0,0,0,0,4.27,8.8,8.8,0,0,0,1.56,1.1,16,16,0,0,0,2.16,1,29.38,29.38,0,0,0,5.75,1.46,46.46,46.46,0,0,0,14.21,0,29.38,29.38,0,0,0,5.75-1.46,16,16,0,0,0,2.16-1,8.8,8.8,0,0,0,1.56-1.06,2.52,2.52,0,0,0,0-4.27,8.82,8.82,0,0,0-1.56-1.1,16.09,16.09,0,0,0-2.16-1,29.39,29.39,0,0,0-5.75-1.46,44.81,44.81,0,0,0-7.11-.58Z"/><path class="cls-18" d="M459.21,211a6,6,0,0,1-1.84-.32,13.57,13.57,0,0,1-4.22-2.47,31.05,31.05,0,0,1-4.39-4.48A48.15,48.15,0,0,1,441.39,191a31.05,31.05,0,0,1-1.69-6,13.56,13.56,0,0,1,0-4.87,5.85,5.85,0,0,1,.72-1.87,3.73,3.73,0,0,1,3.17-1.83,5.88,5.88,0,0,1,2,.31,13.56,13.56,0,0,1,4.22,2.47,31.05,31.05,0,0,1,4.39,4.48,48.15,48.15,0,0,1,7.36,12.76,31.06,31.06,0,0,1,1.69,6,13.57,13.57,0,0,1,0,4.87,5.85,5.85,0,0,1-.72,1.87,3.84,3.84,0,0,1-1.35,1.33l-.42-.73.42.73a3.84,3.84,0,0,1-1.82.49h-.14Zm-15.51-33a2.21,2.21,0,0,0-1.13.28,3,3,0,0,0-1.26,2.09,8.81,8.81,0,0,0-.17,1.91,16,16,0,0,0,.21,2.37,29.39,29.39,0,0,0,1.59,5.71,46.47,46.47,0,0,0,7.11,12.31,29.39,29.39,0,0,0,4.15,4.24,16.09,16.09,0,0,0,1.95,1.37,8.81,8.81,0,0,0,1.73.81,3,3,0,0,0,2.44,0,3,3,0,0,0,1.26-2.09,8.81,8.81,0,0,0,.17-1.91,16,16,0,0,0-.21-2.36,29.38,29.38,0,0,0-1.59-5.71,46.46,46.46,0,0,0-7.11-12.31,29.39,29.39,0,0,0-4.15-4.24,16,16,0,0,0-1.95-1.37,8.81,8.81,0,0,0-1.73-.81,4.31,4.31,0,0,0-1.31-.24Z"/><rect class="cls-2" x="280.28" y="91.36" width="35.16" height="16.17" rx="6.68" ry="6.68"/><polyline class="cls-3" points="279.63 73.33 326.78 73.33 326.78 52.42 279.63 52.42 279.63 73.33"/><path class="cls-23" d="M314,52.42H291.23l-.2.13a13.44,13.44,0,0,1,2.12,7.26h0a13.52,13.52,0,0,1-13.52,13.52h47.15a13.52,13.52,0,0,1-13.52-13.52h0a13.44,13.44,0,0,1,1.8-6.75,10,10,0,0,1-1.1-.65"/><path class="cls-3" d="M309.54,44.06A10.06,10.06,0,1,0,319.61,34h0a10.06,10.06,0,0,0-10.06,10.05"/><path class="cls-22" d="M306.94,27a10.05,10.05,0,0,0-4.53,19,13.52,13.52,0,0,1,14.29-6.52A10.07,10.07,0,0,0,307,27"/><path class="cls-3" d="M275.53,44.06A10.06,10.06,0,1,0,285.6,34h0a10.06,10.06,0,0,0-10.06,10.05"/><path class="cls-22" d="M299.65,31.92A10.07,10.07,0,0,0,290,44.71a13.52,13.52,0,0,1,15.12,5.74,10.05,10.05,0,0,0-5.43-18.52"/><path class="cls-3" d="M266.11,59.82A13.52,13.52,0,1,0,279.63,46.3h0a13.52,13.52,0,0,0-13.52,13.52"/><path class="cls-23" d="M279.63,46.31a13.52,13.52,0,1,0,13.52,13.52,13.52,13.52,0,0,0-13.52-13.52h0"/><path class="cls-3" d="M313.27,59.82A13.52,13.52,0,1,0,326.78,46.3h0a13.52,13.52,0,0,0-13.52,13.52"/><path class="cls-23" d="M326.78,46.31a13.52,13.52,0,1,0,13.52,13.52,13.52,13.52,0,0,0-13.52-13.52h0"/><polyline class="cls-4" points="296.14 99.05 301.05 99.05 301.05 67.89 296.14 67.89 296.14 99.05"/><path class="cls-4" d="M300.56,88.73c6.31,0,8.55-6.1,8.55-11.82h-2.34c0,1.58-.3,9.46-6.2,9.46v2.36Z"/><path class="cls-4" d="M296.93,84.79V82.44c-4.43,0-6.5-3.31-6.5-10.42h-2.36c0,5.83,1.54,12.78,8.86,12.78"/><circle class="cls-3" cx="305.97" cy="58.12" r="20.83"/><path class="cls-18" d="M315.47,60.85s-5,3.21-8.27,3-2.94-2.29-2.94-2.29,12-3.26,8.75-11.62a6.46,6.46,0,0,0-5.61-3.1C305,46.73,301.92,48,300,52.23a18.64,18.64,0,0,0-1.5,5.46h0a4.56,4.56,0,0,1-3.21-.75c-1.14-1-1.71-.12-1.71-.12s-1.95,3.49,0,4.39,5,2.61,5,2.61h0c.28,1.76,1.09,2.54,3.47,4.51,3.57,2.94,10.41-.07,10.41-.07a24.59,24.59,0,0,0,2.8-1.66C317.39,64.93,318.65,59.31,315.47,60.85Zm-11.79-3c.14-5.65,3.85-7.86,5.14-6.53s.81,4-1.62,5.45-3.53,1.07-3.53,1.07Z"/><rect class="cls-27" x="93.6" y="171.53" width="50" height="23" rx="11.5" ry="11.5"/><polyline class="cls-4" points="114.76 178.12 123.67 178.12 123.67 121.66 114.76 121.66 114.76 178.12"/><path class="cls-4" d="M122.77,159.42c11.44,0,15.52-11.06,15.52-21.42H134c0,2.87-.54,17.14-11.24,17.14v4.27Z"/><path class="cls-4" d="M116.2,152.3V148c-8,0-11.77-6-11.77-18.88h-4.27c0,10.56,2.78,23.16,16,23.16"/><path class="cls-2" d="M109.29,103.25a18,18,0,1,0,18-18,18,18,0,0,0-18,18h0"/><path class="cls-28" d="M127.33,85.23a18,18,0,0,0-13,5.49,18,18,0,0,1,13.72,17.55h0A18,18,0,0,1,123,120.8a18,18,0,1,0,4.31-35.54"/><path class="cls-2" d="M92,108.27a18,18,0,1,0,18-18,18,18,0,0,0-18,18h0"/><path class="cls-29" d="M110,90.22a18,18,0,0,0-15.12,27.85,14.3,14.3,0,0,1,21.17,7.16,18,18,0,0,0-6.06-35"/><path class="cls-2" d="M88.38,130.08a14.29,14.29,0,1,0,14.29-14.29h0a14.29,14.29,0,0,0-14.29,14.29"/><path class="cls-30" d="M102.67,115.79A14.29,14.29,0,1,0,117,130.08h0a14.29,14.29,0,0,0-14.29-14.29"/><circle class="cls-31" cx="136.44" cy="121.57" r="24.08"/><g id="_924fcQ.tif" data-name="924fcQ.tif"><path class="cls-18" d="M153.42,122.25v.15c-.07.1-.15.2-.21.3l-3.37,5.83-3,5.12h-6.48a1.66,1.66,0,0,1,.31-.67q2.94-5.1,5.89-10.19a.77.77,0,0,0,0-.89c-.92-1.56-1.82-3.14-2.73-4.7-.23-.4-.26-.4-.49,0l-7.74,13.42c-.58,1-1.15,2-1.73,3h-6.63c-.07-.13-.12-.27-.2-.4l-5-8.61c-.43-.75-.88-1.49-1.33-2.24q0-.07,0-.15c.07-.1.15-.2.21-.31l3.39-5.86,3-5.08h6.48a1.33,1.33,0,0,1-.26.57q-3,5.18-6,10.36a.67.67,0,0,0,0,.76c.92,1.57,1.83,3.16,2.74,4.74.26.44.28.44.53,0L138,115c.76-1.32,1.51-2.65,2.27-4h6.63c.08.16.15.32.23.46q2.18,3.79,4.36,7.58C152.16,120.12,152.79,121.18,153.42,122.25Z"/></g></svg>