<svg id="Layer_1" data-name="Layer 1" xmlns="http://www.w3.org/2000/svg" viewBox="0 0 924 222"><defs><style>.cls-1{fill:#f26663;}.cls-2{fill:#ed64a0;}.cls-3{fill:#a1dbe3;}.cls-4{fill:#fff;}.cls-5,.cls-6,.cls-7,.cls-8,.cls-9{fill:none;stroke-linecap:round;stroke-miterlimit:10;stroke-width:3px;}.cls-5,.cls-6{stroke:#9caaca;}.cls-6,.cls-9{stroke-dasharray:12;}.cls-7,.cls-8,.cls-9{stroke:#b4bdd4;}.cls-8{stroke-dasharray:11.44 11.44;}.cls-10{fill:#e4e578;}.cls-11{fill:#ffc05b;}.cls-12{fill:#a0dce5;}</style></defs><title>Artboard 1</title><path class="cls-1" d="M390.83,21.54v1.78h-8.77V10.54h8.6v1.78h-6.59V16h5.71v1.67h-5.71v3.91Z"/><path class="cls-1" d="M405.47,23.32v-9.2l-3.8,7h-1.12l-3.82-7v9.2h-2V10.54h2.16l4.23,7.81,4.23-7.81h2.16V23.32Z"/><path class="cls-1" d="M422.23,20a3,3,0,0,1-.31,1.39,3.16,3.16,0,0,1-.85,1,3.82,3.82,0,0,1-1.25.65,5.09,5.09,0,0,1-1.53.23h-6.1V10.54h6.59a2.52,2.52,0,0,1,1.21.29,3,3,0,0,1,.92.75,3.42,3.42,0,0,1,.58,1,3.51,3.51,0,0,1,.21,1.18,3.43,3.43,0,0,1-.48,1.75,2.91,2.91,0,0,1-1.36,1.21A3.25,3.25,0,0,1,421.59,18,3.38,3.38,0,0,1,422.23,20Zm-8-7.74v3.76h3.71a1.64,1.64,0,0,0,.69-.14,1.9,1.9,0,0,0,.56-.39,1.68,1.68,0,0,0,.38-.58,2,2,0,0,0,.14-.76,2,2,0,0,0-.47-1.36,1.51,1.51,0,0,0-1.19-.53Zm6,7.36a2.13,2.13,0,0,0-.14-.76,2.16,2.16,0,0,0-.36-.63,1.69,1.69,0,0,0-.55-.43,1.54,1.54,0,0,0-.7-.16H414.2v3.91h4.09a1.79,1.79,0,0,0,.74-.15,1.89,1.89,0,0,0,.59-.41,1.92,1.92,0,0,0,.4-.61A2,2,0,0,0,420.16,19.65Z"/><path class="cls-1" d="M434.9,21.54v1.78h-8.77V10.54h8.6v1.78h-6.59V16h5.71v1.67h-5.71v3.91Z"/><path class="cls-1" d="M438.79,23.32V10.54h5.56a3.55,3.55,0,0,1,1.59.36,4.09,4.09,0,0,1,1.25.94,4.47,4.47,0,0,1,.82,1.33,4.09,4.09,0,0,1,.3,1.52,4.27,4.27,0,0,1-.18,1.24,4.35,4.35,0,0,1-.5,1.1,3.53,3.53,0,0,1-.79.87,3.26,3.26,0,0,1-1,.55l3,4.86h-2.29l-2.77-4.45h-3v4.45Zm2-6.23h3.53a1.63,1.63,0,0,0,.78-.19,1.86,1.86,0,0,0,.6-.52,2.64,2.64,0,0,0,.4-.77,2.89,2.89,0,0,0,.14-.92,2.47,2.47,0,0,0-.17-.92,2.62,2.62,0,0,0-.45-.76,2.13,2.13,0,0,0-.65-.51,1.66,1.66,0,0,0-.77-.19H440.8Z"/><path class="cls-2" d="M95.07,102.3V89.52h5.56a3.56,3.56,0,0,1,1.59.36,4.09,4.09,0,0,1,1.25.95,4.47,4.47,0,0,1,.82,1.33,4.09,4.09,0,0,1,.3,1.52,4.27,4.27,0,0,1-.18,1.24,4.34,4.34,0,0,1-.5,1.1,3.54,3.54,0,0,1-.79.87,3.26,3.26,0,0,1-1,.55l3,4.86h-2.29L100,97.86h-3v4.45Zm2-6.23h3.53a1.64,1.64,0,0,0,.78-.19,1.88,1.88,0,0,0,.6-.52,2.65,2.65,0,0,0,.4-.76,2.9,2.9,0,0,0,.14-.92,2.46,2.46,0,0,0-.17-.92,2.64,2.64,0,0,0-.45-.76,2.14,2.14,0,0,0-.65-.51,1.66,1.66,0,0,0-.77-.19H97.08Z"/><path class="cls-2" d="M109.56,89.52l3.55,5,3.55-5h2.21L114.18,96l4.54,6.3h-2.21l-3.4-4.86-3.4,4.86h-2.23L112,96l-4.7-6.48Z"/><path class="cls-2" d="M121.33,100.05a3.72,3.72,0,0,0,.91.42,4.24,4.24,0,0,0,1.38.21,2.56,2.56,0,0,0,1.32-.3,1.89,1.89,0,0,0,.76-.88A4.65,4.65,0,0,0,126,98q.08-.87.08-2v-6.5h2V96a22.41,22.41,0,0,1-.14,2.65,5.56,5.56,0,0,1-.61,2A3.21,3.21,0,0,1,126,102a5.26,5.26,0,0,1-2.41.47,4.77,4.77,0,0,1-2.77-.79Z"/><path class="cls-2" d="M140.25,92.53a2.79,2.79,0,0,0-.52-.42,5.17,5.17,0,0,0-.8-.42,5.77,5.77,0,0,0-1-.32,5,5,0,0,0-1.12-.13,3.07,3.07,0,0,0-1.88.47,1.55,1.55,0,0,0-.6,1.3,1.4,1.4,0,0,0,.19.76,1.61,1.61,0,0,0,.58.52,4.53,4.53,0,0,0,1,.4l1.39.37a15.82,15.82,0,0,1,1.75.52,5,5,0,0,1,1.32.7,2.87,2.87,0,0,1,.84,1,3.3,3.3,0,0,1,.3,1.47,3.56,3.56,0,0,1-.37,1.67,3.15,3.15,0,0,1-1,1.14,4.46,4.46,0,0,1-1.48.65,7.65,7.65,0,0,1-1.82.21,9.07,9.07,0,0,1-2.82-.44,8.07,8.07,0,0,1-2.46-1.29l.92-1.73a4.27,4.27,0,0,0,.67.52,6.26,6.26,0,0,0,1,.53,9,9,0,0,0,1.27.41,5.83,5.83,0,0,0,1.42.17,3.41,3.41,0,0,0,1.84-.41,1.36,1.36,0,0,0,.65-1.22,1.31,1.31,0,0,0-.24-.81,2.09,2.09,0,0,0-.69-.57,6.1,6.1,0,0,0-1.1-.44q-.65-.2-1.48-.41a15.16,15.16,0,0,1-1.67-.53,4.15,4.15,0,0,1-1.18-.67,2.65,2.65,0,0,1-.71-.93,3.09,3.09,0,0,1-.24-1.29,3.71,3.71,0,0,1,.36-1.67,3.55,3.55,0,0,1,1-1.22,4.29,4.29,0,0,1,1.47-.75,6.4,6.4,0,0,1,1.84-.25,6.73,6.73,0,0,1,2.39.41,7.94,7.94,0,0,1,1.93,1Z"/><path class="cls-3" d="M591.63,129.84V117.06h5.56a3.55,3.55,0,0,1,1.59.36,4.07,4.07,0,0,1,1.25.95,4.46,4.46,0,0,1,.82,1.33,4.08,4.08,0,0,1,.3,1.52,4.26,4.26,0,0,1-.18,1.24,4.34,4.34,0,0,1-.5,1.1,3.51,3.51,0,0,1-.79.87,3.25,3.25,0,0,1-1,.55l3,4.86h-2.29l-2.77-4.45h-3v4.45Zm2-6.23h3.53a1.63,1.63,0,0,0,.78-.19,1.86,1.86,0,0,0,.6-.52,2.63,2.63,0,0,0,.4-.76,2.89,2.89,0,0,0,.14-.92,2.45,2.45,0,0,0-.17-.92,2.62,2.62,0,0,0-.45-.76,2.13,2.13,0,0,0-.65-.51,1.65,1.65,0,0,0-.76-.19h-3.42Z"/><path class="cls-3" d="M614.09,128.06v1.78h-8.77V117.06h8.6v1.78h-6.59v3.64H613v1.67h-5.71v3.91Z"/><path class="cls-3" d="M621.74,117.06h1.76l5,12.78h-2.12l-1.35-3.47h-4.93l-1.33,3.47h-2.14Zm2.93,7.81-2.05-5.49-2.12,5.49Z"/><path class="cls-3" d="M630.65,123.36a6.69,6.69,0,0,1,.41-2.29,6.35,6.35,0,0,1,1.21-2.05,6.13,6.13,0,0,1,2-1.47,5.91,5.91,0,0,1,2.61-.56,5.54,5.54,0,0,1,3,.77,5,5,0,0,1,1.87,2l-1.58,1.06a3.6,3.6,0,0,0-.65-1,3.13,3.13,0,0,0-.83-.63,3.57,3.57,0,0,0-.94-.33,4.73,4.73,0,0,0-.94-.1,3.67,3.67,0,0,0-1.76.41,3.91,3.91,0,0,0-1.27,1.07,4.77,4.77,0,0,0-.77,1.49,5.49,5.49,0,0,0-.26,1.66,5.17,5.17,0,0,0,.31,1.78,4.81,4.81,0,0,0,.85,1.49,4.21,4.21,0,0,0,1.31,1,3.58,3.58,0,0,0,1.66.39,4.18,4.18,0,0,0,1-.12,3.61,3.61,0,0,0,1-.38,3.78,3.78,0,0,0,.85-.66,3.29,3.29,0,0,0,.64-1l1.67,1a3.91,3.91,0,0,1-.86,1.27,5.47,5.47,0,0,1-1.26.93,6.46,6.46,0,0,1-1.48.58,6.27,6.27,0,0,1-1.54.2,5.3,5.3,0,0,1-2.47-.58,6.47,6.47,0,0,1-1.93-1.5,6.92,6.92,0,0,1-1.26-2.11A6.67,6.67,0,0,1,630.65,123.36Z"/><path class="cls-3" d="M654.83,118.84h-4.25v11h-2v-11h-4.27v-1.78h10.55Z"/><path class="cls-1" d="M819.79,89h1.76l5,12.78h-2.12l-1.35-3.47h-4.93l-1.33,3.47h-2.14Zm2.93,7.81-2.05-5.49-2.12,5.49Z"/><path class="cls-1" d="M832,92.77v9h-2V89h1.58l7.31,9.22V89h2v12.76h-1.67Z"/><path class="cls-1" d="M854.53,100.18a5,5,0,0,1-3.73,1.67,5.38,5.38,0,0,1-2.38-.53,6.13,6.13,0,0,1-1.91-1.43,6.71,6.71,0,0,1-1.27-2.09,6.84,6.84,0,0,1-.46-2.48,6.7,6.7,0,0,1,.46-2.47,6.54,6.54,0,0,1,1.27-2.05,6,6,0,0,1,1.93-1.4,6.31,6.31,0,0,1,5.51.25,4.94,4.94,0,0,1,1.87,2l-1.55,1.12a3.59,3.59,0,0,0-1.44-1.57,4,4,0,0,0-2-.52,3.47,3.47,0,0,0-1.64.39,4,4,0,0,0-1.26,1,4.62,4.62,0,0,0-.8,1.49,5.61,5.61,0,0,0-.28,1.76,5.17,5.17,0,0,0,.31,1.82,4.73,4.73,0,0,0,.86,1.48,4.09,4.09,0,0,0,1.3,1A3.68,3.68,0,0,0,851,100a4.08,4.08,0,0,0,1.86-.45,5.47,5.47,0,0,0,1.7-1.42V96.8h-2.68V95.31h4.37v6.46h-1.69Z"/><path class="cls-1" d="M865.65,100a3.23,3.23,0,0,0,1.67-.4,3.15,3.15,0,0,0,1.07-1,4.35,4.35,0,0,0,.58-1.46,8.2,8.2,0,0,0,.17-1.68V89h2v6.48a9.68,9.68,0,0,1-.31,2.48,5.71,5.71,0,0,1-1,2,4.64,4.64,0,0,1-1.72,1.38,5.81,5.81,0,0,1-2.53.5,5.7,5.7,0,0,1-2.58-.53,4.66,4.66,0,0,1-1.7-1.42,5.84,5.84,0,0,1-.94-2,9.82,9.82,0,0,1-.29-2.39V89h2v6.48a8.35,8.35,0,0,0,.17,1.7,4.37,4.37,0,0,0,.58,1.46,3.06,3.06,0,0,0,1.08,1A3.3,3.3,0,0,0,865.65,100Z"/><path class="cls-1" d="M875.66,101.77V89h2v11h6.86v1.78Z"/><path class="cls-1" d="M891.74,89h1.76l5,12.78h-2.12l-1.35-3.47h-4.93l-1.33,3.47h-2.14Zm2.93,7.81-2.05-5.49-2.12,5.49Z"/><path class="cls-1" d="M901.92,101.77V89h5.56a3.55,3.55,0,0,1,1.59.36,4.08,4.08,0,0,1,1.25.94,4.47,4.47,0,0,1,.82,1.33,4.1,4.1,0,0,1,.3,1.52,4.29,4.29,0,0,1-.18,1.24,4.33,4.33,0,0,1-.5,1.1,3.52,3.52,0,0,1-.79.87,3.26,3.26,0,0,1-1,.55l3,4.86h-2.29l-2.77-4.45h-3v4.45Zm2-6.23h3.53a1.62,1.62,0,0,0,.78-.19,1.86,1.86,0,0,0,.6-.52,2.63,2.63,0,0,0,.4-.77,2.89,2.89,0,0,0,.14-.92,2.47,2.47,0,0,0-.17-.92,2.62,2.62,0,0,0-.45-.76,2.13,2.13,0,0,0-.65-.51,1.66,1.66,0,0,0-.76-.19h-3.42Z"/><circle class="cls-1" cx="864.39" cy="161.75" r="51.75"/><polygon class="cls-4" points="859.1 164.48 871.82 164.48 864.98 150.35 859.1 164.48"/><path class="cls-4" d="M865,128.43h0l-32,11.38,4.88,42.25,27.07,15,27.45-15.2,5.31-42.25Zm13.81,52.16-4.39-10.17H856.47l-4,10-7.46.14,20-44.51,20.72,44.51Z"/><circle class="cls-3" cx="623.29" cy="175.87" r="38.59"/><circle class="cls-4" cx="623.29" cy="175.86" r="4.6"/><path class="cls-4" d="M613.12,198.51h-.19a4.88,4.88,0,0,1-4.14-2.39,7.67,7.67,0,0,1-.94-2.45,17.73,17.73,0,0,1,0-6.39,40.6,40.6,0,0,1,2.2-7.9,62.91,62.91,0,0,1,9.64-16.69,40.59,40.59,0,0,1,5.74-5.86,17.72,17.72,0,0,1,5.51-3.23,7.66,7.66,0,0,1,2.59-.41,4.88,4.88,0,0,1,4.14,2.39,7.67,7.67,0,0,1,.94,2.45,17.73,17.73,0,0,1,0,6.39,40.6,40.6,0,0,1-2.2,7.9A62.91,62.91,0,0,1,626.78,189a40.59,40.59,0,0,1-5.74,5.86,17.72,17.72,0,0,1-5.51,3.23A7.84,7.84,0,0,1,613.12,198.51Zm20.27-43.11a5.64,5.64,0,0,0-1.72.31,11.53,11.53,0,0,0-2.26,1.05,21,21,0,0,0-2.54,1.79,38.38,38.38,0,0,0-5.42,5.54,60.69,60.69,0,0,0-9.28,16.08,38.39,38.39,0,0,0-2.08,7.47,21,21,0,0,0-.28,3.09,11.52,11.52,0,0,0,.22,2.49,3.29,3.29,0,0,0,4.83,2.79,11.52,11.52,0,0,0,2.26-1.05,21,21,0,0,0,2.54-1.79,38.38,38.38,0,0,0,5.42-5.54,60.69,60.69,0,0,0,9.28-16.08,38.39,38.39,0,0,0,2.08-7.47,21,21,0,0,0,.28-3.09,11.52,11.52,0,0,0-.22-2.49,3.9,3.9,0,0,0-1.64-2.73A2.89,2.89,0,0,0,633.39,155.4Z"/><path class="cls-4" d="M623.29,186.23a60.79,60.79,0,0,1-9.64-.74,40.59,40.59,0,0,1-7.94-2,17.72,17.72,0,0,1-5.55-3.16,7.67,7.67,0,0,1-1.65-2,4.88,4.88,0,0,1,0-4.78,7.66,7.66,0,0,1,1.65-2,17.72,17.72,0,0,1,5.55-3.16,40.56,40.56,0,0,1,7.94-2,62.87,62.87,0,0,1,19.27,0,40.56,40.56,0,0,1,7.94,2,17.72,17.72,0,0,1,5.55,3.16,7.66,7.66,0,0,1,1.65,2,4.88,4.88,0,0,1,0,4.78,7.67,7.67,0,0,1-1.65,2,17.72,17.72,0,0,1-5.55,3.16,40.59,40.59,0,0,1-7.94,2A60.8,60.8,0,0,1,623.29,186.23Zm0-18.54a58.52,58.52,0,0,0-9.28.71,38.38,38.38,0,0,0-7.51,1.93,21,21,0,0,0-2.82,1.3,11.5,11.5,0,0,0-2,1.43,3.29,3.29,0,0,0,0,5.58,11.53,11.53,0,0,0,2,1.43,21,21,0,0,0,2.82,1.3,38.35,38.35,0,0,0,7.51,1.93,60.69,60.69,0,0,0,18.57,0,38.35,38.35,0,0,0,7.51-1.93,21,21,0,0,0,2.82-1.3,11.53,11.53,0,0,0,2-1.43,3.29,3.29,0,0,0,0-5.58,11.5,11.5,0,0,0-2-1.43,21,21,0,0,0-2.82-1.3,38.38,38.38,0,0,0-7.51-1.93A58.52,58.52,0,0,0,623.29,167.69Z"/><path class="cls-4" d="M633.41,198.54a7.84,7.84,0,0,1-2.4-.41,17.72,17.72,0,0,1-5.51-3.23,40.57,40.57,0,0,1-5.74-5.86,62.91,62.91,0,0,1-9.64-16.69,40.58,40.58,0,0,1-2.2-7.9,17.73,17.73,0,0,1,0-6.39,7.68,7.68,0,0,1,.94-2.45,4.88,4.88,0,0,1,4.14-2.39,7.67,7.67,0,0,1,2.59.41,17.72,17.72,0,0,1,5.51,3.23,40.57,40.57,0,0,1,5.74,5.86,62.89,62.89,0,0,1,9.64,16.69,40.58,40.58,0,0,1,2.2,7.9,17.72,17.72,0,0,1,0,6.39,7.67,7.67,0,0,1-.94,2.45,5,5,0,0,1-1.76,1.74l-.55-1,.55,1a5,5,0,0,1-2.38.65Zm-20.27-43.11a2.89,2.89,0,0,0-1.47.36,3.9,3.9,0,0,0-1.64,2.73,11.52,11.52,0,0,0-.22,2.49,21,21,0,0,0,.28,3.09,38.37,38.37,0,0,0,2.08,7.47,60.69,60.69,0,0,0,9.28,16.08,38.38,38.38,0,0,0,5.42,5.54,21,21,0,0,0,2.54,1.79,11.52,11.52,0,0,0,2.26,1.05,3.29,3.29,0,0,0,4.83-2.79,11.5,11.5,0,0,0,.22-2.49,20.94,20.94,0,0,0-.28-3.09,38.39,38.39,0,0,0-2.08-7.47,60.71,60.71,0,0,0-9.28-16.08,38.39,38.39,0,0,0-5.42-5.54,21,21,0,0,0-2.54-1.79,11.52,11.52,0,0,0-2.26-1.05A5.64,5.64,0,0,0,613.14,155.43Z"/><circle class="cls-1" cx="415.84" cy="83.84" r="47.86"/><path class="cls-4" d="M437.66,90.37s-11.47,7.38-19,6.95-6.78-5.26-6.78-5.26,27.64-7.49,20.1-26.71c-3.39-5-7.32-6.84-12.89-7.13S406.51,60.82,402,70.55a42.83,42.83,0,0,0-3.44,12.54h0s-4.75.65-7.37-1.72-3.93-.28-3.93-.28-4.48,7,0,9.06,11.49,5,11.49,5h0c.64,3,2.51,6.85,8,11.39,8.19,6.81,23.92.35,23.92.35a43.53,43.53,0,0,0,6.45-3.55C442.09,99.49,445,86.85,437.66,90.37Zm-27.09-6.85c.33-13,8.85-18.05,11.79-15s1.86,9.09-3.71,12.52S410.57,83.52,410.57,83.52Z"/><ellipse class="cls-2" cx="118.84" cy="141.99" rx="30.75" ry="30.74"/><path class="cls-4" d="M134.94,135.78c2.15-4.59-7.26-12.54-16.55-12.19-1.16-.81-2.39-2.27-5.23-1.74-2.5.46-2.89,2.81-4.3,3.6s-3.58-.1-5.05,1.51c-1.22,1.34-.46,3.6-1.1,5s-3.31,1.86-3.19,3.6,1.22,3,1.1,4.3c-.16,1.85-1.61,1.69-1.39,3.37s1.89,1.74,2.61,3.77c6.27,17.65,31.3,18.78,37.28,3-4,2.67-5.11,2.9-6.5,3,4-1.92,8.62-7.75,7.14-13.5-.78,1.65-2.18,4.79-4,5.4,2-2.93,3.83-8.88.52-12.28,2.61,8.71-5.34,15.91-6.62,16.37,1.13.35,3.48.52,6.53-1.74-2.7,3.48-7.84,5.31-11.58,5.57.7,1.13,3.48,2.53,6,2.73-3.43.49-8.22,1.71-16.23-6a9.46,9.46,0,0,0,3.14,5.49c-11.87-5-7.58-20.29,1.25-20.7C121.93,135.72,133.11,139.69,134.94,135.78Z"/><circle class="cls-2" cx="123.88" cy="129.84" r="1.51"/><line class="cls-5" x1="158.09" y1="191.44" x2="252.58" y2="96.95"/><line class="cls-5" x1="252.58" y1="96.95" x2="211.54" y2="100.74"/><line class="cls-6" x1="482.13" y1="144.2" x2="523.95" y2="102.38"/><line class="cls-6" x1="523.95" y1="102.38" x2="498.3" y2="102.38"/><line class="cls-7" x1="500.27" y1="164.75" x2="567.63" y2="97.39"/><line class="cls-7" x1="567.63" y1="97.39" x2="562.6" y2="130.3"/><line class="cls-7" x1="242.7" y1="142.39" x2="246.94" y2="138.15"/><line class="cls-8" x1="255.03" y1="130.06" x2="299.51" y2="85.58"/><line class="cls-7" x1="303.55" y1="81.53" x2="307.8" y2="77.29"/><line class="cls-9" x1="307.8" y1="77.29" x2="307.8" y2="104.27"/><line class="cls-5" x1="679.78" y1="139.33" x2="774.27" y2="44.84"/><line class="cls-5" x1="774.27" y1="44.84" x2="733.23" y2="48.63"/><line class="cls-7" x1="764.39" y1="90.28" x2="768.63" y2="86.04"/><line class="cls-8" x1="776.72" y1="77.95" x2="821.2" y2="33.46"/><line class="cls-7" x1="825.24" y1="29.42" x2="829.49" y2="25.18"/><line class="cls-9" x1="829.49" y1="25.18" x2="829.49" y2="52.16"/><circle class="cls-10" cx="277.67" cy="175.87" r="12.52"/><circle class="cls-2" cx="741.28" cy="188.02" r="12.52"/><circle class="cls-11" cx="610.84" cy="54.18" r="12.52"/><circle class="cls-12" cx="19.71" cy="90.78" r="12.52"/></svg>