<svg id="Layer_5" data-name="Layer 5" xmlns="http://www.w3.org/2000/svg" viewBox="0 0 448 63.33"><defs><style>.cls-1{fill:#626d8e;}.cls-2{fill:#f46663;}.cls-3{fill:#9faccc;}</style></defs><title>Artboard 9</title><path class="cls-1" d="M18.12,15.54H4.07V6.37H43v9.17H28.95V59H18.12Z"/><path class="cls-1" d="M67,6.37H77.86V29.82H96.65V6.37h10.82V59H96.65V39H77.86V59H67Z"/><path class="cls-1" d="M146.45,6.37V59H135.63V6.37Z"/><path class="cls-1" d="M172,45h11c.38,3.76,3,5.56,6.69,5.56s6.09-2.18,6.09-5.56-2.11-5.34-9.25-8.27c-10.48-4.32-14.2-9.28-14.2-17,0-8.64,6.31-14.28,16.46-14.28,9.4,0,16.46,5.56,16.46,14.73h-11c0-3.23-2.1-5.41-5.64-5.41s-5.34,2.18-5.34,4.81c0,3.16,2.18,5,9.54,8.15,10.52,4.51,13.9,9.24,13.9,16.61,0,9.28-6.61,15.52-17.21,15.52S172.6,53.42,172,45Z"/><path class="cls-1" d="M259.66,59H242.08V6.37h17.59c17.06,0,28.56,9.62,28.56,26.31S276.73,59,259.66,59Zm.08-43.44H252.9V49.81h6.84c9.85,0,17.51-5.71,17.51-17.06S269.59,15.54,259.74,15.54Z"/><path class="cls-1" d="M419.19,15.54H405.13V6.37h38.93v9.17H430V59H419.19Z"/><circle class="cls-2" cx="346.77" cy="32.22" r="16.36"/><polygon class="cls-3" points="372.02 5.91 358.56 5.91 378.76 32.22 358.56 58.52 372.02 58.52 392.23 32.22 372.02 5.91"/><polygon class="cls-3" points="321.51 5.91 334.98 5.91 314.77 32.22 334.98 58.52 321.51 58.52 301.31 32.22 321.51 5.91"/></svg>