<svg id="This_Dot_Media" data-name="This Dot Media" xmlns="http://www.w3.org/2000/svg" viewBox="0 0 1779.5 953.63"><defs><style>.cls-1{fill:#dadfea;}.cls-2{fill:#a3dde5;}.cls-3{fill:#f46663;}.cls-4{fill:#ffc064;}.cls-5{fill:#e5e57f;}.cls-6{fill:#b6bfd6;}.cls-7{fill:#fff;}.cls-8{fill:#9c83cc;}.cls-9{fill:#ef64a2;}.cls-10{fill:#bbc3d8;}.cls-11{fill:#e6e7e8;}.cls-12{fill:#515a77;}.cls-13{fill:#f2f2bf;}.cls-14{fill:#fbfbd7;}.cls-15{fill:#fefedf;}.cls-16{fill:#edeebb;}.cls-17{fill:#ffffeb;}.cls-18{fill:#626d8e;}</style></defs><title>This-Dot-Media-Header</title><rect id="Base_-_Horiz_Rectangle" data-name="Base - Horiz Rectangle" class="cls-1" y="680.2" width="1779.5" height="137.9"/><g id="Web"><g id="Accents_-_Dash_Dot" data-name="Accents - Dash Dot"><path class="cls-2" d="M582.5,429.3a11.7,11.7,0,1,1,11.7-11.7,11.85,11.85,0,0,1-11.7,11.7h0Zm0-20.4a8.7,8.7,0,1,0,8.7,8.7A8.84,8.84,0,0,0,582.5,408.9Z"/><path class="cls-2" d="M538.2,429.1H455.9a11.5,11.5,0,0,1,0-23h82.3a11.44,11.44,0,0,1,11.5,11.5A11.57,11.57,0,0,1,538.2,429.1Zm-82.4-20a8.5,8.5,0,0,0,0,17h82.3a8.5,8.5,0,0,0,0-17H455.8Z"/><path class="cls-3" d="M1269.5,573.3a11.7,11.7,0,1,1,11.7-11.7A11.85,11.85,0,0,1,1269.5,573.3Zm0-20.4a8.7,8.7,0,1,0,8.7,8.7h0A8.84,8.84,0,0,0,1269.5,552.9Z"/><path class="cls-3" d="M1225.2,573.1h-82.3a11.5,11.5,0,0,1,0-23h82.3A11.59,11.59,0,0,1,1225.2,573.1Zm-82.3-20a8.5,8.5,0,0,0,0,17h82.3a8.5,8.5,0,0,0,0-17h-82.3Z"/><path class="cls-4" d="M246.6,621.3a11.7,11.7,0,1,1,11.7-11.7A11.91,11.91,0,0,1,246.6,621.3Zm0-20.4a8.7,8.7,0,1,0,8.7,8.7A8.71,8.71,0,0,0,246.6,600.9Z"/><path class="cls-4" d="M373.2,621.1H290.9a11.5,11.5,0,0,1,0-23h82.3A11.5,11.5,0,1,1,373.2,621.1Zm-82.3-20a8.5,8.5,0,0,0,0,17h82.3a8.5,8.5,0,1,0,0-17H290.9Z"/><path class="cls-5" d="M1438.6,467.2a11.7,11.7,0,1,1,11.7-11.7h0A11.78,11.78,0,0,1,1438.6,467.2Zm0-20.3a8.7,8.7,0,1,0,8.7,8.7h0a8.71,8.71,0,0,0-8.7-8.7h0Z"/><path class="cls-5" d="M1565.1,467h-82.3a11.5,11.5,0,0,1,0-23h82.3A11.5,11.5,0,0,1,1565.1,467Zm-82.3-20a8.5,8.5,0,0,0,0,17h82.3a8.5,8.5,0,0,0,0-17h-82.3Z"/></g><g id="Connecting_Lines" data-name="Connecting Lines"><polygon class="cls-6" points="1779.5 931.33 1209.1 749.8 526.9 691.1 527.1 688.1 1209.7 746.8 1209.8 746.9 1779.5 928.1 1779.5 931.33"/><polyline class="cls-6" points="1210.6 749.2 1208.1 747.5 1475.2 345.8 526.5 691.4 525.8 690.5 355.5 469.5 357.9 467.7 527.5 687.8 1482.7 339.9 1210.6 749.2"/><polyline class="cls-6" points="356 470.2 355.5 469.5 0 10 0 4.88 357.4 467 1478.8 341.3 1479.1 344.3 356 470.2"/><polygon class="cls-6" points="1477.73 342.35 1633.42 0 1636.75 0 1480.46 343.59 1477.73 342.35"/><polyline class="cls-6" points="1208.9 749.8 356.8 470.2 0 660 0 656.5 356.5 467 357.1 467.1 1209.8 746.9 1208.9 749.8"/><polygon class="cls-6" points="1208.97 746.87 1779.5 599.25 1779.5 602.33 1209.72 749.77 1208.97 746.87"/><polygon class="cls-6" points="0.04 950.95 526.3 688.2 527.64 690.88 1.38 953.63 0 953.6 0.04 950.95"/></g><circle class="cls-5" cx="238.2" cy="401.9" r="22"/><circle class="cls-4" cx="1541" cy="570.1" r="23.3"/><circle class="cls-2" cx="1209.4" cy="748.3" r="38.6"/><circle class="cls-7" cx="1209.4" cy="748.3" r="4.6"/><path class="cls-7" d="M1199.2,771H1199a4.63,4.63,0,0,1-4.1-2.4,5.81,5.81,0,0,1-.9-2.5,17.22,17.22,0,0,1,0-6.4,44.18,44.18,0,0,1,2.2-7.9,63.08,63.08,0,0,1,9.6-16.7,45.31,45.31,0,0,1,5.7-5.9,16.89,16.89,0,0,1,5.5-3.2,7.46,7.46,0,0,1,2.6-.4,4.63,4.63,0,0,1,4.1,2.4,5.81,5.81,0,0,1,.9,2.5,17.22,17.22,0,0,1,0,6.4,44.18,44.18,0,0,1-2.2,7.9,63.08,63.08,0,0,1-9.6,16.7,45.31,45.31,0,0,1-5.7,5.9,16.89,16.89,0,0,1-5.5,3.2A20,20,0,0,1,1199.2,771Zm20.3-43.2a4.67,4.67,0,0,0-1.7.3,22.87,22.87,0,0,0-2.3,1,14.37,14.37,0,0,0-2.5,1.8,35.77,35.77,0,0,0-5.4,5.6,63.12,63.12,0,0,0-9.3,16.1,46.13,46.13,0,0,0-2.1,7.5,16.28,16.28,0,0,0-.3,3.1,21.06,21.06,0,0,0,.2,2.5,3.4,3.4,0,0,0,3.4,3.2,2.3,2.3,0,0,0,1.4-.4,22.87,22.87,0,0,0,2.3-1,14.37,14.37,0,0,0,2.5-1.8,40,40,0,0,0,5.4-5.5,63.12,63.12,0,0,0,9.3-16.1,46.13,46.13,0,0,0,2.1-7.5,16.28,16.28,0,0,0,.3-3.1,21.06,21.06,0,0,0-.2-2.5,3.66,3.66,0,0,0-1.6-2.7A3,3,0,0,0,1219.5,727.8Z"/><path class="cls-7" d="M1209.4,758.7a61.13,61.13,0,0,1-9.6-.7,41.57,41.57,0,0,1-7.9-2,18.47,18.47,0,0,1-5.6-3.2,8.2,8.2,0,0,1-1.7-2,5.1,5.1,0,0,1,0-4.8,6.48,6.48,0,0,1,1.7-2,16.36,16.36,0,0,1,5.6-3.2,43.56,43.56,0,0,1,7.9-2,62.46,62.46,0,0,1,19.3,0,41.57,41.57,0,0,1,7.9,2,18.47,18.47,0,0,1,5.6,3.2,8.2,8.2,0,0,1,1.7,2,5.1,5.1,0,0,1,0,4.8,6.48,6.48,0,0,1-1.7,2,16.36,16.36,0,0,1-5.6,3.2,43.56,43.56,0,0,1-7.9,2A80.54,80.54,0,0,1,1209.4,758.7Zm0-18.6a58.25,58.25,0,0,0-9.3.7,37.48,37.48,0,0,0-7.5,1.9,24,24,0,0,0-2.8,1.3,14.29,14.29,0,0,0-2,1.4,3.26,3.26,0,0,0-1,4.5,3.18,3.18,0,0,0,1,1,14.29,14.29,0,0,0,2,1.4,23.94,23.94,0,0,0,2.8,1.3,37.48,37.48,0,0,0,7.5,1.9,58,58,0,0,0,18.6,0,37.48,37.48,0,0,0,7.5-1.9,24,24,0,0,0,2.8-1.3,14.29,14.29,0,0,0,2-1.4,3.26,3.26,0,0,0,1-4.5,3.18,3.18,0,0,0-1-1,14.29,14.29,0,0,0-2-1.4,23.94,23.94,0,0,0-2.8-1.3,37.48,37.48,0,0,0-7.5-1.9,72.77,72.77,0,0,0-9.3-.7h0Z"/><path class="cls-7" d="M1219.5,771a6.72,6.72,0,0,1-2.4-.4,16.89,16.89,0,0,1-5.5-3.2,39.77,39.77,0,0,1-5.7-5.9,60.46,60.46,0,0,1-9.6-16.7,44.18,44.18,0,0,1-2.2-7.9,17.22,17.22,0,0,1,0-6.4,10.64,10.64,0,0,1,.9-2.5,4.75,4.75,0,0,1,4.1-2.4,7.46,7.46,0,0,1,2.6.4,16.89,16.89,0,0,1,5.5,3.2,39.77,39.77,0,0,1,5.7,5.9,60.46,60.46,0,0,1,9.6,16.7,44.18,44.18,0,0,1,2.2,7.9,17.22,17.22,0,0,1,0,6.4,10.64,10.64,0,0,1-.9,2.5,4.24,4.24,0,0,1-1.8,1.7l-0.6-1,0.6,1a6.11,6.11,0,0,1-2.4.7h-0.1Zm-20.3-43.1a2.82,2.82,0,0,0-1.5.4,3.66,3.66,0,0,0-1.6,2.7,10.56,10.56,0,0,0-.2,2.5,16.27,16.27,0,0,0,.3,3.1,32.13,32.13,0,0,0,2.1,7.5,63.12,63.12,0,0,0,9.3,16.1,35.11,35.11,0,0,0,5.4,5.5,19.5,19.5,0,0,0,2.5,1.8,9.43,9.43,0,0,0,2.3,1,3.2,3.2,0,0,0,4.4-1.4,3.26,3.26,0,0,0,.4-1.4,10.56,10.56,0,0,0,.2-2.5,16.27,16.27,0,0,0-.3-3.1,32.13,32.13,0,0,0-2.1-7.5,63.12,63.12,0,0,0-9.3-16.1,35.11,35.11,0,0,0-5.4-5.5,19.5,19.5,0,0,0-2.5-1.8,9.43,9.43,0,0,0-2.3-1,4.67,4.67,0,0,0-1.7-.3h0Z"/><circle class="cls-3" cx="523.6" cy="688.3" r="47.9"/><path class="cls-7" d="M545.4,694.8s-11.5,7.4-19,7-6.8-5.3-6.8-5.3,27.6-7.5,20.1-26.7c-3.4-5-7.3-6.8-12.9-7.1s-12.6,2.6-17.1,12.3a42.21,42.21,0,0,0-3.4,12.5h0s-4.8.7-7.4-1.7-3.9-.3-3.9-0.3-4.5,7,0,9.1,11.5,4.9,11.5,4.9h0c0.6,3,2.5,6.8,8,11.4,8.2,6.8,23.9.3,23.9,0.3a58.37,58.37,0,0,0,6.5-3.5C549.9,704,552.7,691.3,545.4,694.8ZM518.3,688c0.3-13,8.8-18,11.8-15s1.9,9.1-3.7,12.5-8.1,2.5-8.1,2.5h0Z"/><circle class="cls-3" cx="1469.8" cy="348.2" r="51.8"/><polygon class="cls-7" points="1464.5 350.9 1477.2 350.9 1470.4 336.8 1464.5 350.9"/><path class="cls-7" d="M1470.4,314.9h0l-32,11.4,4.9,42.2,27.1,15,27.4-15.2,5.3-42.2Zm13.8,52.1-4.4-10.2h-17.9l-4,10-7.5.1,20-44.5,20.7,44.5-6.9.1h0Z"/><circle class="cls-8" cx="1158" cy="414.6" r="17.1"/><ellipse class="cls-9" cx="358" cy="467.6" rx="30.8" ry="30.7"/><path class="cls-7" d="M374.1,461.3c2.1-4.6-7.3-12.5-16.5-12.2-1.2-.8-2.4-2.3-5.2-1.7-2.5.5-2.9,2.8-4.3,3.6s-3.6-.1-5,1.5c-1.2,1.3-.5,3.6-1.1,5s-3.3,1.9-3.2,3.6,1.2,3,1.1,4.3c-0.2,1.9-1.6,1.7-1.4,3.4s1.9,1.7,2.6,3.8c6.3,17.6,31.3,18.8,37.3,3-4,2.7-5.1,2.9-6.5,3,4-1.9,8.6-7.8,7.1-13.5-0.8,1.6-2.2,4.8-4,5.4,2-2.9,3.8-8.9.5-12.3,2.6,8.7-5.3,15.9-6.6,16.4,1.1,0.4,3.5.5,6.5-1.7-2.7,3.5-7.8,5.3-11.6,5.6,0.7,1.1,3.5,2.5,6,2.7-3.4.5-8.2,1.7-16.2-6a9.83,9.83,0,0,0,3.1,5.5c-11.9-5-7.6-20.3,1.2-20.7C361.1,461.3,372.3,465.3,374.1,461.3Z"/><circle class="cls-9" cx="363" cy="455.4" r="1.5"/></g><g id="Monitor"><path class="cls-10" d="M1046.6,743.5h-318a21,21,0,0,0,0,42h318a21,21,0,0,0,0-42"/><polygon class="cls-11" points="945.7 743.2 829.3 743.2 844 659.5 931.1 659.5 945.7 743.2"/><path class="cls-12" d="M948.1,745.2H827l15.3-87.8h90.5Zm-116.4-4H943.3l-13.9-79.8H845.6Z"/><path class="cls-11" d="M954,765.1H821.1a15,15,0,0,1,0-30H954A15,15,0,0,1,954,765.1Z"/><path class="cls-12" d="M954,767.1H821.1a17,17,0,0,1,0-34H954A17,17,0,0,1,954,767.1ZM821.1,737a13,13,0,0,0,0,26H954a13,13,0,0,0,0-26H821.1Z"/><path class="cls-11" d="M1088.3,682H686.7a21,21,0,0,1-20.9-20.9h0V422.8a21,21,0,0,1,20.9-20.9h401.6a21,21,0,0,1,20.9,20.9h0V661.2a20.87,20.87,0,0,1-20.9,20.8h0"/><path class="cls-12" d="M1088.3,684H686.7a23,23,0,0,1-22.9-22.9V422.8a23,23,0,0,1,22.9-22.9h401.6a23,23,0,0,1,22.9,22.9V661.2a22.88,22.88,0,0,1-22.9,22.8M686.7,403.8a19,19,0,0,0-18.9,18.9V661.1A19,19,0,0,0,686.7,680h401.6a19,19,0,0,0,18.9-18.9V422.8a19,19,0,0,0-18.9-18.9l-401.6-.1"/><path class="cls-7" d="M1061.6,655.5H713.5a20.89,20.89,0,0,1-20.9-20.9h0V449.3a21,21,0,0,1,20.9-20.9h348.1a21,21,0,0,1,20.9,20.9h0V634.5a21,21,0,0,1-20.9,21h0"/><path class="cls-13" d="M1061.6,430.4H713.5a19,19,0,0,0-18.9,18.9V634.5a19,19,0,0,0,18.9,18.9h348.1a19,19,0,0,0,18.9-18.9v-121l-42.6-12.6L694.6,629.8V449.7a19,19,0,0,1,18.9-18.9h348.1a19,19,0,0,1,18.9,18.9v-0.4a19,19,0,0,0-18.9-18.9"/><path class="cls-14" d="M800.2,430.8H713.5a19,19,0,0,0-18.9,18.9V629.8l343.3-128.9L800.2,430.8"/><polyline class="cls-15" points="1080.5 484.9 1037.8 500.9 1080.5 513.5 1080.5 484.9"/><polyline class="cls-16" points="1080.5 449.7 1080.5 449.7 1080.5 449.7 1080.5 484.9 1080.5 513.5 1080.5 449.7 1080.5 449.7"/><path class="cls-17" d="M1061.6,430.8H800.2l237.7,70.1,42.6-16V449.7a19,19,0,0,0-18.9-18.9"/><path class="cls-12" d="M1061.6,657.5H713.5a22.9,22.9,0,0,1-22.9-22.9V449.3a23,23,0,0,1,22.9-22.9h348.1a23,23,0,0,1,22.9,22.9V634.5A23,23,0,0,1,1061.6,657.5ZM713.5,430.4a19,19,0,0,0-18.9,18.9V634.5a19,19,0,0,0,18.9,18.9h348.1a19,19,0,0,0,18.9-18.9V449.3a19,19,0,0,0-18.9-18.9H713.5Z"/><path class="cls-4" d="M871.2,535.3v13.1a4,4,0,1,0,8,0V535.3A4,4,0,0,0,871.2,535.3Z"/><path class="cls-4" d="M883.3,533.2v17.3a4,4,0,0,0,8,0V533.2A4,4,0,0,0,883.3,533.2Z"/><path class="cls-4" d="M943.9,510.2v63.4a4,4,0,0,0,8,0V510.2A4,4,0,0,0,943.9,510.2Z"/><path class="cls-4" d="M931.8,522.8v38.4a4,4,0,0,0,8,0V522.8a4,4,0,0,0-4-4A4,4,0,0,0,931.8,522.8Z"/><path class="cls-4" d="M919.7,530.3v23.3a4,4,0,1,0,8,0V530.3A4,4,0,0,0,919.7,530.3Z"/><path class="cls-4" d="M907.6,520.4v43a4,4,0,0,0,8,0v-43A4,4,0,0,0,907.6,520.4Z"/><path class="cls-4" d="M895.4,535.3v13.1a4,4,0,0,0,8,0V535.3A4,4,0,0,0,895.4,535.3Z"/><path class="cls-4" d="M956,504.7v74.4a4,4,0,0,0,8,0V504.7A4,4,0,0,0,956,504.7Z"/><path class="cls-4" d="M968.2,518.5v46.8a4,4,0,0,0,8,0V518.5a4,4,0,0,0-4-4A4,4,0,0,0,968.2,518.5Z"/><path class="cls-4" d="M980.3,535.3v13.1a4,4,0,1,0,8,0V535.3A4,4,0,0,0,980.3,535.3Z"/><path class="cls-4" d="M992.4,533.2v17.3a4,4,0,1,0,8,0V533.2A4,4,0,1,0,992.4,533.2Z"/><path class="cls-4" d="M1044.9,506.2a4,4,0,0,0-4,4v63.3a4,4,0,0,0,8,0V510.1A4,4,0,0,0,1044.9,506.2Z"/><path class="cls-4" d="M1057,518.8a4,4,0,0,0-4,4v38.4a4,4,0,0,0,8,0V522.8A4,4,0,0,0,1057,518.8Z"/><path class="cls-4" d="M1069.1,526.3a4,4,0,0,0-4,4v23.3a4,4,0,1,0,8,0V530.3A4,4,0,0,0,1069.1,526.3Z"/><path class="cls-4" d="M1032.7,500.8a4,4,0,0,0-4,4v74.4a4,4,0,0,0,8,0h0V504.8A4,4,0,0,0,1032.7,500.8Z"/><path class="cls-4" d="M1020.6,514.5a4,4,0,0,0-4,4v46.8a4,4,0,0,0,8,0V518.5A4,4,0,0,0,1020.6,514.5Z"/><path class="cls-4" d="M1008.5,531.3a4,4,0,0,0-4,4v13.1a4,4,0,1,0,8,0V535.2A4,4,0,0,0,1008.5,531.3Z"/><path class="cls-4" d="M826.7,506.2a4,4,0,0,0-4,4v63.3a4,4,0,0,0,8,0V510.1A4,4,0,0,0,826.7,506.2Z"/><path class="cls-4" d="M838.8,518.8a4,4,0,0,0-4,4v38.4a4,4,0,0,0,8,0V522.8A4,4,0,0,0,838.8,518.8Z"/><path class="cls-4" d="M850.9,526.3a4,4,0,0,0-4,4v23.3a4,4,0,0,0,8,0V530.3A4,4,0,0,0,850.9,526.3Z"/><path class="cls-4" d="M863,516.4a4,4,0,0,0-4,4v43a4,4,0,0,0,8,0v-43A4,4,0,0,0,863,516.4Z"/><path class="cls-4" d="M814.6,500.8a4,4,0,0,0-4,4v74.4a4,4,0,0,0,8,0V504.8a4,4,0,0,0-4-4h0Z"/><path class="cls-4" d="M802.4,514.5a4,4,0,0,0-4,4v46.8a4,4,0,0,0,8,0V518.5A4,4,0,0,0,802.4,514.5Z"/><path class="cls-4" d="M790.3,531.3a4,4,0,0,0-4,4v13.1a4,4,0,1,0,8,0V535.2A4,4,0,0,0,790.3,531.3Z"/><path class="cls-4" d="M778.2,529.2a4,4,0,0,0-4,4v17.3a4,4,0,0,0,8,0V533.2A4,4,0,0,0,778.2,529.2Z"/><path class="cls-4" d="M725.7,510.2v63.4a4,4,0,0,0,8,0V510.2A4,4,0,0,0,725.7,510.2Z"/><path class="cls-4" d="M713.6,522.8v38.4a4,4,0,0,0,8,0V522.8a4,4,0,0,0-4-4A4,4,0,0,0,713.6,522.8Z"/><path class="cls-4" d="M701.5,530.3v23.3a4,4,0,1,0,8,0V530.3A4,4,0,0,0,701.5,530.3Z"/><path class="cls-4" d="M737.8,504.7v74.4a4,4,0,0,0,8,0V504.7A4,4,0,0,0,737.8,504.7Z"/><path class="cls-4" d="M750,518.5v46.8a4,4,0,0,0,8,0V518.5a4,4,0,0,0-4-4A4,4,0,0,0,750,518.5Z"/><path class="cls-4" d="M762.1,535.3v13.1a4,4,0,0,0,8,0V535.3A4,4,0,0,0,762.1,535.3Z"/><path class="cls-18" d="M940.8,536.8a52.91,52.91,0,0,1-47,52.5v27.3h23.5a5.86,5.86,0,0,1,.5,11.7H858.5a5.86,5.86,0,1,1-.5-11.7h24V589.3a52.91,52.91,0,0,1-47-52.5v-2.5a5.86,5.86,0,1,1,11.7-.5v3a41.1,41.1,0,1,0,82.2,0v-2.5a5.86,5.86,0,1,1,11.7-.5v0.5l0.2,2.5h0Z"/><path class="cls-6" d="M917.3,536.8a29.36,29.36,0,0,1-58.7,1.1V489.8a29.36,29.36,0,0,1,58.7-1.1v48.1Z"/><path class="cls-18" d="M888,569.2a32.39,32.39,0,0,1-32.4-32.4v-47a32.41,32.41,0,0,1,64.8-1.2v48.1A32.61,32.61,0,0,1,888,569.2Zm0-105.8a26.37,26.37,0,0,0-26.4,26.4v47a26.4,26.4,0,0,0,52.8,0v-47A26.5,26.5,0,0,0,888,463.4h0Z"/><path class="cls-18" d="M859.2,525.5a3,3,0,0,1-3-3,2.72,2.72,0,0,1,.9-2.1L874.5,503a3,3,0,1,1,4.3,4.1,0.1,0.1,0,0,1-.1.1l-17.4,17.4A2.72,2.72,0,0,1,859.2,525.5Z"/><path class="cls-18" d="M859.8,494.3a3,3,0,0,1-3-3,2.72,2.72,0,0,1,.9-2.1l22-22a3,3,0,0,1,4.2,4.2l-22,22A2.88,2.88,0,0,1,859.8,494.3Z"/><path class="cls-18" d="M862.2,553.2a3,3,0,0,1-3-3,2.72,2.72,0,0,1,.9-2.1l39.8-39.8a3,3,0,0,1,4.2,4.2l-39.8,39.8A2.88,2.88,0,0,1,862.2,553.2Z"/><path class="cls-18" d="M879.3,566.8a3,3,0,0,1-3-3,2.72,2.72,0,0,1,.9-2.1l23-23a3,3,0,0,1,4.2,4.2l-23,23A2.88,2.88,0,0,1,879.3,566.8Z"/><path class="cls-7" d="M905,497.4c0-19.7-1.5-21.1-21.1-21.1,19.7,0,21.1-1.5,21.1-21.1,0,19.7,1.5,21.1,21.1,21.1C906.5,476.2,905,477.7,905,497.4Z"/></g></svg>