<svg id="Layer_1" data-name="Layer 1" xmlns="http://www.w3.org/2000/svg" viewBox="0 0 1460.98 588.39"><defs><style>.cls-1{fill:#a3dde5;}.cls-2{fill:#f46663;}.cls-3{fill:#ffc064;}.cls-4{fill:#e5e57f;}.cls-5{fill:#b6bfd6;}.cls-6{fill:#fff;}.cls-7{fill:#9c83cc;}.cls-8{fill:#ef64a2;}.cls-9{fill:#e6e7e8;}.cls-10{fill:#515a77;}.cls-11{fill:#f2f2bf;}.cls-12{fill:#fbfbd7;}.cls-13{fill:#fefedf;}.cls-14{fill:#ffffeb;}.cls-15{fill:#626d8e;}</style></defs><title>media-art</title><g id="Web"><g id="Accents_-_Dash_Dot" data-name="Accents - Dash Dot"><path class="cls-1" d="M480.46,160.41a9.55,9.55,0,1,1,9.55-9.55,9.67,9.67,0,0,1-9.55,9.55Zm0-16.65a7.1,7.1,0,1,0,7.1,7.1A7.22,7.22,0,0,0,480.46,143.76Z"/><path class="cls-1" d="M444.3,160.25H377.12a9.39,9.39,0,0,1,0-18.77H444.3a9.34,9.34,0,0,1,9.39,9.29s0,.07,0,.1A9.44,9.44,0,0,1,444.3,160.25ZM377,143.92a6.94,6.94,0,0,0,0,13.88h67.18a6.94,6.94,0,1,0,0-13.88H377Z"/><path class="cls-2" d="M1041.22,278a9.55,9.55,0,1,1,9.55-9.55h0A9.67,9.67,0,0,1,1041.22,278Zm0-16.65a7.1,7.1,0,1,0,7.1,7.1h0a7.22,7.22,0,0,0-7.1-7.1Z"/><path class="cls-2" d="M1005.06,277.79H937.88a9.39,9.39,0,1,1,0-18.77h67.18a9.46,9.46,0,0,1,0,18.77Zm-67.18-16.32a6.94,6.94,0,1,0,0,13.88h67.18a6.94,6.94,0,0,0,0-13.88Z"/><path class="cls-3" d="M206.28,317.13a9.55,9.55,0,1,1,9.55-9.55A9.72,9.72,0,0,1,206.28,317.13Zm0-16.65a7.1,7.1,0,1,0,7.1,7.1,7.1,7.1,0,0,0-7.1-7.1Z"/><path class="cls-3" d="M309.62,317H242.44a9.39,9.39,0,0,1,0-18.77h67.18a9.39,9.39,0,1,1,0,18.77Zm-67.18-16.32a6.94,6.94,0,1,0,0,13.88h67.18a6.94,6.94,0,1,0,0-13.88H242.44Z"/><path class="cls-4" d="M1179.24,191.35a9.55,9.55,0,1,1,9.55-9.55h0A9.62,9.62,0,0,1,1179.24,191.35Zm0-16.57a7.1,7.1,0,1,0,7.1,7.1h0a7.11,7.11,0,0,0-7.1-7.1Z"/><path class="cls-4" d="M1282.5,191.18h-67.18a9.39,9.39,0,1,1,0-18.77h67.18a9.39,9.39,0,1,1,0,18.77Zm-67.18-16.32a6.94,6.94,0,1,0,0,13.88h67.18a6.94,6.94,0,1,0,0-13.88h-67.18Z"/></g><g id="Connecting_Lines" data-name="Connecting Lines"><polygon class="cls-5" points="1457.5 570.19 991.92 422.02 435.08 374.1 435.24 371.65 992.41 419.57 992.49 419.65 1457.5 567.55 1457.5 570.19"/><polyline class="cls-5" points="993.14 421.53 991.1 420.14 1209.12 92.26 434.75 374.35 434.18 373.61 295.17 193.22 297.13 191.76 435.57 371.41 1215.24 87.44 993.14 421.53"/><polyline class="cls-5" points="295.58 193.8 295.17 193.22 1 126.16 0 123.98 296.72 191.18 1212.06 88.58 1212.3 91.03 295.58 193.8"/><polygon class="cls-5" points="1211.18 89.44 1460.26 0 1460.98 2 1213.41 90.45 1211.18 89.44"/><polyline class="cls-5" points="991.75 422.02 296.24 193.8 5 348.72 5 345.86 295.99 191.18 296.48 191.27 992.49 419.65 991.75 422.02"/><polygon class="cls-5" points="991.81 419.63 1457.5 299.13 1457.5 301.65 992.42 421.99 991.81 419.63"/><polygon class="cls-5" points="5.03 586.2 434.59 371.74 435.68 373.92 6.13 588.39 5 588.37 5.03 586.2"/></g><circle class="cls-4" cx="199.43" cy="138.05" r="17.96"/><circle class="cls-3" cx="1262.83" cy="275.34" r="19.02"/><circle class="cls-1" cx="992.16" cy="420.79" r="31.51"/><circle class="cls-6" cx="992.16" cy="420.79" r="3.75"/><path class="cls-6" d="M983.84,439.32h-.16a3.78,3.78,0,0,1-3.35-2,4.74,4.74,0,0,1-.73-2,14.06,14.06,0,0,1,0-5.22,36.06,36.06,0,0,1,1.8-6.45A51.49,51.49,0,0,1,989.22,410a37,37,0,0,1,4.65-4.82,13.79,13.79,0,0,1,4.49-2.61,6.09,6.09,0,0,1,2.12-.33,3.78,3.78,0,0,1,3.35,2,4.74,4.74,0,0,1,.73,2,14.06,14.06,0,0,1,0,5.22,36.06,36.06,0,0,1-1.8,6.45,51.49,51.49,0,0,1-7.84,13.63,37,37,0,0,1-4.65,4.82,13.79,13.79,0,0,1-4.49,2.61A16.33,16.33,0,0,1,983.84,439.32Zm16.57-35.26a3.81,3.81,0,0,0-1.39.24,18.66,18.66,0,0,0-1.88.82,11.73,11.73,0,0,0-2,1.47,29.2,29.2,0,0,0-4.41,4.57,51.52,51.52,0,0,0-7.59,13.14,37.65,37.65,0,0,0-1.71,6.12,13.29,13.29,0,0,0-.24,2.53,17.2,17.2,0,0,0,.16,2,2.78,2.78,0,0,0,2.78,2.61,1.88,1.88,0,0,0,1.14-.33,18.66,18.66,0,0,0,1.88-.82,11.73,11.73,0,0,0,2-1.47,32.65,32.65,0,0,0,4.41-4.49,51.52,51.52,0,0,0,7.59-13.14,37.65,37.65,0,0,0,1.71-6.12,13.29,13.29,0,0,0,.24-2.53,17.2,17.2,0,0,0-.16-2,3,3,0,0,0-1.31-2.2A2.45,2.45,0,0,0,1000.41,404.06Z"/><path class="cls-6" d="M992.16,429.28a49.9,49.9,0,0,1-7.84-.57,33.93,33.93,0,0,1-6.45-1.63,15.08,15.08,0,0,1-4.57-2.61,6.69,6.69,0,0,1-1.39-1.63,4.16,4.16,0,0,1,0-3.92,5.29,5.29,0,0,1,1.39-1.63,13.35,13.35,0,0,1,4.57-2.61,35.56,35.56,0,0,1,6.45-1.63,51,51,0,0,1,15.75,0,33.93,33.93,0,0,1,6.45,1.63,15.08,15.08,0,0,1,4.57,2.61,6.69,6.69,0,0,1,1.39,1.63,4.16,4.16,0,0,1,0,3.92,5.29,5.29,0,0,1-1.39,1.63,13.35,13.35,0,0,1-4.57,2.61,35.56,35.56,0,0,1-6.45,1.63A65.74,65.74,0,0,1,992.16,429.28Zm0-15.18a47.55,47.55,0,0,0-7.59.57,30.59,30.59,0,0,0-6.12,1.55,19.59,19.59,0,0,0-2.29,1.06,11.66,11.66,0,0,0-1.63,1.14,2.66,2.66,0,0,0-.82,3.67,2.6,2.6,0,0,0,.82.82,11.66,11.66,0,0,0,1.63,1.14,19.54,19.54,0,0,0,2.29,1.06,30.59,30.59,0,0,0,6.12,1.55,47.34,47.34,0,0,0,15.18,0,30.59,30.59,0,0,0,6.12-1.55,19.59,19.59,0,0,0,2.29-1.06,11.66,11.66,0,0,0,1.63-1.14,2.66,2.66,0,0,0,.82-3.67,2.6,2.6,0,0,0-.82-.82,11.66,11.66,0,0,0-1.63-1.14,19.54,19.54,0,0,0-2.29-1.06,30.59,30.59,0,0,0-6.12-1.55,59.4,59.4,0,0,0-7.59-.57h0Z"/><path class="cls-6" d="M1000.41,439.32a5.49,5.49,0,0,1-2-.33,13.79,13.79,0,0,1-4.49-2.61,32.46,32.46,0,0,1-4.65-4.82,49.35,49.35,0,0,1-7.84-13.63,36.06,36.06,0,0,1-1.8-6.45,14.06,14.06,0,0,1,0-5.22,8.68,8.68,0,0,1,.73-2,3.88,3.88,0,0,1,3.35-2,6.09,6.09,0,0,1,2.12.33,13.79,13.79,0,0,1,4.49,2.61A32.46,32.46,0,0,1,995,410a49.35,49.35,0,0,1,7.84,13.63,36.06,36.06,0,0,1,1.8,6.45,14.06,14.06,0,0,1,0,5.22,8.68,8.68,0,0,1-.73,2,3.46,3.46,0,0,1-1.47,1.39l-.49-.82.49.82a5,5,0,0,1-2,.57h-.08Zm-16.57-35.18a2.3,2.3,0,0,0-1.22.33,3,3,0,0,0-1.31,2.2,8.62,8.62,0,0,0-.16,2,13.27,13.27,0,0,0,.24,2.53,26.22,26.22,0,0,0,1.71,6.12,51.52,51.52,0,0,0,7.59,13.14A28.65,28.65,0,0,0,995.1,435a15.92,15.92,0,0,0,2,1.47,7.7,7.7,0,0,0,1.88.82,2.61,2.61,0,0,0,3.54-1l0-.1a2.66,2.66,0,0,0,.33-1.14,8.62,8.62,0,0,0,.16-2,13.27,13.27,0,0,0-.24-2.53,26.22,26.22,0,0,0-1.71-6.12,51.52,51.52,0,0,0-7.59-13.14,28.65,28.65,0,0,0-4.41-4.49,15.92,15.92,0,0,0-2-1.47,7.7,7.7,0,0,0-1.88-.82,3.81,3.81,0,0,0-1.39-.24h0Z"/><circle class="cls-2" cx="432.38" cy="371.82" r="39.1"/><path class="cls-6" d="M450.18,377.12s-9.39,6-15.51,5.71-5.55-4.33-5.55-4.33,22.53-6.12,16.41-21.79c-2.78-4.08-6-5.55-10.53-5.8s-10.28,2.12-14,10a34.45,34.45,0,0,0-2.78,10.2h0s-3.92.57-6-1.39-3.18-.24-3.18-.24-3.67,5.71,0,7.43,9.39,4,9.39,4h0c.49,2.45,2,5.55,6.53,9.31,6.69,5.55,19.51.24,19.51.24a47.64,47.64,0,0,0,5.31-2.86C453.85,384.63,456.14,374.27,450.18,377.12Zm-22.12-5.55c.24-10.61,7.18-14.69,9.63-12.24s1.55,7.43-3,10.2-6.61,2-6.61,2Z"/><circle class="cls-2" cx="1204.71" cy="94.21" r="42.28"/><polygon class="cls-6" points="1200.38 96.42 1210.75 96.42 1205.2 84.91 1200.38 96.42"/><path class="cls-6" d="M1205.2,67h0l-26.12,9.31,4,34.45L1205.2,123l22.37-12.41,4.33-34.45Zm11.26,42.53-3.59-8.33h-14.61L1195,109.4l-6.12.08,16.32-36.32,16.9,36.32-5.63.08h0Z"/><circle class="cls-7" cx="950.21" cy="148.41" r="13.96"/><ellipse class="cls-8" cx="297.21" cy="191.67" rx="25.14" ry="25.06"/><path class="cls-6" d="M310.36,186.53c1.71-3.75-6-10.2-13.47-10-1-.65-2-1.88-4.24-1.39-2,.41-2.37,2.29-3.51,2.94s-2.94-.08-4.08,1.22c-1,1.06-.41,2.94-.9,4.08s-2.69,1.55-2.61,2.94,1,2.45.9,3.51c-.16,1.55-1.31,1.39-1.14,2.78s1.55,1.39,2.12,3.1c5.14,14.37,25.55,15.35,30.45,2.45-3.26,2.2-4.16,2.37-5.31,2.45,3.26-1.55,7-6.37,5.8-11-.65,1.31-1.8,3.92-3.26,4.41,1.63-2.37,3.1-7.26.41-10,2.12,7.1-4.33,13-5.39,13.39.9.33,2.86.41,5.31-1.39-2.2,2.86-6.37,4.33-9.47,4.57.57.9,2.86,2,4.9,2.2-2.78.41-6.69,1.39-13.22-4.9a8,8,0,0,0,2.53,4.49c-9.71-4.08-6.2-16.57,1-16.9C299.74,186.53,308.89,189.8,310.36,186.53Z"/><circle class="cls-8" cx="301.3" cy="181.72" r="1.22"/></g><g id="Monitor"><polygon class="cls-9" points="776.92 416.63 681.91 416.63 693.91 348.31 765 348.31 776.92 416.63"/><path class="cls-10" d="M778.88,418.26H680l12.49-71.67h73.87Zm-95-3.26H775l-11.35-65.14h-68.4Z"/><path class="cls-9" d="M783.69,434.51H675.22a12.24,12.24,0,1,1,0-24.49H783.69a12.24,12.24,0,1,1,0,24.49Z"/><path class="cls-10" d="M783.69,436.14H675.22a13.88,13.88,0,0,1,0-27.75H783.69a13.88,13.88,0,0,1,0,27.75ZM675.22,411.57a10.61,10.61,0,0,0,0,21.22H783.69a10.61,10.61,0,0,0,0-21.22Z"/><path class="cls-9" d="M893.31,366.68H565.51a17.14,17.14,0,0,1-17.06-17.06h0V155.11A17.14,17.14,0,0,1,565.51,138h327.8a17.14,17.14,0,0,1,17.06,17.06h0V349.7a17,17,0,0,1-17.06,17h0"/><path class="cls-10" d="M893.31,368.31H565.51a18.77,18.77,0,0,1-18.69-18.69V155.11a18.77,18.77,0,0,1,18.69-18.69h327.8A18.77,18.77,0,0,1,912,155.11V349.7a18.68,18.68,0,0,1-18.69,18.61M565.51,139.6A15.51,15.51,0,0,0,550.09,155V349.62A15.51,15.51,0,0,0,565.51,365h327.8a15.51,15.51,0,0,0,15.43-15.43V155.11a15.51,15.51,0,0,0-15.43-15.43l-327.8-.08"/><path class="cls-6" d="M871.52,345H587.39a17.05,17.05,0,0,1-17.06-17v0h0V176.74a17.14,17.14,0,0,1,17.06-17.06H871.52a17.14,17.14,0,0,1,17.06,17.06h0V327.9A17.14,17.14,0,0,1,871.52,345h0"/><path class="cls-11" d="M871.52,161.31H587.39A15.51,15.51,0,0,0,572,176.74V327.9a15.51,15.51,0,0,0,15.43,15.43H871.52a15.51,15.51,0,0,0,15.43-15.43V229.14l-34.77-10.28L572,324.07v-147a15.51,15.51,0,0,1,15.43-15.43H871.52a15.51,15.51,0,0,1,15.43,15.43v-.33a15.51,15.51,0,0,0-15.43-15.43"/><path class="cls-12" d="M658.16,161.64H587.39A15.51,15.51,0,0,0,572,177.06v147L852.18,218.85l-194-57.22"/><polyline class="cls-13" points="886.95 205.79 852.09 218.85 886.95 229.14 886.95 205.79"/><path class="cls-14" d="M871.52,161.64H658.16l194,57.22,34.77-13.06V177.06a15.51,15.51,0,0,0-15.43-15.43"/><path class="cls-10" d="M871.52,346.68H587.39A18.69,18.69,0,0,1,568.7,328h0V176.74A18.77,18.77,0,0,1,587.39,158H871.52a18.77,18.77,0,0,1,18.69,18.69V327.9A18.77,18.77,0,0,1,871.52,346.68ZM587.39,161.31A15.51,15.51,0,0,0,572,176.74V327.9a15.51,15.51,0,0,0,15.43,15.43H871.52a15.51,15.51,0,0,0,15.43-15.43V176.74a15.51,15.51,0,0,0-15.43-15.43Z"/><path class="cls-3" d="M716.11,246.93v10.69a3.26,3.26,0,1,0,6.53,0V246.93a3.26,3.26,0,1,0-6.53,0Z"/><path class="cls-3" d="M726,245.22v14.12a3.26,3.26,0,1,0,6.53,0V245.22a3.26,3.26,0,0,0-6.53,0Z"/><path class="cls-3" d="M775.45,226.45V278.2a3.26,3.26,0,1,0,6.53,0V226.45a3.26,3.26,0,0,0-6.53,0Z"/><path class="cls-3" d="M765.57,236.73v31.34a3.26,3.26,0,1,0,6.53,0V236.73a3.26,3.26,0,0,0-6.53,0Z"/><path class="cls-3" d="M755.7,242.85v19a3.26,3.26,0,1,0,6.53,0v-19a3.26,3.26,0,1,0-6.53,0Z"/><path class="cls-3" d="M745.82,234.77v35.1a3.26,3.26,0,1,0,6.53,0v-35.1a3.26,3.26,0,1,0-6.53,0Z"/><path class="cls-3" d="M735.86,246.93v10.69a3.26,3.26,0,0,0,6.53,0V246.93a3.26,3.26,0,0,0-6.53,0Z"/><path class="cls-3" d="M785.33,222v60.73a3.26,3.26,0,1,0,6.53,0V222a3.26,3.26,0,1,0-6.53,0Z"/><path class="cls-3" d="M795.28,233.22v38.2a3.26,3.26,0,1,0,6.53,0v-38.2a3.26,3.26,0,1,0-6.53,0Z"/><path class="cls-3" d="M805.16,246.93v10.69a3.26,3.26,0,1,0,6.53,0V246.93a3.26,3.26,0,1,0-6.53,0Z"/><path class="cls-3" d="M815,245.22v14.12a3.26,3.26,0,1,0,6.53,0V245.22a3.26,3.26,0,0,0-6.53,0Z"/><path class="cls-3" d="M857.89,223.18a3.26,3.26,0,0,0-3.26,3.26v51.67a3.26,3.26,0,1,0,6.53,0V226.36A3.27,3.27,0,0,0,857.89,223.18Z"/><path class="cls-3" d="M867.77,233.47a3.26,3.26,0,0,0-3.26,3.26v31.34a3.26,3.26,0,1,0,6.53,0V236.73A3.26,3.26,0,0,0,867.77,233.47Z"/><path class="cls-3" d="M877.64,239.59a3.26,3.26,0,0,0-3.26,3.26v19a3.26,3.26,0,1,0,6.53,0v-19A3.26,3.26,0,0,0,877.64,239.59Z"/><path class="cls-3" d="M847.93,218.77a3.26,3.26,0,0,0-3.26,3.26v60.73a3.26,3.26,0,1,0,6.53,0h0V222A3.26,3.26,0,0,0,847.93,218.77Z"/><path class="cls-3" d="M838.06,230a3.26,3.26,0,0,0-3.26,3.26v38.2a3.26,3.26,0,1,0,6.53,0v-38.2A3.26,3.26,0,0,0,838.06,230Z"/><path class="cls-3" d="M828.18,243.67a3.26,3.26,0,0,0-3.26,3.26v10.69a3.26,3.26,0,1,0,6.53,0V246.85A3.26,3.26,0,0,0,828.18,243.67Z"/><path class="cls-3" d="M679.79,223.18a3.26,3.26,0,0,0-3.26,3.26v51.67a3.26,3.26,0,1,0,6.53,0V226.36A3.26,3.26,0,0,0,679.79,223.18Z"/><path class="cls-3" d="M689.66,233.47a3.26,3.26,0,0,0-3.26,3.26v31.34a3.26,3.26,0,1,0,6.53,0V236.73A3.26,3.26,0,0,0,689.66,233.47Z"/><path class="cls-3" d="M699.54,239.59a3.26,3.26,0,0,0-3.26,3.26v19a3.26,3.26,0,1,0,6.53,0v-19A3.26,3.26,0,0,0,699.54,239.59Z"/><path class="cls-3" d="M709.42,231.51a3.26,3.26,0,0,0-3.26,3.26v35.1a3.26,3.26,0,1,0,6.53,0v-35.1A3.26,3.26,0,0,0,709.42,231.51Z"/><path class="cls-3" d="M669.91,218.77a3.26,3.26,0,0,0-3.26,3.26v60.73a3.26,3.26,0,1,0,6.53,0V222a3.26,3.26,0,0,0-3.26-3.26Z"/><path class="cls-3" d="M660,230a3.26,3.26,0,0,0-3.26,3.26v38.2a3.26,3.26,0,1,0,6.53,0v-38.2A3.26,3.26,0,0,0,660,230Z"/><path class="cls-3" d="M650.07,243.67a3.26,3.26,0,0,0-3.26,3.26v10.69a3.26,3.26,0,1,0,6.53,0V246.85A3.26,3.26,0,0,0,650.07,243.67Z"/><path class="cls-3" d="M640.2,242a3.26,3.26,0,0,0-3.26,3.26v14.12a3.26,3.26,0,1,0,6.53,0V245.22A3.26,3.26,0,0,0,640.2,242Z"/><path class="cls-3" d="M597.35,226.45V278.2a3.26,3.26,0,1,0,6.53,0V226.45a3.26,3.26,0,0,0-6.53,0Z"/><path class="cls-3" d="M587.47,236.73v31.34a3.26,3.26,0,1,0,6.53,0V236.73a3.26,3.26,0,0,0-6.53,0Z"/><path class="cls-3" d="M577.59,242.85v19a3.26,3.26,0,1,0,6.53,0v-19a3.26,3.26,0,1,0-6.53,0Z"/><path class="cls-3" d="M607.22,222v60.73a3.26,3.26,0,1,0,6.53,0V222a3.26,3.26,0,1,0-6.53,0Z"/><path class="cls-3" d="M617.18,233.22v38.2a3.26,3.26,0,1,0,6.53,0v-38.2a3.26,3.26,0,1,0-6.53,0Z"/><path class="cls-3" d="M627.06,246.93v10.69a3.26,3.26,0,1,0,6.53,0V246.93a3.26,3.26,0,1,0-6.53,0Z"/><path class="cls-15" d="M772.92,248.16A43.19,43.19,0,0,1,734.56,291v22.28h19.18a4.78,4.78,0,0,1,.41,9.55h-48.4a4.78,4.78,0,1,1-.79-9.53l.38,0h19.59V291a43.19,43.19,0,0,1-38.36-42.85v-2a4.78,4.78,0,1,1,9.53-.79q0,.19,0,.38v2.45a33.55,33.55,0,1,0,67.09,0v-2a4.78,4.78,0,1,1,9.53-.79q0,.19,0,.38v.41l.16,2h0Z"/><path class="cls-5" d="M753.74,248.16a24,24,0,0,1-47.91.9V209.79a24,24,0,0,1,47.91-.9Z"/><path class="cls-15" d="M729.82,274.6a26.44,26.44,0,0,1-26.45-26.43V209.79a26.45,26.45,0,0,1,52.89-1v39.26A26.62,26.62,0,0,1,729.82,274.6Zm0-86.36a21.52,21.52,0,0,0-21.55,21.5v38.41a21.55,21.55,0,0,0,43.1,0V209.79a21.63,21.63,0,0,0-21.55-21.55h0Z"/><path class="cls-15" d="M706.31,238.93a2.45,2.45,0,0,1-2.45-2.45,2.22,2.22,0,0,1,.73-1.71l14.2-14.2a2.45,2.45,0,1,1,3.51,3.35.08.08,0,0,1-.08.08L708,238.2A2.22,2.22,0,0,1,706.31,238.93Z"/><path class="cls-15" d="M706.8,213.47a2.45,2.45,0,0,1-2.45-2.45,2.22,2.22,0,0,1,.73-1.71l18-18a2.45,2.45,0,0,1,3.43,3.43l-18,18A2.35,2.35,0,0,1,706.8,213.47Z"/><path class="cls-15" d="M708.76,261.54a2.45,2.45,0,0,1-2.45-2.45,2.22,2.22,0,0,1,.73-1.71l32.49-32.49a2.45,2.45,0,0,1,3.43,3.43l-32.49,32.49A2.35,2.35,0,0,1,708.76,261.54Z"/><path class="cls-15" d="M722.72,272.65a2.45,2.45,0,0,1-2.45-2.45,2.22,2.22,0,0,1,.73-1.71l18.77-18.77a2.45,2.45,0,0,1,3.43,3.43l-18.77,18.77A2.35,2.35,0,0,1,722.72,272.65Z"/><path class="cls-6" d="M743.7,216c0-16.08-1.22-17.22-17.22-17.22,16.08,0,17.22-1.22,17.22-17.22,0,16.08,1.22,17.22,17.22,17.22C744.92,198.69,743.7,199.92,743.7,216Z"/></g></svg>