<svg xmlns="http://www.w3.org/2000/svg" viewBox="0 0 1460.98 283"><defs><style>.cls-1{fill:none;stroke:#b6bfd6;stroke-miterlimit:10;}.cls-2{fill:#a3dde5;}.cls-3{fill:#f46663;}.cls-4{fill:#ffc064;}.cls-5{fill:#e5e57f;}.cls-6{fill:#fff;}.cls-7{fill:#9c83cc;}.cls-8{fill:#ef64a2;}.cls-9{fill:#e6e7e8;}.cls-10{fill:#515a77;}.cls-11{fill:#f2f2bf;}.cls-12{fill:#fbfbd7;}.cls-13{fill:#fefedf;}.cls-14{fill:#ffffeb;}.cls-15{fill:#626d8e;}.cls-16{fill:#b6bfd6;}</style></defs><title>media-art</title><g id="Layer_3" data-name="Layer 3"><polyline class="cls-1" points="0 13 296 51 1200 69 1461 9"/><polyline class="cls-1" points="0 190 296 51 988 250 1197.04 87.9 1200 69 435 214 -4 248"/><polyline class="cls-1" points="435.08 213.34 991.81 248.86 1352.72 169 1461 18"/><line class="cls-1" x1="991.41" y1="248.03" x2="1464" y2="282"/><line class="cls-1" x1="1352" y1="172" x2="1464" y2="205"/></g><g id="Layer_1" data-name="Layer 1"><path class="cls-2" d="M556.46,25.65A9.55,9.55,0,1,1,566,16.1a9.67,9.67,0,0,1-9.55,9.55Zm0-16.65a7.1,7.1,0,1,0,7.1,7.1A7.22,7.22,0,0,0,556.46,9Z"/><path class="cls-2" d="M520.3,25.49H453.12a9.39,9.39,0,0,1,0-18.77H520.3A9.34,9.34,0,0,1,529.69,16s0,.07,0,.1A9.44,9.44,0,0,1,520.3,25.49ZM453,9.16A6.94,6.94,0,1,0,453,23h67.18a6.94,6.94,0,1,0,0-13.88H453Z"/><path class="cls-3" d="M1041.22,157.19a9.55,9.55,0,1,1,9.55-9.55h0A9.67,9.67,0,0,1,1041.22,157.19Zm0-16.65a7.1,7.1,0,1,0,7.1,7.1h0a7.22,7.22,0,0,0-7.1-7.1Z"/><path class="cls-3" d="M1005.06,157H937.88a9.39,9.39,0,1,1,0-18.77h67.18a9.46,9.46,0,0,1,0,18.77ZM937.88,140.7a6.94,6.94,0,1,0,0,13.88h67.18a6.94,6.94,0,0,0,0-13.88Z"/><path class="cls-4" d="M206.28,156.37a9.55,9.55,0,1,1,9.55-9.55A9.72,9.72,0,0,1,206.28,156.37Zm0-16.65a7.1,7.1,0,1,0,7.1,7.1,7.1,7.1,0,0,0-7.1-7.1Z"/><path class="cls-4" d="M309.62,156.21H242.44a9.39,9.39,0,0,1,0-18.77h67.18a9.39,9.39,0,1,1,0,18.77Zm-67.18-16.32a6.94,6.94,0,1,0,0,13.88h67.18a6.94,6.94,0,1,0,0-13.88H242.44Z"/><path class="cls-5" d="M1258.24,100.59a9.55,9.55,0,1,1,9.55-9.55h0A9.62,9.62,0,0,1,1258.24,100.59Zm0-16.57a7.1,7.1,0,1,0,7.1,7.1h0a7.11,7.11,0,0,0-7.1-7.1Z"/><path class="cls-5" d="M1361.5,100.42h-67.18a9.39,9.39,0,1,1,0-18.77h67.18a9.39,9.39,0,1,1,0,18.77ZM1294.32,84.1a6.94,6.94,0,1,0,0,13.88h67.18a6.94,6.94,0,1,0,0-13.88h-67.18Z"/><circle class="cls-5" cx="94.43" cy="50.29" r="12.43"/><circle class="cls-4" cx="271.83" cy="268.58" r="12.17"/><circle class="cls-2" cx="990.16" cy="245.03" r="24.16"/><circle class="cls-6" cx="990.16" cy="245.03" r="2.88"/><path class="cls-6" d="M983.78,259.24h-.13a2.9,2.9,0,0,1-2.57-1.5,3.64,3.64,0,0,1-.56-1.56,10.78,10.78,0,0,1,0-4,27.65,27.65,0,0,1,1.38-4.94,39.48,39.48,0,0,1,6-10.45,28.36,28.36,0,0,1,3.57-3.69,10.57,10.57,0,0,1,3.44-2,4.67,4.67,0,0,1,1.63-.25,2.9,2.9,0,0,1,2.57,1.5,3.64,3.64,0,0,1,.56,1.56,10.78,10.78,0,0,1,0,4,27.65,27.65,0,0,1-1.38,4.94,39.48,39.48,0,0,1-6,10.45,28.36,28.36,0,0,1-3.57,3.69,10.57,10.57,0,0,1-3.44,2A12.52,12.52,0,0,1,983.78,259.24Zm12.71-27a2.92,2.92,0,0,0-1.06.19A14.31,14.31,0,0,0,994,233a9,9,0,0,0-1.56,1.13,22.39,22.39,0,0,0-3.38,3.51,39.51,39.51,0,0,0-5.82,10.08,28.87,28.87,0,0,0-1.31,4.69,10.19,10.19,0,0,0-.19,1.94,13.19,13.19,0,0,0,.13,1.56,2.13,2.13,0,0,0,2.13,2,1.44,1.44,0,0,0,.88-.25,14.31,14.31,0,0,0,1.44-.63,9,9,0,0,0,1.56-1.13,25,25,0,0,0,3.38-3.44A39.51,39.51,0,0,0,997,242.4a28.87,28.87,0,0,0,1.31-4.69,10.19,10.19,0,0,0,.19-1.94,13.19,13.19,0,0,0-.13-1.56,2.29,2.29,0,0,0-1-1.69A1.88,1.88,0,0,0,996.48,232.2Z"/><path class="cls-6" d="M990.16,251.54a38.26,38.26,0,0,1-6-.44,26,26,0,0,1-4.94-1.25,11.56,11.56,0,0,1-3.51-2,5.13,5.13,0,0,1-1.06-1.25,3.19,3.19,0,0,1,0-3,4.06,4.06,0,0,1,1.06-1.25,10.24,10.24,0,0,1,3.51-2,27.27,27.27,0,0,1,4.94-1.25,39.1,39.1,0,0,1,12.08,0,26,26,0,0,1,4.94,1.25,11.56,11.56,0,0,1,3.51,2,5.13,5.13,0,0,1,1.06,1.25,3.19,3.19,0,0,1,0,3,4.06,4.06,0,0,1-1.06,1.25,10.24,10.24,0,0,1-3.51,2,27.27,27.27,0,0,1-4.94,1.25A50.41,50.41,0,0,1,990.16,251.54Zm0-11.64a36.46,36.46,0,0,0-5.82.44,23.46,23.46,0,0,0-4.69,1.19,15,15,0,0,0-1.75.81,8.94,8.94,0,0,0-1.25.88A2,2,0,0,0,976,246a2,2,0,0,0,.63.63,8.94,8.94,0,0,0,1.25.88,15,15,0,0,0,1.75.81,23.46,23.46,0,0,0,4.69,1.19,36.3,36.3,0,0,0,11.64,0,23.46,23.46,0,0,0,4.69-1.19,15,15,0,0,0,1.75-.81,8.94,8.94,0,0,0,1.25-.88,2,2,0,0,0,.63-2.82,2,2,0,0,0-.63-.63,8.94,8.94,0,0,0-1.25-.88,15,15,0,0,0-1.75-.81,23.46,23.46,0,0,0-4.69-1.19,45.55,45.55,0,0,0-5.82-.44h0Z"/><path class="cls-6" d="M996.48,259.24A4.21,4.21,0,0,1,995,259a10.57,10.57,0,0,1-3.44-2,24.9,24.9,0,0,1-3.57-3.69,37.85,37.85,0,0,1-6-10.45,27.65,27.65,0,0,1-1.38-4.94,10.78,10.78,0,0,1,0-4,6.66,6.66,0,0,1,.56-1.56,3,3,0,0,1,2.57-1.5,4.67,4.67,0,0,1,1.63.25,10.57,10.57,0,0,1,3.44,2,24.9,24.9,0,0,1,3.57,3.69,37.85,37.85,0,0,1,6,10.45,27.65,27.65,0,0,1,1.38,4.94,10.78,10.78,0,0,1,0,4,6.66,6.66,0,0,1-.56,1.56A2.65,2.65,0,0,1,998,258.8l-.38-.63.38.63a3.82,3.82,0,0,1-1.5.44h-.06Zm-12.71-27a1.77,1.77,0,0,0-.94.25,2.29,2.29,0,0,0-1,1.69,6.61,6.61,0,0,0-.13,1.56,10.18,10.18,0,0,0,.19,1.94,20.11,20.11,0,0,0,1.31,4.69A39.51,39.51,0,0,0,989,252.48a22,22,0,0,0,3.38,3.44A12.21,12.21,0,0,0,994,257a5.9,5.9,0,0,0,1.44.63,2,2,0,0,0,2.72-.8l0-.07a2,2,0,0,0,.25-.88,6.61,6.61,0,0,0,.13-1.56,10.18,10.18,0,0,0-.19-1.94,20.11,20.11,0,0,0-1.31-4.69,39.51,39.51,0,0,0-5.82-10.08,22,22,0,0,0-3.38-3.44,12.21,12.21,0,0,0-1.56-1.13,5.9,5.9,0,0,0-1.44-.63,2.92,2.92,0,0,0-1.06-.19h0Z"/><circle class="cls-3" cx="432.38" cy="214.06" r="28.38"/><path class="cls-6" d="M445.3,217.91s-6.81,4.38-11.26,4.15-4-3.14-4-3.14,16.35-4.44,11.91-15.82a8.84,8.84,0,0,0-7.64-4.21c-3.32-.18-7.47,1.54-10.13,7.29a25,25,0,0,0-2,7.41h0s-2.84.41-4.38-1-2.31-.18-2.31-.18-2.67,4.15,0,5.39,6.81,2.9,6.81,2.9h0c.36,1.78,1.48,4,4.74,6.76,4.86,4,14.16.18,14.16.18a34.58,34.58,0,0,0,3.85-2.07C448,223.36,449.63,215.83,445.3,217.91Zm-16.06-4c.18-7.7,5.21-10.67,7-8.89s1.13,5.39-2.19,7.41-4.8,1.48-4.8,1.48Z"/><circle class="cls-3" cx="1204.71" cy="73.45" r="25.71"/><polygon class="cls-6" points="1202.08 74.79 1208.38 74.79 1205.01 67.8 1202.08 74.79"/><path class="cls-6" d="M1205,56.93h0l-15.88,5.66,2.43,20.95L1205,91l13.6-7.54,2.63-20.95Zm6.85,25.86-2.18-5.06h-8.88l-2,5-3.72,0L1205,60.65l10.27,22.09-3.42,0h0Z"/><circle class="cls-7" cx="1354.1" cy="171.33" r="21.1"/><ellipse class="cls-8" cx="297.21" cy="50.91" rx="25.14" ry="25.06"/><path class="cls-6" d="M310.36,45.77c1.71-3.75-6-10.2-13.47-10-1-.65-2-1.88-4.24-1.39-2,.41-2.37,2.29-3.51,2.94s-2.94-.08-4.08,1.22c-1,1.06-.41,2.94-.9,4.08s-2.69,1.55-2.61,2.94,1,2.45.9,3.51c-.16,1.55-1.31,1.39-1.14,2.78s1.55,1.39,2.12,3.1c5.14,14.37,25.55,15.35,30.45,2.45-3.26,2.2-4.16,2.37-5.31,2.45,3.26-1.55,7-6.37,5.8-11-.65,1.31-1.8,3.92-3.26,4.41,1.63-2.37,3.1-7.26.41-10,2.12,7.1-4.33,13-5.39,13.39.9.33,2.86.41,5.31-1.39-2.2,2.86-6.37,4.33-9.47,4.57.57.9,2.86,2,4.9,2.2-2.78.41-6.69,1.39-13.22-4.9a8,8,0,0,0,2.53,4.49c-9.71-4.08-6.2-16.57,1-16.9C299.74,45.77,308.89,49,310.36,45.77Z"/><circle class="cls-8" cx="301.3" cy="40.95" r="1.22"/><g id="_924fcQ.tif" data-name="924fcQ.tif"><path class="cls-6" d="M1369.57,171.26v.14c-.07.1-.14.19-.2.29l-3.2,5.53-2.82,4.85h-6.14a1.58,1.58,0,0,1,.29-.64q2.78-4.83,5.58-9.66a.73.73,0,0,0,0-.84c-.87-1.48-1.72-3-2.59-4.46-.22-.38-.25-.38-.46,0l-7.34,12.72c-.55,1-1.09,1.92-1.64,2.88h-6.29c-.06-.13-.12-.26-.19-.38l-4.7-8.16c-.41-.71-.84-1.42-1.26-2.12v-.14c.07-.1.14-.19.2-.29l3.22-5.56,2.8-4.82H1351a1.26,1.26,0,0,1-.24.54q-2.83,4.91-5.66,9.82a.63.63,0,0,0,0,.72c.87,1.49,1.73,3,2.6,4.49.24.42.26.42.5,0l6.81-11.8c.72-1.25,1.43-2.51,2.15-3.77h6.29c.07.15.14.3.22.44l4.14,7.18C1368.37,169.23,1369,170.24,1369.57,171.26Z"/></g><g id="Monitor"><polygon class="cls-9" points="759.18 227.19 699.65 227.19 707.16 184.39 751.71 184.39 759.18 227.19"/><path class="cls-10" d="M760.41,228.22H698.47l7.83-44.91h46.29Zm-59.53-2H758l-7.11-40.81H708Z"/><path class="cls-9" d="M763.43,238.4h-68a7.67,7.67,0,1,1,0-15.34h68a7.67,7.67,0,1,1,0,15.34Z"/><path class="cls-10" d="M763.43,239.42h-68a8.69,8.69,0,0,1,0-17.39h68a8.69,8.69,0,0,1,0,17.39Zm-68-15.39a6.65,6.65,0,0,0,0,13.3h68a6.65,6.65,0,0,0,0-13.3Z"/><path class="cls-9" d="M832.11,195.89H626.71A10.74,10.74,0,0,1,616,185.2h0V63.32a10.74,10.74,0,0,1,10.69-10.69h205.4A10.74,10.74,0,0,1,842.8,63.32h0V185.26a10.67,10.67,0,0,1-10.69,10.64h0"/><path class="cls-10" d="M832.11,196.92H626.71A11.76,11.76,0,0,1,615,185.2V63.32a11.76,11.76,0,0,1,11.71-11.71h205.4a11.76,11.76,0,0,1,11.71,11.71V185.26a11.7,11.7,0,0,1-11.71,11.66M626.71,53.61A9.72,9.72,0,0,0,617,63.27V185.2a9.72,9.72,0,0,0,9.67,9.67h205.4a9.72,9.72,0,0,0,9.67-9.67V63.32a9.72,9.72,0,0,0-9.67-9.67l-205.4-.05"/><path class="cls-6" d="M818.46,182.34h-178a10.68,10.68,0,0,1-10.69-10.68h0V76.88a10.74,10.74,0,0,1,10.69-10.69h178a10.74,10.74,0,0,1,10.69,10.69h0V171.6a10.74,10.74,0,0,1-10.69,10.74h0"/><path class="cls-11" d="M818.46,67.21h-178a9.72,9.72,0,0,0-9.67,9.67V171.6a9.72,9.72,0,0,0,9.67,9.67h178a9.72,9.72,0,0,0,9.67-9.67V109.71l-21.79-6.44L630.75,169.2V77.08a9.72,9.72,0,0,1,9.67-9.67h178a9.72,9.72,0,0,1,9.67,9.67v-.2a9.72,9.72,0,0,0-9.67-9.67"/><path class="cls-12" d="M684.76,67.42H640.42a9.72,9.72,0,0,0-9.67,9.67V169.2l175.58-65.93L684.76,67.42"/><polyline class="cls-13" points="828.13 95.08 806.29 103.27 828.13 109.71 828.13 95.08"/><path class="cls-14" d="M818.46,67.42H684.76l121.57,35.85,21.79-8.18v-18a9.72,9.72,0,0,0-9.67-9.67"/><path class="cls-10" d="M818.46,183.36h-178a11.71,11.71,0,0,1-11.71-11.71h0V76.88a11.76,11.76,0,0,1,11.71-11.71h178a11.76,11.76,0,0,1,11.71,11.71V171.6A11.76,11.76,0,0,1,818.46,183.36Zm-178-116.15a9.72,9.72,0,0,0-9.67,9.67V171.6a9.72,9.72,0,0,0,9.67,9.67h178a9.72,9.72,0,0,0,9.67-9.67V76.88a9.72,9.72,0,0,0-9.67-9.67Z"/><path class="cls-4" d="M721.08,120.86v6.7a2,2,0,0,0,4.09,0v-6.7a2,2,0,0,0-4.09,0Z"/><path class="cls-4" d="M727.27,119.79v8.85a2,2,0,0,0,4.09,0v-8.85a2,2,0,0,0-4.09,0Z"/><path class="cls-4" d="M758.26,108v32.43a2,2,0,1,0,4.09,0V108a2,2,0,1,0-4.09,0Z"/><path class="cls-4" d="M752.07,114.47v19.64a2,2,0,1,0,4.09,0V114.47a2,2,0,1,0-4.09,0Z"/><path class="cls-4" d="M745.88,118.31v11.92a2,2,0,1,0,4.09,0V118.31a2,2,0,1,0-4.09,0Z"/><path class="cls-4" d="M739.69,113.24v22a2,2,0,0,0,4.09,0v-22a2,2,0,0,0-4.09,0Z"/><path class="cls-4" d="M733.45,120.86v6.7a2,2,0,0,0,4.09,0v-6.7a2,2,0,0,0-4.09,0Z"/><path class="cls-4" d="M764.45,105.21v38.05a2,2,0,1,0,4.09,0V105.21a2,2,0,1,0-4.09,0Z"/><path class="cls-4" d="M770.69,112.27v23.94a2,2,0,0,0,4.09,0V112.27a2,2,0,0,0-4.09,0Z"/><path class="cls-4" d="M776.88,120.86v6.7a2,2,0,1,0,4.09,0v-6.7a2,2,0,1,0-4.09,0Z"/><path class="cls-4" d="M783.07,119.79v8.85a2,2,0,0,0,4.09,0v-8.85a2,2,0,0,0-4.09,0Z"/><path class="cls-4" d="M809.92,106a2,2,0,0,0-2,2V140.4a2,2,0,0,0,4.09,0V108A2,2,0,0,0,809.92,106Z"/><path class="cls-4" d="M816.11,112.42a2,2,0,0,0-2,2v19.64a2,2,0,0,0,4.09,0V114.47A2,2,0,0,0,816.11,112.42Z"/><path class="cls-4" d="M822.29,116.26a2,2,0,0,0-2,2v11.92a2,2,0,0,0,4.09,0V118.31A2,2,0,0,0,822.29,116.26Z"/><path class="cls-4" d="M803.68,103.22a2,2,0,0,0-2,2v38.05a2,2,0,0,0,4.09,0h0V105.26A2,2,0,0,0,803.68,103.22Z"/><path class="cls-4" d="M797.49,110.22a2,2,0,0,0-2,2v23.94a2,2,0,1,0,4.09,0V112.27A2,2,0,0,0,797.49,110.22Z"/><path class="cls-4" d="M791.3,118.82a2,2,0,0,0-2,2v6.7a2,2,0,1,0,4.09,0v-6.75A2,2,0,0,0,791.3,118.82Z"/><path class="cls-4" d="M698.32,106a2,2,0,0,0-2,2V140.4a2,2,0,0,0,4.09,0V108A2,2,0,0,0,698.32,106Z"/><path class="cls-4" d="M704.51,112.42a2,2,0,0,0-2,2v19.64a2,2,0,1,0,4.09,0V114.47A2,2,0,0,0,704.51,112.42Z"/><path class="cls-4" d="M710.69,116.26a2,2,0,0,0-2,2v11.92a2,2,0,1,0,4.09,0V118.31A2,2,0,0,0,710.69,116.26Z"/><path class="cls-4" d="M716.88,111.2a2,2,0,0,0-2,2v22a2,2,0,1,0,4.09,0v-22A2,2,0,0,0,716.88,111.2Z"/><path class="cls-4" d="M692.13,103.22a2,2,0,0,0-2,2v38.05a2,2,0,0,0,4.09,0V105.26a2,2,0,0,0-2-2Z"/><path class="cls-4" d="M685.89,110.22a2,2,0,0,0-2,2v23.94a2,2,0,1,0,4.09,0V112.27A2,2,0,0,0,685.89,110.22Z"/><path class="cls-4" d="M679.7,118.82a2,2,0,0,0-2,2v6.7a2,2,0,0,0,4.09,0v-6.75A2,2,0,0,0,679.7,118.82Z"/><path class="cls-4" d="M673.51,117.74a2,2,0,0,0-2,2v8.85a2,2,0,1,0,4.09,0v-8.85A2,2,0,0,0,673.51,117.74Z"/><path class="cls-4" d="M646.66,108v32.43a2,2,0,0,0,4.09,0V108a2,2,0,0,0-4.09,0Z"/><path class="cls-4" d="M640.47,114.47v19.64a2,2,0,1,0,4.09,0V114.47a2,2,0,1,0-4.09,0Z"/><path class="cls-4" d="M634.28,118.31v11.92a2,2,0,0,0,4.09,0V118.31a2,2,0,0,0-4.09,0Z"/><path class="cls-4" d="M652.85,105.21v38.05a2,2,0,1,0,4.09,0V105.21a2,2,0,1,0-4.09,0Z"/><path class="cls-4" d="M659.09,112.27v23.94a2,2,0,1,0,4.09,0V112.27a2,2,0,1,0-4.09,0Z"/><path class="cls-4" d="M665.28,120.86v6.7a2,2,0,0,0,4.09,0v-6.7a2,2,0,0,0-4.09,0Z"/><path class="cls-15" d="M756.67,121.63a27.06,27.06,0,0,1-24,26.85v14h12a3,3,0,0,1,.26,6H714.58a3,3,0,1,1-.49-6H726.6v-14a27.06,27.06,0,0,1-24-26.85v-1.28a3,3,0,1,1,6-.49q0,.12,0,.24v1.53a21,21,0,1,0,42,0v-1.28a3,3,0,1,1,6-.49q0,.12,0,.24v.26l.1,1.28h0Z"/><path class="cls-16" d="M744.65,121.63a15,15,0,0,1-30,.56V97.59a15,15,0,0,1,30-.56Z"/><path class="cls-15" d="M729.67,138.2a16.57,16.57,0,0,1-16.57-16.56h0v-24A16.58,16.58,0,0,1,746.24,97v24.6A16.68,16.68,0,0,1,729.67,138.2Zm0-54.11a13.49,13.49,0,0,0-13.5,13.47v24.07a13.5,13.5,0,0,0,27,0v-24a13.55,13.55,0,0,0-13.5-13.5h0Z"/><path class="cls-15" d="M714.94,115.85a1.53,1.53,0,0,1-1.53-1.53,1.39,1.39,0,0,1,.46-1.07l8.9-8.9a1.53,1.53,0,1,1,2.2,2.1.05.05,0,0,1-.05.05l-8.9,8.9A1.39,1.39,0,0,1,714.94,115.85Z"/><path class="cls-15" d="M715.25,99.89a1.53,1.53,0,0,1-1.53-1.53,1.39,1.39,0,0,1,.46-1.07L725.42,86a1.53,1.53,0,0,1,2.15,2.15L716.32,99.43A1.47,1.47,0,0,1,715.25,99.89Z"/><path class="cls-15" d="M716.47,130a1.53,1.53,0,0,1-1.53-1.53,1.39,1.39,0,0,1,.46-1.07l20.36-20.36a1.53,1.53,0,0,1,2.15,2.15l-20.36,20.36A1.47,1.47,0,0,1,716.47,130Z"/><path class="cls-15" d="M725.22,137a1.53,1.53,0,0,1-1.53-1.53,1.39,1.39,0,0,1,.46-1.07l11.76-11.76a1.53,1.53,0,0,1,2.15,2.15l-11.76,11.76A1.47,1.47,0,0,1,725.22,137Z"/><path class="cls-6" d="M738.36,101.48c0-10.08-.77-10.79-10.79-10.79,10.08,0,10.79-.77,10.79-10.79,0,10.08.77,10.79,10.79,10.79C739.13,90.64,738.36,91.4,738.36,101.48Z"/></g></g></svg>