<svg id="Layer_2" data-name="Layer 2" xmlns="http://www.w3.org/2000/svg" viewBox="0 0 440.97 291.3"><defs><style>.cls-1{fill:#626d8e;}.cls-2{fill:#f46663;}.cls-3{fill:#9faccc;}</style></defs><title>Logo-This-Dot-Stacked</title><path class="cls-1" d="M42,297H3.5V181.86H42c37.35,0,62.53,21.06,62.53,57.59C104.54,276.15,79.36,297,42,297Zm.17-95.12h-15v75h15c21.55,0,38.34-12.51,38.34-37.36C80.51,214.44,63.73,201.93,42.17,201.93Z" transform="translate(-3.5 -5.89)"/><path class="cls-1" d="M390,201.93H359.23V181.86h85.24v20.07H413.7V297H390Z" transform="translate(-3.5 -5.89)"/><path class="cls-1" d="M34.4,27.76H3.87V7.84H88.44V27.76H57.91v94.37H34.4Z" transform="translate(-3.5 -5.89)"/><path class="cls-1" d="M140.65,7.84h23.51V58.79H205V7.84h23.51V122.13H205V78.7H164.16v43.43H140.65Z" transform="translate(-3.5 -5.89)"/><path class="cls-1" d="M313.18,7.84V122.13H289.67V7.84Z" transform="translate(-3.5 -5.89)"/><path class="cls-1" d="M368.67,91.76H392.5c.81,8.16,6.53,12.08,14.53,12.08s13.23-4.73,13.23-12.08-4.57-11.59-20.08-18c-22.78-9.39-30.86-20.16-30.86-36.9,0-18.77,13.71-31,35.75-31,20.41,0,35.76,12.08,35.76,32H417c0-7-4.57-11.76-12.24-11.76-7.84,0-11.59,4.74-11.59,10.45,0,6.86,4.73,10.86,20.73,17.72,22.86,9.8,30.2,20.08,30.2,36.09,0,20.16-14.36,33.72-37.39,33.72S370,110.05,368.67,91.76Z" transform="translate(-3.5 -5.89)"/><circle class="cls-2" cx="226.86" cy="233.7" r="35.83"/><polygon class="cls-3" points="282.16 176.11 252.67 176.11 296.9 233.7 252.67 291.3 282.16 291.3 326.39 233.7 282.16 176.11"/><polygon class="cls-3" points="171.56 176.11 201.04 176.11 156.81 233.7 201.04 291.3 171.56 291.3 127.32 233.7 171.56 176.11"/></svg>