<?xml version="1.0" encoding="utf-8"?>
<!-- Generator: Adobe Illustrator 20.1.0, SVG Export Plug-In . SVG Version: 6.00 Build 0)  -->
<svg version="1.1" id="Layer_1" xmlns="http://www.w3.org/2000/svg" xmlns:xlink="http://www.w3.org/1999/xlink" x="0px" y="0px"
	 viewBox="0 0 155.4 116.5" style="enable-background:new 0 0 155.4 116.5;" xml:space="preserve">
<style type="text/css">
	.st0{fill:#515A77;}
	.st1{fill:#F46663;}
</style>
<g id="Stacked_Logo_3_">
	<g>
		<g>
			<path class="st0" d="M12.4,9.8H2V3h28.8v6.8H20.4v32.2h-8V9.8z M13.2,41.1h6.3V9H30V3.8H2.8V9h10.4V41.1z"/>
		</g>
		<g>
			<path class="st0" d="M48.6,3h8v17.4h13.9V3h8v38.9h-8V27.1H56.6v14.8h-8V3z M49.4,41.1h6.3V26.3h15.6v14.8h6.3V3.8h-6.3v17.4
				H55.8V3.8h-6.3V41.1z"/>
		</g>
		<g>
			<path class="st0" d="M107.4,3v38.9h-8V3H107.4z M100.2,3.8v37.3h6.3V3.8H100.2z"/>
		</g>
		<g>
			<path class="st0" d="M126.3,31.6h8.1c0.3,2.8,2.2,4.1,5,4.1s4.5-1.6,4.5-4.1c0-2.5-1.6-3.9-6.8-6.1c-7.8-3.2-10.5-6.9-10.5-12.6
				c0-6.4,4.7-10.6,12.2-10.6c7,0,12.2,4.1,12.2,10.9h-8.1c0-2.4-1.6-4-4.2-4c-2.7,0-3.9,1.6-3.9,3.6c0,2.3,1.6,3.7,7.1,6
				c7.8,3.3,10.3,6.8,10.3,12.3c0,6.9-4.9,11.5-12.7,11.5C131.4,42.6,126.7,37.8,126.3,31.6z M151.2,31.1c0-5.1-2.4-8.3-9.8-11.5
				c-5.8-2.5-7.6-4-7.6-6.8c0-2.4,1.6-4.4,4.8-4.4c2.8,0,4.6,1.6,5,4h6.5c-0.4-5.8-5.1-9.2-11.3-9.2c-7,0-11.3,3.8-11.3,9.7
				c0,5.3,2.6,8.8,10,11.8c5.7,2.3,7.4,4,7.4,6.9c0,3-2.1,5-5.3,5c-2.9,0-5.1-1.4-5.7-4.1h-6.5c0.9,5.1,5.1,9.3,12,9.3
				C146.6,41.8,151.2,37.5,151.2,31.1z"/>
		</g>
	</g>
	<g>
		<g>
			<path class="st0" d="M16.5,112.6H2V69.3h14.5C30.6,69.3,40,77.2,40,91C40,104.8,30.6,112.6,16.5,112.6z M16.5,70.2H2.9v41.5h13.6
				c13.5,0,22.6-7.6,22.6-20.8C39.1,77.8,30,70.2,16.5,70.2z M16.6,106H10V75.9h6.6c8.6,0,15.4,5,15.4,15.1
				C31.9,101,25.2,106,16.6,106z M16.6,76.8h-5.6v28.2h5.6c8.1,0,14.4-4.7,14.4-14.1C31,81.5,24.7,76.8,16.6,76.8z"/>
		</g>
		<g>
			<path class="st0" d="M131.5,76.8h-11.6v-7.6H152v7.6h-11.6v35.8h-8.9V76.8z M132.4,111.7h7.1V75.9h11.6v-5.7h-30.2v5.7h11.6
				V111.7z"/>
		</g>
		<g>
			<path class="st0" d="M58.6,84.7c2.7-9.2,11.1-15.2,21.4-15.2c10.3,0,18.8,6.1,21.4,15.2h1C99.7,75,90.8,68.5,80,68.5
				c-10.8,0-19.7,6.4-22.4,16.2H58.6z"/>
		</g>
		<g>
			<path class="st0" d="M80,106.6c5.6,0,10.5-2.9,13.1-7.6H92c-2.5,4.1-6.9,6.7-12,6.7c-5.1,0-9.5-2.5-12-6.7h-1.1
				C69.5,103.7,74.4,106.6,80,106.6z"/>
		</g>
		<g>
			<path class="st0" d="M80,75.3c-6.3,0-11.7,3.6-14,9.4h1c2.2-5.2,7.2-8.5,13-8.5c5.8,0,10.7,3.3,13,8.5h1
				C91.7,78.9,86.3,75.3,80,75.3z"/>
		</g>
		<g>
			<path class="st0" d="M100.8,99c-3.2,8.1-11.2,13.4-20.8,13.4c-9.6,0-17.6-5.3-20.8-13.4h-1c3.2,8.7,11.7,14.4,21.8,14.4
				c10.1,0,18.6-5.7,21.8-14.4H100.8z"/>
		</g>
		<g>
			<path class="st1" d="M61.5,96.2c-2.6,0-4.7-2.1-4.7-4.7c0-2.6,2.1-4.7,4.7-4.7c2.6,0,4.7,2.1,4.7,4.7
				C66.2,94,64.1,96.2,61.5,96.2z M61.5,87.6c-2.1,0-3.9,1.7-3.9,3.9c0,2.1,1.7,3.9,3.9,3.9c2.1,0,3.9-1.7,3.9-3.9
				C65.3,89.3,63.6,87.6,61.5,87.6z"/>
		</g>
		<g>
			<path class="st1" d="M98.5,96.2c-2.6,0-4.7-2.1-4.7-4.7c0-2.6,2.1-4.7,4.7-4.7s4.7,2.1,4.7,4.7C103.2,94,101.1,96.2,98.5,96.2z
				 M98.5,87.6c-2.1,0-3.9,1.7-3.9,3.9c0,2.1,1.7,3.9,3.9,3.9s3.9-1.7,3.9-3.9C102.4,89.3,100.6,87.6,98.5,87.6z"/>
		</g>
	</g>
</g>
</svg>
