<?xml version="1.0" encoding="utf-8"?>
<!-- Generator: Adobe Illustrator 20.1.0, SVG Export Plug-In . SVG Version: 6.00 Build 0)  -->
<svg version="1.1" id="Layer_1" xmlns="http://www.w3.org/2000/svg" xmlns:xlink="http://www.w3.org/1999/xlink" x="0px" y="0px"
	 viewBox="0 0 500 500" style="enable-background:new 0 0 500 500;" xml:space="preserve">
<style type="text/css">
	.st0{fill:#515A77;}
	.st1{fill:#F46663;}
</style>
<g id="Stacked_Logo">
	<g>
		<g>
			<path class="st0" d="M39.6,29.6H5.7V7.5h94v22.1H65.8v104.9H39.6V29.6z M42.4,131.8h20.7V26.9H97V10.2H8.4v16.7h33.9V131.8z"/>
		</g>
		<g>
			<path class="st0" d="M157.7,7.5h26.1v56.6h45.4V7.5h26.1v127h-26.1V86.2h-45.4v48.3h-26.1V7.5z M160.5,131.8h20.7V83.5H232v48.3
				h20.7V10.2H232v56.6h-50.8V10.2h-20.7V131.8z"/>
		</g>
		<g>
			<path class="st0" d="M349.5,7.5v127h-26.1V7.5H349.5z M326.1,10.2v121.6h20.7V10.2H326.1z"/>
		</g>
		<g>
			<path class="st0" d="M411.2,100.8h26.5c0.9,9.1,7.3,13.4,16.2,13.4c8.9,0,14.7-5.3,14.7-13.4c0-8.2-5.1-12.9-22.3-20
				c-25.3-10.4-34.3-22.4-34.3-41c0-20.9,15.2-34.5,39.7-34.5c22.7,0,39.7,13.4,39.7,35.6h-26.5c0-7.8-5.1-13.1-13.6-13.1
				c-8.7,0-12.9,5.3-12.9,11.6c0,7.6,5.3,12.1,23,19.7C486.8,70,495,81.4,495,99.2c0,22.4-16,37.5-41.6,37.5
				C427.9,136.7,412.6,121.1,411.2,100.8z M492.3,99.2c0-16.5-7.8-27.2-31.9-37.6c-19.1-8.2-24.7-13.2-24.7-22.2
				c0-7.8,5.1-14.3,15.6-14.3c9.3,0,15.1,5.2,16.2,13.1h21.1C487.1,19.2,471.8,8,451.6,8c-22.9,0-37,12.5-37,31.8
				c0,17.3,8.5,28.6,32.6,38.5c18.6,7.6,24,13,24,22.5c0,9.8-6.9,16.2-17.4,16.2c-9.4,0-16.5-4.5-18.5-13.4h-21.1
				c3.1,16.8,16.7,30.5,39.3,30.5C477.4,134,492.3,120,492.3,99.2z"/>
		</g>
	</g>
	<g>
		<g>
			<path class="st0" d="M53,365.1H5.7V223.7H53c45.9,0,76.8,25.9,76.8,70.7C129.8,339.5,98.9,365.1,53,365.1z M53,226.7H8.7v135.4
				H53c44.1,0,73.8-24.6,73.8-67.7C126.8,251.6,97,226.7,53,226.7z M53.2,343.5H31.8v-98.2h21.4c28.1,0,50.1,16.4,50.1,49.3
				C103.3,327.1,81.3,343.5,53.2,343.5z M53.2,248.3H34.8v92.1h18.4c26.5,0,47.1-15.4,47.1-45.9C100.3,263.7,79.7,248.3,53.2,248.3z
				"/>
		</g>
		<g>
			<path class="st0" d="M428.1,248.3h-37.8v-24.7H495v24.7h-37.8v116.8h-29.1V248.3z M431.2,362.1h23V245.3H492v-18.6h-98.6v18.6
				h37.8V362.1z"/>
		</g>
		<g>
			<path class="st0" d="M190.2,274c8.7-29.9,36.2-49.7,69.9-49.7c33.6,0,61.2,19.8,69.9,49.7h3.1c-8.8-31.7-37.7-52.7-73-52.7
				c-35.3,0-64.2,21-73,52.7H190.2z"/>
		</g>
		<g>
			<path class="st0" d="M260.1,345.5c18.3,0,34.3-9.4,42.8-24.8h-3.5c-8.2,13.5-22.6,21.8-39.2,21.8c-16.6,0-31.1-8.3-39.2-21.8
				h-3.5C225.8,336.1,241.7,345.5,260.1,345.5z"/>
		</g>
		<g>
			<path class="st0" d="M260.1,243.3c-20.6,0-38.2,11.9-45.6,30.7h3.3c7.2-17,23.3-27.7,42.3-27.7c18.9,0,35.1,10.7,42.2,27.7h3.3
				C298.2,255.1,280.7,243.3,260.1,243.3z"/>
		</g>
		<g>
			<path class="st0" d="M327.9,320.7c-10.4,26.6-36.5,43.8-67.8,43.8c-31.4,0-57.4-17.2-67.8-43.8H189c10.6,28.4,38,46.8,71.1,46.8
				c33.1,0,60.5-18.5,71.1-46.8H327.9z"/>
		</g>
		<g>
			<path class="st1" d="M199.7,311.4c-8.5,0-15.4-6.9-15.4-15.4s6.9-15.4,15.4-15.4s15.4,6.9,15.4,15.4S208.2,311.4,199.7,311.4z
				 M199.7,283.3c-7,0-12.6,5.7-12.6,12.6s5.7,12.6,12.6,12.6s12.6-5.7,12.6-12.6S206.7,283.3,199.7,283.3z"/>
		</g>
		<g>
			<path class="st1" d="M320.4,311.4c-8.5,0-15.4-6.9-15.4-15.4s6.9-15.4,15.4-15.4c8.5,0,15.4,6.9,15.4,15.4
				S328.9,311.4,320.4,311.4z M320.4,283.3c-7,0-12.6,5.7-12.6,12.6s5.7,12.6,12.6,12.6c7,0,12.6-5.7,12.6-12.6
				S327.4,283.3,320.4,283.3z"/>
		</g>
	</g>
	<g>
		<g>
			<path class="st1" d="M41.8,483.3h-6l-18-24.1v36.5h-12v-58.5h9l24.1,32.2l24.1-32.2h9v58.5h-12v-36.5L41.8,483.3z"/>
		</g>
		<g>
			<path class="st1" d="M139.3,437.2h35.9v10.2h-23.9v15.7h20v10.2h-20v12.2H176v10.2h-36.7V437.2z"/>
		</g>
		<g>
			<path class="st1" d="M258.5,495.6h-19.5v-58.5h19.5c19,0,31.7,10.7,31.7,29.2C290.2,485,277.4,495.6,258.5,495.6z M258.6,447.4
				H251v38.1h7.6c10.9,0,19.5-6.3,19.5-19C278,453.7,269.5,447.4,258.6,447.4z"/>
		</g>
		<g>
			<path class="st1" d="M365.6,437.2v58.5h-12v-58.5H365.6z"/>
		</g>
		<g>
			<path class="st1" d="M479.1,487h-25.2l-3.3,8.7h-12.5l23.6-58.5h9.7l23.6,58.5h-12.5L479.1,487z M457.8,476.9h17.5l-8.8-22.7
				L457.8,476.9z"/>
		</g>
	</g>
</g>
</svg>
