<svg id="Layer_1" data-name="Layer 1" xmlns="http://www.w3.org/2000/svg" viewBox="0 0 40.98 42.31"><defs><style>.cls-1{fill:#fff;}</style></defs><title>Artboard 1 copy</title><path class="cls-1" d="M20.55.71A19.45,19.45,0,1,0,40,20.16,19.45,19.45,0,0,0,20.55.71Zm7.73,15.48c0,.17,0,.34,0,.52a11.35,11.35,0,0,1-17.47,9.56,8.42,8.42,0,0,0,1,.05,8,8,0,0,0,5-1.71A4,4,0,0,1,13,21.84a4.1,4.1,0,0,0,.75.07,4,4,0,0,0,1.05-.14,4,4,0,0,1-3.2-3.91v0a4,4,0,0,0,1.81.5A4,4,0,0,1,12.18,13a11.32,11.32,0,0,0,8.22,4.17,4,4,0,0,1,6.8-3.64,8,8,0,0,0,2.53-1A4,4,0,0,1,28,14.75a8,8,0,0,0,2.29-.63A8.09,8.09,0,0,1,28.28,16.19Z"/></svg>