<svg id="Layer_1" data-name="Layer 1" xmlns="http://www.w3.org/2000/svg" viewBox="0 0 264 65"><defs><style>.cls-1{fill:#626c8e;}.cls-2{fill:#f5655f;}</style></defs><title>contributor-days</title><path class="cls-1" d="M0,12.25A13.06,13.06,0,0,1,.8,7.89,12.19,12.19,0,0,1,3.07,4,11.43,11.43,0,0,1,6.74,1.14,11,11,0,0,1,11.65.08a10.27,10.27,0,0,1,5.6,1.48A9.19,9.19,0,0,1,20.7,5.41L18.26,7a7.09,7.09,0,0,0-1.32-2,6.81,6.81,0,0,0-1.66-1.26,7.27,7.27,0,0,0-1.87-.69,9,9,0,0,0-1.89-.21,7.46,7.46,0,0,0-3.6.85,8.31,8.31,0,0,0-2.63,2.2A9.51,9.51,0,0,0,3.69,9a11.37,11.37,0,0,0-.54,3.44,10.55,10.55,0,0,0,.63,3.66,10.09,10.09,0,0,0,1.77,3.08,8.62,8.62,0,0,0,2.68,2.13,7.29,7.29,0,0,0,3.37.79,8.53,8.53,0,0,0,2-.24,7.23,7.23,0,0,0,1.95-.77,8.29,8.29,0,0,0,1.74-1.34,6.56,6.56,0,0,0,1.29-2l2.58,1.38a7.6,7.6,0,0,1-1.63,2.43,10.31,10.31,0,0,1-2.32,1.8,12.07,12.07,0,0,1-2.81,1.1,11.64,11.64,0,0,1-2.89.38,9.76,9.76,0,0,1-4.62-1.12,12.27,12.27,0,0,1-3.63-2.87,13.13,13.13,0,0,1-2.37-4A13,13,0,0,1,0,12.25Z"/><path class="cls-1" d="M36.75,24.8a10.41,10.41,0,0,1-4.7-1A11.58,11.58,0,0,1,28.43,21a12.65,12.65,0,0,1-2.3-4,13.06,13.06,0,0,1-.83-4.57,12.69,12.69,0,0,1,.83-4.68,12.9,12.9,0,0,1,2.44-4A11.69,11.69,0,0,1,32.24,1a10.47,10.47,0,0,1,4.59-1A10,10,0,0,1,41.5,1.09a12,12,0,0,1,3.61,2.84,13.15,13.15,0,0,1,3.16,8.49,12.69,12.69,0,0,1-.88,4.68A12.85,12.85,0,0,1,45,21a11.58,11.58,0,0,1-3.64,2.72A10.47,10.47,0,0,1,36.75,24.8ZM28.4,12.42A10.88,10.88,0,0,0,29,16a9.93,9.93,0,0,0,1.7,3.08,8.25,8.25,0,0,0,2.65,2.13,7.43,7.43,0,0,0,3.44.79,7.21,7.21,0,0,0,3.51-.85A8.55,8.55,0,0,0,42.93,19a9.83,9.83,0,0,0,1.65-3.08,10.94,10.94,0,0,0,0-7A9.53,9.53,0,0,0,42.82,5.8a8.61,8.61,0,0,0-2.65-2.12,7.76,7.76,0,0,0-6.88,0,8.46,8.46,0,0,0-2.65,2.15A9.87,9.87,0,0,0,29,8.89,10.83,10.83,0,0,0,28.4,12.42Z"/><path class="cls-1" d="M57.72,6V24.62H54.63V.21H57l15.13,19V.25h3.09V24.62H72.65Z"/><path class="cls-1" d="M100.77,3H92.35V24.62H89.25V3H80.83V.21h19.94Z"/><path class="cls-1" d="M106.34,24.62V.21h10.45a6.63,6.63,0,0,1,3,.69,7.48,7.48,0,0,1,2.34,1.79,8.54,8.54,0,0,1,1.53,2.51A7.67,7.67,0,0,1,124.19,8a8.38,8.38,0,0,1-.36,2.45,7.56,7.56,0,0,1-1,2.15,6.88,6.88,0,0,1-1.62,1.65,6.3,6.3,0,0,1-2.12,1L125,24.64h-3.51l-5.57-8.77h-6.46v8.75Zm3.09-11.52h7.39a3.64,3.64,0,0,0,1.74-.41,4.13,4.13,0,0,0,1.32-1.11,5.42,5.42,0,0,0,.86-1.62A6.05,6.05,0,0,0,121.05,8a5.23,5.23,0,0,0-.36-1.95,5.71,5.71,0,0,0-1-1.62,4.36,4.36,0,0,0-1.38-1.1,3.83,3.83,0,0,0-1.7-.4h-7.22Z"/><path class="cls-1" d="M131,24.62V.21h3.09V24.62Z"/><path class="cls-1" d="M160.73,18.33a5.82,5.82,0,0,1-.57,2.58,6,6,0,0,1-1.55,2,7.09,7.09,0,0,1-2.27,1.27,8.39,8.39,0,0,1-2.75.45H142V.21h12.14a4.81,4.81,0,0,1,2.3.55,5.76,5.76,0,0,1,1.72,1.43,6.55,6.55,0,0,1,1.12,2,6.72,6.72,0,0,1,.4,2.25,6.53,6.53,0,0,1-.91,3.37,5.58,5.58,0,0,1-2.59,2.3,6.14,6.14,0,0,1,3.36,2.29A6.48,6.48,0,0,1,160.73,18.33ZM145.09,2.9V11h7.77a3.47,3.47,0,0,0,1.51-.33,3.76,3.76,0,0,0,1.18-.87A4.27,4.27,0,0,0,156.64,7a4.71,4.71,0,0,0-.28-1.62,4.28,4.28,0,0,0-.74-1.31,3.25,3.25,0,0,0-1.13-.86,3.36,3.36,0,0,0-1.43-.31ZM157.6,17.78a4.5,4.5,0,0,0-.29-1.6,4.58,4.58,0,0,0-.79-1.38,3.75,3.75,0,0,0-1.18-.93,3.35,3.35,0,0,0-1.51-.34h-8.74v8.39h8.49a3.63,3.63,0,0,0,1.58-.34,4.38,4.38,0,0,0,1.27-.91,4.19,4.19,0,0,0,1.17-2.91Z"/><path class="cls-1" d="M177.16,22a6.92,6.92,0,0,0,3.54-.83A6.54,6.54,0,0,0,183,19a8.85,8.85,0,0,0,1.18-3,17.42,17.42,0,0,0,.34-3.44V.2h3.09V12.58a18.87,18.87,0,0,1-.57,4.69,11.2,11.2,0,0,1-1.8,3.91A8.73,8.73,0,0,1,182,23.84a12.23,12.23,0,0,1-9.71-.06A8.94,8.94,0,0,1,169.08,21a11.08,11.08,0,0,1-1.75-3.92,19.4,19.4,0,0,1-.54-4.55V.19h3.05V12.56a16.91,16.91,0,0,0,.36,3.53,8.89,8.89,0,0,0,1.2,3,6.47,6.47,0,0,0,2.23,2.11A6.88,6.88,0,0,0,177.16,22Z"/><path class="cls-1" d="M212.75,3h-8.42V24.62h-3.09V3h-8.42V.21h19.94Z"/><path class="cls-1" d="M227.49,24.8a10.41,10.41,0,0,1-4.71-1A11.58,11.58,0,0,1,219.17,21a12.64,12.64,0,0,1-2.34-4,13.06,13.06,0,0,1-.83-4.57,12.69,12.69,0,0,1,.87-4.68,12.9,12.9,0,0,1,2.43-4A11.69,11.69,0,0,1,223,1a10.47,10.47,0,0,1,4.59-1,10,10,0,0,1,4.68,1.09A12,12,0,0,1,235.85,4,13.15,13.15,0,0,1,239,12.45a12.69,12.69,0,0,1-.88,4.68,12.85,12.85,0,0,1-2.41,3.94,11.58,11.58,0,0,1-3.64,2.72A10.47,10.47,0,0,1,227.49,24.8Zm-8.35-12.38a10.88,10.88,0,0,0,.61,3.6,9.93,9.93,0,0,0,1.66,3.07,8.25,8.25,0,0,0,2.65,2.13,7.43,7.43,0,0,0,3.44.79,7.21,7.21,0,0,0,3.51-.85,8.55,8.55,0,0,0,2.63-2.2,9.83,9.83,0,0,0,1.65-3.08,10.94,10.94,0,0,0,0-7,9.53,9.53,0,0,0-1.72-3.06,8.61,8.61,0,0,0-2.65-2.12,7.76,7.76,0,0,0-6.88,0,8.46,8.46,0,0,0-2.6,2.16,9.87,9.87,0,0,0-1.67,3.06A10.83,10.83,0,0,0,219.14,12.42Z"/><path class="cls-1" d="M245.37,24.62V.21h10.42a6.63,6.63,0,0,1,3,.69,7.48,7.48,0,0,1,2.34,1.79,8.54,8.54,0,0,1,1.56,2.5A7.67,7.67,0,0,1,263.22,8a8.38,8.38,0,0,1-.36,2.45,7.56,7.56,0,0,1-1,2.15,6.88,6.88,0,0,1-1.62,1.65,6.3,6.3,0,0,1-2.12,1L264,24.63h-3.51l-5.57-8.77h-6.46v8.76Zm3.09-11.52h7.39a3.64,3.64,0,0,0,1.74-.41,4.13,4.13,0,0,0,1.32-1.11,5.42,5.42,0,0,0,.86-1.62A6.05,6.05,0,0,0,260.09,8a5.23,5.23,0,0,0-.36-1.95,5.71,5.71,0,0,0-1-1.62,4.36,4.36,0,0,0-1.38-1.1,3.83,3.83,0,0,0-1.7-.4h-7.22Z"/><path class="cls-1" d="M1.89,62.44V38H10a12.48,12.48,0,0,1,5.07,1,10.21,10.21,0,0,1,3.62,2.59,10.93,10.93,0,0,1,2.17,3.87,15.17,15.17,0,0,1,.69,4.73,14.84,14.84,0,0,1-.8,5,10.84,10.84,0,0,1-2.32,3.85,10.36,10.36,0,0,1-3.66,2.48,12.58,12.58,0,0,1-4.81.87ZM19.84,50.2A13.26,13.26,0,0,0,19.15,46a9.57,9.57,0,0,0-1.9-3.35,8.7,8.7,0,0,0-3.08-2.2A10.44,10.44,0,0,0,10,39.61H3.64V60.84H10A10.47,10.47,0,0,0,14.25,60a8.47,8.47,0,0,0,3.07-2.26,9.85,9.85,0,0,0,1.88-3.38A13.47,13.47,0,0,0,19.84,50.2Z"/><path class="cls-1" d="M35.27,38h1.51L47.1,62.44H45.24l-3.44-8H30.19l-3.44,8H24.89ZM41.36,53,36,40.16,30.6,53Z"/><path class="cls-1" d="M49.4,38l8.53,13.51L66.49,38h2l-9.63,15.2v9.21H57.07V53.16L47.44,38Z"/><path class="cls-1" d="M87.88,42.09a8.54,8.54,0,0,0-6.7-2.65q-3.58,0-5.21,1.38a4.52,4.52,0,0,0-1.63,3.66,4.13,4.13,0,0,0,.41,1.95A3.54,3.54,0,0,0,76,47.75a8.53,8.53,0,0,0,2.21.93q1.34.38,3.23.79t3.55.91a10.31,10.31,0,0,1,2.75,1.25,5.32,5.32,0,0,1,1.72,1.86,5.6,5.6,0,0,1,.61,2.72A6,6,0,0,1,89.48,59a5.66,5.66,0,0,1-1.79,2,8.4,8.4,0,0,1-2.75,1.22,14.26,14.26,0,0,1-3.55.41A13.75,13.75,0,0,1,71.76,59l.93-1.38a11.19,11.19,0,0,0,3.71,2.5,12.76,12.76,0,0,0,5,.95,9.15,9.15,0,0,0,5-1.17,3.93,3.93,0,0,0,1.81-3.54,4.06,4.06,0,0,0-.48-2.06,4.33,4.33,0,0,0-1.42-1.46,9.5,9.5,0,0,0-2.43-1.05q-1.44-.45-3.37-.86t-3.44-.88a9.1,9.1,0,0,1-2.51-1.17A4.69,4.69,0,0,1,73,47.21a5.43,5.43,0,0,1-.52-2.51,6.44,6.44,0,0,1,.63-2.92,6.19,6.19,0,0,1,1.79-2.14,7.89,7.89,0,0,1,2.75-1.33,12.89,12.89,0,0,1,3.51-.45,11.87,11.87,0,0,1,4.23.69A10,10,0,0,1,88.8,40.7Z"/><path class="cls-2" d="M112.64,63.41A2.33,2.33,0,1,1,115,61.08h0A2.35,2.35,0,0,1,112.64,63.41Zm1.94-5.67V45.55a5.77,5.77,0,0,0-1.82-4,5.89,5.89,0,0,0-4-1.82h-1.94V35.84L101,41.66l5.82,5.82V43.61h1.94a2.06,2.06,0,0,1,1.34.61,1.83,1.83,0,0,1,.61,1.34V57.75a3.88,3.88,0,1,0,3.88,0Z"/></svg>