<svg id="Layer_1" data-name="Layer 1" xmlns="http://www.w3.org/2000/svg" viewBox="0 0 266.86 22.87"><defs><style>.cls-1{fill:#626d8e;}.cls-2{fill:#f46663;}.cls-3{fill:#9faccc;}</style></defs><title>modern-web</title><path class="cls-1" d="M18.39,22.71V7.78L12.58,18.9H10.19L4.38,7.78V22.71H0V.16H4.7L11.37,13,18.1.16h4.67V22.71Z"/><path class="cls-1" d="M38.43,22.87a9.72,9.72,0,0,1-4.35-1,10.82,10.82,0,0,1-3.38-2.57,11.53,11.53,0,0,1-2.17-3.67,12.09,12.09,0,0,1-.76-4.22,11.88,11.88,0,0,1,3.06-8A10.9,10.9,0,0,1,34.23.94,9.84,9.84,0,0,1,38.52,0a9.47,9.47,0,0,1,4.35,1,11,11,0,0,1,3.37,2.62A11.9,11.9,0,0,1,48.4,7.3a12,12,0,0,1,.76,4.19,11.59,11.59,0,0,1-.81,4.3,11.77,11.77,0,0,1-2.24,3.62,10.83,10.83,0,0,1-3.4,2.51A9.85,9.85,0,0,1,38.43,22.87ZM32.17,11.43a9.4,9.4,0,0,0,.43,2.83,7.66,7.66,0,0,0,1.24,2.41,6.21,6.21,0,0,0,2,1.68,5.52,5.52,0,0,0,2.67.63,5.4,5.4,0,0,0,2.68-.65,6.13,6.13,0,0,0,2-1.73,8,8,0,0,0,1.21-2.43,9.33,9.33,0,0,0,.41-2.75,9.09,9.09,0,0,0-.44-2.83A7.92,7.92,0,0,0,43,6.19a6.08,6.08,0,0,0-2-1.67,5.48,5.48,0,0,0-2.62-.62,5.4,5.4,0,0,0-2.68.65,6.39,6.39,0,0,0-2,1.71,7.64,7.64,0,0,0-1.22,2.41A9.33,9.33,0,0,0,32.17,11.43Z"/><path class="cls-1" d="M54.15,22.71V.16h8.19A12.26,12.26,0,0,1,67.18,1a9.74,9.74,0,0,1,5.57,6,13.44,13.44,0,0,1,.7,4.37,13.2,13.2,0,0,1-.78,4.65,9.94,9.94,0,0,1-2.24,3.56,10.08,10.08,0,0,1-3.51,2.29,12.39,12.39,0,0,1-4.59.81ZM69,11.4a9.61,9.61,0,0,0-.44-3,6.69,6.69,0,0,0-1.3-2.35,5.81,5.81,0,0,0-2.11-1.52A7.12,7.12,0,0,0,62.34,4H58.53V18.86h3.81a6.87,6.87,0,0,0,2.87-.57,5.89,5.89,0,0,0,2.1-1.57,7,7,0,0,0,1.29-2.37A9.5,9.5,0,0,0,69,11.4Z"/><path class="cls-1" d="M94.19,18.86v3.84H78.54V.16H93.91V4h-11V9.43h9.5V13h-9.5v5.88Z"/><path class="cls-1" d="M99.3,22.71V.16h10a6.39,6.39,0,0,1,2.87.65,7.44,7.44,0,0,1,2.27,1.71,8.11,8.11,0,0,1,1.49,2.41,7.26,7.26,0,0,1,.54,2.72,7.5,7.5,0,0,1-1.1,4,6.28,6.28,0,0,1-3,2.59l5.3,8.48h-5L108,15.15h-4.32v7.56Zm4.38-11.4h5.49a2.32,2.32,0,0,0,1.13-.29,2.89,2.89,0,0,0,.9-.78,3.87,3.87,0,0,0,.6-1.16A4.48,4.48,0,0,0,112,7.65a4.08,4.08,0,0,0-.25-1.46A3.83,3.83,0,0,0,111.1,5a3.1,3.1,0,0,0-1-.76A2.56,2.56,0,0,0,109,4h-5.3Z"/><path class="cls-1" d="M126.68,8.26V22.71H122.3V.16h3.4L137.45,15V.19h4.38V22.71h-3.56Z"/><path class="cls-1" d="M200.67.22h4l2.54,7.46L209.79.22h4.07L210,10.48l2.86,7.21L219.25.16H224l-9.18,22.55h-3.68l-3.91-9.46-3.91,9.46h-3.68L190.51.16h4.73l6.42,17.53,2.79-7.21Z"/><path class="cls-1" d="M243.58,18.86v3.84H227.92V.16h15.37V4h-11V9.43h9.5V13h-9.5v5.88Z"/><path class="cls-1" d="M266.86,16.9a5.12,5.12,0,0,1-2.14,4.32,7.36,7.36,0,0,1-2.32,1.11,10.08,10.08,0,0,1-2.81.38H248.69V.16h12.07a4.46,4.46,0,0,1,2.13.51A5.31,5.31,0,0,1,264.51,2a6,6,0,0,1,1,1.84A6.18,6.18,0,0,1,265.08,9a5,5,0,0,1-2.41,2.14,5.79,5.79,0,0,1,3.06,2A5.92,5.92,0,0,1,266.86,16.9Zm-13.78-13V9.59h5.84a2.6,2.6,0,0,0,1.89-.76,2.8,2.8,0,0,0,.78-2.1,2.9,2.9,0,0,0-.71-2.06,2.32,2.32,0,0,0-1.76-.76Zm9.37,12.16a3.31,3.31,0,0,0-.21-1.16,3.23,3.23,0,0,0-.56-1,2.58,2.58,0,0,0-.83-.65,2.31,2.31,0,0,0-1-.24h-6.73V19h6.51a2.87,2.87,0,0,0,1.13-.22,2.69,2.69,0,0,0,.91-.62,3,3,0,0,0,.83-2.08Z"/><circle class="cls-2" cx="168.25" cy="11.44" r="6.97"/><polygon class="cls-3" points="179 0.23 173.27 0.23 181.88 11.44 173.27 22.65 179 22.65 187.61 11.44 179 0.23"/><polygon class="cls-3" points="157.48 0.23 163.22 0.23 154.61 11.44 163.22 22.65 157.48 22.65 148.88 11.44 157.48 0.23"/></svg>