<svg id="Layer_1" data-name="Layer 1" xmlns="http://www.w3.org/2000/svg" viewBox="0 0 303.93 37.58"><defs><style>.cls-1{fill:#fff;}.cls-2{fill:#f46663;}.cls-3{fill:#9faccc;}</style></defs><title>thisdot-contrast</title><path class="cls-1" d="M9.71,7H0V.64H26.89V7H17.19V37H9.71Z"/><path class="cls-1" d="M43.47.64H51v16.2H64V.64h7.47V37H64V23.18H51V37h-7.5Z"/><path class="cls-1" d="M98.35.64V37H90.88V.64Z"/><path class="cls-1" d="M116,27.32h7.6c.26,2.6,2.07,3.84,4.62,3.84s4.21-1.51,4.21-3.84S131,23.63,126,21.61c-7.24-3-9.81-6.41-9.81-11.74,0-6,4.36-9.86,11.37-9.86C134.09,0,139,3.84,139,10.17h-7.6a3.56,3.56,0,0,0-3.9-3.74c-2.45,0-3.69,1.51-3.69,3.32,0,2.18,1.51,3.45,6.59,5.63,7.27,3.12,9.6,6.38,9.6,11.47,0,6.41-4.57,10.72-11.89,10.72S116.41,33.14,116,27.32Z"/><path class="cls-1" d="M176.55,37H164.41V.64h12.15c11.78,0,19.73,6.65,19.73,18.17S188.34,37,176.55,37Zm.06-30h-4.72V30.64h4.72c6.8,0,12.1-3.94,12.1-11.78S183.41,7,176.61,7Z"/><path class="cls-1" d="M286.75,7H277V.64h26.89V7h-9.71V37h-7.47Z"/><circle class="cls-2" cx="236.73" cy="18.49" r="11.3"/><polygon class="cls-3" points="254.17 0.32 244.87 0.32 258.82 18.49 244.87 36.66 254.17 36.66 268.13 18.49 254.17 0.32"/><polygon class="cls-3" points="219.28 0.32 228.58 0.32 214.62 18.49 228.58 36.66 219.28 36.66 205.32 18.49 219.28 0.32"/></svg>