<svg id="Layer_1" data-name="Layer 1" xmlns="http://www.w3.org/2000/svg" viewBox="0 0 182.24 35.01"><defs><style>.cls-1{fill:#f06564;}.cls-2{fill:#9eaccb;}</style></defs><title>thisdot-media</title><circle class="cls-1" cx="33.02" cy="17.5" r="10.89"/><polygon class="cls-2" points="168.8 0 159.84 0 173.28 17.5 159.84 35.01 168.8 35.01 182.24 17.5 168.8 0"/><polygon class="cls-2" points="13.44 0 22.41 0 8.96 17.5 22.41 35.01 13.44 35.01 0 17.5 13.44 0"/><path class="cls-2" d="M79.85,28.52H73.94V17.63a4.53,4.53,0,0,0-.68-2.79A2.21,2.21,0,0,0,71.43,14a3.54,3.54,0,0,0-2.31,1,5.52,5.52,0,0,0-1.64,2.47V28.52H61.56V17.63a4.53,4.53,0,0,0-.68-2.79A2.21,2.21,0,0,0,59.05,14a3.58,3.58,0,0,0-2.31.94A5.38,5.38,0,0,0,55.1,17.4V28.52H49.19V9.13h5.32v3.25a7,7,0,0,1,2.92-2.7,9.47,9.47,0,0,1,4.29-.92,6.91,6.91,0,0,1,2.11.3,4.87,4.87,0,0,1,1.57.81,4.74,4.74,0,0,1,1.07,1.2,4.92,4.92,0,0,1,.61,1.46,7.38,7.38,0,0,1,2.88-2.79,8.56,8.56,0,0,1,4.14-1,5.69,5.69,0,0,1,3,.68,5,5,0,0,1,1.75,1.77,6.87,6.87,0,0,1,.83,2.38,16.23,16.23,0,0,1,.2,2.51Z"/><path class="cls-2" d="M93,28.89a11.46,11.46,0,0,1-4.38-.79,9.73,9.73,0,0,1-3.29-2.16,9.24,9.24,0,0,1-2.05-3.16,10.18,10.18,0,0,1-.7-3.75,11.18,11.18,0,0,1,.7-4,9.63,9.63,0,0,1,2-3.27,9.49,9.49,0,0,1,3.27-2.22A11.34,11.34,0,0,1,93,8.76a11.2,11.2,0,0,1,4.4.81,9.66,9.66,0,0,1,3.25,2.2,9.33,9.33,0,0,1,2,3.2,10.69,10.69,0,0,1,.68,3.8q0,.52,0,1a7.26,7.26,0,0,1-.11.87H88.86a4,4,0,0,0,1.42,3,4.52,4.52,0,0,0,2.9,1A5.31,5.31,0,0,0,95.68,24a3.21,3.21,0,0,0,1.61-1.7l5,1.4a9,9,0,0,1-3.55,3.73A11,11,0,0,1,93,28.89ZM97.1,17a4.45,4.45,0,0,0-1.33-2.92A4,4,0,0,0,92.93,13a4,4,0,0,0-2.86,1.09A4.52,4.52,0,0,0,88.75,17Z"/><path class="cls-2" d="M114.09,28.89a8.85,8.85,0,0,1-3.68-.76,8.53,8.53,0,0,1-2.9-2.12,10,10,0,0,1-1.9-3.2,11.36,11.36,0,0,1-.68-4,12.19,12.19,0,0,1,.63-4,9.7,9.7,0,0,1,1.77-3.2A8.42,8.42,0,0,1,110,9.54a7.69,7.69,0,0,1,3.45-.78,7.18,7.18,0,0,1,3.66,1,6.6,6.6,0,0,1,2.55,2.59V1.56h5.91V21.87a1.79,1.79,0,0,0,.33,1.24,1.82,1.82,0,0,0,1.18.42v5a14.27,14.27,0,0,1-1.61.24q-.68.06-1.24.06-3.1-.07-3.55-2.48l-.11-1a6.87,6.87,0,0,1-2.81,2.7A8.09,8.09,0,0,1,114.09,28.89Zm1.59-5a4.2,4.2,0,0,0,2.33-.72,4.93,4.93,0,0,0,1.74-2V17.15A5.33,5.33,0,0,0,118,14.73a4.19,4.19,0,0,0-2.57-.94,3.66,3.66,0,0,0-1.75.42,4.69,4.69,0,0,0-1.39,1.13,5,5,0,0,0-.9,1.63,6,6,0,0,0-.31,2,5.08,5.08,0,0,0,1.29,3.58A4.36,4.36,0,0,0,115.68,23.91Z"/><path class="cls-2" d="M130.39,6.91V1.56h5.91V6.91Zm0,21.61V9.13h5.91V28.52Z"/><path class="cls-2" d="M145.83,28.89a7.61,7.61,0,0,1-2.68-.46A6.26,6.26,0,0,1,141,27.14a6.19,6.19,0,0,1-1.4-2,5.81,5.81,0,0,1-.52-2.46,5.64,5.64,0,0,1,.61-2.62,6,6,0,0,1,1.72-2,8.48,8.48,0,0,1,2.62-1.33,11.09,11.09,0,0,1,3.36-.48,13.55,13.55,0,0,1,2.36.2,7.79,7.79,0,0,1,2,.61v-.89q0-3.36-3.88-3.36a8.63,8.63,0,0,0-3,.54,14.58,14.58,0,0,0-3,1.61l-1.74-3.69a15.52,15.52,0,0,1,4-1.88,15.06,15.06,0,0,1,4.4-.63q4.4,0,6.8,2.07a7.56,7.56,0,0,1,2.4,6.06v5a1.79,1.79,0,0,0,.33,1.24,1.82,1.82,0,0,0,1.18.42v5a11.68,11.68,0,0,1-1.57.24q-.72.06-1.27.06a4.3,4.3,0,0,1-2.47-.66,2.79,2.79,0,0,1-1.07-1.81l-.11-.89A8.86,8.86,0,0,1,149.61,28,8.43,8.43,0,0,1,145.83,28.89Zm1.74-4.25a5.37,5.37,0,0,0,1.87-.33,4.35,4.35,0,0,0,1.5-.89,1.83,1.83,0,0,0,.85-1.4V20.17a9.6,9.6,0,0,0-1.68-.46,9.34,9.34,0,0,0-1.68-.17,4.56,4.56,0,0,0-2.68.74,2.25,2.25,0,0,0-1.05,1.92,2.19,2.19,0,0,0,.81,1.75A3.1,3.1,0,0,0,147.56,24.64Z"/></svg>