<svg id="Layer_1" data-name="Layer 1" xmlns="http://www.w3.org/2000/svg" viewBox="0 0 306.49 21.88"><defs><style>.cls-1{fill:#626d8e;}.cls-2{fill:#f46663;}.cls-3{fill:#9faccc;}</style></defs><title>thisdotjs</title><path class="cls-1" d="M17.81,3.8H11V21.55H6.84V3.8H0V.15H17.81Z"/><path class="cls-1" d="M40,.15v21.4H35.86V12.42h-9.7v9.13H22V.15h4.16V8.8h9.7V.15Z"/><path class="cls-1" d="M46,21.55V.18h4.16V21.55Z"/><path class="cls-1" d="M68.86,5.76a5.2,5.2,0,0,0-.77-.57,9.44,9.44,0,0,0-1.36-.71A11.83,11.83,0,0,0,65,3.89a7.6,7.6,0,0,0-1.9-.24,4.26,4.26,0,0,0-2.56.63,2.09,2.09,0,0,0-.84,1.78A1.82,1.82,0,0,0,60,7.16a2.72,2.72,0,0,0,.92.77,7.73,7.73,0,0,0,1.52.6q.92.27,2.13.57,1.57.42,2.85.9a7.7,7.7,0,0,1,2.17,1.21A5,5,0,0,1,71,12.94a5.75,5.75,0,0,1,.48,2.49,6.19,6.19,0,0,1-.65,2.94,5.5,5.5,0,0,1-1.73,2,7.41,7.41,0,0,1-2.53,1.1,12.93,12.93,0,0,1-3,.35,16.1,16.1,0,0,1-4.76-.72,14.7,14.7,0,0,1-4.22-2l1.84-3.59a5.75,5.75,0,0,0,1,.71A14.88,14.88,0,0,0,59,17a13.07,13.07,0,0,0,2.14.74,9.65,9.65,0,0,0,2.41.3q3.44,0,3.44-2.2a1.85,1.85,0,0,0-.39-1.21,3.34,3.34,0,0,0-1.12-.84,10.71,10.71,0,0,0-1.75-.66q-1-.3-2.29-.63a19.53,19.53,0,0,1-2.67-.92,7.25,7.25,0,0,1-1.88-1.16A4.23,4.23,0,0,1,55.8,8.86a5.54,5.54,0,0,1-.38-2.14A6.65,6.65,0,0,1,56,3.83,5.84,5.84,0,0,1,57.7,1.72,7.58,7.58,0,0,1,60.18.44a10.27,10.27,0,0,1,3-.44,11.82,11.82,0,0,1,4.16.71A15.56,15.56,0,0,1,70.7,2.38Z"/><path class="cls-1" d="M117.83,17.18a6.33,6.33,0,0,0,1.42.66,6.67,6.67,0,0,0,2.29.36,4,4,0,0,0,2-.44,2.76,2.76,0,0,0,1.15-1.34,7.37,7.37,0,0,0,.51-2.25q.12-1.34.12-3.15V.18h4.16V11a35.42,35.42,0,0,1-.26,4.45,9,9,0,0,1-1.08,3.42,5.59,5.59,0,0,1-2.4,2.2,9.52,9.52,0,0,1-4.22.78,8,8,0,0,1-4.64-1.33Z"/><path class="cls-1" d="M132.54,21.55,141,.15h3.38l8.41,21.4h-4.4l-2-5.33h-7.5l-2,5.33ZM142.67,4.64l-3.07,8.65h6.06Z"/><path class="cls-1" d="M157,.15l5.79,16.18L168.55.15h4.37l-8.35,21.4h-3.5L152.67.15Z"/><path class="cls-1" d="M172.86,21.55,181.3.15h3.38l8.41,21.4h-4.4l-2-5.33h-7.5l-2,5.33ZM183,4.64l-3.07,8.65H186Z"/><path class="cls-1" d="M209.42,5.76a5.2,5.2,0,0,0-.77-.57,9.44,9.44,0,0,0-1.36-.71,11.83,11.83,0,0,0-1.73-.59,7.6,7.6,0,0,0-1.9-.24,4.26,4.26,0,0,0-2.56.63,2.09,2.09,0,0,0-.84,1.78,1.82,1.82,0,0,0,.32,1.1,2.72,2.72,0,0,0,.92.77,7.73,7.73,0,0,0,1.52.6q.92.27,2.13.57,1.57.42,2.85.9a7.7,7.7,0,0,1,2.17,1.21,5,5,0,0,1,1.37,1.73,5.75,5.75,0,0,1,.48,2.49,6.19,6.19,0,0,1-.65,2.94,5.5,5.5,0,0,1-1.73,2,7.41,7.41,0,0,1-2.53,1.1,12.93,12.93,0,0,1-3,.35,16.1,16.1,0,0,1-4.76-.72,14.7,14.7,0,0,1-4.22-2l1.84-3.59a5.75,5.75,0,0,0,1,.71,14.88,14.88,0,0,0,1.67.87,13.07,13.07,0,0,0,2.14.74,9.65,9.65,0,0,0,2.41.3q3.44,0,3.44-2.2a1.85,1.85,0,0,0-.39-1.21,3.34,3.34,0,0,0-1.12-.84,10.71,10.71,0,0,0-1.75-.66q-1-.3-2.29-.63a19.53,19.53,0,0,1-2.67-.92,7.25,7.25,0,0,1-1.88-1.16,4.23,4.23,0,0,1-1.13-1.57A5.54,5.54,0,0,1,196,6.72a6.65,6.65,0,0,1,.6-2.89,5.84,5.84,0,0,1,1.67-2.11A7.58,7.58,0,0,1,200.74.44a10.27,10.27,0,0,1,3-.44,11.82,11.82,0,0,1,4.16.71,15.56,15.56,0,0,1,3.32,1.67Z"/><path class="cls-1" d="M215.42,10.7a11.3,11.3,0,0,1,.69-3.87,10.75,10.75,0,0,1,2-3.42A10.13,10.13,0,0,1,221.32,1,9.7,9.7,0,0,1,225.66,0a9.24,9.24,0,0,1,5,1.3,8,8,0,0,1,3.09,3.38l-3.19,2.2a4.89,4.89,0,0,0-.93-1.52,4.76,4.76,0,0,0-1.25-1,5.64,5.64,0,0,0-1.4-.53,6.22,6.22,0,0,0-1.39-.17,5.16,5.16,0,0,0-2.59.63A5.82,5.82,0,0,0,221.1,6,7.34,7.34,0,0,0,220,8.27a9,9,0,0,0-.38,2.55,8.58,8.58,0,0,0,.44,2.73,7.33,7.33,0,0,0,1.24,2.3,6.22,6.22,0,0,0,1.91,1.6,5,5,0,0,0,2.44.6,5.79,5.79,0,0,0,1.42-.18,5.42,5.42,0,0,0,1.4-.57,5.35,5.35,0,0,0,1.25-1,5,5,0,0,0,.93-1.49l3.41,2a6.27,6.27,0,0,1-1.4,2.13,8.93,8.93,0,0,1-2.09,1.55,10.87,10.87,0,0,1-2.47,1,10.32,10.32,0,0,1-2.56.33,8.72,8.72,0,0,1-4.08-1,10.72,10.72,0,0,1-3.19-2.52,11.71,11.71,0,0,1-2.82-7.55Z"/><path class="cls-1" d="M238.38,21.55V.15h9.46a6.08,6.08,0,0,1,2.73.62,7.06,7.06,0,0,1,2.16,1.63,7.69,7.69,0,0,1,1.42,2.29,6.89,6.89,0,0,1,.51,2.58,7.11,7.11,0,0,1-1,3.78,6,6,0,0,1-2.82,2.46l5,8h-4.7l-4.49-7.17h-4.1v7.17Zm4.16-10.82h5.21a2.2,2.2,0,0,0,1.07-.27,2.75,2.75,0,0,0,.86-.74,3.68,3.68,0,0,0,.57-1.1,4.26,4.26,0,0,0,.21-1.36,3.87,3.87,0,0,0-.24-1.39,3.62,3.62,0,0,0-.65-1.1,2.94,2.94,0,0,0-.93-.72,2.42,2.42,0,0,0-1.07-.26h-5Z"/><path class="cls-1" d="M260.2,21.55V.18h4.16V21.55Z"/><path class="cls-1" d="M270.32,21.55V.15h9.07a6.08,6.08,0,0,1,2.73.62,7.06,7.06,0,0,1,2.16,1.63,7.69,7.69,0,0,1,1.42,2.29,6.89,6.89,0,0,1,.51,2.58,7.44,7.44,0,0,1-.48,2.64,7.32,7.32,0,0,1-1.36,2.28,6.66,6.66,0,0,1-2.11,1.6,6.1,6.1,0,0,1-2.71.6h-5.06v7.17Zm4.16-10.82h4.82a2.38,2.38,0,0,0,1.91-.93A3.87,3.87,0,0,0,282,7.26a4.16,4.16,0,0,0-.24-1.46,3.54,3.54,0,0,0-.63-1.1,2.52,2.52,0,0,0-.92-.68,2.7,2.7,0,0,0-1.07-.23h-4.64Z"/><path class="cls-1" d="M306.49,3.8h-6.81V21.55h-4.16V3.8h-6.84V.15h17.81Z"/><circle class="cls-2" cx="95.67" cy="10.86" r="6.61"/><polygon class="cls-3" points="105.87 0.22 100.43 0.22 108.6 10.86 100.43 21.49 105.87 21.49 114.05 10.86 105.87 0.22"/><polygon class="cls-3" points="85.45 0.22 90.9 0.22 82.73 10.86 90.9 21.49 85.45 21.49 77.29 10.86 85.45 0.22"/></svg>