<svg id="Layer_1" data-name="Layer 1" xmlns="http://www.w3.org/2000/svg" viewBox="0 0 187.94 55.54"><defs><style>.cls-1{fill:#626d8e;}.cls-2{fill:#f46663;}.cls-3{fill:#9faccc;}</style></defs><title>youtube-channel</title><path class="cls-1" d="M59,3.27,63.47,12,68,3.27h3.8L65.23,15v6.32H61.74V15L55.19,3.27Z"/><path class="cls-1" d="M81.39,21.49a7.8,7.8,0,0,1-3.49-.78,8.68,8.68,0,0,1-2.71-2.06,9.24,9.24,0,0,1-1.75-2.94,9.7,9.7,0,0,1-.61-3.39,9.53,9.53,0,0,1,2.46-6.4,8.74,8.74,0,0,1,2.74-2,7.9,7.9,0,0,1,3.44-.75,7.6,7.6,0,0,1,3.49.8A8.79,8.79,0,0,1,87.66,6,9.83,9.83,0,0,1,90,12.37a9.3,9.3,0,0,1-.65,3.45,9.44,9.44,0,0,1-1.8,2.91,8.71,8.71,0,0,1-2.73,2A7.91,7.91,0,0,1,81.39,21.49Zm-5-9.18a7.52,7.52,0,0,0,.34,2.27,6.14,6.14,0,0,0,1,1.94,5,5,0,0,0,1.59,1.35,4.43,4.43,0,0,0,2.14.51,4.32,4.32,0,0,0,2.15-.52,4.91,4.91,0,0,0,1.57-1.39,6.46,6.46,0,0,0,1-2,7.52,7.52,0,0,0,.33-2.21A7.29,7.29,0,0,0,86.11,10a6.36,6.36,0,0,0-1-1.94,4.88,4.88,0,0,0-1.58-1.34,4.4,4.4,0,0,0-2.1-.5,4.33,4.33,0,0,0-2.15.52,5.12,5.12,0,0,0-1.58,1.38,6.12,6.12,0,0,0-1,1.94A7.5,7.5,0,0,0,76.37,12.32Z"/><path class="cls-1" d="M101.63,18.38a4,4,0,0,0,2.1-.51,4.11,4.11,0,0,0,1.38-1.33,5.48,5.48,0,0,0,.74-1.87,10.85,10.85,0,0,0,.22-2.18V3.27h3.49v9.23a13.2,13.2,0,0,1-.45,3.49,8,8,0,0,1-1.4,2.85,6.72,6.72,0,0,1-2.46,1.94,8.32,8.32,0,0,1-3.59.71A8.23,8.23,0,0,1,98,20.74a6.88,6.88,0,0,1-2.46-2,7.93,7.93,0,0,1-1.36-2.87,13.53,13.53,0,0,1-.42-3.39V3.27h3.52v9.23a10.94,10.94,0,0,0,.22,2.2,5.48,5.48,0,0,0,.74,1.87,3.83,3.83,0,0,0,3.43,1.81Z"/><path class="cls-1" d="M127.88,6.35h-5.76v15h-3.52v-15h-5.79V3.27h15.06Z"/><path class="cls-1" d="M139,18.38a4,4,0,0,0,2.1-.51,4.11,4.11,0,0,0,1.38-1.33,5.48,5.48,0,0,0,.74-1.87,10.85,10.85,0,0,0,.22-2.18V3.27H147v9.23a13.2,13.2,0,0,1-.45,3.49,8,8,0,0,1-1.4,2.85,6.72,6.72,0,0,1-2.46,1.94,8.32,8.32,0,0,1-3.59.71,8.23,8.23,0,0,1-3.68-.75,6.88,6.88,0,0,1-2.46-2,7.93,7.93,0,0,1-1.36-2.87,13.53,13.53,0,0,1-.42-3.39V3.27h3.52v9.23a10.94,10.94,0,0,0,.22,2.2,5.48,5.48,0,0,0,.74,1.87A3.83,3.83,0,0,0,139,18.38Z"/><path class="cls-1" d="M166.35,16.7a4.1,4.1,0,0,1-1.72,3.47,5.9,5.9,0,0,1-1.86.89,8.08,8.08,0,0,1-2.26.31h-8.74V3.27h9.69a3.58,3.58,0,0,1,1.71.41,4.25,4.25,0,0,1,1.3,1.06,4.85,4.85,0,0,1,.83,1.48,5,5,0,0,1,.29,1.67,4.93,4.93,0,0,1-.66,2.49A4,4,0,0,1,163,12.09a4.65,4.65,0,0,1,2.46,1.64A4.75,4.75,0,0,1,166.35,16.7ZM155.29,6.27v4.56H160a2.09,2.09,0,0,0,1.52-.61,2.25,2.25,0,0,0,.62-1.68,2.33,2.33,0,0,0-.57-1.66,1.86,1.86,0,0,0-1.41-.61ZM162.8,16a2.66,2.66,0,0,0-.17-.93,2.59,2.59,0,0,0-.45-.78,2.07,2.07,0,0,0-.66-.52,1.85,1.85,0,0,0-.84-.19h-5.4v4.77h5.23a2.29,2.29,0,0,0,.9-.18,2.15,2.15,0,0,0,.73-.5A2.42,2.42,0,0,0,162.8,16Z"/><path class="cls-1" d="M182.94,18.28v3.08H170.37V3.27h12.34V6.35h-8.82v4.36h7.62v2.85h-7.62v4.72Z"/><path class="cls-1" d="M56.31,42.78a9.67,9.67,0,0,1,.57-3.25,9,9,0,0,1,1.68-2.91,8.47,8.47,0,0,1,2.71-2.08,8.15,8.15,0,0,1,3.65-.79,7.62,7.62,0,0,1,4.15,1.1,6.82,6.82,0,0,1,2.57,2.85l-1.81,1.17a5.28,5.28,0,0,0-1-1.45,5.06,5.06,0,0,0-1.25-.94A5.42,5.42,0,0,0,66.23,36a6.71,6.71,0,0,0-1.4-.15,5.53,5.53,0,0,0-2.66.62,6.17,6.17,0,0,0-2,1.63A7,7,0,0,0,59,40.34a8.43,8.43,0,0,0-.4,2.54,7.83,7.83,0,0,0,.47,2.71,7.48,7.48,0,0,0,1.31,2.28,6.39,6.39,0,0,0,2,1.58,5.4,5.4,0,0,0,2.5.59,6.33,6.33,0,0,0,1.47-.18,5.38,5.38,0,0,0,1.44-.57,6.1,6.1,0,0,0,1.29-1,4.85,4.85,0,0,0,1-1.44l1.91,1a5.64,5.64,0,0,1-1.21,1.8A7.64,7.64,0,0,1,69,51a8.92,8.92,0,0,1-2.08.82,8.6,8.6,0,0,1-2.14.28,7.24,7.24,0,0,1-3.42-.82,9.1,9.1,0,0,1-2.69-2.13,9.9,9.9,0,0,1-2.38-6.38Z"/><path class="cls-1" d="M90.7,33.85V52H88.4V43.72h-10V52H76.14V33.85h2.29v7.83h10V33.85Z"/><path class="cls-1" d="M94.42,52l7.44-18.1h1.89L111.16,52h-2.45l-2.14-5.3H99L96.86,52Zm8.39-15.45-3.36,8.36h6.63Z"/><path class="cls-1" d="M117.15,38.14V52h-2.29V33.85h1.78L127.86,48V33.88h2.29V52h-1.94Z"/><path class="cls-1" d="M138.05,38.14V52h-2.29V33.85h1.78L148.76,48V33.88h2.29V52h-1.94Z"/><path class="cls-1" d="M168.95,49.91v2H156.66V33.85h12.06v2H159v5.86h8.49v1.91H159v6.25Z"/><path class="cls-1" d="M173.48,52V33.85h2.29V49.91h10.09v2Z"/><circle class="cls-2" cx="23.61" cy="28.63" r="8.5"/><polygon class="cls-3" points="36.72 14.97 29.73 14.97 40.22 28.63 29.73 42.29 36.72 42.29 47.21 28.63 36.72 14.97"/><polygon class="cls-3" points="10.49 14.97 17.48 14.97 6.99 28.63 17.48 42.29 10.49 42.29 0 28.63 10.49 14.97"/></svg>