<svg id="Layer_1" data-name="Layer 1" xmlns="http://www.w3.org/2000/svg" viewBox="0 0 138.4 33.94"><defs><style>.cls-1{fill:#f06564;}.cls-2{fill:#9eaccb;}</style></defs><title>thisdot-labs</title><circle class="cls-1" cx="32.01" cy="16.97" r="10.56"/><polygon class="cls-2" points="125.36 0 116.67 0 129.71 16.97 116.67 33.94 125.36 33.94 138.4 16.97 125.36 0"/><polygon class="cls-2" points="13.03 0 21.72 0 8.69 16.97 21.72 33.94 13.03 33.94 0 16.97 13.03 0"/><path class="cls-2" d="M49.37,3.17H54.7V21.29q0,2,1.7,2a3.79,3.79,0,0,0,.88-.12,3.28,3.28,0,0,0,.88-.35l.7,4a10.35,10.35,0,0,1-2.3.73,12.17,12.17,0,0,1-2.44.27,4.86,4.86,0,0,1-3.54-1.2,4.62,4.62,0,0,1-1.23-3.47Z"/><path class="cls-2" d="M65.58,27.86a6.88,6.88,0,0,1-2.42-.42A5.54,5.54,0,0,1,60,24.51a5.25,5.25,0,0,1-.47-2.22,5.1,5.1,0,0,1,.55-2.37,5.44,5.44,0,0,1,1.55-1.83A7.66,7.66,0,0,1,64,16.88a10,10,0,0,1,3-.43,12.21,12.21,0,0,1,2.13.18,7,7,0,0,1,1.8.55v-.8q0-3-3.5-3a7.79,7.79,0,0,0-2.74.48A13.13,13.13,0,0,0,62,15.28l-1.57-3.34a14,14,0,0,1,3.6-1.7,13.6,13.6,0,0,1,4-.57,9.12,9.12,0,0,1,6.14,1.87A6.83,6.83,0,0,1,76.29,17v4.5a1.86,1.86,0,0,0,.25,1.12,1.24,1.24,0,0,0,.88.38v4.5a8.88,8.88,0,0,1-1.27.22q-.57.05-1,.05a3.71,3.71,0,0,1-2.27-.58,2.58,2.58,0,0,1-1-1.65l-.1-.8A8,8,0,0,1,69,27.06,7.62,7.62,0,0,1,65.58,27.86ZM67.15,24a4.85,4.85,0,0,0,1.68-.3,3.93,3.93,0,0,0,1.35-.8,1.66,1.66,0,0,0,.77-1.27V20a8.68,8.68,0,0,0-1.52-.42,8.46,8.46,0,0,0-1.52-.15,4.11,4.11,0,0,0-2.42.67,2,2,0,0,0-1,1.73,2,2,0,0,0,.73,1.58A2.8,2.8,0,0,0,67.15,24Z"/><path class="cls-2" d="M90.66,27.86a7,7,0,0,1-3.5-.85,6.18,6.18,0,0,1-2.37-2.38v2.9H80.15V3.17h5.34v9.71a6.36,6.36,0,0,1,2.32-2.35,7.12,7.12,0,0,1,6.49-.13,7.42,7.42,0,0,1,2.4,2,9.31,9.31,0,0,1,1.57,2.92,11.17,11.17,0,0,1,.57,3.59,10.07,10.07,0,0,1-.62,3.55,8.86,8.86,0,0,1-1.72,2.87,7.85,7.85,0,0,1-2.6,1.9A7.72,7.72,0,0,1,90.66,27.86Zm-1.5-4.5a4,4,0,0,0,3-1.3A4.48,4.48,0,0,0,93,20.64a4.9,4.9,0,0,0,.32-1.78,5.32,5.32,0,0,0-.3-1.78,4.9,4.9,0,0,0-.82-1.48,3.79,3.79,0,0,0-1.25-1,3.46,3.46,0,0,0-1.57-.37,3.56,3.56,0,0,0-2.32.87,5.73,5.73,0,0,0-1.62,2.17v3.67A4.17,4.17,0,0,0,87,22.71,3.88,3.88,0,0,0,89.16,23.36Z"/><path class="cls-2" d="M108.41,27.86a13.94,13.94,0,0,1-4.4-.72,10,10,0,0,1-3.67-2.08l1.9-3.27a15.84,15.84,0,0,0,3.12,1.7,7.93,7.93,0,0,0,2.92.6,2.94,2.94,0,0,0,1.6-.37,1.2,1.2,0,0,0,.57-1.07,1.26,1.26,0,0,0-.72-1.12,11.06,11.06,0,0,0-2.52-.88q-1.77-.5-3-1a8.39,8.39,0,0,1-2-1,3.35,3.35,0,0,1-1.1-1.3,4.16,4.16,0,0,1-.33-1.73,5.46,5.46,0,0,1,2-4.3,7,7,0,0,1,2.22-1.2,8.65,8.65,0,0,1,2.79-.43,12.37,12.37,0,0,1,3.69.53,9.23,9.23,0,0,1,3.32,1.93l-2.07,3.2a14.11,14.11,0,0,0-2.67-1.5,6.09,6.09,0,0,0-2.27-.47,2.87,2.87,0,0,0-1.47.35,1.3,1.3,0,0,0,.05,2.22,10.77,10.77,0,0,0,2.42.8,30.86,30.86,0,0,1,3.15,1A8.46,8.46,0,0,1,114,18.87a3.8,3.8,0,0,1,1.17,1.42,4.54,4.54,0,0,1,.37,1.9,5,5,0,0,1-1.93,4.14A8.2,8.2,0,0,1,108.41,27.86Z"/></svg>