<?xml version="1.0" encoding="utf-8"?>
<!-- Generator: Adobe Illustrator 20.1.0, SVG Export Plug-In . SVG Version: 6.00 Build 0)  -->
<svg version="1.1" id="Layer_1" xmlns="http://www.w3.org/2000/svg" xmlns:xlink="http://www.w3.org/1999/xlink" x="0px" y="0px"
	 viewBox="0 0 362.3 180" style="enable-background:new 0 0 362.3 180;" xml:space="preserve">
<style type="text/css">
	.st0{enable-background:new    ;}
	.st1{fill:#626C8E;}
</style>
<title>Artboard 1</title>
<g class="st0">
	<path class="st1" d="M76.7,41.6c0-3.2,2.1-5,5.5-5s5.2,1.8,5.2,5v7.7h-2.6v-7.3c0-1.9-0.6-3.5-2.6-3.5c-1.8,0-2.9,1.1-2.9,2.9v37.4
		c0,1.8,1.1,2.9,2.9,2.9c2.1,0,2.6-1.1,2.6-3.5v-7.9h2.6v8.3c0,3.2-1.8,5-5.2,5s-5.5-1.8-5.5-5V41.6z"/>
	<path class="st1" d="M105.9,78.6c0,3.2-2,5-5.6,5s-5.7-1.8-5.7-5v-37c0-3.2,2.1-5,5.7-5s5.6,1.8,5.6,5V78.6z M103.3,41.6
		c0-2.1-1.2-3.2-3-3.2c-1.9,0-3.1,1.1-3.1,3.2v36.9c0,2.1,1.2,3.2,3.1,3.2c1.9,0,3-1.1,3-3.2V41.6z"/>
	<path class="st1" d="M114,36.8h3.9l4.4,30.1c0.5,3.7,1.3,9,2.1,14.6h0.1c-0.3-6.5-0.6-12.5-0.6-15V36.8h2.6v46.6h-3.9L118,53.7
		c-0.4-2.5-1.1-8.8-1.8-15h-0.1c0.1,6.1,0.5,12,0.5,13.5v31.1H114V36.8z"/>
	<path class="st1" d="M136.5,38.7h-4.6v-1.9h11.7v1.9H139v44.6h-2.6V38.7z"/>
	<path class="st1" d="M149.1,36.8h5.8c3.1,0,5.3,1.4,5.3,4.3v13.7c0,2.5-0.7,4.3-4,4.6v0.1c2.3,0.2,4,1.4,4,4.2v19.6h-2.6V63.8
		c0-1.7-1-3.4-3.5-3.4h-2.4v23h-2.6V36.8z M154.2,58.5c2.2,0,3.4-1,3.4-3.1V41.6c0-2-1.1-2.9-3.2-2.9h-2.8v19.7H154.2z"/>
	<path class="st1" d="M168.7,36.8h2.6v46.6h-2.6V36.8z"/>
	<path class="st1" d="M179.5,36.8h5.5c3.2,0,5.4,1.4,5.4,5v13.5c0,2.6-2,3.8-4.1,3.9v0.1c2.5,0.1,4.4,1,4.4,4.3v14.7
		c0,3.5-2.1,5-5,5h-6.3V36.8z M184.9,58.5c2.4,0,3-1.7,3-3.3V41.6c0-2.1-0.6-2.9-3.2-2.9h-2.6v19.7H184.9z M182.1,60.4v21h2.6
		c2.6,0,3.5-0.9,3.5-2.8V63.8c0-2.3-1.1-3.4-3.4-3.4H182.1z"/>
	<path class="st1" d="M210.1,36.8v41.8c0,3.2-2,5-5.6,5c-3.6,0-5.7-1.8-5.7-5V36.8h2.6v41.7c0,2.1,1.2,3.2,3.1,3.2
		c1.9,0,3-1.1,3-3.2V36.8H210.1z"/>
	<path class="st1" d="M220.2,38.7h-4.6v-1.9h11.7v1.9h-4.6v44.6h-2.6V38.7z"/>
	<path class="st1" d="M244.1,78.6c0,3.2-2,5-5.6,5c-3.6,0-5.7-1.8-5.7-5v-37c0-3.2,2.1-5,5.7-5c3.6,0,5.6,1.8,5.6,5V78.6z
		 M241.6,41.6c0-2.1-1.2-3.2-3-3.2c-1.9,0-3.1,1.1-3.1,3.2v36.9c0,2.1,1.2,3.2,3.1,3.2c1.9,0,3-1.1,3-3.2V41.6z"/>
	<path class="st1" d="M252.2,36.8h5.8c3.1,0,5.3,1.4,5.3,4.3v13.7c0,2.5-0.7,4.3-4,4.6v0.1c2.3,0.2,4,1.4,4,4.2v19.6h-2.6V63.8
		c0-1.7-1-3.4-3.5-3.4h-2.4v23h-2.6V36.8z M257.3,58.5c2.2,0,3.4-1,3.4-3.1V41.6c0-2-1.1-2.9-3.2-2.9h-2.8v19.7H257.3z"/>
	<path class="st1" d="M273,78.8c0,1.5,0.6,2.8,3,2.8c2.2,0,3.2-0.8,3.2-3v-8c0-2.5-0.5-3.9-1.4-6l-5.4-10.3
		c-1.1-2.1-1.7-4.5-1.7-6.3v-6.8c0-3,2.1-4.8,5.4-4.8c3.5,0,5.3,1.3,5.3,4.3v8.3H279v-8.1c0-1.9-1-2.6-2.8-2.6
		c-1.8,0-2.8,1.2-2.8,2.8v7.2c0,1.5,0.3,2.9,1,4.5l5.3,10.1c1.1,2.2,1.9,4.5,1.9,7v8.8c0,3-1.5,4.8-5.5,4.8c-4,0-5.5-1.8-5.5-5v-8.3
		h2.3V78.8z"/>
</g>
<g class="st0">
	<path class="st1" d="M77.6,101.3h5.5c3.8,0,5.8,1.5,5.8,5v36.6c0,3.5-2,5-5.8,5h-5.5V101.3z M82.9,145.9c2.3,0,3.5-0.8,3.5-2.8v-37
		c0-2-1.2-2.8-3.5-2.8h-2.6v42.7H82.9z"/>
</g>
<g class="st0">
	<path class="st1" d="M104.5,134.3h-6.4l-1.4,13.6h-2.3l5.2-46.6h3.6l5.4,46.6H106L104.5,134.3z M104.3,132.3l-1.6-15.3
		c-0.5-4.6-1.2-9.4-1.3-14.1h-0.1c-0.5,4.6-0.7,9.4-1.2,14.1l-1.7,15.3H104.3z"/>
</g>
<g class="st0">
	<path class="st1" d="M122,101.3h2.6l-5.4,28.2v18.4h-2.6v-18.4l-5.4-28.2h2.6l4,25.2h0.1L122,101.3z"/>
	<path class="st1" d="M131.8,143.4c0,1.5,0.6,2.8,3,2.8c2.2,0,3.2-0.8,3.2-3v-8c0-2.5-0.5-3.9-1.4-6l-5.4-10.3
		c-1.1-2.1-1.7-4.5-1.7-6.3v-6.8c0-3,2.1-4.8,5.4-4.8c3.5,0,5.3,1.3,5.3,4.3v8.3h-2.3v-8.1c0-1.9-1-2.6-2.8-2.6
		c-1.8,0-2.8,1.2-2.8,2.8v7.2c0,1.5,0.3,2.9,1,4.5l5.3,10.1c1.1,2.2,1.9,4.5,1.9,7v8.8c0,3-1.5,4.8-5.5,4.8c-4,0-5.5-1.8-5.5-5v-8.3
		h2.3V143.4z"/>
</g>
<g>
	<g>
		<defs>
			<path id="SVGID_1_" d="M171.1,146.6c-2.2,0-4-1.8-4-4c0-2.2,1.8-4,4-4c2.2,0,4,1.8,4,4C175.1,144.8,173.3,146.6,171.1,146.6z
				 M174.4,136.9V116c-0.1-2.6-1.1-4.9-3.1-6.8s-4.3-3-6.8-3.1h-3.3v-6.6l-10,10l10,10v-6.6h3.3c0.9,0.1,1.6,0.4,2.3,1
				c0.7,0.7,1,1.4,1,2.3v20.9c-2,1.1-3.3,3.3-3.3,5.7c0,3.7,3,6.6,6.6,6.6s6.6-3,6.6-6.6C177.8,140.2,176.4,138,174.4,136.9z"/>
		</defs>
		<use xlink:href="#SVGID_1_"  style="overflow:visible;fill-rule:evenodd;clip-rule:evenodd;fill:#F5655F;"/>
		<clipPath id="SVGID_2_">
			<use xlink:href="#SVGID_1_"  style="overflow:visible;"/>
		</clipPath>
	</g>
</g>
</svg>
