<svg xmlns="http://www.w3.org/2000/svg" width="360" height="180" viewBox="0 0 360 180"><title>Modern-Web-Logo-URL</title><g style="isolation:isolate"><path d="M335.82,176.74c.87-2.05,2.83-4.39,3.33-3.84a3.31,3.31,0,0,0,2.67,1c1.5,0,3.4-3.74,4.5-1a21.7,21.7,0,0,0,7.17,8.53C354.66,182.1,335.82,176.74,335.82,176.74Z" style="fill:#e6ee9c"/><path d="M353.59,182.43c-1.39,0-5.36-1.12-18-4.73l-1.09-.31.44-1c.62-1.45,2.37-4.26,3.83-4.51a1.26,1.26,0,0,1,1.17.39c.29.32.68.63,2,.67a4.38,4.38,0,0,0,1.11-.78c.8-.67,1.69-1.43,2.76-1.16a2.35,2.35,0,0,1,1.53,1.58c1.59,4,5.81,7.49,6.74,8l.76.44-.29.86C354.32,182.2,354.22,182.43,353.59,182.43Zm-16.33-6.33c4,1.12,9.05,2.54,12.5,3.46a20.09,20.09,0,0,1-4.36-6.29,1.7,1.7,0,0,0-.17-.34,6.11,6.11,0,0,0-1,.72,4.07,4.07,0,0,1-2.46,1.25,4.62,4.62,0,0,1-2.93-.9A9.77,9.77,0,0,0,337.26,176.11Z" style="fill:#c0ca33"/><path d="M311.66,151.67c15.33,24.39,40.5,29.16,44.17,29.25s3.72,2.08,1.33,4.53c-8.15,8.33-31.83,11.67-41.83,10.27C306.06,194.41,309.17,147.7,311.66,151.67Z" style="fill:#aed581"/><path d="M320.51,197a39.45,39.45,0,0,1-5.33-.31c-3.49-.49-5.73-5.7-6.66-15.48s-.4-29.76,2.43-30.73a1.29,1.29,0,0,1,1.54.64h0c16.4,26.08,43.09,28.77,43.34,28.78,2,0,3.31.65,3.78,1.79.35.85.32,2.31-1.75,4.44C350.51,193.67,331.94,197,320.51,197Zm-9-43.76c-1.37,5.47-2.67,29,1.18,38.28.56,1.35,1.5,3,2.79,3.18,9.64,1.35,33-1.85,41-10,1.17-1.2,1.44-2,1.33-2.28s-.57-.51-2-.54C350.58,181.79,326.58,176.28,311.49,153.25Zm.17-1.59-.85.53h0Z" style="fill:#558b2f"/><g style="opacity:0.5;mix-blend-mode:multiply"><path d="M326,167.71c0,1.88.49,22.44.49,23.31s19.5,0,32.32-8.24C352.37,194.9,324.6,196,322,196s-.4-32.12-.4-32.12Z" style="fill:#aed581"/></g><path d="M317.09,42.61c10,6.91,34.73,35.16,35.23,38.79s-3,6.35-5,8.36-16.9,8.78-17.82,12S335.07,118,335.82,120s-13.5,18.86-15.25,19.43S315,41.19,317.09,42.61Z" style="fill:#e6ee9c"/><path d="M320.56,140.46a1.09,1.09,0,0,1-.95-.57c-1.44-2.45-3-44.55-3.21-49.35-1.75-47.11-.49-48.27-.08-48.66l.59-.55.75.45c8.16,5.65,35,34.63,35.65,39.47.5,3.65-2.35,6.38-4.43,8.38l-.85.82c-.79.79-2.89,2-6.24,3.86-4.06,2.27-10.85,6.07-11.33,7.73-.64,2.23,3.61,11.61,5.21,15.14.54,1.18.92,2,1.09,2.47a2.7,2.7,0,0,1-.37,2.11c-2.11,4.37-13.41,17.94-15.5,18.62A1.06,1.06,0,0,1,320.56,140.46Zm-2.88-96.18c-.89,10.65,1.76,83.17,3.43,93.56,3.35-3.11,13.39-15.38,13.73-17.57-.17-.42-.54-1.23-1-2.24-3-6.57-6.09-13.81-5.32-16.52.65-2.28,5.5-5.14,12.28-8.93a45.6,45.6,0,0,0,5.8-3.52l.88-.86c1.87-1.79,4.2-4,3.84-6.66C350.88,78.39,328.32,52.39,317.68,44.28Zm17.17,75.92Z" style="fill:#c0ca33"/><g style="opacity:0.5;mix-blend-mode:multiply"><path d="M319.55,44.16c16,15.22,2.73,62,4.94,82.61.15,1.37,9.77-4.54,9.45-4-4.61,7.83-11.22,15.91-13.18,15.66s-3.53-94.07-3.26-95.1S319.13,43.76,319.55,44.16Z" style="fill:#e6ee9c"/></g><g style="opacity:0.5;mix-blend-mode:multiply"><path d="M350.32,81.4c-2.17,8-25.33,12.7-23.57,22.59.23,1.29,3.08,10.05,6.4,8.78.67,2-6-9.54-2.33-12.71S347.65,89.57,349,88.12,351,79.06,350.32,81.4Z" style="fill:#e6ee9c"/></g><g style="mix-blend-mode:screen"><path d="M330.83,59.7c-.13.88,1.62,4.63,1.74,5.63s11.83,8.57,12.2,8.44S330.83,59.7,330.83,59.7Z" style="fill:#e6ee9c"/></g><path d="M267.32,125.94c-1.87,1.44-34.17,13.83-35.17,14.33s-1.33,5.75,0,5.87,30.67-4,31.5-3.54" style="fill:#aed581"/><path d="M232.21,147.15h-.14c-.6-.06-1.37-.45-1.66-2-.24-1.28-.2-5,1.31-5.74.29-.15,2-.83,6.95-2.76,8.68-3.4,26.73-10.48,28.06-11.47a1,1,0,0,1,1.4.19,1,1,0,0,1-.18,1.39c-1.22.94-11.39,5-28.55,11.75-3.25,1.27-6.08,2.38-6.69,2.64a7.2,7.2,0,0,0-.24,4c1.22-.08,6.45-.74,11.52-1.39,18.53-2.36,19.6-2.36,20.19-2a1,1,0,0,1-.8,1.82c-1.37-.09-12,1.27-19.14,2.17C236.4,146.73,233.09,147.15,232.21,147.15Zm30.94-3.68Zm0,0h0Z" style="fill:#558b2f"/><g style="opacity:0.5;mix-blend-mode:multiply"><path d="M261.58,129c-.55,1.27-3.74,9.48-4.25,10.42s-14.38,3.76-14.88,3.69-2.58-5.94-4.11-5.33.56,7.1.52,7.59,20.6-2.8,20.6-2.8l9-15.83Z" style="fill:#aed581"/></g><path d="M205.81,118.44c8,8.5,23.68,8.5,31.76,7.35,2.19-.31,1,10.53.7,11.26s3.25,12.11,3.4,14.09-10.14-.1-10.25-1.56c3.06-3.16,2.56-11.65,2.39-12s-19.17,6-25.5,15.07C198.81,148,199.21,120.77,205.81,118.44Z" style="fill:#fffaf0"/><path d="M208.32,153.66a1,1,0,0,1-.44-.1c-6.12-3-8.33-14-7.81-23,.42-7.16,2.44-12.05,5.41-13.1a1,1,0,0,1,1.06.26c7,7.45,21,8.45,30.89,7a1.64,1.64,0,0,1,1.53.65c1.61,2,.67,10.25.3,11.78,0,.73,1,4.15,1.66,6.66a62.73,62.73,0,0,1,1.75,7.17,1.51,1.51,0,0,1-.69,1.38c-1.84,1.26-8-.14-10-1.13-.63-.3-1.47-.81-1.53-1.67a1,1,0,0,1,.28-.77c2.12-2.19,2.34-7.74,2.24-10.07-4,1.21-18.62,7-23.81,14.44A1,1,0,0,1,208.32,153.66Zm-2.71-34c-1.82,1.26-3.22,5.54-3.54,11.05-.48,8.16,1.43,17.6,6,20.64,6.69-8.54,24.22-14.87,25.81-14.77a1.06,1.06,0,0,1,.85.55c.37.71.77,8.5-1.94,12.38,1.64.85,6.5,1.72,7.86,1.37-.2-1.16-1-4-1.64-6.46-1.75-6.43-1.87-7.16-1.64-7.73.38-1.3.87-8.48.13-9.87C227.39,128.2,213.24,127.12,205.61,119.66Zm33.63,17.64,0,.11Z" style="fill:#c1ad8b"/><path d="M238.28,137c-.29.73,3.25,12.11,3.4,14.09s-10.14-.1-10.25-1.56c3.06-3.16,2.56-11.65,2.39-12S238.57,136.31,238.28,137Z" style="fill:#fffaf0"/><path d="M239.58,152.94a21.83,21.83,0,0,1-7.62-1.63c-.63-.3-1.47-.81-1.53-1.67a1,1,0,0,1,.28-.77c2.5-2.58,2.36-9.84,2.16-11a1,1,0,0,1,.32-1.13c.63-.55,4.61-1.41,5.61-.71a1.12,1.12,0,0,1,.46,1.17c0,.75,1,4.15,1.66,6.65a62.73,62.73,0,0,1,1.75,7.17,1.51,1.51,0,0,1-.69,1.38A4.49,4.49,0,0,1,239.58,152.94Zm1.1-1.73h0Zm-7.91-1.7c1.64.85,6.5,1.72,7.86,1.37-.2-1.16-1-4-1.64-6.46-1.05-3.87-1.52-5.68-1.67-6.63a15.54,15.54,0,0,0-2.42.41C235.13,140.6,235,146.35,232.77,149.5Zm6.44-12.1h0Z" style="fill:#c1ad8b"/><path d="M227.17,126.27a57.68,57.68,0,0,0,10.41-.48c2.19-.31,1,10.53.7,11.26a35.12,35.12,0,0,0-9.95,2.39A38.61,38.61,0,0,1,227.17,126.27Z" style="fill:#ffa400"/><path d="M227.66,140.78l-.29-1.08a39.51,39.51,0,0,1-1.2-13.51l.08-1,1,0a57,57,0,0,0,10.22-.47,1.64,1.64,0,0,1,1.53.65c1.69,2.14.56,11.16.24,12L239,138h-.68a34,34,0,0,0-9.57,2.32Zm.43-13.48a37.67,37.67,0,0,0,.93,10.8,38.87,38.87,0,0,1,8.45-2c.35-2.16.67-8,0-9.27A58.79,58.79,0,0,1,228.09,127.3Z" style="fill:#e58d00"/><g style="mix-blend-mode:multiply"><path d="M204.33,131.52c.55,7.59,3.33,13,3.5,14.24,3.9-2.66,17.33-7.34,17.33-7.34s-14.33,5.93-16.63,10.16C206,148.57,202.75,137.77,204.33,131.52Z" style="fill:#fffaf0"/></g><path d="M232.14,139.71c5.06-1.44,1.06,3,.81,3.22,2.5,1.81,2.69,2.84-.79,3.22C229.45,145.46,229.39,141.58,232.14,139.71Z" style="fill:#aed581"/><path d="M232.16,147.14a1,1,0,0,1-.25,0,3.66,3.66,0,0,1-2.74-3,5.4,5.4,0,0,1,2.41-5.24,1,1,0,0,1,.29-.14c.78-.22,2.84-.81,3.6.49.64,1.09-.29,2.59-1.06,3.55.94.79,1.6,1.65,1.34,2.61-.33,1.24-1.95,1.58-3.49,1.74Zm.42-6.52a3.34,3.34,0,0,0-1.44,3.15,1.68,1.68,0,0,0,1.11,1.36,6.55,6.55,0,0,0,1.41-.29,7.57,7.57,0,0,0-1.29-1.1,1,1,0,0,1-.12-1.52,9,9,0,0,0,1.32-1.79A6,6,0,0,0,232.57,140.63Z" style="fill:#558b2f"/><path d="M202.75,77.27c5.57-3-1.18-64.06,65.83-64.06,59.49,0,53.24,63.81,53,68.81s1.5,114.46,1.5,117.11c0,2-5.5,10.19-22.37,11.64-5,.44,1.64-5.82-1.25-6.23-2.43-.34-6.81,3.37-9.34,1.91-2.28-1.31,6.52-7.23,6.47-8.68a32.7,32.7,0,0,0-.08-3.75c-6.65,1-24.67-1.32-30.34-2.41-.89-.17.42,4.68-1.45,5.79-4.63,2.75-17.31,7.28-21.26,6.21-1.84-.5,4.61-5.14,2.88-5.59-3.37-.87-8.93,2.5-11.23,1.63-3.2-1.22,7.21-7.15,7.23-8.12.38-19.62,24.55-65.4,24.28-67.92-21.95-1.67-42.62-3.17-54.53-10.83-1.52-1-2.62-5-2.62-7.25,0-4.56,5.61-5.68,13.87-7.75,2.09-.52.34-3.6,0-3.67-10.83-2-17-4.33-20.57-7C200.38,85.34,198.18,79.77,202.75,77.27Z" style="fill:#aed581"/><path d="M300.22,211.8a2.51,2.51,0,0,1-2.12-.88c-.77-1.09-.13-2.51.49-3.89a10.52,10.52,0,0,0,.59-1.5,10.11,10.11,0,0,0-3.2,1c-2.1.89-4.49,1.89-6.38.81a1.68,1.68,0,0,1-.87-1.28c-.17-1.47,1.5-3.14,4.26-5.71a19.87,19.87,0,0,0,2.57-2.64c0-.67,0-1.14,0-1.55s0-.64,0-1c-7.31.69-23.13-1.4-28.79-2.4,0,.19,0,.39,0,.56,0,1.69,0,4-1.58,5-4.24,2.52-17.51,7.53-22,6.32a1.4,1.4,0,0,1-1-.95c-.3-1,.66-2.1,2-3.57.3-.33.72-.79,1-1.18a18.08,18.08,0,0,0-4.91,1c-2.23.66-4.15,1.24-5.56.7a1.77,1.77,0,0,1-1.24-1.41c-.23-1.65,2-3.49,5.54-6.11a28.86,28.86,0,0,0,2.29-1.82c.41-14.21,12.43-40.77,19.63-56.68,1.91-4.21,3.73-8.24,4.39-10.05-21.57-1.64-41.9-3.23-53.82-10.9-2.05-1.32-3.08-5.9-3.08-8.09,0-5.08,5.55-6.46,13.24-8.37l1.39-.35c.2,0,.22-.11.23-.15a2.7,2.7,0,0,0-.47-1.62c-10.13-1.89-16.71-4.16-20.68-7.13a8.38,8.38,0,0,1-3-6.76,5.7,5.7,0,0,1,3.17-4.75h0c.78-.43,1.55-4.5,2.23-8.09,1.72-9.1,4.33-22.86,13.25-34.66,10.74-14.22,27.85-21.43,50.84-21.43,16.67,0,29.8,5,39,14.81,11.19,11.94,16.52,31.24,15,54.35,0,.3,0,.53,0,.7-.18,3.67.73,64.52,1.21,97.2.17,11.54.29,19.16.29,19.85,0,3.13-6.7,11.21-23.29,12.64C300.66,211.78,300.46,211.8,300.22,211.8Zm-.47-2.06a2.33,2.33,0,0,0,.87,0c16.93-1.46,21.46-9.6,21.46-10.65,0-.68-.12-8.71-.29-19.82-.49-32.71-1.4-93.59-1.21-97.33,0-.17,0-.42,0-.73,1.46-22.55-3.68-41.32-14.49-52.85-8.82-9.41-21.45-14.18-37.55-14.18-51.81,0-58.77,36.78-62.12,54.46-1,5.54-1.63,8.59-3.24,9.47h0a3.76,3.76,0,0,0-2.13,3.14,6.4,6.4,0,0,0,2.25,5c3.71,2.77,10.3,5,20.16,6.82,1,.19,1.79,2.22,1.83,3.24a2.23,2.23,0,0,1-1.76,2.38l-1.4.35c-7.7,1.91-11.72,3.07-11.72,6.43,0,2.34,1.15,5.76,2.16,6.41,11.59,7.45,31.9,9,53.41,10.63l.65,0a1,1,0,0,1,.92.89c.1.91-.83,3.06-4.82,11.89-6.71,14.82-19.19,42.42-19.46,56.15,0,.79-.7,1.33-3.09,3.12-1.38,1-4.14,3.1-4.67,4.07.93.2,2.64-.31,4.16-.77,2.26-.67,4.81-1.44,6.85-.91a1.35,1.35,0,0,1,1,.91c.3,1-.63,2-1.92,3.44-.35.38-.84.92-1.18,1.36,4.23.32,15.21-3.54,19.73-6.23.61-.36.61-2.22.6-3.22,0-1.19,0-2,.56-2.44a1.2,1.2,0,0,1,1-.25c5.87,1.14,23.66,3.38,30,2.41a1,1,0,0,1,1.15.87,12.87,12.87,0,0,1,.09,2.3c0,.41,0,.86,0,1.54,0,1-1,2-3.21,4.05-1.16,1.08-3.25,3-3.59,3.88,1.06.43,2.85-.33,4.43-1s3.08-1.31,4.38-1.12a1.78,1.78,0,0,1,1.4.89c.53,1,0,2.15-.57,3.41A7.15,7.15,0,0,0,299.75,209.74ZM223.14,95.09h0Z" style="fill:#558b2f"/><g style="opacity:0.5;mix-blend-mode:multiply"><path d="M305.72,27.37c15,33.57,8.85,85.11,9.6,87s6.48.73,6.52-1.1C323.31,47.8,316.5,39.27,305.72,27.37Z" style="fill:#aed581"/></g><g style="opacity:0.5;mix-blend-mode:multiply"><path d="M319.26,128.23s.41,67.79.12,69.16-4,7.88-19.71,13.35c8.41.9,23.41-5,23.41-11.62,0-5-1.06-72.91-1.06-72.91Z" style="fill:#aed581"/></g><g style="opacity:0.5;mix-blend-mode:multiply"><path d="M202.75,78.73c-.83.92,2.4-.18,2.56-1.8s.89-7.74.68-9.16S205.1,76.1,202.75,78.73Z" style="fill:#aed581"/></g><g style="opacity:0.5;mix-blend-mode:screen"><path d="M216.95,40.6c24.73-35.67,68-26.67,79.71-17.17C268.77,9.1,233.26,20.1,216.95,40.6Z" style="fill:#aed581"/></g><g style="opacity:0.5;mix-blend-mode:multiply"><polygon points="315.32 131.1 322.02 148.56 322.02 126.22 315.32 131.1" style="fill:#aed581"/></g><g style="opacity:0.5;mix-blend-mode:multiply"><path d="M210.32,104a9.72,9.72,0,0,0,3.54,6.78c4.46,3.12,24.73,10.14,56.83,8.5.75,0-2.45,4.07-4.09,4.33S221.32,119,212.17,112C210,110.4,209.2,103.84,210.32,104Z" style="fill:#aed581"/></g><path d="M250.32,177.19c5.08-20.94,15.38-47.32,27.75-48.12,25.87-1.66,30.86,50.23,31.61,53.61C312.57,195.7,246.45,193.17,250.32,177.19Z" style="fill:#fffaf0"/><path d="M264.71,154.91c1.91,2.78,21.87,4.05,27.79,1.08" style="fill:#fffaf0"/><path d="M280.43,158.69c-7.38,0-15.15-1.18-16.55-3.22a1,1,0,1,1,1.65-1.13c1.4,2,20.65,3.69,26.51.75a1,1,0,0,1,.9,1.79C290.46,158.13,285.54,158.69,280.43,158.69Z" style="fill:#c1ad8b"/><path d="M261.37,171.39c1.91,2.78,22.7,6.25,30,2.53" style="fill:#fffaf0"/><path d="M281.39,176.56c-8.87,0-19.26-2.29-20.84-4.6a1,1,0,1,1,1.65-1.13c1.35,2,21.32,6,28.67,2.21a1,1,0,0,1,.91,1.78C289.36,176.05,285.54,176.56,281.39,176.56Z" style="fill:#c1ad8b"/><path d="M316.07,114.52c2.5-.37,17.75-3.75,18.13-5.87s1-6.12,1.13-7.37c.25-2,2.38-2.13,2.63-.51a14,14,0,0,0,1.25,3.88c.38.75,5.13-.58,5.63-.66,1.5-.22,1.5.78,1.5,1.53s-3.87,3.63-3.87,4.13,3.25,2,3.25,2.75-.87,1.24-1.62,1.49-3.5-.13-4.25,0-22.62,15.67-24.5,17.22" style="fill:#aed581"/><path d="M315.33,132.1a1,1,0,0,1-.64-1.77c.2-.17,23.63-17.19,25-17.43a10.31,10.31,0,0,1,2,0,12.33,12.33,0,0,0,2.1,0,2.63,2.63,0,0,0,.83-.43,15.83,15.83,0,0,0-1.3-.91c-1.18-.77-1.83-1.19-1.83-2s.44-1.07,2-2.45a19.16,19.16,0,0,0,1.9-1.85,2.38,2.38,0,0,0,0-.38,1.43,1.43,0,0,0-.33,0l-.59.14c-3.82.91-5.5,1.11-6.07,0a15.12,15.12,0,0,1-1.34-4.17c0-.08,0-.26-.18-.28s-.4.21-.47.76c-.15,1.24-.75,5.22-1.13,7.42-.59,3.34-18.78,6.66-19,6.69a1,1,0,1,1-.3-2c3.52-.53,16.08-3.62,17.3-5.15.37-2.12,1-6,1.1-7.22a2.61,2.61,0,0,1,2.42-2.51h0a2.2,2.2,0,0,1,2.15,2,12.94,12.94,0,0,0,1,3.26,19.12,19.12,0,0,0,4-.71l.77-.17a2.33,2.33,0,0,1,1.94.43,2.6,2.6,0,0,1,.7,2.09c0,.78-.7,1.49-2.56,3.16l-1,.87.56.37c1.3.84,2.33,1.51,2.33,2.47s-.82,1.93-2.3,2.44a8.72,8.72,0,0,1-2.86.08c-.47,0-1.15-.07-1.45,0-2,1.11-22.32,15.52-24.13,17A1,1,0,0,1,315.33,132.1Zm17.93-23.76Z" style="fill:#558b2f"/><g style="opacity:0.5;mix-blend-mode:multiply"><path d="M315.32,124.52,339.07,112a37.07,37.07,0,0,0,6.4,1c0,1.5-5.65.88-5.65.88l-25.25,17.63Z" style="fill:#aed581"/></g><path d="M223.32,94.1c16,2.83,63.89,5.33,70.72,3.83,1.14-.25-15.37,12.42-17.72,13.5-11.56,5.33-57.17,1-61.22-3.83-4.64-5.53,8.1-5.48,11.39-8.36C228.08,97.87,221.81,93.84,223.32,94.1Z" style="fill:#4d4d4d"/><path d="M256.55,114.9c-17.54,0-39.22-3.08-42.22-6.65-1.08-1.29-1.46-2.5-1.12-3.61.68-2.2,3.88-3.1,7.28-4.06,2.07-.59,4.22-1.19,5.24-2a11.47,11.47,0,0,0-2.25-2.53c-1.08-1-1.68-1.56-1.28-2.37a1.12,1.12,0,0,1,1.3-.57,1,1,0,0,1,.83,1l.51.48c1.66,1.55,2.93,2.83,2.91,4.12a1.71,1.71,0,0,1-.6,1.29c-1.31,1.15-3.65,1.8-6.12,2.5s-5.55,1.57-5.91,2.73c-.16.51.32,1.23.74,1.73,3.46,4.12,48.55,8.87,60,3.57,1.7-.78,11.32-8.06,15.48-11.46a1,1,0,0,1,.42-1.86,15.66,15.66,0,0,0,2-.25,1.07,1.07,0,0,1,1.22.67c.27.79.35,1-8.32,7.63-1.37,1-8.31,6.31-10,7.08C272.84,114.15,265.2,114.9,256.55,114.9Z" style="fill:#558b2f"/><path d="M214.82,105.1c5.06-11.86,64.42-6.25,65,2,.14,2-3.45,4.69-5.41,5C248.07,116.85,212.41,110.77,214.82,105.1Z" style="fill:#ffccc7"/><g style="opacity:0.5;mix-blend-mode:multiply"><path d="M276.12,103.69c4.45,13.25-60.88,4.83-60.8,1.85-2.25,8.29,43.75,9.84,58,6.79C275.9,111.78,284.91,107.52,276.12,103.69Z" style="fill:#ffccc7"/></g><path d="M256.55,114.9c-17.54,0-39.22-3.08-42.22-6.65a4.58,4.58,0,0,1-1.21-3.1,1,1,0,0,1,1-1,1,1,0,0,1,1,1,2.65,2.65,0,0,0,.75,1.83c3.46,4.12,48.55,8.87,60,3.57,1.7-.78,11.32-8.06,15.48-11.46a1,1,0,0,1,.42-1.86,15.66,15.66,0,0,0,2-.25,1.07,1.07,0,0,1,1.22.67c.27.79.35,1-8.32,7.63-1.37,1-8.31,6.31-10,7.08C272.84,114.15,265.2,114.9,256.55,114.9Z" style="fill:#558b2f"/><path d="M257.82,98c.37,1.58,3.38,7.87,5.25,7.5s5.25-5.71,5.38-7" style="fill:#fffaf0"/><path d="M262.92,106.54c-3,0-5.91-7.61-6.07-8.29a1,1,0,1,1,1.95-.45c.42,1.81,3.1,6.62,4.12,6.74,1.22-.25,4.41-5,4.55-6.12a1,1,0,0,1,1.11-.88,1,1,0,0,1,.88,1.09c-.16,1.56-3.75,7.39-6.18,7.88A1.77,1.77,0,0,1,262.92,106.54Z" style="fill:#c1ad8b"/><path d="M213.87,92.75c.24,1.61,2.76,8.11,4.65,7.88s5.68-5.28,5.91-6.56" style="fill:#fffaf0"/><path d="M218.43,101.64c-3.09,0-5.44-8-5.55-8.74a1,1,0,1,1,2-.3c.28,1.84,2.58,6.84,3.58,7,1.24-.15,4.78-4.61,5-5.75a1,1,0,0,1,1.17-.79,1,1,0,0,1,.8,1.15c-.28,1.55-4.3,7.08-6.77,7.38Z" style="fill:#c1ad8b"/><path d="M279.44,99.52c-9.62,0-21.84-.61-34-1.78C234,96.64,207,93.48,202,87.76a1,1,0,1,1,1.51-1.31c6.89,7.92,74.32,13.31,91,10.2a1,1,0,1,1,.37,2A95.75,95.75,0,0,1,279.44,99.52Z" style="fill:#558b2f"/><path d="M253.24,65.08C257.82,50,278.58,54.47,271,73.52c-.44,1.09-.86.6-.75.17,4.92-19.41-12.42-18.92-14.93-8.49C254.4,69,252.16,68.63,253.24,65.08Z" style="fill:#416b20"/><path d="M270.47,74.69a.71.71,0,0,1-.22,0,.88.88,0,0,1-.49-1.09c1.55-6.11,1-10.83-1.59-13.32a6.45,6.45,0,0,0-6.38-1.4,8.81,8.81,0,0,0-6,6.46c-.41,1.68-1.13,2.82-1.93,3a1,1,0,0,1-1-.26c-.52-.54-.56-1.69-.12-3.16h0c1.49-4.89,4.9-8.32,9.13-9.18a9.06,9.06,0,0,1,8.92,3c1.67,2,4,6.61.65,15C271.14,74.5,270.75,74.69,270.47,74.69Zm-6.62-17.13a7.14,7.14,0,0,1,5,2c2.45,2.37,3.28,6.47,2.4,11.71,2-6.55.16-10.2-1.23-11.86a8.08,8.08,0,0,0-8-2.64c-3.86.78-7,4-8.37,8.49-.43,1.42-.24,2.09-.12,2.18s.8-.57,1.22-2.32a9.81,9.81,0,0,1,6.68-7.19A8.38,8.38,0,0,1,263.85,57.55Z" style="fill:#416b20"/><ellipse cx="256.61" cy="71.38" rx="4.97" ry="8.55" style="fill:#416b20"/><ellipse cx="259.48" cy="70.07" rx="2" ry="4.92" style="fill:#fffaf0"/><path d="M253.24,65.08c3.81-12.51,18.78-11.56,19.39,0,.12,2.36-1.35,2.46-1.64.24-1.37-10.62-13.6-8.79-15.68-.16C254.4,69,252.16,68.63,253.24,65.08Z" style="fill:#416b20"/><path d="M253.58,68.39a1,1,0,0,1-.7-.3c-.52-.54-.56-1.69-.12-3.16h0c2.19-7.2,7.75-9.86,12.27-9.31s7.82,4.29,8.1,9.47c.09,1.66-.52,2.31-1.12,2.36s-1.3-.45-1.51-2c-.53-4.12-2.87-6.69-6.26-6.87a8.55,8.55,0,0,0-8.43,6.76c-.41,1.68-1.13,2.82-1.93,3A1.06,1.06,0,0,1,253.58,68.39Zm.14-3.17c-.43,1.42-.24,2.09-.12,2.18s.8-.57,1.22-2.32a9.58,9.58,0,0,1,9.46-7.52c3.91.21,6.6,3.1,7.2,7.74.11.86.39,1.14.46,1.17a2.58,2.58,0,0,0,.19-1.32c-.25-4.68-3.08-8-7.22-8.53s-9.17,2-11.19,8.6Z" style="fill:#416b20"/><path d="M254.82,47.52c17.81-5.25,27,6.25,27.06,7s6.3-3.46,6.3-7.75S275.7,31.15,255.07,40.6C252.61,41.73,253.08,48,254.82,47.52Z" style="fill:#416b20"/><ellipse cx="212.73" cy="68.07" rx="4.97" ry="8.55" style="fill:#416b20"/><path d="M207.64,59.46c.64-3,7.74-7.6,8.33,3.35.15,2.85,1.52,6,1.52,3,0-13.81-8.2-13.67-10.41-6.48C206.77,60.35,207.47,60.24,207.64,59.46Z" style="fill:#416b20"/><path d="M217.21,67.55c-1.12,0-1.68-3.5-1.74-4.71-.21-4-1.34-6.27-3.18-6.42s-3.87,1.83-4.15,3.15a1.23,1.23,0,0,1-.76,1,.65.65,0,0,1-.66-.17,1.13,1.13,0,0,1-.12-1.17c1-3.4,3.52-5.5,6-5.13S218,57.77,218,65.83c0,.59,0,1.69-.76,1.71ZM212.1,55.41h.26c1.39.11,3.78,1.22,4.1,7.37a11.9,11.9,0,0,0,.52,2.86c0-7.29-2.35-10.25-4.53-10.58a3.75,3.75,0,0,0-3.33,1.49A5,5,0,0,1,212.1,55.41Z" style="fill:#416b20"/><ellipse cx="215.55" cy="67.31" rx="2" ry="4.92" style="fill:#fffaf0"/><path d="M224.55,46.09c-7.6-1.69-11.64-2-16.1,1.56-1.94,1.55-3-3.87.25-8,2-2.56,10.29-5,17.13,1C227.86,42.39,226.32,46.48,224.55,46.09Z" style="fill:#416b20"/><path d="M21.23,127.18a.85.85,0,0,1,1-1H23a.84.84,0,0,1,1,1v1.3a4.51,4.51,0,0,1-.09.84h.06A5.87,5.87,0,0,1,29,125.89c2.45,0,3.86,1.12,4.38,3.32h.06a5.9,5.9,0,0,1,5.16-3.32c3.32,0,4.82,1.87,4.82,5.59v8.39a.84.84,0,0,1-1,1h-.89a.85.85,0,0,1-1-1v-7.79c0-2-.4-3.66-2.57-3.66-2.71,0-4.33,2.8-4.33,5.59v5.85a.83.83,0,0,1-.92,1h-.92a.83.83,0,0,1-.92-1v-7.79c0-1.9-.29-3.66-2.54-3.66-2.77,0-4.38,2.88-4.38,5.59v5.85a.84.84,0,0,1-1,1h-.89a.85.85,0,0,1-1-1Z" style="fill:#1c97a5"/><path d="M54.13,125.89a7.64,7.64,0,1,1-7.84,7.61A7.61,7.61,0,0,1,54.13,125.89Zm0,12.86a5.22,5.22,0,1,0-5-5.25A5,5,0,0,0,54.13,138.75Z" style="fill:#1c97a5"/><path d="M70.79,125.89a5,5,0,0,1,4.53,2.51h.06a5.56,5.56,0,0,1-.09-1v-6a.84.84,0,0,1,1-1h.89a.84.84,0,0,1,1,1v18.45a.84.84,0,0,1-1,1h-.75c-.63,0-1-.32-1-.89v-.84a4.48,4.48,0,0,1,.06-.72h-.06a5.22,5.22,0,0,1-4.82,2.8c-4,0-6.43-3.11-6.43-7.64S66.92,125.89,70.79,125.89Zm.37,12.86c2.16,0,4.21-1.53,4.21-5.25,0-2.6-1.36-5.16-4.15-5.16-2.28,0-4.18,1.87-4.18,5.19S68.74,138.75,71.16,138.75Z" style="fill:#1c97a5"/><path d="M88.52,125.89c4,0,6.29,2.88,6.29,6.95a1,1,0,0,1-1,1H84.08a4.92,4.92,0,0,0,5,4.93,6,6,0,0,0,3.49-1.15.85.85,0,0,1,1.3.32l.26.43a.85.85,0,0,1-.29,1.27A8.67,8.67,0,0,1,89,141.17a7.43,7.43,0,0,1-7.73-7.64C81.22,128.88,84.37,125.89,88.52,125.89ZM92,132c-.09-2.57-1.61-3.89-3.55-3.89A4.29,4.29,0,0,0,84.19,132Z" style="fill:#1c97a5"/><path d="M97.86,127.18a.85.85,0,0,1,1-1h.81a.84.84,0,0,1,1,1v1.67a7,7,0,0,1-.09,1.1h.06c.63-1.93,2.28-3.83,4.47-3.83.66,0,.92.32.92,1v.81c0,.63-.37,1-1,1-2.86,0-4.24,3.09-4.24,6v5.08a.84.84,0,0,1-1,1h-.89a.85.85,0,0,1-1-1Z" style="fill:#1c97a5"/><path d="M108.12,127.18a.85.85,0,0,1,1-1h.81a.84.84,0,0,1,1,1v1.3a4.51,4.51,0,0,1-.09.84h.06a6.05,6.05,0,0,1,5.54-3.43c3.43,0,5,1.87,5,5.59v8.39a.84.84,0,0,1-1,1h-.89a.85.85,0,0,1-1-1v-7.76c0-2-.4-3.66-2.74-3.66-2.83,0-4.87,2.36-4.87,5.39v6a.84.84,0,0,1-1,1h-.89a.85.85,0,0,1-1-1Z" style="fill:#1c97a5"/><path d="M131,127.3c-.2-.66.12-1.07.81-1.07h1a1,1,0,0,1,1.07.81l2.85,9.43c.2.75.35,1.56.35,1.56h.06s.17-.81.4-1.56l2.94-9.4a1,1,0,0,1,1-.81h.89a1,1,0,0,1,1.07.81l2.94,9.4c.2.75.37,1.56.37,1.56h.06a15.18,15.18,0,0,1,.37-1.56L150,127a.94.94,0,0,1,1-.81h1c.69,0,1,.4.81,1.07L148.71,140a1,1,0,0,1-1.07.81h-1.41a1,1,0,0,1-1.07-.81l-2.8-8.56a11.72,11.72,0,0,1-.4-1.59h-.06a14.88,14.88,0,0,1-.43,1.59L138.71,140a1,1,0,0,1-1.07.81H136.2a1,1,0,0,1-1.07-.81Z" style="fill:#1c97a5"/><path d="M161.8,125.89c4,0,6.29,2.88,6.29,6.95a1,1,0,0,1-1,1h-9.75a4.92,4.92,0,0,0,5,4.93,6,6,0,0,0,3.49-1.15.85.85,0,0,1,1.3.32l.26.43a.85.85,0,0,1-.29,1.27,8.67,8.67,0,0,1-4.93,1.56,7.43,7.43,0,0,1-7.73-7.64C154.5,128.88,157.65,125.89,161.8,125.89Zm3.49,6.08c-.09-2.57-1.62-3.89-3.55-3.89a4.29,4.29,0,0,0-4.27,3.89Z" style="fill:#1c97a5"/><path d="M171.17,121.42a.84.84,0,0,1,1-1H173a.83.83,0,0,1,.92,1v5.91a8.35,8.35,0,0,1-.09,1.24h.06a5.29,5.29,0,0,1,4.76-2.68c3.86,0,6.37,3.11,6.37,7.61,0,4.67-2.8,7.67-6.6,7.67a5.13,5.13,0,0,1-4.67-2.77h-.06a3.93,3.93,0,0,1,.09.86V140c0,.52-.35.84-1,.84h-.72a.84.84,0,0,1-1-1ZM178,138.75c2.34,0,4.24-1.87,4.24-5.19s-1.7-5.22-4.12-5.22c-2.19,0-4.21,1.56-4.21,5.19C173.88,136.21,175.23,138.75,178,138.75Z" style="fill:#1c97a5"/><path d="M50.26,150.94a.41.41,0,0,1,.46-.46h.39a.41.41,0,0,1,.46.46v.63a2.19,2.19,0,0,1,0,.4h0A2.83,2.83,0,0,1,54,150.31a1.93,1.93,0,0,1,2.12,1.6h0a2.85,2.85,0,0,1,2.49-1.6c1.6,0,2.33.9,2.33,2.7v4.05a.41.41,0,0,1-.46.46h-.43a.41.41,0,0,1-.46-.46V153.3c0-1-.2-1.77-1.24-1.77-1.31,0-2.09,1.35-2.09,2.7v2.83a.4.4,0,0,1-.45.46H55.4a.4.4,0,0,1-.45-.46V153.3c0-.92-.14-1.77-1.23-1.77-1.34,0-2.12,1.39-2.12,2.7v2.83a.41.41,0,0,1-.46.46h-.43a.41.41,0,0,1-.46-.46Z" style="fill:#1c97a5"/><path d="M66.14,150.31A3.69,3.69,0,1,1,62.35,154,3.68,3.68,0,0,1,66.14,150.31Zm0,6.21A2.52,2.52,0,1,0,63.72,154,2.43,2.43,0,0,0,66.14,156.52Z" style="fill:#1c97a5"/><path d="M74.19,150.31a2.39,2.39,0,0,1,2.19,1.21h0a2.7,2.7,0,0,1,0-.47v-2.9a.41.41,0,0,1,.46-.46h.43a.41.41,0,0,1,.46.46v8.91a.41.41,0,0,1-.46.46h-.36c-.31,0-.46-.15-.46-.43v-.4a2.16,2.16,0,0,1,0-.35h0a2.52,2.52,0,0,1-2.33,1.35c-1.91,0-3.11-1.5-3.11-3.69S72.32,150.31,74.19,150.31Zm.18,6.21c1,0,2-.74,2-2.53,0-1.25-.65-2.49-2-2.49-1.1,0-2,.9-2,2.51S73.2,156.52,74.37,156.52Z" style="fill:#1c97a5"/><path d="M82.75,150.31c1.95,0,3,1.39,3,3.36a.47.47,0,0,1-.47.47H80.6A2.38,2.38,0,0,0,83,156.52a2.89,2.89,0,0,0,1.69-.56.41.41,0,0,1,.63.15l.13.21a.41.41,0,0,1-.14.61,4.18,4.18,0,0,1-2.38.75A3.59,3.59,0,0,1,79.22,154,3.45,3.45,0,0,1,82.75,150.31Zm1.68,2.94a1.71,1.71,0,0,0-1.71-1.88,2.07,2.07,0,0,0-2.06,1.88Z" style="fill:#1c97a5"/><path d="M87.25,150.94a.41.41,0,0,1,.46-.46h.39a.41.41,0,0,1,.46.46v.81a3.4,3.4,0,0,1,0,.53h0a2.48,2.48,0,0,1,2.16-1.85c.32,0,.45.15.45.46v.39c0,.31-.18.46-.5.46-1.38,0-2,1.49-2,2.88v2.45a.41.41,0,0,1-.46.46h-.43a.41.41,0,0,1-.46-.46Z" style="fill:#1c97a5"/><path d="M92.21,150.94a.41.41,0,0,1,.46-.46h.39a.41.41,0,0,1,.46.46v.63a2.19,2.19,0,0,1,0,.4h0a2.92,2.92,0,0,1,2.67-1.66c1.66,0,2.41.9,2.41,2.7v4.05a.41.41,0,0,1-.46.46h-.43a.41.41,0,0,1-.46-.46v-3.75c0-1-.19-1.77-1.32-1.77a2.43,2.43,0,0,0-2.35,2.6v2.91a.41.41,0,0,1-.46.46h-.43a.41.41,0,0,1-.46-.46Z" style="fill:#1c97a5"/><path d="M100.35,153.69v-.28a.42.42,0,0,1,.46-.46H104a.41.41,0,0,1,.46.46v.28a.41.41,0,0,1-.46.46h-3.15A.41.41,0,0,1,100.35,153.69Z" style="fill:#1c97a5"/><path d="M105.62,151c-.1-.32.06-.52.39-.52h.46a.48.48,0,0,1,.52.39l1.38,4.55c.1.36.17.75.17.75h0s.08-.39.19-.75l1.42-4.54a.46.46,0,0,1,.5-.39h.43a.48.48,0,0,1,.52.39l1.42,4.54c.1.36.18.75.18.75h0a7.27,7.27,0,0,1,.18-.75l1.38-4.55a.45.45,0,0,1,.5-.39h.46c.33,0,.49.2.39.52l-2,6.14a.49.49,0,0,1-.52.39H113a.48.48,0,0,1-.52-.39L111.11,153a5.59,5.59,0,0,1-.2-.77h0a7.07,7.07,0,0,1-.21.77l-1.34,4.14a.48.48,0,0,1-.52.39h-.7a.49.49,0,0,1-.52-.39Z" style="fill:#1c97a5"/><path d="M120.49,150.31c1.95,0,3,1.39,3,3.36a.47.47,0,0,1-.47.47h-4.71a2.38,2.38,0,0,0,2.44,2.38,2.89,2.89,0,0,0,1.68-.56.41.41,0,0,1,.63.15l.13.21a.41.41,0,0,1-.14.61,4.18,4.18,0,0,1-2.38.75A3.59,3.59,0,0,1,117,154,3.45,3.45,0,0,1,120.49,150.31Zm1.68,2.94a1.71,1.71,0,0,0-1.71-1.88,2.07,2.07,0,0,0-2.06,1.88Z" style="fill:#1c97a5"/><path d="M125,148.15a.41.41,0,0,1,.46-.46h.43a.4.4,0,0,1,.45.46V151a4,4,0,0,1,0,.6h0a2.55,2.55,0,0,1,2.3-1.3c1.87,0,3.08,1.5,3.08,3.68s-1.35,3.7-3.19,3.7a2.48,2.48,0,0,1-2.26-1.34h0a1.89,1.89,0,0,1,0,.42v.35c0,.25-.17.4-.46.4h-.35a.41.41,0,0,1-.46-.46Zm3.29,8.37c1.13,0,2-.9,2-2.51s-.82-2.52-2-2.52-2,.75-2,2.51C126.32,155.3,127,156.52,128.3,156.52Z" style="fill:#1c97a5"/><path d="M133.12,156.52a.41.41,0,0,1,.46-.46h.53a.41.41,0,0,1,.46.46v.54a.41.41,0,0,1-.46.46h-.53a.41.41,0,0,1-.46-.46Z" style="fill:#1c97a5"/><path d="M139.74,150.31a3.69,3.69,0,1,1-3.79,3.68A3.68,3.68,0,0,1,139.74,150.31Zm0,6.21a2.52,2.52,0,1,0-2.42-2.53A2.43,2.43,0,0,0,139.74,156.52Z" style="fill:#1c97a5"/><path d="M145,150.94a.41.41,0,0,1,.46-.46h.39a.41.41,0,0,1,.46.46v.81a3.4,3.4,0,0,1,0,.53h0a2.48,2.48,0,0,1,2.16-1.85c.32,0,.45.15.45.46v.39c0,.31-.18.46-.5.46-1.38,0-2,1.49-2,2.88v2.45a.41.41,0,0,1-.46.46h-.43a.41.41,0,0,1-.46-.46Z" style="fill:#1c97a5"/><path d="M150.91,159a4,4,0,0,0,1.53.31c1.2,0,2.21-.54,2.21-2v-.61a2.78,2.78,0,0,1,0-.45h0a2.22,2.22,0,0,1-2.09,1.2c-2,0-3.17-1.56-3.17-3.62s1.11-3.51,3.15-3.51a2.22,2.22,0,0,1,2.2,1.18h0a.79.79,0,0,1,0-.22v-.4c0-.24.15-.39.46-.39h.33a.41.41,0,0,1,.46.46v6.29c0,2.33-1.78,3.22-3.5,3.22a5.3,5.3,0,0,1-2-.39.4.4,0,0,1-.24-.61l.1-.24A.39.39,0,0,1,150.91,159Zm3.77-5.11c0-1.85-.9-2.38-1.95-2.38-1.27,0-1.95.89-1.95,2.28s.77,2.51,2,2.51C153.79,156.27,154.68,155.68,154.68,153.86Z" style="fill:#1c97a5"/></g></svg>