<svg xmlns="http://www.w3.org/2000/svg" width="1140" height="180" viewBox="0 0 1140 180"><title>NG-Cruise-Final</title><g style="isolation:isolate"><rect y="-137" width="1280" height="492.15" style="fill:#fff"/><g style="mix-blend-mode:multiply"><path d="M1280.13,368.87H.13V143.09C417,202,927,183,1280.13,103.09Z" style="fill:#83d6f2"/></g><g style="mix-blend-mode:multiply"><path d="M1280.13,261C837,390,543,92,.13,239V-137h1280Z" style="fill:#e1f9ff"/></g><g style="opacity:0.5;mix-blend-mode:multiply"><path d="M419.31,176c424.67,88.67,858.13,60,861.13,48.67V103.09C1043.44,156,736,184.67,419.31,176Z" style="fill:#90d5f4"/></g><g style="opacity:0.75"><polygon points="998.92 177.35 999.57 174.26 1002.57 173.28 1004.92 175.39 1004.27 178.48 1001.27 179.46 998.92 177.35" style="fill:#e1f9ff"/><polygon points="1101 161 1098.27 158.53 1099.05 154.94 1102.55 153.81 1105.27 156.28 1104.5 159.87 1101 161" style="fill:#e1f9ff"/></g><polygon points="125.25 21.78 119.06 16.95 126.34 14.01 125.25 21.78" style="fill:#ef4457"/><path d="M125.25,22.28a.5.5,0,0,1-.31-.11l-6.19-4.83a.5.5,0,0,1,.12-.86l7.28-2.94a.5.5,0,0,1,.68.53l-1.09,7.78a.5.5,0,0,1-.5.43Zm-5.2-5.2,4.82,3.77.85-6.06Z" style="fill:#ef4457"/><polygon points="105.96 27.27 100.38 21.74 107.95 19.67 105.96 27.27" style="fill:#a5d36a"/><path d="M106,27.77a.5.5,0,0,1-.35-.15L100,22.1a.5.5,0,0,1,.22-.84l7.58-2.07a.5.5,0,0,1,.62.61l-2,7.59a.5.5,0,0,1-.35.35ZM101.35,22l4.35,4.31,1.56-5.92Z" style="fill:#a5d36a"/><polygon points="84.94 29.43 80.74 22.8 88.58 22.47 84.94 29.43" style="fill:#9785e7"/><path d="M84.94,29.93a.5.5,0,0,1-.42-.23l-4.2-6.63a.5.5,0,0,1,.4-.77L88.56,22a.51.51,0,0,1,.44.23.5.5,0,0,1,0,.5l-3.64,7a.5.5,0,0,1-.42.27Zm-3.32-6.67,3.28,5.17L87.74,23Z" style="fill:#9785e7"/><polygon points="63.01 29.76 59.95 22.53 67.74 23.49 63.01 29.76" style="fill:#ffc300"/><path d="M63,30.26H63a.5.5,0,0,1-.4-.3l-3.07-7.23a.5.5,0,0,1,.06-.5A.49.49,0,0,1,60,22l7.79,1a.5.5,0,0,1,.34.8l-4.73,6.27A.5.5,0,0,1,63,30.26Zm-2.27-7.13,2.39,5.63,3.68-4.89Z" style="fill:#ffc300"/><polygon points="42.6 23.46 42.91 15.61 49.55 19.81 42.6 23.46" style="fill:#ef4457"/><path d="M42.6,24a.5.5,0,0,1-.5-.52l.31-7.85a.5.5,0,0,1,.77-.4l6.64,4.19a.5.5,0,0,1,0,.87l-7,3.65A.5.5,0,0,1,42.6,24Zm.78-7.46-.24,6.12,5.42-2.85Z" style="fill:#ef4457"/><path d="M75.49,23.74c-15.76,0-31.77-3.12-44.28-12.3L33,9c35.47,26,99.17,1,101.6-1.09l2.11,2.14C134.19,12.57,105.29,23.74,75.49,23.74Z" style="fill:#3c4c56"/><polygon points="270.36 60.55 270.36 52.69 277.16 56.62 270.36 60.55" style="fill:#ffc300"/><path d="M270.36,61a.5.5,0,0,1-.5-.5V52.69a.5.5,0,0,1,.75-.43l6.8,3.93a.5.5,0,0,1,0,.87L270.61,61A.5.5,0,0,1,270.36,61Zm.5-7.49v6.12l5.3-3.06Z" style="fill:#ffc300"/><polygon points="254.37 52.78 254.08 44.93 261.02 48.6 254.37 52.78" style="fill:#ef4457"/><path d="M254.37,53.28a.5.5,0,0,1-.5-.48l-.29-7.85a.5.5,0,0,1,.73-.46l6.94,3.68a.5.5,0,0,1,0,.87l-6.65,4.17A.5.5,0,0,1,254.37,53.28Zm.25-7.5.22,6.12L260,48.64Z" style="fill:#ef4457"/><polygon points="237.34 43.68 237.34 35.83 244.14 39.76 237.34 43.68" style="fill:#a5d36a"/><path d="M237.34,44.18a.5.5,0,0,1-.5-.5V35.83a.5.5,0,0,1,.75-.43l6.8,3.93a.5.5,0,0,1,0,.87l-6.8,3.93A.5.5,0,0,1,237.34,44.18Zm.5-7.49v6.12l5.3-3.06Z" style="fill:#a5d36a"/><polygon points="220.45 33.51 220.96 25.68 227.49 30.04 220.45 33.51" style="fill:#9785e7"/><path d="M220.45,34a.5.5,0,0,1-.5-.53l.52-7.84a.5.5,0,0,1,.78-.38l6.53,4.36a.5.5,0,0,1-.06.86l-7,3.47A.5.5,0,0,1,220.45,34Zm1-7.44-.4,6.11L226.49,30Z" style="fill:#9785e7"/><polygon points="204.31 23.39 204.82 15.55 211.35 19.91 204.31 23.39" style="fill:#ffc300"/><path d="M204.31,23.88a.5.5,0,0,1-.5-.53l.52-7.84a.5.5,0,0,1,.78-.38l6.53,4.36a.5.5,0,0,1-.06.86l-7,3.47A.5.5,0,0,1,204.31,23.88Zm1-7.44-.4,6.11,5.49-2.71Z" style="fill:#ffc300"/><path d="M292.12,64.41c-17.57-6.33-67.77-31.9-93.79-53l1.89-2.33C226,30,275.73,55.32,293.14,61.59Z" style="fill:#3c4c56"/><polyline points="0.24 77.76 274.43 77.76 319.37 139.33 0.24 139.33" style="fill:#fff"/><path d="M319.37,140.83H.24v-3H316.42L273.67,79.26H.24v-3H274.43a1.5,1.5,0,0,1,1.21.62l44.94,61.57a1.5,1.5,0,0,1-1.21,2.38Z" style="fill:#3c4c56"/><g style="opacity:0.25"><polygon points="308.33 124.67 0.24 124.67 0.24 139.33 320.33 139.33 308.33 124.67" style="fill:#3c4c56"/></g><path d="M.54,9h29.3a2.7,2.7,0,0,1,2.26,1.23L67.25,64.28H.54Z" style="fill:#fff"/><path d="M68.51,63.46,33.35,9.16A4.43,4.43,0,0,0,29.84,7H.44v3h29.4c.41,0,.78.56,1,.91L64.49,63H.44v3H67.25a1.61,1.61,0,0,0,1.32-.9A1.71,1.71,0,0,0,68.51,63.46Z" style="fill:#3c4c56"/><path d="M0,35V9H29.84a2.67,2.67,0,0,1,2.26,1.19L48.25,35Z" style="fill:#3c4c56"/><path d="M132.42,9H197a2.7,2.7,0,0,1,2.26,1.23l35.16,54.05H129.72V11.69A2.7,2.7,0,0,1,132.42,9Z" style="fill:#fff"/><path d="M234.43,65.78H129.72a1.5,1.5,0,0,1-1.5-1.5V11.69a4.2,4.2,0,0,1,4.2-4.2H197a4.18,4.18,0,0,1,3.52,1.91l35.16,54.05a1.5,1.5,0,0,1-1.26,2.32Zm-103.21-3H231.67L198,11a1.19,1.19,0,0,0-1-.54h-64.6a1.2,1.2,0,0,0-1.2,1.2Z" style="fill:#3c4c56"/><path d="M130.44,35V11.69c0-1.49.49-2.69,2-2.69H197a2.67,2.67,0,0,1,2.26,1.19L215.43,35Z" style="fill:#3c4c56"/><polyline points="0.24 77.76 274.43 77.76 292.41 62.93 0.24 62.93" style="fill:#fff"/><path d="M274.43,79.26H.24v-3H273.89l14.34-11.83H.24v-3H292.41a1.5,1.5,0,0,1,1,2.66l-18,14.83A1.5,1.5,0,0,1,274.43,79.26Z" style="fill:#3c4c56"/><path d="M109.57,91.24h147.9a1.8,1.8,0,0,1,1.57.92l8.07,14.53a1.8,1.8,0,0,1-1.57,2.67H117.64a1.8,1.8,0,0,1-1.57-.92L108,93.91A1.8,1.8,0,0,1,109.57,91.24Z" style="fill:#3c4c56"/><path d="M265.53,110.36H117.64a2.8,2.8,0,0,1-2.45-1.44L107.12,94.4a2.8,2.8,0,0,1,2.45-4.16h147.9a2.8,2.8,0,0,1,2.45,1.44L268,106.21a2.8,2.8,0,0,1-2.45,4.16Zm-156-18.12a.8.8,0,0,0-.7,1.19L116.94,108a.8.8,0,0,0,.7.41h147.9a.8.8,0,0,0,.7-1.19l-8.07-14.52a.8.8,0,0,0-.7-.41Z" style="fill:#3c4c56"/><path d="M77.72,106.21,69.65,91.56A2.92,2.92,0,0,0,67.2,90H.44v2H67.2a.93.93,0,0,1,.7.53L76,107.12a.52.52,0,0,1,0,.64c-.07.12-.28.24-.69.24H.44v2H75.27a2.62,2.62,0,0,0,2.41-1.2A2.45,2.45,0,0,0,77.72,106.21Z" style="fill:#3c4c56"/><path d="M76.84,106.51,68.77,92a1.83,1.83,0,0,0-1.57-1H.44v18H75.27A1.67,1.67,0,0,0,76.84,106.51Z" style="fill:#3c4c56"/><path d="M.44,130H388.13c0,52-89.88,72-130.78,144H.44" style="fill:#fff"/><path d="M257.35,275H.44v-3h256c19.49-33.87,49.56-56.13,76.1-75.79,28.45-21.07,53.1-39.33,54-65.21H.44v-3H388.13a1.5,1.5,0,0,1,1.5,1.5c0,28.19-25.61,47.15-55.26,69.12-26.51,19.63-56.55,41.88-75.71,75.62A1.5,1.5,0,0,1,257.35,275Z" style="fill:#3c4c56"/><g style="opacity:0.5"><path d="M247.31,158.38l5.26-13.64a1.23,1.23,0,0,1,1.26-.85h1.6a1.24,1.24,0,0,1,1.26.85L262,158.38c.27.74,0,1.24-.85,1.24h-1.46a1.24,1.24,0,0,1-1.26-.85l-.79-2.07h-6.07l-.76,2a1.23,1.23,0,0,1-1.24.88h-1.42C247.35,159.62,247,159.13,247.31,158.38Zm9.62-4.5-2.29-6.34-2.36,6.34Z" style="fill:#3c4c56"/><path d="M263.94,158.54v-9.39a1,1,0,0,1,1.08-1.08h1.33a1,1,0,0,1,1.08,1.08v.76a3.53,3.53,0,0,1,3.51-2.09c3.1,0,4.23,2.43,4.23,5.15v5.57a1,1,0,0,1-1.1,1.08h-1.3a1,1,0,0,1-1.08-1.08v-5.33c0-1.62-.63-2.56-1.82-2.56s-2.43.92-2.43,3.08v4.81a1,1,0,0,1-1.08,1.08H265A1,1,0,0,1,263.94,158.54Z" style="fill:#3c4c56"/><path d="M278.81,163.87a1,1,0,0,1-.38-1.48l.27-.49a1,1,0,0,1,1.46-.41,6.15,6.15,0,0,0,2.83.72,3.05,3.05,0,0,0,3.35-3.35V158a4.28,4.28,0,0,1-3.73,1.87c-3.26,0-5.53-2.72-5.53-6s2.27-6,5.53-6a4.17,4.17,0,0,1,3.69,1.89v-.65c0-.65.4-1,1.1-1h1.24a1,1,0,0,1,1.08,1.08v9.62c0,4.43-2.92,6.14-6.41,6.14A9.63,9.63,0,0,1,278.81,163.87Zm7.55-10a3,3,0,0,0-3-3.28,3.31,3.31,0,0,0,0,6.56A3,3,0,0,0,286.36,153.84Z" style="fill:#3c4c56"/><path d="M292.34,154.72v-5.57a1,1,0,0,1,1.08-1.08h1.33a1,1,0,0,1,1.08,1.08v5.33c0,1.62.63,2.58,1.82,2.58s2.43-.94,2.43-3.1v-4.81a1,1,0,0,1,1.08-1.08h1.3a1,1,0,0,1,1.1,1.08v9.39a1,1,0,0,1-1.1,1.08h-1.3a1,1,0,0,1-1.08-1.08v-.74a3.58,3.58,0,0,1-3.53,2.07C293.46,159.87,292.34,157.44,292.34,154.72Z" style="fill:#3c4c56"/><path d="M306.38,158.54V144.45a1,1,0,0,1,1.08-1.08h1.3a1,1,0,0,1,1.1,1.08v14.09a1,1,0,0,1-1.1,1.08h-1.3A1,1,0,0,1,306.38,158.54Z" style="fill:#3c4c56"/><path d="M312,153.84c0-3.39,2.31-6,5.55-6a4.18,4.18,0,0,1,3.71,1.89v-.56a1,1,0,0,1,1.08-1.08h1.33a1,1,0,0,1,1.08,1.08v9.39a1,1,0,0,1-1.08,1.08h-1.33a1,1,0,0,1-1.08-1.08V158a4.21,4.21,0,0,1-3.71,1.87C314.29,159.87,312,157.26,312,153.84Zm9.31,0a3,3,0,0,0-2.94-3.24,2.94,2.94,0,0,0-2.88,3.24c0,1.8,1.06,3.24,2.88,3.24A3,3,0,0,0,321.28,153.84Z" style="fill:#3c4c56"/><path d="M327.51,158.54v-9.39a1,1,0,0,1,1.08-1.08h1.24a1,1,0,0,1,1.08,1.08v1.44a3.11,3.11,0,0,1,3-2.76l.38,0c.54,0,.65.47.65.92v1.57c0,.63-.31.9-.79.83a5.13,5.13,0,0,0-.56,0c-1.35,0-2.58.88-2.58,3.78v3.64a1,1,0,0,1-1.08,1.08h-1.33A1,1,0,0,1,327.51,158.54Z" style="fill:#3c4c56"/></g><g style="opacity:0.15;mix-blend-mode:multiply"><path d="M388.13,130.06C388.13,170.83,219.25,252,217.58,254H9.44v21l254.11-.92C288.22,208.08,393,177.17,388.13,130.06Z" style="fill:#3c4c56"/></g><path d="M389.4,129.08l-9-14.26a1.64,1.64,0,0,0-1.27-.83H.44v3H378.31l7.09,11H.44v3H388.13a1.35,1.35,0,0,0,1.31-.58A1.17,1.17,0,0,0,389.4,129.08Z" style="fill:#3c4c56"/><circle cx="198.33" cy="152.33" r="7.67" style="fill:#3c4c56"/><g style="opacity:0.25;mix-blend-mode:multiply"><circle cx="198.33" cy="152.33" r="4.98" style="fill:#3c4c56"/></g><path d="M198.33,161a8.67,8.67,0,1,1,8.67-8.67A8.68,8.68,0,0,1,198.33,161Zm0-15.33a6.67,6.67,0,1,0,6.67,6.67A6.67,6.67,0,0,0,198.33,145.67Z" style="fill:#3c4c56"/><circle cx="153.25" cy="152.33" r="7.67" style="fill:#3c4c56"/><g style="opacity:0.25;mix-blend-mode:multiply"><circle cx="153.25" cy="152.33" r="4.98" style="fill:#3c4c56"/></g><path d="M153.25,161a8.67,8.67,0,1,1,8.67-8.67A8.68,8.68,0,0,1,153.25,161Zm0-15.33a6.67,6.67,0,1,0,6.67,6.67A6.67,6.67,0,0,0,153.25,145.67Z" style="fill:#3c4c56"/><circle cx="108.17" cy="152.33" r="7.67" style="fill:#3c4c56"/><g style="opacity:0.25;mix-blend-mode:multiply"><circle cx="108.17" cy="152.33" r="4.98" style="fill:#3c4c56"/></g><path d="M108.17,161a8.67,8.67,0,1,1,8.67-8.67A8.68,8.68,0,0,1,108.17,161Zm0-15.33a6.67,6.67,0,1,0,6.67,6.67A6.67,6.67,0,0,0,108.17,145.67Z" style="fill:#3c4c56"/><circle cx="63.08" cy="152.33" r="7.67" style="fill:#3c4c56"/><g style="opacity:0.25;mix-blend-mode:multiply"><circle cx="63.08" cy="152.33" r="4.98" style="fill:#3c4c56"/></g><path d="M63.08,161a8.67,8.67,0,1,1,8.67-8.67A8.68,8.68,0,0,1,63.08,161Zm0-15.33a6.67,6.67,0,1,0,6.67,6.67A6.67,6.67,0,0,0,63.08,145.67Z" style="fill:#3c4c56"/><circle cx="18" cy="152.33" r="7.67" style="fill:#3c4c56"/><g style="opacity:0.25;mix-blend-mode:multiply"><circle cx="18" cy="152.33" r="4.98" style="fill:#3c4c56"/></g><path d="M18,161a8.67,8.67,0,1,1,8.67-8.67A8.68,8.68,0,0,1,18,161Zm0-15.33a6.67,6.67,0,1,0,6.67,6.67A6.67,6.67,0,0,0,18,145.67Z" style="fill:#3c4c56"/><polygon points="171.84 16.77 153.38 23.35 156.2 47.77 171.84 56.44 187.71 47.65 190.77 23.23 171.84 16.77" style="fill:#e13236"/><path d="M190.84,23.23,172,16.77V56.44l15.83-8.79Zm-.06,0" style="fill:#b52f31"/><path d="M153.44,23.35l2.85,24.42L172,56.44V16.77Zm-.06,0" style="fill:#e13236"/><path d="M175.79,37.5l-4-8.16-3.4,8.16Zm1.49,4H166.92l-2.32,5.57-4.31,0,11.55-26,12,25.45h-4Zm0-.45" style="fill:#f2f2f2"/><g style="opacity:0.25"><polygon points="233 61.74 129.67 61.74 129.67 57.69 229 57.69 233 61.74" style="fill:#3c4c56"/></g><polygon points="0.44 74 0.44 78 276.33 78 280.33 74 0.44 74" style="fill:#3c4c56"/><polygon points="0.44 62 65.33 62 61.33 58 0.44 58 0.44 62" style="fill:#3c4c56;opacity:0.25;mix-blend-mode:multiply"/><polygon points="0.44 92 286 92 276 78 0.44 78 0.44 92" style="fill:#3c4c56;opacity:0.25;mix-blend-mode:multiply"/><path d="M480.24,115.16V64.84c0-2.58,1.5-4,4.08-4h3a5.51,5.51,0,0,1,4.92,2.5L515.65,95.5V64.84c0-2.58,1.5-4,4.08-4h5.17c2.58,0,4,1.42,4,4v50.32c0,2.58-1.42,4-4,4h-3a5.36,5.36,0,0,1-4.83-2.5L493.49,84.17v31c0,2.58-1.42,4-4,4h-5.17C481.74,119.16,480.24,117.74,480.24,115.16Z" style="fill:#0583c9"/><path d="M538.39,90.08c0-16.49,13.16-30.16,31.41-30.16a33.54,33.54,0,0,1,17.66,4.5c2.25,1.42,2.5,3.5,1,5.58l-2.08,2.66c-1.5,2.08-3.25,2.25-5.58,1.17a21.67,21.67,0,0,0-11-2.41c-10.41,0-18.16,8.25-18.16,18.58,0,9.83,6.75,18.58,18.74,18.58a22.47,22.47,0,0,0,10.17-2.34v-9H570.46c-2.58,0-4.08-1.42-4.08-4V91.42c0-2.58,1.5-4,4.08-4h18.41c2.58,0,4.08,1.42,4.08,4v16.83a5.76,5.76,0,0,1-2.58,5.08,33.58,33.58,0,0,1-20.24,6.75C551.3,120.07,538.39,106.41,538.39,90.08Z" style="fill:#0583c9"/><path d="M601.78,93.58V86.42a1.89,1.89,0,0,1,2.08-2.08h25.58a1.89,1.89,0,0,1,2.08,2.08v7.17a1.89,1.89,0,0,1-2.08,2.08H603.86A1.89,1.89,0,0,1,601.78,93.58Z" style="fill:#0583c9"/><path d="M639.59,90c0-16.25,12.25-30.08,32-30.08a29.86,29.86,0,0,1,17.83,5.5c2.08,1.42,2.33,3.5.83,5.58l-2.08,2.58c-1.5,2.08-3.33,2.08-5.58.75a22.64,22.64,0,0,0-11-2.92c-11.66,0-18.74,8.33-18.74,18.58s7.08,18.58,18.74,18.58a22.61,22.61,0,0,0,11-2.92c2.25-1.33,4.08-1.33,5.58.75l2.08,2.58c1.5,2.17,1.42,4-.42,5.33a29.78,29.78,0,0,1-18.25,5.75C651.84,120.07,639.59,106.24,639.59,90Z" style="fill:#0583c9"/><path d="M721.48,98.33h-7.75v16.83c0,2.58-1.42,4-4,4h-5.16c-2.58,0-4.08-1.42-4.08-4V64.84c0-2.58,1.5-4,4.08-4H727c12.41,0,19.33,8.83,19.33,19.41,0,8.58-4.75,15.33-12.91,17.41.67,5.91,4,11.83,8.83,11.83a8.32,8.32,0,0,0,3.83-.67c2.42-.83,3.41-.33,4.5,1.92l.75,1.66c1.08,2.25.83,4.17-1.25,5.33a21.8,21.8,0,0,1-10,2.33C725.65,120.07,722.15,104.91,721.48,98.33Zm3.67-9.49c4.75,0,7.75-3.67,7.75-8.33,0-4.83-3.08-8.5-7.75-8.5H713.74V88.84Z" style="fill:#0583c9"/><path d="M757.89,97.08V64.84c0-2.58,1.5-4,4.08-4h5.17c2.58,0,4,1.42,4,4V97.08c0,7.58,5,11.5,10.91,11.5s11-3.92,11-11.5V64.84c0-2.58,1.5-4,4.08-4h5.17c2.58,0,4,1.42,4,4V97.08c0,15-11.08,23-24.25,23S757.89,112.08,757.89,97.08Z" style="fill:#0583c9"/><path d="M818.53,115.16V64.84c0-2.58,1.5-4,4.08-4h5.17c2.58,0,4,1.42,4,4v50.32c0,2.58-1.42,4-4,4h-5.17C820,119.16,818.53,117.74,818.53,115.16Z" style="fill:#0583c9"/><path d="M841.52,107.5c-1.08-2.5.25-4.25,2.83-4.91l3.59-.83c2.33-.58,3.58.42,4.91,2.58,1.92,3.08,5.58,5.17,10.49,5.17,5.67,0,9.42-2.5,9.42-6.33,0-2.92-2.25-5.25-6.66-6.75l-7.58-2.75C851.6,91.42,843.1,86.25,843,77.25c0-10.66,9.25-17.33,20.66-17.33,9.08,0,15.49,4,18.66,10.66,1.25,2.42.08,4.33-2.41,5.08l-3.34.92c-2.33.66-3.75-.25-5.17-2.25-1.5-2.5-4.08-3.83-7.58-3.83-4.17,0-7.75,2.08-7.75,5.91,0,2.08.92,4.33,6.08,6.25l7.58,2.75c11.41,3.83,15.66,9.83,15.83,17.16,0,11.41-9.75,17.49-22.16,17.49C852.52,120.07,844.6,115.24,841.52,107.5Z" style="fill:#0583c9"/><path d="M908.24,72V85.17h18.83c2.58,0,4,1.42,4,4v2.25c0,2.58-1.42,4.08-4,4.08H908.24V108h22.25c2.58,0,4,1.41,4,4v3.17c0,2.58-1.41,4-4,4H899.08c-2.58,0-4.08-1.42-4.08-4V64.84c0-2.58,1.5-4,4.08-4h31.41c2.58,0,4,1.42,4,4V68c0,2.58-1.41,4-4,4Z" style="fill:#0583c9"/></g></svg>