<?xml version="1.0" encoding="utf-8"?>
<!-- Generator: Adobe Illustrator 20.1.0, SVG Export Plug-In . SVG Version: 6.00 Build 0)  -->
<svg version="1.1" id="Layer_1" xmlns="http://www.w3.org/2000/svg" xmlns:xlink="http://www.w3.org/1999/xlink" x="0px" y="0px"
	 viewBox="0 0 362.3 180" style="enable-background:new 0 0 362.3 180;" xml:space="preserve">
<style type="text/css">
	.st0{fill:#83D6F2;}
	.st1{opacity:0.5;}
	.st2{fill:#90D5F4;}
	.st3{fill:#FFC300;}
	.st4{fill:#EF4457;}
	.st5{fill:#A5D36A;}
	.st6{fill:#9785E7;}
	.st7{fill:#3C4C56;}
	.st8{fill:#FFFFFF;}
	.st9{opacity:0.25;}
	.st10{opacity:0.15;}
	.st11{opacity:0.25;fill:#3C4C56;enable-background:new    ;}
	.st12{fill:#0583C9;}
</style>
<title>NG-Cruise-Final</title>
<g>
	<path class="st0" d="M-2,162.1V179h346.4C237.6,161.2,124.5,150.4-2,162.1z"/>
	<g class="st1">
		<path class="st2" d="M364,127.4c-49.4,0.4-99.4,0-149.5-1.4c50,10.4,100,19.2,149.5,26.6V127.4z"/>
	</g>
	<polygon class="st3" points="65.5,60.5 65.5,52.7 72.3,56.6 	"/>
	<path class="st3" d="M65.5,61c-0.3,0-0.5-0.2-0.5-0.5v-7.8c0-0.3,0.2-0.5,0.5-0.5c0.1,0,0.2,0,0.2,0.1l6.8,3.9
		c0.2,0.1,0.3,0.4,0.2,0.7c0,0.1-0.1,0.1-0.2,0.2L65.8,61C65.7,61,65.6,61,65.5,61z M66,53.5v6.1l5.3-3.1L66,53.5z"/>
	<polygon class="st4" points="49.5,52.8 49.2,44.9 56.2,48.6 	"/>
	<path class="st4" d="M49.5,53.3c-0.3,0-0.5-0.2-0.5-0.5L48.7,45c0-0.3,0.2-0.5,0.5-0.5c0.1,0,0.2,0,0.2,0.1l6.9,3.7
		c0.2,0.1,0.3,0.4,0.2,0.7c0,0.1-0.1,0.1-0.2,0.2l-6.6,4.2C49.7,53.3,49.6,53.3,49.5,53.3z M49.8,45.8l0.2,6.1l5.2-3.3L49.8,45.8z"
		/>
	<polygon class="st5" points="32.5,43.7 32.5,35.8 39.3,39.8 	"/>
	<path class="st5" d="M32.5,44.2c-0.3,0-0.5-0.2-0.5-0.5v-7.8c0-0.3,0.2-0.5,0.5-0.5c0.1,0,0.2,0,0.2,0.1l6.8,3.9
		c0.2,0.1,0.3,0.4,0.2,0.7c0,0.1-0.1,0.1-0.2,0.2l-6.8,3.9C32.7,44.2,32.6,44.2,32.5,44.2z M33,36.7v6.1l5.3-3.1L33,36.7z"/>
	<polygon class="st6" points="15.6,33.5 16.1,25.7 22.7,30 	"/>
	<path class="st6" d="M15.6,34c-0.3,0-0.5-0.2-0.5-0.5l0,0l0.5-7.8c0-0.3,0.3-0.5,0.5-0.5c0.1,0,0.2,0,0.2,0.1l6.5,4.4
		c0.2,0.2,0.3,0.5,0.1,0.7c0,0.1-0.1,0.1-0.2,0.2l-7,3.5C15.8,34,15.7,34,15.6,34z M16.6,26.6l-0.4,6.1l5.4-2.7L16.6,26.6z"/>
	<polygon class="st3" points="-0.5,23.4 0,15.6 6.5,19.9 	"/>
	<path class="st3" d="M-0.5,23.9c-0.3,0-0.5-0.2-0.5-0.5l0,0l0.5-7.8c0-0.3,0.3-0.5,0.5-0.5c0.1,0,0.2,0,0.2,0.1l6.5,4.4
		c0.3,0,0.4,0.4,0.2,0.6c0,0.1-0.1,0.1-0.2,0.2l-7,3.5C-0.3,23.9-0.4,23.9-0.5,23.9z M0.5,16.4l-0.4,6.1l5.5-2.7L0.5,16.4z"/>
	<path class="st7" d="M-2,11.2V15c26.9,20.3,72.7,43.5,89.3,49.5l1-2.8C71.5,55.5,24.4,31.6-2,11.2z"/>
	<polygon class="st8" points="-2,139.3 114.5,139.3 69.6,77.8 -2,77.8 	"/>
	<path class="st7" d="M115.7,138.5L70.8,76.9c-0.3-0.4-0.7-0.6-1.2-0.6H-2v3h70.8l42.8,58.6H-2v3h116.5c0.3,0,0.6-0.1,0.9-0.3
		C116.1,140.1,116.2,139.1,115.7,138.5z"/>
	<g class="st9">
		<polygon class="st7" points="-2,139.3 115.5,139.3 103.5,124.7 -2,124.7 		"/>
	</g>
	<polygon class="st8" points="-2,15.7 -2,64.3 29.6,64.3 	"/>
	<path class="st7" d="M30.8,63.5L-2,13v5.5l28.8,44.3H-2v3h31.6l0,0c0.3,0,0.6-0.1,0.8-0.2C31.1,65.1,31.3,64.1,30.8,63.5z"/>
	<polygon class="st7" points="-2,15.7 -2,35 10.6,35 	"/>
	<polygon class="st8" points="-2,62.9 -2,77.8 69.6,77.8 87.6,62.9 	"/>
	<path class="st7" d="M87.6,61.4H-2v3h85.4L69.1,76.3H-2v3h71.6c0.4,0,0.7-0.1,1-0.3l18-14.8c0.4-0.3,0.6-0.7,0.5-1.2
		C89.1,62.1,88.4,61.4,87.6,61.4z"/>
	<path class="st7" d="M62.3,106.7l-8.1-14.5c-0.3-0.6-0.9-0.9-1.6-0.9H-2v18.1h62.7c0.3,0,0.6-0.1,0.9-0.2
		C62.4,108.7,62.8,107.6,62.3,106.7z"/>
	<path class="st7" d="M63.2,106.2l-8.1-14.5c-0.5-0.9-1.4-1.4-2.5-1.4H-2v2h54.6c0.3,0,0.6,0.2,0.7,0.4l8.1,14.5
		c0.1,0.1,0.1,0.3,0.1,0.4c0,0.4-0.4,0.8-0.8,0.8H-2v2h62.7l0,0c0.5,0,0.9-0.1,1.4-0.4C63.4,109.3,63.9,107.6,63.2,106.2z"/>
	<path class="st8" d="M153.2,179c17.7-14.8,30.1-29.7,30.1-49H-2v49H153.2z"/>
	<path class="st7" d="M150.2,179h4.7c17.5-14.8,29.9-29.9,29.9-49.5c0-0.8-0.7-1.5-1.5-1.5H-2v3h183.7
		C181.1,149.7,168.1,164.4,150.2,179z"/>
	<g class="st1">
		<path class="st7" d="M42.5,158.4l5.3-13.6c0.2-0.5,0.7-0.9,1.3-0.9h1.6c0.6,0,1.1,0.3,1.3,0.9l5.3,13.6c0.3,0.7,0,1.2-0.9,1.2
			h-1.5c-0.6,0-1.1-0.3-1.3-0.9l-0.8-2.1h-6.1l-0.8,2c-0.2,0.5-0.7,0.9-1.2,0.9h-1.4C42.5,159.6,42.2,159.1,42.5,158.4z M52.1,153.9
			l-2.3-6.3l-2.4,6.3H52.1z"/>
		<path class="st7" d="M59.1,158.5v-9.4c0-0.6,0.4-1,0.9-1.1c0.1,0,0.1,0,0.2,0h1.3c0.6,0,1,0.4,1.1,0.9c0,0.1,0,0.1,0,0.2v0.8
			c0.6-1.4,2-2.2,3.5-2.1c3.1,0,4.2,2.4,4.2,5.1v5.6c0,0.6-0.4,1-0.9,1.1c-0.1,0-0.1,0-0.2,0h-1.3c-0.6,0-1-0.4-1.1-0.9
			c0-0.1,0-0.1,0-0.2v-5.3c0-1.6-0.6-2.6-1.8-2.6c-1.2,0-2.4,0.9-2.4,3.1v4.8c0,0.6-0.4,1-0.9,1.1c-0.1,0-0.1,0-0.2,0h-1.4
			c-0.6,0-1-0.4-1.1-0.9C59.1,158.6,59.1,158.6,59.1,158.5z"/>
		<path class="st7" d="M74,163.9c-0.5-0.2-0.7-0.8-0.5-1.3c0-0.1,0.1-0.1,0.1-0.1l0.3-0.5c0.2-0.5,0.8-0.7,1.3-0.5
			c0,0,0.1,0,0.1,0.1c0.9,0.5,1.8,0.7,2.8,0.7c1.7,0.2,3.2-1,3.4-2.7c0-0.2,0-0.4,0-0.6v-1c-0.8,1.2-2.2,1.9-3.7,1.9
			c-3.3,0-5.5-2.7-5.5-6s2.3-6,5.5-6c1.5-0.1,2.9,0.6,3.7,1.9v-0.6c0-0.6,0.4-1,1.1-1h1.2c0.6,0,1,0.4,1.1,0.9c0,0.1,0,0.1,0,0.2
			v9.6c0,4.4-2.9,6.1-6.4,6.1C76.9,165,75.4,164.6,74,163.9z M81.5,153.9c0.2-1.6-1.1-3.1-2.7-3.3c-0.1,0-0.2,0-0.3,0
			c-1.8,0.2-3.1,1.9-2.8,3.7c0.2,1.5,1.4,2.6,2.8,2.8c1.7,0,3-1.3,3-3C81.5,154.1,81.5,153.9,81.5,153.9L81.5,153.9z"/>
		<path class="st7" d="M87.5,154.7v-5.6c0-0.6,0.4-1,0.9-1.1c0.1,0,0.1,0,0.2,0h1.3c0.6,0,1,0.4,1.1,0.9c0,0.1,0,0.1,0,0.2v5.3
			c0,1.6,0.6,2.6,1.8,2.6s2.4-0.9,2.4-3.1v-4.8c0-0.6,0.4-1,0.9-1.1c0.1,0,0.1,0,0.2,0h1.3c0.5-0.1,1,0.3,1.1,0.9c0,0.1,0,0.1,0,0.2
			v9.4c0,0.6-0.4,1-0.9,1.1c-0.1,0-0.1,0-0.2,0h-1.3c-0.6,0-1-0.4-1.1-0.9c0-0.1,0-0.1,0-0.2v-0.7c-0.6,1.4-2,2.2-3.5,2.1
			C88.6,159.9,87.5,157.4,87.5,154.7z"/>
		<path class="st7" d="M101.5,158.5v-14.1c0-0.6,0.4-1,0.9-1.1c0.1,0,0.1,0,0.2,0h1.3c0.5-0.1,1,0.3,1.1,0.9c0,0.1,0,0.1,0,0.2v14.1
			c0,0.6-0.4,1-0.9,1.1c-0.1,0-0.1,0-0.2,0h-1.3c-0.6,0-1-0.4-1.1-0.9C101.5,158.7,101.5,158.6,101.5,158.5z"/>
		<path class="st7" d="M107.2,153.8c0-3.4,2.3-6,5.5-6c1.5-0.1,2.9,0.6,3.7,1.9v-0.6c0-0.6,0.4-1,0.9-1.1c0.1,0,0.1,0,0.2,0h1.3
			c0.6,0,1,0.4,1.1,0.9c0,0.1,0,0.1,0,0.2v9.4c0,0.6-0.4,1-0.9,1.1c-0.1,0-0.1,0-0.2,0h-1.3c-0.6,0-1-0.4-1.1-0.9c0-0.1,0-0.1,0-0.2
			V158c-0.8,1.2-2.2,1.9-3.7,1.9C109.5,159.9,107.2,157.3,107.2,153.8z M116.5,153.8c0.1-1.7-1.1-3.1-2.7-3.2c-0.1,0-0.1,0-0.2,0
			c-1.6,0-2.9,1.4-2.9,3c0,0.1,0,0.2,0,0.3c0,1.8,1.1,3.2,2.9,3.2c1.7,0,3-1.4,2.9-3.1C116.4,153.9,116.4,153.9,116.5,153.8
			L116.5,153.8z"/>
		<path class="st7" d="M122.7,158.5v-9.4c0-0.6,0.4-1,0.9-1.1c0.1,0,0.1,0,0.2,0h1.2c0.6,0,1,0.4,1.1,0.9c0,0.1,0,0.1,0,0.2v1.4
			c0.2-1.5,1.5-2.7,3-2.8h0.4c0.5,0,0.6,0.5,0.6,0.9v1.6c0,0.6-0.3,0.9-0.8,0.8c-0.2,0-0.4,0-0.6,0c-1.4,0-2.6,0.9-2.6,3.8v3.6
			c0,0.6-0.4,1-0.9,1.1c-0.1,0-0.1,0-0.2,0h-1.3c-0.5,0.1-1-0.3-1.1-0.9C122.7,158.7,122.7,158.6,122.7,158.5z"/>
	</g>
	<g class="st10">
		<path class="st7" d="M152.4,179c19.1-15.8,32.7-31.2,30.9-48.9c0,13.4-18.2,31.1-42.7,48.9H152.4z"/>
	</g>
	<path class="st7" d="M184.6,129.1l-9-14.3c-0.3-0.5-0.7-0.8-1.3-0.8H-2v3h175.5l7.1,11H-2v3h185.3c0.5,0.1,1-0.2,1.3-0.6
		C184.9,130,184.9,129.5,184.6,129.1z"/>
	<path class="st7" d="M-2,146.1v12.4c1.9-1.4,3.2-3.6,3.2-6.2S-0.1,147.5-2,146.1z"/>
	<g class="st9">
		<path class="st7" d="M-2,150.2v4.2c0.3-0.6,0.5-1.3,0.5-2.1C-1.5,151.6-1.7,150.9-2,150.2z"/>
	</g>
	<path class="st7" d="M-2,144.9v2.5c1.3,1.2,2.2,3,2.2,4.9s-0.8,3.7-2.2,4.9v2.5c2.5-1.5,4.2-4.3,4.2-7.4
		C2.2,149.2,0.5,146.5-2,144.9z"/>
	<g class="st9">
		<polygon class="st7" points="-2,61.7 28.2,61.7 24.2,57.7 -2,57.7 		"/>
	</g>
	<polygon class="st7" points="-2,74 -2,78 71.5,78 75.5,74 	"/>
	<polygon class="st11" points="-2,92 81.2,92 71.2,78 -2,78 	"/>
</g>
<g>
	<path class="st12" d="M124.3,88.4V65.6c0-1.2,0.7-1.8,1.9-1.8h1.4c0.9,0,1.7,0.4,2.2,1.1l10.6,14.6V65.6c0-1.2,0.7-1.8,1.9-1.8h2.3
		c1.2,0,1.8,0.6,1.8,1.8v22.8c0,1.2-0.6,1.8-1.8,1.8h-1.4c-0.9,0-1.7-0.4-2.2-1.1l-10.7-14.7v14.1c0,1.2-0.6,1.8-1.8,1.8h-2.3
		C125,90.2,124.3,89.6,124.3,88.4z"/>
	<path class="st12" d="M150.7,77c0-7.5,6-13.7,14.2-13.7c2.8-0.1,5.6,0.6,8,2c1,0.6,1.1,1.6,0.5,2.5l-0.9,1.2
		c-0.7,0.9-1.5,1-2.5,0.5c-1.5-0.8-3.3-1.2-5-1.1c-4.7,0-8.2,3.7-8.2,8.4c0,4.5,3.1,8.4,8.5,8.4c1.6,0,3.2-0.4,4.6-1.1V80h-4.6
		c-1.2,0-1.9-0.6-1.9-1.8v-0.8c0-1.2,0.7-1.8,1.9-1.8h8.3c1.2,0,1.9,0.6,1.9,1.8V85c0,0.9-0.4,1.8-1.2,2.3c-2.6,2-5.9,3.1-9.2,3.1
		C156.6,90.6,150.7,84.4,150.7,77z"/>
	<path class="st12" d="M179.5,78.6v-3.2c-0.1-0.5,0.3-0.9,0.8-0.9c0.1,0,0.1,0,0.2,0H192c0.5-0.1,0.9,0.3,0.9,0.8c0,0.1,0,0.1,0,0.2
		v3.3c0.1,0.5-0.3,0.9-0.8,0.9c-0.1,0-0.1,0-0.2,0h-11.6c-0.5,0.1-0.9-0.3-0.9-0.8C179.4,78.7,179.4,78.7,179.5,78.6z"/>
	<path class="st12" d="M196.6,77c0-7.4,5.6-13.6,14.5-13.6c2.9-0.1,5.7,0.8,8.1,2.5c0.9,0.6,1.1,1.6,0.4,2.5l-0.9,1.2
		c-0.7,0.9-1.5,0.9-2.5,0.3c-1.5-0.9-3.2-1.3-5-1.3c-5.3,0-8.5,3.8-8.5,8.4s3.2,8.4,8.5,8.4c1.7,0,3.5-0.5,5-1.3
		c1-0.6,1.9-0.6,2.5,0.3l0.9,1.2c0.7,1,0.6,1.8-0.2,2.4c-2.4,1.8-5.3,2.7-8.3,2.6C202.2,90.6,196.6,84.4,196.6,77z"/>
	<path class="st12" d="M233.7,80.8h-3.5v7.6c0,1.2-0.6,1.8-1.8,1.8h-2.3c-1.2,0-1.9-0.6-1.9-1.8V65.6c0-1.2,0.7-1.8,1.9-1.8h10.2
		c5.6,0,8.8,4,8.8,8.8c0,3.9-2.2,7-5.9,7.9c0.3,2.7,1.8,5.4,4,5.4c0.6,0,1.2-0.1,1.7-0.3c1.1-0.4,1.5-0.1,2,0.9l0.3,0.8
		c0.5,1,0.4,1.9-0.6,2.4c-1.4,0.7-3,1.1-4.5,1.1C235.6,90.6,234,83.8,233.7,80.8z M235.4,76.5c2.2,0,3.5-1.7,3.5-3.8
		c0-2.2-1.4-3.9-3.5-3.9h-5.2v7.6h5.2V76.5z"/>
	<path class="st12" d="M250.2,80.2V65.6c0-1.2,0.7-1.8,1.9-1.8h2.3c1.2,0,1.8,0.6,1.8,1.8v14.6c0,3.4,2.3,5.2,4.9,5.2
		c2.7,0,5-1.8,5-5.2V65.6c0-1.2,0.7-1.8,1.9-1.8h2.3c1.2,0,1.8,0.6,1.8,1.8v14.6c0,6.8-5,10.4-11,10.4
		C255.2,90.6,250.2,87,250.2,80.2z"/>
	<path class="st12" d="M277.7,88.4V65.6c0-1.2,0.7-1.8,1.9-1.8h2.3c1.2,0,1.8,0.6,1.8,1.8v22.8c0,1.2-0.6,1.8-1.8,1.8h-2.3
		C278.4,90.2,277.7,89.6,277.7,88.4z"/>
	<path class="st12" d="M288.2,84.9c-0.5-1.1,0.1-1.9,1.3-2.2l1.6-0.4c1.1-0.3,1.6,0.2,2.2,1.2c0.9,1.4,2.5,2.3,4.8,2.3
		c2.6,0,4.3-1.1,4.3-2.9c0-1.3-1-2.4-3-3.1l-3.4-1.2c-3.1-1-7-3.4-7-7.5c0-4.8,4.2-7.9,9.4-7.9c4.1,0,7,1.8,8.5,4.8
		c0.6,1.1,0,2-1.1,2.3l-1.5,0.4c-1.1,0.3-1.7-0.1-2.3-1c-0.7-1.1-1.9-1.7-3.4-1.7c-1.9,0-3.5,0.9-3.5,2.7c0,0.9,0.4,2,2.8,2.8
		l3.4,1.2c5.2,1.7,7.1,4.5,7.2,7.8c0,5.2-4.4,7.9-10,7.9C293.2,90.6,289.6,88.4,288.2,84.9z"/>
	<path class="st12" d="M318.4,68.8v6h8.5c1.2,0,1.8,0.6,1.8,1.8v1c0,1.2-0.6,1.9-1.8,1.9h-8.5v5.7h10.1c1.2,0,1.8,0.6,1.8,1.8v1.4
		c0,1.2-0.6,1.8-1.8,1.8h-14.2c-1.2,0-1.9-0.6-1.9-1.8V65.6c0-1.2,0.7-1.8,1.9-1.8h14.2c1.2,0,1.8,0.6,1.8,1.8V67
		c0,1.2-0.6,1.8-1.8,1.8H318.4z"/>
</g>
</svg>
