<svg xmlns="http://www.w3.org/2000/svg" width="360" height="180" viewBox="0 0 360 180"><title>the-ember-show</title><g style="isolation:isolate"><path d="M210.5,34v4.46h-6.84V58h-5.08V38.48H192V34Z" style="fill:#e14a31"/><path d="M213.38,58v-25h5V41a6.13,6.13,0,0,1,4.54-1.87c3.78,0,5.83,2.12,5.83,6.41V58h-5V46.33c0-1.87-.4-3.31-2.3-3.31a3.06,3.06,0,0,0-3.06,3.17V58Z" style="fill:#e14a31"/><path d="M247.11,44.42c0,5.44-5.51,6.52-9.86,6.69a3.92,3.92,0,0,0,4.14,3.56,8,8,0,0,0,4.5-1.55l1.44,3.35a11.36,11.36,0,0,1-6.59,2c-6.12,0-8.57-3.82-8.57-9.21s3.06-10.11,9-10.11C244.77,39.17,247.11,41,247.11,44.42Zm-6.23-1.73c-2.45,0-3.74,2.41-3.85,4.9,2.34-.07,5.69-.65,5.69-3.13A1.68,1.68,0,0,0,240.88,42.69Z" style="fill:#e14a31"/><path d="M193.65,77.22h14.94v4.46H198.8v5h8.39v4.46H198.8v5.51h10v4.46H193.65Z" style="fill:#e14a31"/><path d="M212.48,101.16V86.29l-.36-3.38h4.14l.36,2.16a5.85,5.85,0,0,1,5.11-2.7,5.18,5.18,0,0,1,4.93,2.7,5.69,5.69,0,0,1,5.11-2.7c3.6,0,5.69,2.09,5.69,6.37v12.42h-5V89.67c0-1.91-.32-3.46-2.3-3.46-1.73,0-2.74,1.44-2.74,3.17v11.77h-5V89.67c0-1.8-.22-3.46-2.3-3.46-1.76,0-2.7,1.48-2.7,3.28v11.66Z" style="fill:#e14a31"/><path d="M241.89,76.14h5v7.49a6.23,6.23,0,0,1,3.92-1.26c4.46,0,7.2,3.06,7.2,8.82,0,7-3.2,10.51-8.82,10.51a18.09,18.09,0,0,1-7.31-1.51Zm5,21.42a6.36,6.36,0,0,0,2.52.54c2.45,0,3.6-2,3.6-6.23,0-2.88-.58-5.83-3.53-5.83a2.39,2.39,0,0,0-2.59,2.3Z" style="fill:#e14a31"/><path d="M275.47,87.62c0,5.44-5.51,6.52-9.86,6.69a3.92,3.92,0,0,0,4.14,3.56,8,8,0,0,0,4.5-1.55l1.44,3.35a11.36,11.36,0,0,1-6.59,2c-6.12,0-8.57-3.82-8.57-9.21s3.06-10.11,9-10.11C273.14,82.37,275.47,84.2,275.47,87.62Zm-6.23-1.73c-2.45,0-3.74,2.41-3.85,4.9,2.34-.07,5.69-.65,5.69-3.13A1.68,1.68,0,0,0,269.25,85.89Z" style="fill:#e14a31"/><path d="M283.65,101.16h-5V86.07l-.36-3.17h4.07l.47,2.59a4.69,4.69,0,0,1,4.32-3.13,6.47,6.47,0,0,1,3,.65l-.9,4.32a5.49,5.49,0,0,0-2.56-.65,2.94,2.94,0,0,0-3,3.13Z" style="fill:#e14a31"/><path d="M193.94,138.2a14.86,14.86,0,0,0,6.73,2.12c1.69,0,3.31-.54,3.31-2.81,0-1.94-1.84-2.56-4.21-3.2-3.35-.94-6.87-2.38-6.87-7.09s3.56-7.24,8.35-7.24a12.29,12.29,0,0,1,8.5,3.46l-2.7,3.38c-1.91-1.48-3.92-2.52-5.8-2.52-1.4,0-3,.65-3,2.52s1.91,2.56,4.43,3.31c3.28,1,6.73,2.48,6.73,7.2s-3.56,7.45-8.78,7.45a16.86,16.86,0,0,1-8.5-2.38Z" style="fill:#e14a31"/><path d="M213.09,144.36v-25h5v8.1a6.14,6.14,0,0,1,4.54-1.87c3.78,0,5.83,2.12,5.83,6.41v12.38h-5V132.73c0-1.87-.4-3.31-2.3-3.31a3.06,3.06,0,0,0-3.06,3.17v11.77Z" style="fill:#e14a31"/><path d="M240.41,125.57c2.74,0,8.1.86,8.1,9.21,0,6.84-3.82,10.11-8.64,10.11s-8-3.1-8-9.61C231.85,127.76,236.63,125.57,240.41,125.57Zm3,9.75c0-3.89-.83-6.12-3.17-6.12s-3.28,2.23-3.28,5.51.47,6.52,3.2,6.52C242.43,141.22,243.36,139,243.36,135.32Z" style="fill:#e14a31"/><path d="M275.4,126.11a30,30,0,0,1,1.22,8c0,6.59-2.56,10.73-7.92,10.73-2.66,0-4.1-1.12-4.89-2.74a6.65,6.65,0,0,1-5.72,2.74c-4,0-6.23-2.09-6.23-6.37V126.11h5v11.48c0,2,.22,3.42,2,3.42a2.8,2.8,0,0,0,2.74-3V126.11h5v11.34c0,2.05.07,3.56,2,3.56,2.63,0,3.1-3.71,3.1-6.73a34.37,34.37,0,0,0-1.19-8.17Z" style="fill:#e14a31"/><rect x="117.08" y="89.27" width="20.65" height="17.57" style="fill:#af8052;stroke:#7e4a21;stroke-miterlimit:10;stroke-width:2px"/><rect x="98.56" y="101.98" width="57.69" height="18.94" style="fill:#af8052"/><rect x="154.67" y="122.27" width="12.39" height="47" style="fill:#af8052;stroke:#7e4a21;stroke-miterlimit:10;stroke-width:2px"/><rect x="87.01" y="122.27" width="12.39" height="21.81" style="fill:#af8052;stroke:#7e4a21;stroke-miterlimit:10;stroke-width:2px"/><path d="M149.15,178.43h-44L97.3,101.91h19.8c.47,6.89,3.52,13,9.93,18.1,6.2-4.2,9.47-10.45,10.72-18.1H157Z" style="fill:#fabfb7"/><path d="M95,101.39h0a10,10,0,0,1,10,10v17.27a0,0,0,0,1,0,0H85a0,0,0,0,1,0,0V111.37A10,10,0,0,1,95,101.39Z" style="fill:#fabfb7"/><path d="M159,101.39h0a10,10,0,0,1,10,10v17.27a0,0,0,0,1,0,0h-20a0,0,0,0,1,0,0V111.37a10,10,0,0,1,10-10Z" style="fill:#fabfb7"/><path d="M117.1,101.91c0,10.9,9.34,17.92,9.93,18.1s8.43-5.18,11-18" style="fill:none;stroke:#e08379;stroke-linecap:round;stroke-miterlimit:10;stroke-width:3px"/><line x1="98.71" y1="101.98" x2="116.51" y2="101.98" style="fill:none;stroke:#e08379;stroke-linecap:round;stroke-miterlimit:10;stroke-width:2px"/><line x1="138.05" y1="101.98" x2="155.85" y2="101.98" style="fill:none;stroke:#e08379;stroke-linecap:round;stroke-miterlimit:10;stroke-width:2px"/><path d="M154.9,128.64h14V111.37a10,10,0,0,0-10-10h0a10,10,0,0,0-9.34,6.47" style="fill:none;stroke:#e08379;stroke-linecap:round;stroke-linejoin:round;stroke-width:2px"/><path d="M99.79,128.64H85V111.37a10,10,0,0,1,10-10h0a10,10,0,0,1,9.34,6.47" style="fill:none;stroke:#e08379;stroke-linecap:round;stroke-linejoin:round;stroke-width:2px"/><path d="M150.9,162.56c.13-.39,4-38.65,4-38.65" style="fill:none;stroke:#e08379;stroke-linecap:round;stroke-linejoin:round;stroke-width:2px"/><path d="M160.28,55c-3.15,10.23-.72,19.3-.89,21.54-.55,7.27-9.29,14.62-28,14.26-5.54-.11-18.78-6-19-5.31S160.58,54,160.28,55Z" style="fill:#342924;stroke:#1a1513;stroke-linecap:round;stroke-linejoin:round;stroke-width:2px"/><path d="M117.63,86.65c-.2-1.38-3.42-4.09-3.64-3-.12.58-.33,1.78-.62,3.29a42.22,42.22,0,0,0-4.18-3c-2.54-3.23-9.1-10.61-9.43-9.19-1,4.4-.79,15.95,1.42,21C94.6,105.94,98.63,114,99.73,115.9c-3.66,8.08-1.23,14.25,1.2,16.19.12-.31.28-.69.45-1.09,1.05,3.13,3.94,7.56,4.73,7,1-.72,8.59-7,2-18.23-.14-.24-1,.4-2,1.47.36-.74.69-1.44,1-2.11,6.91-6.85,5.34-12.85,3.55-16.41.85-.33,3.85-1.94,5.07-3.87C117.14,96.68,117.83,88,117.63,86.65Z" style="fill:#342924;stroke:#1a1513;stroke-linecap:round;stroke-linejoin:round;stroke-width:2px"/><path d="M109.92,85.53c-.59,1.44-7.87,9-8.65,10.42" style="fill:none;stroke:#1a1513;stroke-linecap:round;stroke-linejoin:round;stroke-width:2px"/><path d="M97.85,110.45a27.78,27.78,0,0,0,2,5.7c1.26-5.57,6.23-8.67,7.06-12.36" style="fill:none;stroke:#1a1513;stroke-linecap:round;stroke-linejoin:round;stroke-width:2px"/><path d="M97.72,124.54c.39,2.43,1.44,6.23,3.21,7.54,1-3.34,7.15-12.65,7.54-15.14" style="fill:none;stroke:#1a1513;stroke-linecap:round;stroke-linejoin:round;stroke-width:2px"/><path d="M106.11,138c2.29-1.18,5.83-7.41,4.33-12.85" style="fill:none;stroke:#1a1513;stroke-linecap:round;stroke-linejoin:round;stroke-width:2px"/><path d="M105.2,108.15c1.25,1.7,3.41,6.88,3.21,9" style="fill:none;stroke:#1a1513;stroke-linecap:round;stroke-linejoin:round;stroke-width:2px"/><path d="M106.44,92.94c.46,6.1,8,12.06,5,19.54" style="fill:none;stroke:#1a1513;stroke-linecap:round;stroke-linejoin:round;stroke-width:2px"/><path d="M126.84,93.53c-7.6,0-25.15-11.26-25.15-25.15v-20a25.15,25.15,0,0,1,25.15-25.15h0A25.15,25.15,0,0,1,152,48.36v20C152,82.27,134.43,93.53,126.84,93.53Z" style="fill:#af8052;stroke:#7e4a21;stroke-miterlimit:10;stroke-width:2px"/><circle cx="109.03" cy="71.4" r="4.58" style="fill:#d85c72;opacity:0.5;mix-blend-mode:screen"/><circle cx="145.22" cy="71.4" r="4.58" style="fill:#d85c72;opacity:0.5;mix-blend-mode:screen"/><path d="M122.37,71.93c.25,2,2.24,3.51,4.67,3.51s4.42-1.54,4.67-3.51" style="fill:none;stroke:#7e4a21;stroke-linecap:round;stroke-linejoin:round;stroke-width:2px"/><path d="M135.11,59.49c0-1.94,10.15-7.28,14.07,1.66.18,1-1.76,1.3-2.3,1.57S137.44,65.33,135.11,59.49Z" style="fill:#fff"/><path d="M119.43,59.49c0-1.94-10.15-7.28-14.07,1.66-.18,1,1.76,1.3,2.3,1.57S117.09,65.32,119.43,59.49Z" style="fill:#fff"/><path d="M132.8,48.58l.87-.37c.58-.24,1.41-.58,2.4-.93s2.16-.74,3.42-1.09a32.54,32.54,0,0,1,4.06-.9,9.1,9.1,0,0,1,1.14-.09l.35,0h.17l.13,0c.16,0,.33.07.53.12a10.07,10.07,0,0,1,2,.78,12.57,12.57,0,0,1,3,2.16,11.44,11.44,0,0,1,1.64,2c.18.26.29.47.37.62l.13.22a.36.36,0,0,1-.61.38v0l-.13-.2c-.09-.13-.21-.32-.39-.55a10.56,10.56,0,0,0-1.66-1.72,11.45,11.45,0,0,0-2.85-1.75,8.81,8.81,0,0,0-1.74-.53,4.65,4.65,0,0,0-.47-.07l-.13,0h-.06s0,0,0,0h-.16a7.92,7.92,0,0,0-.9.16A31,31,0,0,0,140.09,48c-1.18.45-2.27.91-3.18,1.33s-1.66.8-2.17,1.06l-.83.45a1.29,1.29,0,1,1-1.22-2.26Z" style="fill:#342924"/><path d="M134.3,59.12l.54-.54a5.84,5.84,0,0,1,.67-.6,9,9,0,0,1,1-.73,9.32,9.32,0,0,1,1.22-.72,10.31,10.31,0,0,1,1.46-.63,7,7,0,0,1,.81-.23,5.22,5.22,0,0,1,.85-.18c.29,0,.58-.09.88-.11l.89,0a8.17,8.17,0,0,1,1.77.26,8.08,8.08,0,0,1,1.64.61,7.86,7.86,0,0,1,1.36.92,6.78,6.78,0,0,1,1,1,7.06,7.06,0,0,1,.72,1,4.91,4.91,0,0,1,.45.83l.35.74a.72.72,0,1,1-1.3.61h0l0-.09-.29-.65a3.89,3.89,0,0,0-.37-.72,5.76,5.76,0,0,0-.58-.86,5.46,5.46,0,0,0-.84-.88,6.53,6.53,0,0,0-1.1-.79,6.8,6.8,0,0,0-1.36-.53,6.92,6.92,0,0,0-1.5-.25h-.77c-.26,0-.51.06-.77.08a4.32,4.32,0,0,0-.75.14,6,6,0,0,0-.72.19,9.18,9.18,0,0,0-1.32.53,8.26,8.26,0,0,0-1.12.62,8,8,0,0,0-.87.62,5.05,5.05,0,0,0-.65.55l-.56.53a.52.52,0,0,1-.72-.74Z" style="fill:#342924"/><path d="M150.65,57.09l-1.9,2.18a.72.72,0,1,1-1.09-1l.12-.11,2.36-1.68a.38.38,0,0,1,.51.56Z" style="fill:#342924"/><path d="M146.38,62.36l2.43-1.84a.74.74,0,0,1,.89,1.18l-.16.09-2.8,1.2a.36.36,0,0,1-.36-.62Z" style="fill:#342924"/><circle cx="141.05" cy="60.08" r="3.14" style="fill:#342924"/><circle cx="142.65" cy="58.81" r="0.87" style="fill:#fff"/><path d="M120.17,50.89l-.83-.45c-.51-.26-1.24-.64-2.17-1.06s-2-.89-3.18-1.33a31,31,0,0,0-3.73-1.18,7.92,7.92,0,0,0-.9-.16h-.16s-.05,0,0,0h-.06l-.13,0a4.65,4.65,0,0,0-.47.07,8.81,8.81,0,0,0-1.74.53,11.45,11.45,0,0,0-2.85,1.75,10.56,10.56,0,0,0-1.66,1.72c-.18.22-.3.42-.39.55l-.13.2v0a.36.36,0,0,1-.61-.38l.13-.22c.08-.14.2-.36.37-.62a11.44,11.44,0,0,1,1.64-2,12.57,12.57,0,0,1,3-2.16,10.07,10.07,0,0,1,2-.78c.2-.06.36-.09.53-.12l.13,0h.17l.35,0a9.1,9.1,0,0,1,1.14.09,32.54,32.54,0,0,1,4.06.9c1.27.35,2.43.74,3.42,1.09s1.81.69,2.4.93l.87.37a1.29,1.29,0,0,1-1,2.36Z" style="fill:#342924"/><path d="M119.07,59.86l-.56-.53a5.05,5.05,0,0,0-.65-.55,8,8,0,0,0-.87-.62,8.26,8.26,0,0,0-1.12-.62,9.18,9.18,0,0,0-1.32-.53,6,6,0,0,0-.72-.19,4.32,4.32,0,0,0-.75-.14c-.25,0-.51-.07-.77-.08h-.77a6.92,6.92,0,0,0-1.5.25,6.8,6.8,0,0,0-1.36.53,6.53,6.53,0,0,0-1.1.79,5.46,5.46,0,0,0-.84.88,5.75,5.75,0,0,0-.58.86,3.89,3.89,0,0,0-.37.72l-.29.65,0,.08a.72.72,0,0,1-1.31-.59h0l.35-.74a4.91,4.91,0,0,1,.45-.83,7.06,7.06,0,0,1,.72-1,6.77,6.77,0,0,1,1-1,7.86,7.86,0,0,1,1.36-.92,8.08,8.08,0,0,1,1.64-.61,8.17,8.17,0,0,1,1.77-.26l.89,0c.3,0,.59.07.88.11a5.22,5.22,0,0,1,.85.18,7,7,0,0,1,.81.23,10.31,10.31,0,0,1,1.46.63,9.32,9.32,0,0,1,1.22.72,9,9,0,0,1,1,.73,5.84,5.84,0,0,1,.67.6l.54.54a.52.52,0,0,1-.72.74Z" style="fill:#342924"/><path d="M104,56.52l2.36,1.68a.72.72,0,0,1-.84,1.18l-.12-.11-1.9-2.18a.38.38,0,0,1,.51-.56Z" style="fill:#342924"/><path d="M107.35,63l-2.8-1.2a.74.74,0,0,1,.58-1.36l.16.09,2.43,1.84a.36.36,0,0,1-.36.62Z" style="fill:#342924"/><circle cx="113.03" cy="60.08" r="3.14" style="fill:#342924"/><circle cx="114.64" cy="58.81" r="0.87" style="fill:#fff"/><path d="M116.26,80.3h21.56s-1.3,6.93-11.32,6.93C117.93,87.24,116.26,80.3,116.26,80.3Z" style="fill:#fff"/><path d="M131.36,28.23a6.86,6.86,0,0,1,2.83-3.34c2.46,1.67,34.52,22.91,5.31,67,32.26-28.52,27.85-80.05-5.58-78.58-25.08-13.47-63.82,29-26.26,76.61C89,55.27,122,24.39,122.9,24.79S128.61,26.95,131.36,28.23Z" style="fill:#342924"/><path d="M139.5,92.57a.72.72,0,0,1-.6-1.12c12-18.08,15.1-34.38,9.26-48.45a40.63,40.63,0,0,0-14-17.26A6.1,6.1,0,0,0,132,28.44a.72.72,0,0,1-.4.44.71.71,0,0,1-.59,0c-1.83-.85-4.64-1.94-6.49-2.66l-1.66-.65c-2,1.31-12.74,12-17.7,27.07C101,65.49,102,77.9,108.29,89.55a.72.72,0,0,1-1.2.79C84.38,61.56,89.7,35.4,101.15,21.75c9.25-11,22.46-14.71,32.93-9.2,11.6-.44,20.81,5.6,25.25,16.6C166,45.63,161.47,73.39,140,92.39A.72.72,0,0,1,139.5,92.57Zm-5.31-68.41a.72.72,0,0,1,.4.12l.06,0c5.58,3.79,31.23,24,8.52,63C160.59,69,164,44.59,158,29.69c-4.29-10.62-12.82-16.2-24.05-15.7a.72.72,0,0,1-.37-.08c-9.89-5.31-22.48-1.79-31.33,8.76C91.89,35,86.76,58,104.12,83.82,93.94,56.36,113.91,32.71,118.31,28c3.94-4.25,4.55-4,4.88-3.83s1,.4,1.89.75c1.66.65,4.08,1.58,5.91,2.4a8.17,8.17,0,0,1,2.8-3A.72.72,0,0,1,134.19,24.17Z" style="fill:#1a1513"/><rect x="161.97" y="169.38" width="15.42" height="25.1" rx="7.71" ry="7.71" style="fill:#fceedf"/><path d="M170.34,195.56H169a8.13,8.13,0,0,1-8.12-8.12v-11A8.13,8.13,0,0,1,169,168.3h1.34a8.13,8.13,0,0,1,8.12,8.12v11A8.13,8.13,0,0,1,170.34,195.56ZM169,170.46a6,6,0,0,0-6,6v11a6,6,0,0,0,6,6h1.34a6,6,0,0,0,6-6v-11a6,6,0,0,0-6-6Z" style="fill:#efcdae"/><path d="M93,170.43h71.47a0,0,0,0,1,0,0v22.82a0,0,0,0,1,0,0H93A11.41,11.41,0,0,1,81.6,181.84v0A11.41,11.41,0,0,1,93,170.43Z" style="fill:#435363"/><path d="M165.19,194H92a11.15,11.15,0,0,1-11.14-11.14v-2A11.15,11.15,0,0,1,92,169.71h73.17ZM92,171.15a9.71,9.71,0,0,0-9.7,9.7v2a9.71,9.71,0,0,0,9.7,9.7h71.74V171.15Z" style="fill:#273744"/><path d="M125,193h73.62a0,0,0,0,1,0,0V215.8a0,0,0,0,1,0,0H125a11.41,11.41,0,0,1-11.41-11.41v0A11.41,11.41,0,0,1,125,193Z" transform="translate(360.5 48.28) rotate(90)" style="fill:#435363"/><path d="M168.24,247.63H144V172.3a11.15,11.15,0,0,1,11.14-11.14h2a11.15,11.15,0,0,1,11.14,11.14Zm-22.82-1.44H166.8V172.3a9.71,9.71,0,0,0-9.7-9.7h-2a9.71,9.71,0,0,0-9.7,9.7Z" style="fill:#273744"/><path d="M76.77,130.44h48.69a7.68,7.68,0,0,1,7.68,7.68v34a0,0,0,0,1,0,0H69.09a0,0,0,0,1,0,0v-34A7.68,7.68,0,0,1,76.77,130.44Z" style="fill:#e6e7e7"/><path d="M133.86,172.85H68.37V136a6.25,6.25,0,0,1,6.24-6.24h53a6.25,6.25,0,0,1,6.24,6.24Zm-64.06-1.44h62.62V136a4.81,4.81,0,0,0-4.8-4.8h-53a4.81,4.81,0,0,0-4.8,4.8Z" style="fill:#a3a5a8"/><circle cx="101.12" cy="151.29" r="5.38" style="fill:#fff"/><path d="M95.72,143.31a1.33,1.33,0,0,1-.5.14,1.79,1.79,0,0,1-.63-.06,4.17,4.17,0,0,1-1.46,1.22l-.31.14a3.19,3.19,0,0,1-2.3.1,14.74,14.74,0,0,1-2.33,2.22l-.07,0-.34.2a3.84,3.84,0,0,1-1.74.41l-.24.34,0,0a2.81,2.81,0,0,1-.86.71,1.67,1.67,0,0,1-1.49.17,1.56,1.56,0,0,1-.64,1.11h0s-.08-.08-.1-.07a1.87,1.87,0,0,1-1.53.06,1.47,1.47,0,0,1-.82,1.1,2,2,0,0,1-.37.13,1.54,1.54,0,0,1-.87,0,5.69,5.69,0,0,1-1.55,1.25,2.62,2.62,0,0,1-1.66.3,3.32,3.32,0,0,1-1.5-.67,5.53,5.53,0,0,1-.91.19,1.29,1.29,0,0,1-1.1-.4,1.76,1.76,0,0,1-.34-1.45,1.22,1.22,0,0,1,.65-.9,1.25,1.25,0,0,1,.31-.11,5.18,5.18,0,0,1-.08-.68,3.18,3.18,0,0,1,1.51-3.11l.07,0a2.49,2.49,0,0,1,2-.21,1.51,1.51,0,0,1,.9-1.3l.06,0,.09-.05a1.34,1.34,0,0,1,1.17,0,2.14,2.14,0,0,1,.93-1l.08,0a1.26,1.26,0,0,1,1,0,1.84,1.84,0,0,1,.81-.91,1.42,1.42,0,0,1,.39-.13,1.79,1.79,0,0,1,.63,0l-.14-.36a9.43,9.43,0,0,1-.6-4.21,3.25,3.25,0,0,1,.84-1.68l0,0a2.08,2.08,0,0,1,.56-.42c.39-.2,1.43-.53,2.54.78a5.76,5.76,0,0,1,1.11,3.88,2.8,2.8,0,0,1,1.43.57,4.68,4.68,0,0,1,.53-1.78l0,0A3,3,0,0,1,90,137.54a2.07,2.07,0,0,1,1.93,0,1.52,1.52,0,0,1,.9-1.25,1.39,1.39,0,0,1,1-.14,1.85,1.85,0,0,1,.72-.71,1.41,1.41,0,0,1,.38-.13c.61-.12,1.15.22,1.59,1a6,6,0,0,1,.33.71v0l.07.18a1.62,1.62,0,0,0,.13-.21,1,1,0,0,1,.14-.22,1.49,1.49,0,0,1,.44-.34,1.28,1.28,0,0,1,1.69.49,1.75,1.75,0,0,1,.15,1.75,4.35,4.35,0,0,1-1.63,1.87h0a2.4,2.4,0,0,1-.65.14,1.92,1.92,0,0,1-.78,0l0,.36C96.57,141.55,96.68,142.82,95.72,143.31Z" style="fill:#fff"/><path d="M98.52,137.43a.33.33,0,0,0-.57,0,2.3,2.3,0,0,1-1,1c-.58.23-1-1.09-1-1.09s-.46-1.19-.83-1.12-.58.67-.58.67a4.55,4.55,0,0,0-.1,1.63l-.05.05a9.88,9.88,0,0,0-.78-1.5c-.14-.11-.73.21-.7.51a16.84,16.84,0,0,0,.77,3,5.1,5.1,0,0,1-1.28,1.81c-.75.55-1.2.14-1.2.14s1.9-1.75.92-3.46-2.35-.19-2.47,0a3.84,3.84,0,0,0-.25,3.15c0,.06.13.32.13.32a8.59,8.59,0,0,1-1,1.4s.19-2.91-2-3.09c-1-.06-1.07,1.16-1.07,1.16s1-3.56-.59-5.37c-.73-.86-1.28-.71-1.65-.32a2.3,2.3,0,0,0-.6,1.15,8.43,8.43,0,0,0,.54,3.75c.77,2,1.65,4.47,1.65,4.47a1.82,1.82,0,0,1-.59.85c-.38.22-.81-1-.81-1s-.61-1.94-.79-2.24-.28-.44-.69-.37-.57.73-.57.73-.23,2.08-.2,2.36v.12l-.09,0s-.36-2.48-1.07-2.16-.76,1.34-.76,1.34-.12,1.72-.07,1.89l-.09,0a11.82,11.82,0,0,0-.72-2,.39.39,0,0,0-.58-.09s-.48.18-.45.53a23.85,23.85,0,0,0,.85,3.15,5.22,5.22,0,0,1-1.47,1.78c-.74.39-.91-.13-.91-.13s2.26-2.34.57-3.8a1.53,1.53,0,0,0-1.59,0,2.18,2.18,0,0,0-1,2.19,4.78,4.78,0,0,0,.32,1.43h0a1.19,1.19,0,0,1-.81.27c-.37-.08-.4.2-.4.2s-.12.86.41.81a10.45,10.45,0,0,0,1.3-.26h0a2.65,2.65,0,0,0,1.38.75c1.13.2,2.33-1.31,2.33-1.31l.45-.7s.32.56.83.41.66-.34.47-2.72c0-1.25,0-1.21,0-1.21l0,0a11.65,11.65,0,0,0,1,2.55.81.81,0,0,0,1,.07s.48.11.27-1a8.74,8.74,0,0,1-.12-2.18l.06,0a6.47,6.47,0,0,0,1.33,2.3c.67.45,1.3-.54,1.3-.54a9.57,9.57,0,0,0,.49-.84,3,3,0,0,0,2-.43,9.45,9.45,0,0,0,2.63-2.73,2.18,2.18,0,0,0,2.22.26A3.09,3.09,0,0,0,94.26,142a1,1,0,0,0,.89.54c.6-.05.36-1.35.36-1.35l-.33-2.69.08,0s.79,1.44,1.74,1.26,1.61-1.54,1.61-1.54A.66.66,0,0,0,98.52,137.43ZM75.32,149.58c-.62-1.3-.07-2.29.37-2.16s.64.79.28,1.45S75.32,149.58,75.32,149.58ZM83.78,139s-.25-2.39.43-1.51.36,4.69.36,4.69A24.58,24.58,0,0,1,83.78,139Zm3.76,5.08a1.43,1.43,0,0,1-1.34,1.68,4.16,4.16,0,0,1-.66-1.93c-.28-1.53.93-1.5.93-1.5S87.37,142.47,87.54,144.06Zm3.11-2.33a2,2,0,0,1-.3-1.4c0-1,.6-.77.6-.77a.9.9,0,0,1,.47,1.05A1.44,1.44,0,0,1,90.65,141.73Z" style="fill:#e34d32"/><path d="M69.09,172.14h64.06a0,0,0,0,1,0,0v0a5.3,5.3,0,0,1-5.3,5.3H74.39a5.3,5.3,0,0,1-5.3-5.3v0A0,0,0,0,1,69.09,172.14Z" style="fill:#e6e7e7"/><path d="M128.3,178.16H73.93a5.57,5.57,0,0,1-5.56-5.56v-1.18h65.49v1.18A5.57,5.57,0,0,1,128.3,178.16Zm-58.49-5.3a4.13,4.13,0,0,0,4.12,3.87H128.3a4.13,4.13,0,0,0,4.12-3.87Z" style="fill:#a3a5a8"/></g></svg>