<svg id="Layer_1" data-name="Layer 1" xmlns="http://www.w3.org/2000/svg" viewBox="0 0 360 180"><defs><style>.cls-1{fill:#1d3249;}</style></defs><title>Artboard 1</title><path class="cls-1" d="M60.15,69.85H76.47v4H70.71v30.63h-4.8V73.89H60.15Z"/><path class="cls-1" d="M78.53,69.85h4.8V84.73h6.38V69.85h4.8v34.66h-4.8V88.77H83.33v15.75h-4.8Z"/><path class="cls-1" d="M97.92,69.85h4.8v34.66h-4.8Z"/><path class="cls-1" d="M105.6,94.48h4.8v2.83c0,2.3.86,3.74,2.78,3.74,2.54,0,3.17-1.73,3.17-4,0-2.93-.14-3.89-5.14-8.83-3.07-3.07-5.62-5.86-5.62-10.56,0-5.67,2.64-8.11,7.87-8.11a8.16,8.16,0,0,1,5.62,1.92c.82.77,1.39,2,1.39,4.42v3.26H116V76.43c0-2-.82-3.12-2.69-3.12s-2.88,1.1-2.88,3.79c0,2.35.48,3.79,4.9,8.4,4.7,4.9,5.57,6.58,5.57,10.75,0,5.42-2.11,8.54-7.82,8.54-4.42,0-7.44-1.87-7.44-6.19Z"/><path class="cls-1" d="M123.74,98.85h5.66v5.66h-5.66Z"/><path class="cls-1" d="M131.42,94.38h4.51v3.41c0,1.39.19,3.26,1.82,3.26s2-1.68,2-3.46V69.85h4.8V98.13c0,4.22-2,6.67-6.77,6.67-4,0-6.34-1.2-6.34-6Z"/><path class="cls-1" d="M154.32,69.85h5.57l7.06,34.66h-4.8l-1.58-8.83h-7.49l-1.58,8.83h-4.8Zm-.53,21.79h6.1l-3-16.71h-.1Z"/><path class="cls-1" d="M165,69.85h4.8l5,27.55h.1l5-27.55h4.8l-7.06,34.66H172Z"/><path class="cls-1" d="M190.32,69.85h5.57l7.06,34.66h-4.8l-1.58-8.83h-7.49l-1.58,8.83h-4.8Zm-.53,21.79h6.1l-3-16.71h-.1Z"/><path class="cls-1" d="M204.72,94.48h4.8v2.83c0,2.3.86,3.74,2.78,3.74,2.54,0,3.17-1.73,3.17-4,0-2.93-.14-3.89-5.14-8.83-3.07-3.07-5.62-5.86-5.62-10.56,0-5.67,2.64-8.11,7.87-8.11a8.16,8.16,0,0,1,5.62,1.92c.82.77,1.39,2,1.39,4.42v3.26h-4.51V76.43c0-2-.82-3.12-2.69-3.12s-2.88,1.1-2.88,3.79c0,2.35.48,3.79,4.9,8.4,4.7,4.9,5.57,6.58,5.57,10.75,0,5.42-2.11,8.54-7.83,8.54-4.42,0-7.44-1.87-7.44-6.19Z"/><path class="cls-1" d="M222.48,78.69c0-4.85,1.58-9.12,8.11-9.12,4.75,0,7,2.4,7,6.29v3.46H233v-2.4c0-2.21-.77-3.6-2.78-3.6-2.5,0-3,1.78-3,6v17c0,4.08,1.3,4.8,2.83,4.8,1.78,0,2.93-1.25,2.93-4.13v-2.4h4.51v3.84c0,3.65-1.49,6.43-7.06,6.43-6,0-8-3.22-8-8.59Z"/><path class="cls-1" d="M239.9,69.85h7.44c7,0,7.73,1.87,7.73,9.46,0,4.66-.62,6.67-4.56,7.87v.1c3.26.34,4.37,2,4.37,5.28v7.54a23.84,23.84,0,0,0,.29,4.42h-4.51a6,6,0,0,1-.58-3.12V93.57c0-3.26-.58-4.13-3.74-4.13H244.7v15.07h-4.8Zm4.8,15.55h1.25c3.79,0,4.32-.72,4.32-5.9S250,73.89,247,73.89h-2.3Z"/><path class="cls-1" d="M258.43,69.85h4.8v34.66h-4.8Z"/><path class="cls-1" d="M266.64,69.85h7.92c6.53,0,7.78,1.78,7.78,9.79s-1.25,9.79-7.78,9.79h-3.12v15.07h-4.8Zm4.8,15.55h2.5c3.26,0,3.6-.53,3.6-5.76s-.34-5.76-3.6-5.76h-2.5Z"/><path class="cls-1" d="M283.82,69.85h16.32v4h-5.76v30.63h-4.8V73.89h-5.76Z"/></svg>